<?xml version="1.0" encoding="UTF-8"?>
<svg width="78px" height="48px" viewBox="0 0 78 48" version="1.1" xmlns="http://www.w3.org/2000/svg" xmlns:xlink="http://www.w3.org/1999/xlink">
    <!-- Generator: Sketch 39.1 (31720) - http://www.bohemiancoding.com/sketch -->
    <title>Logo</title>
    <desc>Created with Sketch.</desc>
    <defs></defs>
    <g id="Page-1" stroke="none" stroke-width="1" fill="none" fill-rule="evenodd">
        <g id="Mobile-Portrait" transform="translate(-141.000000, -20.000000)">
            <g id="Group-2">
                <g id="Page-1" transform="translate(141.000000, 20.000000)">
                    <g id="Logo">
                        <path d="M22.303872,25.174944 L21.361152,25.174944 L21.361152,31.364064 L22.284672,31.364064 C23.040192,31.364064 23.615232,31.114464 24.009792,30.616224 C24.405312,30.117024 24.602112,29.404704 24.602112,28.479264 L24.602112,28.046304 C24.602112,27.104544 24.407232,26.390304 24.016512,25.903584 C23.625792,25.417824 23.055552,25.174944 22.303872,25.174944" id="Fill-1" fill="#FEFEFE"></path>
                        <path d="M15.378048,25.21008 C15.163008,25.12464 14.923968,25.07952 14.658048,25.07952 C14.012928,25.07952 13.516608,25.332 13.168128,25.83696 C12.820608,26.34192 12.646848,27.08112 12.646848,28.05264 L12.646848,28.47312 C12.646848,28.95696 12.691968,29.38512 12.783168,29.75664 C12.874368,30.12816 13.005888,30.44016 13.177728,30.69264 C13.349568,30.94512 13.560768,31.13616 13.811328,31.26576 C14.061888,31.39536 14.348928,31.45968 14.671488,31.45968 C14.931648,31.45968 15.166848,31.41552 15.378048,31.33296 C15.690048,31.21008 15.950208,30.99888 16.154688,30.69552 C16.498368,30.18576 16.670208,29.4456 16.670208,28.47312 L16.670208,28.05264 C16.670208,27.08112 16.496448,26.34192 16.147968,25.83696 C15.943488,25.54032 15.686208,25.332 15.378048,25.21008" id="Fill-3" fill="#FEFEFE"></path>
                        <path d="M70.557888,26.865408 C70.869888,27.071808 71.327808,27.263808 71.929728,27.441408 C72.435648,27.598848 72.880128,27.772608 73.264128,27.963648 C73.648128,28.154688 73.968768,28.371648 74.226048,28.613568 C74.482368,28.855488 74.676288,29.127168 74.807808,29.428608 C74.939328,29.730048 75.005568,30.071808 75.005568,30.453888 C75.005568,30.860928 74.925888,31.223808 74.766528,31.542528 C74.608128,31.860288 74.381568,32.129088 74.088768,32.347968 C73.795968,32.566848 73.442688,32.733888 73.027968,32.851008 C72.614208,32.967168 72.153408,33.025728 71.643648,33.025728 C71.337408,33.025728 71.032128,32.999808 70.726848,32.946048 C70.420608,32.893248 70.128768,32.811648 69.851328,32.701248 C69.572928,32.590848 69.315648,32.452608 69.077568,32.287488 C68.839488,32.121408 68.633088,31.926528 68.456448,31.701888 C68.280768,31.476288 68.142528,31.220928 68.042688,30.933888 C67.942848,30.647808 67.892928,30.330048 67.892928,29.982528 L69.810048,29.982528 C69.810048,30.262848 69.854208,30.499968 69.943488,30.695808 C70.032768,30.890688 70.156608,31.049088 70.315968,31.170048 C70.475328,31.291008 70.667328,31.379328 70.891968,31.434048 C71.117568,31.488768 71.368128,31.516608 71.643648,31.516608 C71.889408,31.516608 72.104448,31.490688 72.286848,31.436928 C72.469248,31.384128 72.619968,31.311168 72.739008,31.217088 C72.858048,31.123968 72.945408,31.012608 73.003008,30.883008 C73.060608,30.753408 73.088448,30.615168 73.088448,30.466368 C73.088448,30.305088 73.065408,30.159168 73.018368,30.029568 C72.972288,29.900928 72.882048,29.780928 72.748608,29.670528 C72.614208,29.560128 72.429888,29.451648 72.194688,29.345088 C71.958528,29.239488 71.654208,29.127168 71.280768,29.008128 C70.856448,28.871808 70.456128,28.719168 70.079808,28.549248 C69.704448,28.380288 69.376128,28.179648 69.092928,27.948288 C68.810688,27.715968 68.587968,27.450048 68.424768,27.148608 C68.261568,26.847168 68.179968,26.494848 68.179968,26.091648 C68.179968,25.705728 68.263488,25.352448 68.431488,25.031808 C68.598528,24.711168 68.834688,24.438528 69.138048,24.212928 C69.441408,23.988288 69.802368,23.813568 70.219968,23.687808 C70.638528,23.563008 71.098368,23.500608 71.598528,23.500608 C72.113088,23.500608 72.579648,23.571648 73.000128,23.713728 C73.419648,23.855808 73.778688,24.054528 74.076288,24.308928 C74.372928,24.563328 74.602368,24.865728 74.763648,25.216128 C74.924928,25.566528 75.005568,25.949568 75.005568,26.365248 L73.095168,26.365248 C73.095168,26.170368 73.064448,25.989888 73.003008,25.824768 C72.941568,25.658688 72.847488,25.516608 72.719808,25.397568 C72.592128,25.278528 72.432768,25.186368 72.241728,25.121088 C72.050688,25.054848 71.826048,25.022208 71.566848,25.022208 C71.317248,25.022208 71.099328,25.050048 70.915008,25.104768 C70.729728,25.159488 70.577088,25.236288 70.456128,25.334208 C70.335168,25.432128 70.243968,25.546368 70.182528,25.677888 C70.120128,25.809408 70.089408,25.949568 70.089408,26.098368 C70.089408,26.403648 70.245888,26.659968 70.557888,26.865408 L70.557888,26.865408 Z M65.179008,32.899008 L63.268608,32.899008 L63.268608,25.174848 L62.348928,25.174848 L60.467328,25.174848 L60.467328,23.627328 L62.348928,23.627328 L68.018688,23.627328 L68.018688,25.174848 L65.179008,25.174848 L65.179008,32.899008 Z M59.919168,32.899008 L58.008768,32.899008 L58.008768,28.925568 L54.283968,28.925568 L54.283968,32.899008 L52.373568,32.899008 L52.373568,23.627328 L54.283968,23.627328 L54.283968,27.384768 L58.008768,27.384768 L58.008768,23.627328 L59.919168,23.627328 L59.919168,32.899008 Z M46.482048,30.746688 C46.851648,31.243008 47.392128,31.491648 48.105408,31.491648 C48.334848,31.491648 48.534528,31.476288 48.704448,31.446528 C48.874368,31.416768 49.019328,31.380288 49.140288,31.335168 C49.261248,31.291008 49.362048,31.242048 49.442688,31.189248 C49.523328,31.135488 49.589568,31.083648 49.640448,31.032768 L49.640448,29.434368 L47.901888,29.434368 L47.901888,28.027008 L51.550848,28.027008 L51.550848,31.726848 C51.440448,31.858368 51.289728,31.999488 51.098688,32.150208 C50.907648,32.300928 50.667648,32.441088 50.378688,32.570688 C50.089728,32.700288 49.749888,32.808768 49.357248,32.895168 C48.964608,32.982528 48.513408,33.025728 48.003648,33.025728 C47.405568,33.025728 46.858368,32.926848 46.363968,32.730048 C45.869568,32.532288 45.446208,32.242368 45.093888,31.860288 C44.741568,31.478208 44.468928,31.009728 44.275968,30.453888 C44.082048,29.897088 43.986048,29.260608 43.986048,28.543488 L43.986048,27.995328 C43.986048,27.278208 44.078208,26.640768 44.262528,26.082048 C44.447808,25.524288 44.708928,25.053888 45.045888,24.671808 C45.383808,24.289728 45.791808,23.998848 46.271808,23.799168 C46.751808,23.599488 47.284608,23.500608 47.870208,23.500608 C48.473088,23.500608 48.994368,23.575488 49.433088,23.726208 C49.872768,23.876928 50.239488,24.088128 50.535168,24.359808 C50.829888,24.631488 51.060288,24.955968 51.225408,25.334208 C51.391488,25.711488 51.499008,26.125248 51.550848,26.575488 L49.691328,26.575488 C49.652928,26.342208 49.593408,26.131008 49.512768,25.941888 C49.432128,25.753728 49.321728,25.591488 49.181568,25.458048 C49.041408,25.324608 48.868608,25.221888 48.663168,25.148928 C48.456768,25.076928 48.211968,25.041408 47.927808,25.041408 C47.274048,25.041408 46.776768,25.288128 46.437888,25.782528 C46.098048,26.276928 45.928128,27.010368 45.928128,27.982848 L45.928128,28.543488 C45.928128,29.515008 46.112448,30.249408 46.482048,30.746688 L46.482048,30.746688 Z M41.258688,32.899008 L43.169088,32.899008 L43.169088,23.628288 L41.258688,23.628288 L41.258688,32.899008 Z M38.863488,41.806848 L36.763968,34.846848 L40.962048,34.846848 L38.863488,41.806848 Z M34.537728,32.899008 L34.537728,23.627328 L40.573248,23.627328 L40.573248,25.174848 L36.447168,25.174848 L36.447168,27.569088 L40.115328,27.569088 L40.115328,29.109888 L36.447168,29.109888 L36.447168,32.899008 L34.537728,32.899008 Z M33.597888,32.899008 L27.382848,32.899008 L27.382848,23.627328 L33.584448,23.627328 L33.584448,25.174848 L29.293248,25.174848 L29.293248,27.384768 L32.960448,27.384768 L32.960448,28.880448 L29.293248,28.880448 L29.293248,31.363968 L33.597888,31.363968 L33.597888,32.899008 Z M26.538048,28.479168 C26.538048,29.141568 26.435328,29.743488 26.228928,30.284928 C26.023488,30.825408 25.732608,31.291008 25.357248,31.678848 C24.980928,32.067648 24.532608,32.368128 24.010368,32.580288 C23.488128,32.792448 22.913088,32.899008 22.284288,32.899008 L19.451328,32.899008 L19.451328,23.627328 L22.303488,23.627328 C22.927488,23.627328 23.499648,23.734848 24.019968,23.948928 C24.539328,24.163008 24.985728,24.464448 25.357248,24.853248 C25.728768,25.242048 26.017728,25.707648 26.226048,26.251008 C26.434368,26.794368 26.538048,27.397248 26.538048,28.059648 L26.538048,28.479168 Z M18.606528,28.473408 C18.606528,29.181888 18.510528,29.817408 18.319488,30.379968 C18.128448,30.942528 17.860608,31.419648 17.514048,31.809408 C17.168448,32.200128 16.753728,32.500608 16.268928,32.710848 C15.989568,32.832768 15.691008,32.914368 15.378048,32.965248 C15.150528,33.002688 14.916288,33.025728 14.671488,33.025728 C14.089728,33.025728 13.556928,32.921088 13.073088,32.710848 C12.589248,32.500608 12.171648,32.200128 11.821248,31.809408 C11.471808,31.419648 11.198208,30.942528 11.003328,30.379968 C10.808448,29.817408 10.710528,29.181888 10.710528,28.473408 L10.710528,28.065408 C10.710528,27.360768 10.807488,26.726208 11.000448,26.161728 C11.193408,25.597248 11.464128,25.117248 11.812608,24.722688 C12.160128,24.328128 12.576768,24.025728 13.059648,23.815488 C13.544448,23.605248 14.077248,23.500608 14.658048,23.500608 C14.907648,23.500608 15.146688,23.523648 15.378048,23.562048 C15.686208,23.613888 15.979968,23.695488 16.256448,23.815488 C16.740288,24.025728 17.156928,24.328128 17.504448,24.722688 C17.852928,25.117248 18.123648,25.597248 18.316608,26.161728 C18.509568,26.726208 18.606528,27.360768 18.606528,28.065408 L18.606528,28.473408 Z M4.762368,29.835648 C4.832448,30.196608 4.942848,30.498048 5.093568,30.739968 C5.244288,30.981888 5.439168,31.163328 5.679168,31.284288 C5.919168,31.405248 6.209088,31.465728 6.547968,31.465728 C6.849408,31.465728 7.109568,31.432128 7.328448,31.363968 C7.547328,31.295808 7.729728,31.193088 7.875648,31.054848 C8.022528,30.917568 8.135808,30.744768 8.216448,30.536448 C8.297088,30.328128 8.347968,30.086208 8.369088,29.810688 L10.279488,29.810688 C10.245888,30.281088 10.139328,30.715008 9.961728,31.109568 C9.783168,31.504128 9.537408,31.843008 9.222528,32.125248 C8.908608,32.407488 8.527488,32.628288 8.080128,32.786688 C7.631808,32.946048 7.121088,33.025728 6.547968,33.025728 C5.953728,33.025728 5.419968,32.923008 4.946688,32.716608 C4.473408,32.511168 4.072128,32.215488 3.743808,31.828608 C3.414528,31.442688 3.162048,30.975168 2.985408,30.425088 C2.809728,29.875008 2.721408,29.258688 2.721408,28.575168 L2.721408,27.963648 C2.721408,27.280128 2.812608,26.662848 2.995008,26.110848 C3.177408,25.558848 3.435648,25.090368 3.768768,24.703488 C4.101888,24.317568 4.507008,24.019968 4.982208,23.812608 C5.457408,23.604288 5.988288,23.500608 6.573888,23.500608 C7.150848,23.500608 7.661568,23.582208 8.105088,23.745408 C8.548608,23.908608 8.925888,24.136128 9.235968,24.427008 C9.545088,24.716928 9.787008,25.063488 9.961728,25.464768 C10.135488,25.866048 10.245888,26.301888 10.292928,26.773248 L8.382528,26.773248 C8.360448,26.496768 8.313408,26.252928 8.238528,26.040768 C8.164608,25.828608 8.058048,25.650048 7.917888,25.506048 C7.777728,25.362048 7.597248,25.252608 7.376448,25.177728 C7.155648,25.103808 6.887808,25.066368 6.573888,25.066368 C5.928768,25.066368 5.447808,25.301568 5.131968,25.770048 C4.815168,26.239488 4.657728,26.966208 4.657728,27.951168 L4.657728,28.575168 C4.657728,29.055168 4.692288,29.474688 4.762368,29.835648 L4.762368,29.835648 Z M31.935168,18.838848 L25.411008,18.266688 L22.810368,13.842048 L30.687168,14.706048 L29.157888,9.634368 L16.967808,7.908288 L13.405248,2.298048 L32.963328,5.875968 L36.877248,21.679488 L32.791488,21.679488 L31.935168,18.838848 Z M44.761728,5.875968 L64.321728,2.298048 L60.758208,7.908288 L48.569088,9.634368 L47.037888,14.706048 L54.917568,13.842048 L52.315968,18.266688 L45.789888,18.838848 L44.933568,21.679488 L40.849728,21.679488 L44.761728,5.875968 Z M71.143488,21.679488 L46.653888,21.679488 L47.044608,20.381568 L52.459968,19.907328 L53.305728,19.832448 L53.735808,19.100928 L56.336448,14.677248 L58.000128,11.848128 L54.738048,12.205248 L49.334208,12.797568 L49.842048,11.116608 L60.988608,9.539328 L61.740288,9.432768 L62.147328,8.791488 L65.711808,3.181248 L67.732608,-0.000192 L64.025088,0.677568 L44.465088,4.256448 L43.418688,4.447488 L43.162368,5.480448 L39.152448,21.679488 L38.573568,21.679488 L34.561728,5.480448 L34.306368,4.447488 L33.259968,4.256448 L13.701888,0.677568 L9.996288,-0.000192 L12.015168,3.180288 L15.576768,8.791488 L15.983808,9.432768 L16.736448,9.539328 L27.884928,11.116608 L28.391808,12.797568 L22.988928,12.205248 L19.726848,11.848128 L21.390528,14.677248 L23.991168,19.100928 L24.421248,19.832448 L25.267008,19.907328 L30.680448,20.381568 L31.071168,21.679488 L6.583488,21.679488 C2.947968,21.679488 -0.000192,24.626688 -0.000192,28.263168 C-0.000192,31.898688 2.947968,34.846848 6.583488,34.846848 L35.043648,34.846848 L37.287168,42.282048 L38.863488,47.509248 L40.439808,42.282048 L42.682368,34.846848 L71.143488,34.846848 C74.779008,34.846848 77.727168,31.898688 77.727168,28.263168 C77.727168,24.626688 74.779008,21.679488 71.143488,21.679488 L71.143488,21.679488 Z" id="logo" fill="#FFFFFF"></path>
                    </g>
                </g>
            </g>
        </g>
    </g>
</svg>