<?xml version="1.0" encoding="UTF-8"?>
<svg width="77px" height="80px" viewBox="0 0 77 80" version="1.1" xmlns="http://www.w3.org/2000/svg" xmlns:xlink="http://www.w3.org/1999/xlink">
    <!-- Generator: Sketch 39.1 (31720) - http://www.bohemiancoding.com/sketch -->
    <title>Imported Layers Copy</title>
    <desc>Created with Sketch.</desc>
    <defs>
        <path d="M70.7861366,17.990073 L42.1049604,3.76817518 C39.4273014,2.88058394 36.8915991,1.73547445 34.5090919,0.377226277 L0.0715698561,17.0732847 C1.30067862,23.5480292 2.416222,30.039708 2.61377846,36.6020438 C6.71041337,49.3588321 15.6578284,65.320292 35.2105947,73.8983942 C71.5834603,57.9924088 70.7861366,17.990073 70.7861366,17.990073" id="path-1"></path>
    </defs>
    <g id="Page-1" stroke="none" stroke-width="1" fill="none" fill-rule="evenodd">
        <g id="Landing_new-03-1920" transform="translate(-830.000000, -2066.000000)">
            <g id="Modes" transform="translate(-1.000000, 1593.000000)">
                <g id="Group-10-Copy-3" transform="translate(810.000000, 452.000000)">
                    <g id="Imported-Layers-Copy" transform="translate(21.000000, 21.000000)">
                        <path d="M2.11397244,21.239708 L37.8492156,3.91416058 L73.7435687,21.7127007 C73.7435687,21.7127007 74.5408924,61.7150365 38.1680268,77.6210219 C2.27426526,61.8727007 2.11397244,21.239708 2.11397244,21.239708" id="Fill-1" fill="#00A6AF"></path>
                        <g id="Group-204" transform="translate(2.957432, 3.503650)">
                            <mask id="mask-2" fill="white">
                                <use xlink:href="#path-1"></use>
                            </mask>
                            <g id="Clip-3"></g>
                            <path d="M18.6519326,-1.15678832 C17.5641891,-0.854306569 16.4776285,-0.546569343 15.3946169,-0.228321168 C15.3975743,-0.161167883 15.4005318,-0.0934306569 15.4135445,-0.0274452555 C15.4833399,0.585109489 15.9724991,1.07211679 16.5054284,1.34423358 C17.6109165,1.83708029 19.0298924,0.84379562 18.8991739,-0.35270073 C18.8938505,-0.644671533 18.8015786,-0.918540146 18.6519326,-1.15678832" id="Fill-2" fill="#00CD79" mask="url(#mask-2)"></path>
                            <path d="M20.6730417,-1.01313869 C21.7791213,-1.63678832 23.2749904,-0.62189781 23.2034205,0.593868613 C23.1643824,1.31036496 22.6852784,2.04613139 21.9559757,2.2329927 C21.3295916,2.3410219 20.6109356,2.28554745 20.1744186,1.77576642 C19.2901464,0.999124088 19.6160554,-0.551240876 20.6730417,-1.01313869" id="Fill-4" fill="#00CD79" mask="url(#mask-2)"></path>
                            <path d="M25.1263429,-0.244087591 C26.211129,-0.629489051 27.581603,0.19270073 27.5194969,1.37751825 C27.5922497,2.21722628 26.8883809,2.9080292 26.1366017,3.16613139 C25.0819814,3.35065693 23.8942767,2.47824818 23.9693954,1.3810219 C23.9356807,0.659270073 24.4792567,0.0262773723 25.1263429,-0.244087591" id="Fill-5" fill="#00CD79" mask="url(#mask-2)"></path>
                            <path d="M29.4359129,0.55649635 C30.2308706,0.352116788 31.1790233,0.622481752 31.5824171,1.36817518 C32.2241798,2.31941606 31.562898,3.77635036 30.4361164,3.9789781 C29.8469959,4.0519708 29.1922205,3.96671533 28.7728566,3.51007299 C27.8347592,2.66861314 28.213902,0.928467153 29.4359129,0.55649635" id="Fill-6" fill="#00CD79" mask="url(#mask-2)"></path>
                            <path d="M9.1603501,1.7220438 C8.24709507,2.02627737 7.33679748,2.33693431 6.42945732,2.66043796 C6.32890463,2.70948905 6.2301264,2.76087591 6.1301652,2.81109489 C6.35138111,3.49430657 7.10670927,3.94043796 7.82477377,3.84233577 C8.74098623,3.83649635 9.4040425,2.86364964 9.22186468,2.00934307 C9.2165413,1.90773723 9.18814996,1.81430657 9.1603501,1.7220438" id="Fill-7" fill="#00CD79" mask="url(#mask-2)"></path>
                            <path d="M34.1595234,1.33080292 C35.2070458,1.20291971 36.2900575,2.2020438 36.1256242,3.26189781 C36.1037392,4.56408759 34.3316459,5.40613139 33.3048255,4.55065693 C32.6175183,4.08175182 32.4170044,3.19416058 32.6624713,2.43620438 C32.9534826,1.86218978 33.4941012,1.39445255 34.1595234,1.33080292" id="Fill-8" fill="#00CD79" mask="url(#mask-2)"></path>
                            <path d="M11.2755055,1.66248175 C12.2952281,1.13576642 13.6030046,2.00817518 13.6207491,3.10656934 C13.5586431,3.70744526 13.2741381,4.35211679 12.6631326,4.58335766 C11.6901375,5.11416058 10.3734887,4.33459854 10.317889,3.25722628 C10.2540085,2.58218978 10.6940744,1.97372263 11.2755055,1.66248175" id="Fill-9" fill="#00CD79" mask="url(#mask-2)"></path>
                            <path d="M15.714611,2.44729927 C16.1830683,2.36554745 16.7248698,2.30832117 17.1371359,2.59211679 C17.7203415,2.95007299 18.0503909,3.68467153 17.914349,4.35094891 C17.7475499,4.82861314 17.414543,5.25781022 16.9567325,5.49255474 C16.5953343,5.6 16.2055448,5.6 15.8340913,5.54627737 C15.0657505,5.35708029 14.5517488,4.5459854 14.6132633,3.78394161 C14.759952,3.21518248 15.1189842,2.63416058 15.714611,2.44729927" id="Fill-10" fill="#00CD79" mask="url(#mask-2)"></path>
                            <path d="M38.1857714,2.24875912 C38.0201552,2.28905109 37.8592709,2.34335766 37.7143567,2.41985401 C36.7206596,2.95708029 36.5710135,4.48525547 37.3837158,5.23270073 C37.987032,5.86686131 39.0771414,5.89605839 39.7703635,5.38978102 C40.4836961,4.89693431 40.6457634,3.85109489 40.2506505,3.10773723 C39.552105,2.83970803 38.8636148,2.55240876 38.1857714,2.24875912" id="Fill-11" fill="#00CD79" mask="url(#mask-2)"></path>
                            <path d="M44.5477993,4.50160584 C43.5410894,4.23474453 42.5598134,3.92 41.5891842,3.58423358 C41.3803895,3.81255474 41.2319264,4.09226277 41.1816501,4.40116788 C40.8758516,5.24729927 41.4957294,6.18277372 42.2936446,6.49985401 C43.3867114,6.97751825 44.8110107,6.03562044 44.7459472,4.84262774 C44.755411,4.74335766 44.7524536,4.64642336 44.7435813,4.55065693 C44.6785178,4.53313869 44.6128628,4.51854015 44.5477993,4.50160584" id="Fill-12" fill="#00CD79" mask="url(#mask-2)"></path>
                            <path d="M19.8491011,3.35532847 C20.8865683,2.77138686 22.2747869,3.70218978 22.2487615,4.84145985 C22.1978936,5.7950365 21.2544728,6.62948905 20.2749713,6.46306569 C19.5066305,6.23591241 18.7998042,5.51766423 18.9074547,4.67620438 C18.9890798,4.13664234 19.3043421,3.56029197 19.8491011,3.35532847" id="Fill-13" fill="#00CD79" mask="url(#mask-2)"></path>
                            <path d="M45.6526959,4.77956204 C45.5083732,5.03065693 45.4320715,5.31678832 45.4598713,5.62510949 C45.3321103,6.63416058 46.3441435,7.55912409 47.344347,7.4540146 C48.2966402,7.44408759 49.1560699,6.58978102 49.0590662,5.63036496 C47.9204548,5.36 46.7865754,5.07153285 45.6526959,4.77956204" id="Fill-14" fill="#00CD79" mask="url(#mask-2)"></path>
                            <path d="M24.4993673,4.06248175 C25.5817874,3.75124088 26.7671262,4.86306569 26.5405869,5.94861314 C26.3938983,6.98861314 25.1612406,7.59591241 24.2036241,7.20116788 C23.5523975,6.90686131 23.1365826,6.17810219 23.2122928,5.47678832 C23.2885946,4.79883212 23.8434088,4.23240876 24.4993673,4.06248175" id="Fill-15" fill="#00CD79" mask="url(#mask-2)"></path>
                            <path d="M3.43180417,4.48759124 C3.34722162,4.4420438 3.25849866,4.39416058 3.16740975,4.34978102 C2.44875375,4.74218978 1.73778708,5.14919708 1.03155231,5.56554745 C1.03036933,5.63737226 1.03036933,5.70919708 1.04219906,5.78335766 C1.09306689,6.75270073 2.25652067,7.45109489 3.13665245,6.98861314 C4.14277084,6.61372263 4.27644677,5.09080292 3.43180417,4.48759124" id="Fill-16" fill="#00CD79" mask="url(#mask-2)"></path>
                            <path d="M53.0977354,6.55883212 C52.0170897,6.31941606 50.93881,6.06832117 49.8611217,5.81547445 C49.6771695,6.33518248 49.69728,6.93781022 49.9433383,7.4189781 C50.4461018,8.22948905 51.5379857,8.50335766 52.3932751,8.1010219 C52.9599191,7.83065693 53.3278236,7.24671533 53.3633128,6.63416058 C53.2745898,6.60905109 53.1864584,6.58394161 53.0977354,6.55883212" id="Fill-17" fill="#00CD79" mask="url(#mask-2)"></path>
                            <path d="M28.6078319,4.93372263 C29.5861504,4.6189781 30.6851322,5.26306569 30.8495654,6.26686131 C31.0483048,7.41313869 29.7304731,8.55941606 28.623802,8.07240876 C27.9163843,7.87386861 27.4224931,7.13459854 27.494063,6.41751825 C27.4857822,5.75124088 28.0163455,5.18131387 28.6078319,4.93372263" id="Fill-18" fill="#00CD79" mask="url(#mask-2)"></path>
                            <path d="M6.2999218,5.08671533 C6.66960081,5.01664234 7.05524995,5.01664234 7.42256301,5.09547445 C7.86736079,5.3979562 8.34114141,5.83007299 8.26957156,6.41751825 C8.38846032,7.26715328 7.56806867,8.06890511 6.7092304,7.94569343 C6.16269695,8.00175182 5.75812024,7.6 5.4552792,7.20642336 C5.07613641,6.42218978 5.43457717,5.37635036 6.2999218,5.08671533" id="Fill-19" fill="#00CD79" mask="url(#mask-2)"></path>
                            <path d="M54.0742795,6.8350365 C53.9406035,7.2420438 53.940012,7.68350365 54.1529472,8.08175182 C54.5303155,9.02248175 55.7759859,9.45576642 56.6768197,8.98919708 C57.142911,8.78948905 57.4853816,8.37255474 57.6421255,7.89781022 C56.4591527,7.52583942 55.269082,7.17138686 54.0742795,6.8350365" id="Fill-20" fill="#00CD79" mask="url(#mask-2)"></path>
                            <path d="M32.9487507,5.75824818 C34.0518729,5.3810219 35.3217942,6.35036496 35.1544035,7.50072993 C35.1579525,8.66627737 33.7182745,9.39094891 32.7133391,8.87065693 C32.1679886,8.57167883 31.7427099,7.99357664 31.8018585,7.35474453 C31.736795,6.63065693 32.2992986,6.00817518 32.9487507,5.75824818" id="Fill-21" fill="#00CD79" mask="url(#mask-2)"></path>
                            <path d="M10.5811005,5.94218978 C11.6723929,5.45927007 13.0073777,6.66744526 12.5649459,7.77810219 C12.3496448,8.7340146 11.0395024,9.18890511 10.2587404,8.58452555 C9.26977508,7.96963504 9.47383789,6.31941606 10.5811005,5.94218978" id="Fill-22" fill="#00CD79" mask="url(#mask-2)"></path>
                            <path d="M61.6334758,9.34306569 C61.3974728,9.22452555 61.1644271,9.10014599 60.9272411,8.98277372 C60.0506582,8.67678832 59.1687519,8.38715328 58.2844798,8.10335766 C58.2832968,8.12145985 58.2779734,8.13956204 58.2761989,8.15883212 C58.2631862,8.91620438 58.7860602,9.60525547 59.4650866,9.92467153 C60.1080324,10.0566423 60.9035816,10.0969343 61.3974728,9.58715328 C61.4850127,9.51416058 61.5613145,9.43065693 61.6334758,9.34306569" id="Fill-23" fill="#00CD79" mask="url(#mask-2)"></path>
                            <path d="M37.5073365,6.54540146 C38.2869156,6.4140146 39.1250518,6.88992701 39.4113313,7.61751825 C39.6254493,8.38014599 39.3894463,9.35766423 38.6021778,9.70218978 C37.595468,10.3532847 36.0333523,9.48905109 36.0978244,8.29021898 C36.0227056,7.4540146 36.6922682,6.70014599 37.5073365,6.54540146" id="Fill-24" fill="#00CD79" mask="url(#mask-2)"></path>
                            <path d="M15.2029753,6.72175182 C16.391863,6.45839416 17.4654108,7.96379562 16.7467548,8.96525547 C16.1818853,10.1127007 14.1720145,9.83883212 13.9590794,8.57167883 C13.7514676,7.74072993 14.3317158,6.82919708 15.2029753,6.72175182" id="Fill-25" fill="#00CD79" mask="url(#mask-2)"></path>
                            <path d="M19.2185766,7.61167883 C19.8283991,7.4680292 20.5500125,7.56729927 20.920283,8.12262774 C21.593986,8.83970803 21.2225325,10.1127007 20.311052,10.4367883 C19.7408591,10.7562044 19.0588752,10.5051095 18.5998818,10.1127007 C17.8764939,9.36 18.1710541,7.91824818 19.2185766,7.61167883" id="Fill-26" fill="#00CD79" mask="url(#mask-2)"></path>
                            <path d="M41.207084,7.58773723 C42.0085481,7.14744526 43.2595419,7.41781022 43.6268549,8.3129927 C43.9013046,8.91153285 43.8486623,9.70452555 43.3612775,10.1880292 C42.8011399,10.9010219 41.6258564,10.9553285 40.966349,10.3474453 C40.0572344,9.66890511 40.206289,8.11445255 41.207084,7.58773723" id="Fill-27" fill="#00CD79" mask="url(#mask-2)"></path>
                            <path d="M45.8520268,8.26861314 C46.8971833,7.89781022 48.1765684,8.76145985 48.1014497,9.87445255 C48.1972705,10.6487591 47.6111074,11.3991241 46.8504559,11.5690511 C46.2086931,11.8306569 45.5237519,11.4528467 45.059435,11.0254015 C44.2579709,10.1722628 44.710458,8.5880292 45.8520268,8.26861314" id="Fill-28" fill="#00CD79" mask="url(#mask-2)"></path>
                            <path d="M23.5470741,8.41343066 C24.1781901,8.25167883 24.8915228,8.4519708 25.2795379,8.98569343 C25.9946449,9.78218978 25.4445626,11.230365 24.3852104,11.3786861 C23.9185276,11.4037956 23.359573,11.4709489 23.032481,11.0651095 C22.1227749,10.3713869 22.4386286,8.74160584 23.5470741,8.41343066" id="Fill-29" fill="#00CD79" mask="url(#mask-2)"></path>
                            <path d="M1.06408406,8.71591241 C1.62954507,8.59445255 2.35825633,8.55474453 2.71788007,9.09664234 C3.38744269,9.86160584 2.80305412,11.239708 1.75553168,11.2268613 C0.930408129,11.3617518 0.162658764,10.5383942 0.291602802,9.74189781 C0.363172658,9.30160584 0.69440505,8.94832117 1.06408406,8.71591241" id="Fill-30" fill="#00CD79" mask="url(#mask-2)"></path>
                            <path d="M27.8412655,9.24613139 C28.7681247,8.89927007 29.866515,9.6940146 29.8854426,10.660438 C29.9842208,11.5462774 29.1123698,12.3585401 28.2316465,12.3013139 C27.2663407,12.2686131 26.4601447,11.2017518 26.8310067,10.2849635 C26.950487,9.7810219 27.3609785,9.42072993 27.8412655,9.24613139" id="Fill-31" fill="#00CD79" mask="url(#mask-2)"></path>
                            <path d="M50.2473624,9.06452555 C50.8944485,8.85372263 51.5876706,9.17664234 52.0383832,9.63270073 C52.5636232,10.3124088 52.5577083,11.4084672 51.8916946,12.0011679 C51.2528893,12.6183942 50.1154609,12.6744526 49.4920342,12.0011679 C48.8757054,11.5439416 48.9029137,10.7059854 49.0525598,10.0350365 C49.3015756,9.57430657 49.7250799,9.18890511 50.2473624,9.06452555" id="Fill-32" fill="#00CD79" mask="url(#mask-2)"></path>
                            <path d="M5.37897745,9.51649635 C5.86222185,9.40321168 6.46849542,9.36467153 6.82397876,9.77284672 C7.59172813,10.3205839 7.3752441,11.6583942 6.50102718,11.9842336 C5.64041444,12.4618978 4.46276499,11.6046715 4.56331768,10.6645255 C4.59703241,10.1710949 4.95488169,9.75240876 5.37897745,9.51649635" id="Fill-33" fill="#00CD79" mask="url(#mask-2)"></path>
                            <path d="M31.9727981,10.1389781 C32.5808461,9.9859854 33.3509615,9.99416058 33.7868869,10.509781 C34.4517177,11.1585401 34.3162673,12.3871533 33.5289989,12.8817518 C32.5920844,13.5865693 30.9282331,12.8280292 31.1074535,11.6035036 C31.0080838,10.9646715 31.4647113,10.4548905 31.9727981,10.1389781" id="Fill-34" fill="#00CD79" mask="url(#mask-2)"></path>
                            <path d="M54.1050368,10.100438 C55.1803591,9.46744526 56.9027675,10.2586861 56.7176322,11.6046715 C56.8761506,12.9091971 55.1501933,13.8639416 54.0967559,13.0872993 C52.9705658,12.499854 52.9924508,10.6908029 54.1050368,10.100438" id="Fill-35" fill="#00CD79" mask="url(#mask-2)"></path>
                            <path d="M9.51346748,10.4467153 C9.99434594,10.1722628 10.7035381,10.1308029 11.1051574,10.5652555 C11.7906902,11.0341606 11.7853668,12.1588321 11.1512934,12.6651095 C10.5905642,13.1340146 9.63945409,13.0621898 9.18696698,12.4782482 C8.63925056,11.889635 8.82142838,10.8484672 9.51346748,10.4467153" id="Fill-36" fill="#00CD79" mask="url(#mask-2)"></path>
                            <path d="M58.7588519,10.7854015 C59.9873691,10.3626277 61.3749963,11.5690511 61.0408064,12.8192701 C60.8349692,14.0578102 59.1143352,14.6610219 58.1756463,13.8043796 C57.1304898,13.0049635 57.4877476,11.159708 58.7588519,10.7854015" id="Fill-37" fill="#00CD79" mask="url(#mask-2)"></path>
                            <path d="M36.4284653,10.9430657 C36.9229479,10.8093431 37.4830855,10.8437956 37.8947601,11.1725547 C38.9227635,11.8154745 38.659552,13.6070073 37.4830855,13.9345985 C36.5242861,14.3258394 35.3661557,13.5491971 35.3265261,12.5407299 C35.3058241,11.8452555 35.764226,11.1754745 36.4284653,10.9430657" id="Fill-38" fill="#00CD79" mask="url(#mask-2)"></path>
                            <path d="M13.9076201,11.2589781 C14.2950437,11.0808759 14.7540371,11.159708 15.1633457,11.2169343 C16.0683199,11.6081752 16.217966,13.0108029 15.4040807,13.560292 C14.5819146,14.340438 13.0535137,13.4610219 13.1818662,12.3970803 C13.1972449,11.9194161 13.5207879,11.5153285 13.9076201,11.2589781" id="Fill-39" fill="#00CD79" mask="url(#mask-2)"></path>
                            <path d="M63.1530044,11.5830657 C64.5376741,11.1515328 65.8969099,12.7941606 65.2101942,14.0432117 C64.7003329,15.3851095 62.4804844,15.3454015 61.9694401,14.0221898 C61.4583959,13.0814599 62.1179032,11.809635 63.1530044,11.5830657" id="Fill-40" fill="#00CD79" mask="url(#mask-2)"></path>
                            <path d="M40.4215901,11.8727007 C41.0367359,11.5532847 41.858902,11.6490511 42.3592995,12.1337226 C43.3340692,12.9319708 42.7348934,14.8274453 41.4300744,14.8513869 C40.3630329,15.0534307 39.3433103,13.9153285 39.6508833,12.8945985 C39.7957974,12.4881752 40.0394898,12.0975182 40.4215901,11.8727007" id="Fill-41" fill="#00CD79" mask="url(#mask-2)"></path>
                            <path d="M18.2591856,12.0332847 C19.0896325,11.6823358 20.2678735,12.2020438 20.2205546,13.1807299 C20.3589624,13.9357664 19.7313953,14.6727007 18.9636459,14.6884672 C18.1361564,14.8023358 17.3429731,14.0087591 17.4512152,13.1988321 C17.4932107,12.7188321 17.7919113,12.2160584 18.2591856,12.0332847" id="Fill-42" fill="#00CD79" mask="url(#mask-2)"></path>
                            <path d="M66.1210833,13.8230657 C65.8980929,14.8151825 66.7255824,15.8394161 67.7322923,15.9211679 C68.6360835,16.0706569 69.4700793,15.3418978 69.6658613,14.4992701 C69.1630979,13.9994161 68.6556025,13.5059854 68.1350945,13.0254015 C67.853547,12.8467153 67.5672675,12.6767883 67.2833541,12.5021898 C67.2354437,12.5156204 67.1857588,12.5249635 67.1396229,12.5442336 C66.6149744,12.780146 66.2328742,13.2659854 66.1210833,13.8230657" id="Fill-43" fill="#00CD79" mask="url(#mask-2)"></path>
                            <path d="M22.7213591,12.8134307 C23.6014909,12.5214599 24.5490521,13.2490511 24.619439,14.1249635 C24.6797706,15.1743066 23.2714415,16.0420438 22.4078713,15.3068613 C21.3739531,14.760292 21.6336156,13.1258394 22.7213591,12.8134307" id="Fill-44" fill="#00CD79" mask="url(#mask-2)"></path>
                            <path d="M44.714007,12.7725547 C45.1487495,12.4840876 45.735504,12.5646715 46.2181569,12.6779562 C47.3337003,13.110073 47.4922186,14.840292 46.4618493,15.4540146 C45.6473725,16.109781 44.340779,15.6327007 44.0196019,14.6826277 C43.7173524,13.9766423 44.0787506,13.1626277 44.714007,12.7725547" id="Fill-45" fill="#00CD79" mask="url(#mask-2)"></path>
                            <path d="M0.113565392,13.1293431 C0.906748673,12.5623358 2.17962744,13.2835036 2.02170056,14.2540146 C2.00573043,15.1672993 0.810927874,15.6490511 0.0970037719,15.1310949 C-0.594443846,14.6989781 -0.551265338,13.5614599 0.113565392,13.1293431" id="Fill-46" fill="#00CD79" mask="url(#mask-2)"></path>
                            <path d="M49.3246436,13.4283212 C49.829773,13.3220438 50.4100211,13.3378102 50.8193297,13.6928467 C51.6894062,14.2721168 51.6556915,15.6852555 50.8240616,16.2820438 C50.1852563,16.7229197 49.2104867,16.7071533 48.6763744,16.1074453 C47.7903278,15.350073 48.1901726,13.7191241 49.3246436,13.4283212" id="Fill-47" fill="#00CD79" mask="url(#mask-2)"></path>
                            <path d="M26.7162584,13.7635036 C27.514765,13.2548905 28.6409551,13.7769343 28.8574392,14.659854 C29.2348075,15.8265693 27.6052624,16.9751825 26.6334503,16.1576642 C25.7669227,15.6432117 25.8266628,14.2254015 26.7162584,13.7635036" id="Fill-48" fill="#00CD79" mask="url(#mask-2)"></path>
                            <path d="M4.69226172,13.8341606 C5.19088477,13.6070073 5.77231592,13.860438 6.09585898,14.2586861 C6.54538866,14.8525547 6.29518991,15.8668613 5.56056378,16.1115328 C4.80346117,16.4951825 3.76303657,15.7547445 3.89079763,14.9220438 C3.85530845,14.4350365 4.20783435,13.9468613 4.69226172,13.8341606" id="Fill-49" fill="#00CD79" mask="url(#mask-2)"></path>
                            <path d="M53.7483704,14.2254015 C54.2866231,14.099854 54.8574075,14.2651095 55.2442396,14.6551825 C56.164001,15.3535766 55.8434153,16.9932847 54.7467995,17.3529927 C53.9565737,17.7144526 52.9516383,17.2373723 52.6056187,16.4823358 C52.2412631,15.5848175 52.7854306,14.4648175 53.7483704,14.2254015" id="Fill-50" fill="#00CD79" mask="url(#mask-2)"></path>
                            <path d="M9.01129552,14.6691971 C9.4211956,14.620146 9.92809946,14.5617518 10.230349,14.9016058 C10.8620565,15.4113869 10.7798399,16.5477372 10.03575,16.9167883 C9.26800062,17.3786861 8.07201509,16.7731387 8.17729968,15.8429197 C8.11933401,15.3121168 8.51622139,14.819854 9.01129552,14.6691971" id="Fill-51" fill="#00CD79" mask="url(#mask-2)"></path>
                            <path d="M31.2541421,14.5062774 C31.9497301,14.3567883 32.8227641,14.5278832 33.0948478,15.2589781 C33.6129899,16.2166423 32.6589224,17.4312409 31.609034,17.3127007 C31.1701511,17.2011679 30.7425064,16.9582482 30.5023629,16.5681752 C30.0764927,15.830073 30.4284271,14.7854015 31.2541421,14.5062774" id="Fill-52" fill="#00CD79" mask="url(#mask-2)"></path>
                            <path d="M58.2188248,15.049927 C59.427823,14.7924088 60.582996,16.2510949 59.992101,17.3378102 C59.6052689,18.3848175 58.0277747,18.6756204 57.2801358,17.84 C56.3100981,16.9786861 56.900993,15.1550365 58.2188248,15.049927" id="Fill-53" fill="#00CD79" mask="url(#mask-2)"></path>
                            <path d="M35.4862274,15.3372263 C36.049914,15.1959124 36.7366297,15.2280292 37.1441638,15.6934307 C37.7480715,16.2581022 37.6652634,17.2992701 37.0583983,17.8248175 C36.4675034,18.3036496 35.4779466,18.2756204 34.982281,17.6729927 C34.5327513,17.2817518 34.6191083,16.6183942 34.7113802,16.0969343 C34.9142601,15.7962044 35.1798375,15.5357664 35.4862274,15.3372263" id="Fill-54" fill="#00CD79" mask="url(#mask-2)"></path>
                            <path d="M13.0233479,15.6467153 C13.7739441,15.0989781 15.0320357,15.6986861 14.9592829,16.6435036 C15.0083763,17.1532847 14.7013948,17.7039416 14.1832527,17.8452555 C13.4474436,18.2207299 12.4578869,17.5567883 12.4815463,16.7550365 C12.4430997,16.3275912 12.6554433,15.8767883 13.0233479,15.6467153" id="Fill-55" fill="#00CD79" mask="url(#mask-2)"></path>
                            <path d="M62.1752774,15.939854 C62.6526069,15.8645255 63.1914511,15.8312409 63.6214617,16.0992701 C64.1076635,16.3708029 64.3691005,16.9127007 64.4483597,17.4405839 C64.4258832,18.210219 63.8976858,19.0108029 63.0891239,19.1491971 C62.0782736,19.4183942 60.910088,18.4817518 61.0869424,17.4265693 C61.0437639,16.7468613 61.604493,16.2189781 62.1752774,15.939854" id="Fill-56" fill="#00CD79" mask="url(#mask-2)"></path>
                            <path d="M39.8768311,16.1208759 C40.7528224,15.8394161 41.8435234,16.4788321 41.8488468,17.4224818 C41.9748334,18.269781 41.1591736,19.0370803 40.3275437,19.0452555 C39.5899602,18.9962044 38.9594356,18.4280292 38.8440958,17.7086131 C38.771343,17.0254015 39.2646426,16.390073 39.8768311,16.1208759" id="Fill-57" fill="#00CD79" mask="url(#mask-2)"></path>
                            <path d="M17.5913974,16.3159124 C18.4455038,15.979562 19.4776476,16.8554745 19.2499253,17.7459854 C19.1736236,18.760292 17.6907672,19.1661314 17.0626086,18.380146 C16.4031012,17.76 16.7337421,16.5646715 17.5913974,16.3159124" id="Fill-58" fill="#00CD79" mask="url(#mask-2)"></path>
                            <path d="M66.5676555,16.759708 C67.2620606,16.589781 68.114984,16.7982482 68.4633695,17.4656934 C69.0944855,18.2616058 68.6709812,19.540438 67.7494454,19.9118248 C67.0579977,20.2324088 66.1902872,19.9964964 65.7324767,19.4008759 C65.2823555,18.9950365 65.3793593,18.3345985 65.436142,17.799708 C65.6484856,17.3290511 66.0737643,16.9354745 66.5676555,16.759708" id="Fill-59" fill="#00CD79" mask="url(#mask-2)"></path>
                            <path d="M44.5164505,16.9021898 C45.016848,16.8916788 45.5491858,17.0744526 45.8467034,17.4908029 C46.4730876,18.1454015 46.1832592,19.339562 45.3800207,19.7261314 C44.6087224,20.1629197 43.5416809,19.7214599 43.2678227,18.8992701 C42.8656119,18.0344526 43.603787,17.009635 44.5164505,16.9021898" id="Fill-60" fill="#00CD79" mask="url(#mask-2)"></path>
                            <path d="M21.7755723,17.2157664 C22.4569647,16.9670073 23.2832712,17.2408759 23.5441167,17.9363504 C23.9262169,18.7643796 23.0756595,19.8113869 22.1612215,19.5959124 C20.9066788,19.6221898 20.6730417,17.640292 21.7755723,17.2157664" id="Fill-61" fill="#00CD79" mask="url(#mask-2)"></path>
                            <path d="M0.118297283,17.3185401 C0.244283889,17.9836496 0.36790455,18.6481752 0.490342237,19.3132847 C0.626384113,19.2391241 0.747047341,19.1386861 0.832221385,19.0008759 C1.36515064,18.3883212 0.835178817,17.4551825 0.118297283,17.3185401" id="Fill-62" fill="#00CD79" mask="url(#mask-2)"></path>
                            <path d="M71.8519951,17.6023358 C71.5325925,17.489635 71.1853899,17.4645255 70.854749,17.5719708 C70.1378675,17.8271533 69.5871936,18.5343066 69.5937,19.2951825 C69.6966186,20.0046715 70.1922842,20.7036496 70.9381486,20.8531387 C71.5775454,21.0627737 72.2802313,20.7550365 72.6889484,20.2370803 C72.4718729,19.4388321 72.2471081,18.6417518 71.9986838,17.8510949 C71.9519563,17.7670073 71.899314,17.6858394 71.8519951,17.6023358" id="Fill-63" fill="#00CD79" mask="url(#mask-2)"></path>
                            <path d="M26.0869168,18.009927 C26.5636549,17.9013139 27.1545498,17.8954745 27.5076672,18.2855474 C27.9672521,18.6540146 27.928214,19.3191241 27.7821169,19.8265693 C27.4668546,20.4105109 26.7144839,20.649927 26.0951976,20.4379562 C25.6835231,20.199708 25.3138441,19.8061314 25.2807208,19.3179562 C25.2121084,18.7591241 25.620234,18.2709489 26.0869168,18.009927" id="Fill-64" fill="#00CD79" mask="url(#mask-2)"></path>
                            <path d="M48.3309464,17.8680292 C48.8757054,17.6981022 49.5547318,17.7086131 49.9876998,18.1249635 C50.4821825,18.489927 50.5466545,19.1579562 50.4277657,19.7138686 C50.1852563,20.3532847 49.5091873,20.8005839 48.8189227,20.7743066 C48.390095,20.6581022 47.9612674,20.450219 47.6921411,20.089927 C47.1674926,19.3658394 47.4721081,18.189781 48.3309464,17.8680292" id="Fill-65" fill="#00CD79" mask="url(#mask-2)"></path>
                            <path d="M3.62285429,18.3164964 C4.40420784,17.7267153 5.64632931,18.6972263 5.26955246,19.5766423 C5.06963006,20.3737226 3.85235102,20.6020438 3.37738742,19.9246715 C2.92904072,19.4557664 3.10293773,18.659854 3.62285429,18.3164964" id="Fill-66" fill="#00CD79" mask="url(#mask-2)"></path>
                            <path d="M52.6836949,18.6610219 C53.5774309,18.3369343 54.7757824,18.9243796 54.7852461,19.9334307 C55.0354449,21.1871533 53.311262,22.1430657 52.3601518,21.2817518 C51.374144,20.6581022 51.6414958,19.0762044 52.6836949,18.6610219" id="Fill-67" fill="#00CD79" mask="url(#mask-2)"></path>
                            <path d="M30.4840268,18.8251095 C31.3209801,18.5138686 32.2703158,19.2128467 32.2638094,20.0776642 C32.2070267,20.5611679 31.9603769,21.0732847 31.4735836,21.2636496 C30.8590292,21.6145985 30.0096547,21.2578102 29.7245583,20.6452555 C29.3270794,19.9807299 29.7683282,19.0633577 30.4840268,18.8251095" id="Fill-68" fill="#00CD79" mask="url(#mask-2)"></path>
                            <path d="M8.06018537,19.0908029 C8.4984768,18.9757664 9.06512078,18.9576642 9.35080872,19.3705109 C9.74296421,19.7127007 9.7825938,20.3567883 9.43657425,20.7421898 C9.04027835,21.3214599 8.04658118,21.3308029 7.64614488,20.750365 C7.16526642,20.2475912 7.44326504,19.3576642 8.06018537,19.0908029" id="Fill-69" fill="#00CD79" mask="url(#mask-2)"></path>
                            <path d="M57.1494173,19.4510949 C57.838499,19.2449635 58.6293163,19.6052555 58.9629147,20.2265693 C59.4739589,21.1848175 58.707984,22.6014599 57.5386154,22.4233577 C56.4999652,22.5261314 55.7416797,21.310365 56.1220054,20.4011679 C56.2988599,19.9544526 56.7099429,19.630365 57.1494173,19.4510949" id="Fill-70" fill="#00CD79" mask="url(#mask-2)"></path>
                            <path d="M12.3880915,19.9007299 C12.8127787,19.8242336 13.3468909,19.7810219 13.6450001,20.1617518 C14.2169674,20.6464234 14.0489853,21.6583942 13.364044,21.9579562 C12.6986218,22.3264234 11.7291756,21.8043796 11.7285841,21.0376642 C11.6522824,20.5553285 11.9912041,20.1366423 12.3880915,19.9007299" id="Fill-71" fill="#00CD79" mask="url(#mask-2)"></path>
                            <path d="M34.6208828,19.7308029 C34.9692683,19.6210219 35.3501855,19.6414599 35.7098093,19.6963504 C36.2634406,19.8837956 36.6585535,20.4683212 36.5852092,21.0481752 C36.5225116,21.950365 35.418798,22.5547445 34.6173339,22.0951825 C33.6567599,21.6788321 33.6674067,20.1483212 34.6208828,19.7308029" id="Fill-72" fill="#00CD79" mask="url(#mask-2)"></path>
                            <path d="M61.7304796,20.2289051 C62.3805232,20.1535766 63.0051328,20.5927007 63.3316333,21.1275912 C63.4446072,21.7086131 63.4623518,22.380146 63.0240604,22.8408759 C62.3201916,23.6426277 60.8521223,23.3851095 60.4463626,22.4052555 C59.9761309,21.4837956 60.7060251,20.3112409 61.7304796,20.2289051" id="Fill-73" fill="#00CD79" mask="url(#mask-2)"></path>
                            <path d="M38.9848696,20.5173723 C39.5420498,20.360292 40.2116124,20.4548905 40.5712361,20.9465693 C41.207084,21.5953285 40.7989584,22.759708 39.9738348,23.0289051 C39.1250518,23.4248175 38.0248871,22.5932847 38.1721672,21.6788321 C38.1254398,21.1538686 38.5702376,20.7626277 38.9848696,20.5173723" id="Fill-74" fill="#00CD79" mask="url(#mask-2)"></path>
                            <path d="M16.7881589,20.7059854 C17.7156096,20.3223358 18.7116727,21.5556204 18.1201863,22.3550365 C17.7747582,23.0394161 16.7029848,23.0872993 16.2534552,22.4852555 C15.7323556,21.9205839 16.0316478,20.9109489 16.7881589,20.7059854" id="Fill-75" fill="#00CD79" mask="url(#mask-2)"></path>
                            <path d="M65.6035326,21.1690511 C66.0607516,21.0481752 66.5948639,21.0481752 67.0136363,21.2963504 C67.41703,21.5667153 67.6843819,22.0081752 67.7973558,22.4747445 C67.829296,23.1316788 67.4324086,23.7658394 66.8497945,24.0735766 C66.1695851,24.2814599 65.2894534,24.1810219 64.8943404,23.5229197 C64.2732797,22.7345985 64.7222179,21.5567883 65.6035326,21.1690511" id="Fill-76" fill="#00CD79" mask="url(#mask-2)"></path>
                            <path d="M21.1633839,21.5018978 C21.7803042,21.3366423 22.5563344,21.8283212 22.5953725,22.4759124 C22.6740402,22.9378102 22.4699774,23.3851095 22.0571199,23.619854 C21.3597574,24.1465693 20.1744186,23.4872993 20.3128264,22.6137226 C20.2524948,22.0823358 20.6872373,21.6583942 21.1633839,21.5018978" id="Fill-77" fill="#00CD79" mask="url(#mask-2)"></path>
                            <path d="M43.1317808,21.4645255 C43.9574958,20.8782482 45.2717786,21.6145985 45.2013918,22.6113869 C45.2268257,23.2729927 44.6773348,23.9118248 44.0018573,23.9667153 C43.2258271,24.1010219 42.4178567,23.3839416 42.4639926,22.6125547 C42.4231801,22.1407299 42.7384423,21.7039416 43.1317808,21.4645255" id="Fill-78" fill="#00CD79" mask="url(#mask-2)"></path>
                            <path d="M69.9213835,21.9877372 C70.7181157,21.7039416 71.7301489,22.1243796 71.9738413,22.9524088 C72.3352395,23.7512409 71.7745104,24.7783942 70.9280933,24.9909489 C69.9503663,25.3383942 68.7727169,24.420438 68.9093502,23.4020438 C68.8584824,22.7655474 69.3736671,22.2364964 69.9213835,21.9877372" id="Fill-79" fill="#00CD79" mask="url(#mask-2)"></path>
                            <path d="M47.6998304,22.139562 C48.5172646,21.8259854 49.524566,22.5372263 49.5038639,23.3973723 C49.5588722,23.9813139 49.1211722,24.4934307 48.6237322,24.7456934 C48.1049986,24.8046715 47.4721081,24.8537226 47.1024291,24.4145985 C46.3985603,23.7278832 46.7345246,22.4064234 47.6998304,22.139562" id="Fill-80" fill="#00CD79" mask="url(#mask-2)"></path>
                            <path d="M25.2641592,22.3935766 C25.6728763,22.3194161 26.1886525,22.2522628 26.4903105,22.6037956 C27.057546,23.0061314 27.0605034,23.9562044 26.4903105,24.3591241 C26.1874695,24.6954745 25.6711019,24.6359124 25.2665252,24.5664234 C24.3562276,24.2183942 24.3455808,22.7258394 25.2641592,22.3935766" id="Fill-81" fill="#00CD79" mask="url(#mask-2)"></path>
                            <path d="M3.08282719,22.5786861 C3.50988038,22.4350365 3.98011208,22.6639416 4.22498746,23.0143066 C4.29064245,23.3185401 4.2971488,23.6426277 4.21907259,23.9462774 C3.94639735,24.4840876 3.14493326,24.6119708 2.71610561,24.190365 C2.37422647,23.9947445 2.45703456,23.5626277 2.4552601,23.2356204 C2.43869849,22.8817518 2.81192641,22.7083212 3.08282719,22.5786861" id="Fill-82" fill="#00CD79" mask="url(#mask-2)"></path>
                            <path d="M51.8715841,23.0189781 C52.483181,22.8794161 53.2254965,22.9582482 53.5969499,23.5217518 C54.1973086,24.3293431 53.617652,25.6589781 52.5801848,25.6922628 C51.810661,25.8277372 50.9819885,25.1194161 51.0506009,24.3462774 C50.983763,23.7816058 51.3629057,23.2467153 51.8715841,23.0189781" id="Fill-83" fill="#00CD79" mask="url(#mask-2)"></path>
                            <path d="M29.5459294,23.2607299 C29.9268466,23.0779562 30.4378909,23.1182482 30.7697147,23.3938686 C31.4150264,23.8341606 31.3730309,24.9932847 30.6561494,25.3477372 C30.0877309,25.729635 29.2963221,25.4364964 28.9644982,24.8823358 C28.7633928,24.2837956 28.908307,23.5334307 29.5459294,23.2607299" id="Fill-84" fill="#00CD79" mask="url(#mask-2)"></path>
                            <path d="M7.27350843,23.4750365 C7.7366423,23.3640876 8.28968209,23.4259854 8.53692341,23.8820438 C8.66468448,24.3690511 8.63096975,25.04 8.06669172,25.2338686 C7.6189365,25.4662774 7.052884,25.2140146 6.79381295,24.819854 C6.68675391,24.3270073 6.70094959,23.6630657 7.27350843,23.4750365" id="Fill-85" fill="#00CD79" mask="url(#mask-2)"></path>
                            <path d="M56.2048135,23.849927 C56.9524524,23.5661314 57.8172055,23.9813139 58.0963871,24.7030657 C58.1371996,25.1573723 58.2377523,25.7331387 57.8556521,26.0764964 C57.2357743,26.7894891 55.8800875,26.6627737 55.4589492,25.7991241 C55.1543337,25.0715328 55.4287834,24.1594161 56.2048135,23.849927" id="Fill-86" fill="#00CD79" mask="url(#mask-2)"></path>
                            <path d="M34.156566,23.9982482 C34.9325961,23.8411679 35.6228608,24.5378102 35.6382394,25.2840876 C35.4282617,25.8440876 34.9728172,26.4618978 34.2825526,26.3310949 C33.1995409,26.4776642 32.7943727,24.8461314 33.5786837,24.2674453 C33.740751,24.1237956 33.9495457,24.0554745 34.156566,23.9982482" id="Fill-87" fill="#00CD79" mask="url(#mask-2)"></path>
                            <path d="M11.5292532,24.3270073 C12.2141945,23.9859854 13.0014629,24.5675912 13.0091522,25.2840876 C12.8944038,25.8108029 12.407019,26.300146 11.820856,26.1710949 C10.9170647,26.08 10.7626868,24.7194161 11.5292532,24.3270073" id="Fill-88" fill="#00CD79" mask="url(#mask-2)"></path>
                            <path d="M60.341078,24.7672993 C61.2235758,24.1775182 62.6017391,25.0189781 62.4278421,26.0694891 C62.4822588,27.1270073 61.0786616,27.8440876 60.2452572,27.1772263 C59.3769552,26.6592701 59.42664,25.2128467 60.341078,24.7672993" id="Fill-89" fill="#00CD79" mask="url(#mask-2)"></path>
                            <path d="M38.0449976,24.9518248 C38.3939746,24.8274453 38.7890876,24.8274453 39.1504857,24.9086131 C40.0601919,25.2689051 40.0826683,26.7982482 39.1469368,27.1392701 C38.3407408,27.5421898 37.3245672,26.7859854 37.4038264,25.9235036 C37.505562,25.549781 37.6765016,25.139854 38.0449976,24.9518248" id="Fill-90" fill="#00CD79" mask="url(#mask-2)"></path>
                            <path d="M15.3609022,26.3719708 C15.0450484,25.7751825 15.6016371,25.0020438 16.2717913,25.0569343 C16.6101215,25.0055474 16.8632777,25.260146 17.1371359,25.4061314 C17.1726251,25.8119708 17.1785399,26.2189781 17.1489656,26.6271533 C16.8615032,26.7906569 16.5716749,26.9477372 16.2788891,27.1018978 C15.9393759,26.9156204 15.4472592,26.809927 15.3609022,26.3719708" id="Fill-91" fill="#00CD79" mask="url(#mask-2)"></path>
                            <path d="M64.6559714,25.5906569 C65.0907139,25.410219 65.6005752,25.4551825 66.0477389,25.5678832 C66.6185233,25.9567883 67.0597722,26.7585401 66.677672,27.4131387 C66.3523544,28.3381022 64.9806975,28.6207299 64.3211901,27.8773723 C63.6409807,27.2338686 63.8142862,26.0093431 64.6559714,25.5906569" id="Fill-92" fill="#00CD79" mask="url(#mask-2)"></path>
                            <path d="M42.5030307,25.7150365 C43.4026816,25.3681752 44.4111659,26.2341606 44.2147924,27.1544526 C44.0101381,27.6116788 43.6097018,28.1261314 43.0460153,28.0817518 C42.382959,28.1851095 41.8305107,27.6210219 41.7057071,27.0218978 C41.6406436,26.4642336 42.0357565,25.9760584 42.5030307,25.7150365" id="Fill-93" fill="#00CD79" mask="url(#mask-2)"></path>
                            <path d="M20.0342363,26.0367883 C20.6872373,25.5620438 21.7501384,26.2347445 21.6194199,27.0218978 C21.4603101,27.5089051 21.0060485,28.0052555 20.4370386,27.8808759 C19.5527664,27.8078832 19.3670397,26.4870073 20.0342363,26.0367883" id="Fill-94" fill="#00CD79" mask="url(#mask-2)"></path>
                            <path d="M69.0962599,26.3287591 C69.6268232,26.2259854 70.2656286,26.2178102 70.6512777,26.6569343 C71.1309732,27.080292 71.1019904,27.7792701 70.9683144,28.3474453 C70.70392,28.7427737 70.3023007,29.1054015 69.8036777,29.1433577 C68.8507931,29.3027737 67.9298487,28.2867153 68.198975,27.3675912 C68.3024852,26.8986861 68.6520536,26.5156204 69.0962599,26.3287591" id="Fill-95" fill="#00CD79" mask="url(#mask-2)"></path>
                            <path d="M46.6256911,26.6364964 C47.4413508,26.1016058 48.6000727,26.8689051 48.5172646,27.799708 C48.4853243,28.7643796 47.1769564,29.3681752 46.452977,28.669781 C45.756206,28.16 45.8674055,27.0277372 46.6256911,26.6364964" id="Fill-96" fill="#00CD79" mask="url(#mask-2)"></path>
                            <path d="M23.8404514,28.2014599 C23.6967202,27.549781 24.119633,26.6954745 24.8761441,26.7655474 C25.3570226,26.679708 25.6935783,27.1018978 25.8763476,27.4837956 C25.9987853,27.9527007 25.66637,28.4256934 25.274806,28.6656934 C24.7259066,28.8181022 24.2373388,28.5524088 23.8404514,28.2014599" id="Fill-97" fill="#00CD79" mask="url(#mask-2)"></path>
                            <path d="M51.2191745,27.3640876 C52.0815617,27.0837956 53.0646122,27.9445255 52.8079071,28.8356204 C52.6771886,29.9065693 51.0334478,30.1757664 50.4993356,29.2776642 C49.9924317,28.6119708 50.4023318,27.5462774 51.2191745,27.3640876" id="Fill-98" fill="#00CD79" mask="url(#mask-2)"></path>
                            <path d="M28.7953331,27.5924088 C29.1496335,27.5375182 29.5760952,27.4931387 29.8345747,27.7927007 C30.3728274,28.1524088 30.3609976,29.0306569 29.8393066,29.399708 C29.4264491,29.8026277 28.691823,29.6747445 28.364731,29.2245255 C27.84304,28.7188321 28.1926084,27.8680292 28.7953331,27.5924088" id="Fill-99" fill="#00CD79" mask="url(#mask-2)"></path>
                            <path d="M6.0035871,28.5915328 C5.97992765,28.059562 6.49392934,27.6537226 7.0138459,27.7418978 C7.35099315,27.9036496 7.71239135,28.1705109 7.61420461,28.5927007 C7.68932338,29.1340146 7.12977724,29.3588321 6.70627296,29.4913869 C6.4259084,29.2414599 5.94917035,29.0347445 6.0035871,28.5915328" id="Fill-100" fill="#00CD79" mask="url(#mask-2)"></path>
                            <path d="M55.3956601,28.2306569 C55.771254,28.1646715 56.2130943,28.1045255 56.5443267,28.3392701 C57.3138506,28.7807299 57.4013905,30.050219 56.5780415,30.4835036 C55.8079261,31.1118248 54.4966008,30.3462774 54.595379,29.3944526 C54.5752685,28.8852555 54.965058,28.4566423 55.3956601,28.2306569" id="Fill-101" fill="#00CD79" mask="url(#mask-2)"></path>
                            <path d="M33.0640905,28.4782482 C33.5562072,28.1979562 34.1985615,28.5728467 34.4724197,29.0108029 C34.612602,29.5048175 34.5108663,30.0887591 34.0317623,30.3661314 C33.5260414,30.5062774 32.8789553,30.4729927 32.5938588,29.9713869 C32.2082097,29.4581022 32.4968551,28.72 33.0640905,28.4782482" id="Fill-102" fill="#00CD79" mask="url(#mask-2)"></path>
                            <path d="M10.7484911,28.6446715 C11.0335876,28.6493431 11.318684,28.6540146 11.6037805,28.6586861 C11.930281,29.0020438 11.9350129,29.4616058 11.8959748,29.9030657 C11.6593802,30.0216058 11.4559089,30.2335766 11.1820507,30.2475912 C10.7035381,30.3375182 10.1871705,29.8627737 10.2912721,29.3781022 C10.2640637,29.059854 10.5811005,28.8729927 10.7484911,28.6446715" id="Fill-103" fill="#00CD79" mask="url(#mask-2)"></path>
                            <path d="M59.8454124,29.0055474 C60.8491649,28.7375182 61.8606066,29.8855474 61.3389156,30.8105109 C60.9591813,31.7483212 59.4928865,31.7629197 59.0191059,30.9056934 C58.599742,30.1868613 59.0427653,29.2186861 59.8454124,29.0055474" id="Fill-104" fill="#00CD79" mask="url(#mask-2)"></path>
                            <path d="M37.5156173,29.2426277 C37.8781985,29.0919708 38.3011113,29.2846715 38.5767439,29.529927 C38.9144827,29.819562 38.8665723,30.3112409 38.8074236,30.7059854 C38.5335654,31.1392701 38.0656997,31.490219 37.5221237,31.3454015 C36.4953032,31.1141606 36.4101292,29.4283212 37.5156173,29.2426277" id="Fill-105" fill="#00CD79" mask="url(#mask-2)"></path>
                            <path d="M15.2254518,29.4464234 C16.1428472,29.1830657 16.6450192,30.5664234 15.8719464,31.0230657 C15.518829,31.079708 15.0296698,31.1743066 14.8001731,30.8233577 C14.3364477,30.3842336 14.6103059,29.5684672 15.2254518,29.4464234" id="Fill-106" fill="#00CD79" mask="url(#mask-2)"></path>
                            <path d="M64.1650377,29.8364964 C64.6524225,29.6893431 65.1971815,29.9316788 65.5112608,30.3054015 C65.8359868,30.6680292 65.8123274,31.2052555 65.718281,31.6513869 C65.4544781,32.0513869 65.044578,32.4040876 64.541223,32.4362044 C64.0236724,32.4905109 63.5771002,32.1372263 63.2996931,31.740146 C62.9170014,31.010219 63.3269014,30.0192701 64.1650377,29.8364964" id="Fill-107" fill="#00CD79" mask="url(#mask-2)"></path>
                            <path d="M41.6867795,30.1185401 C42.2368619,29.9381022 42.8774416,30.179854 43.1128532,30.7112409 C43.1938869,31.1083212 43.2400228,31.6181022 42.882765,31.9013139 C42.5468007,32.2452555 41.9671441,32.4005839 41.5542865,32.0951825 C40.7658351,31.7062774 40.8740772,30.420438 41.6867795,30.1185401" id="Fill-108" fill="#00CD79" mask="url(#mask-2)"></path>
                            <path d="M19.4894773,30.2931387 C19.9017434,30.1991241 20.4547832,30.3842336 20.5742634,30.8268613 C20.9439424,31.5626277 19.8473266,32.3573723 19.2357297,31.8259854 C18.6253157,31.4767883 18.8305615,30.4677372 19.4894773,30.2931387" id="Fill-109" fill="#00CD79" mask="url(#mask-2)"></path>
                            <path d="M45.9904346,30.9132847 C46.7090906,30.6522628 47.6170223,31.2636496 47.4703337,32.0490511 C47.5075973,32.4829197 47.1532969,32.8040876 46.8108263,33.0084672 C46.3116118,33.239708 45.7065212,32.9868613 45.4208332,32.5477372 C45.1280475,31.9637956 45.3226465,31.1491971 45.9904346,30.9132847" id="Fill-110" fill="#00CD79" mask="url(#mask-2)"></path>
                            <path d="M67.9759847,30.8583942 C68.7727169,30.3258394 70.1733567,30.8472993 70.0858167,31.900146 C70.2194926,32.8805839 69.0353368,33.5743066 68.1818219,33.149781 C67.2573287,32.7964964 67.1875333,31.3856934 67.9759847,30.8583942" id="Fill-111" fill="#00CD79" mask="url(#mask-2)"></path>
                            <path d="M23.9486934,31.0230657 C24.3071342,31.0960584 24.7105279,31.2689051 24.8376975,31.639708 C25.0944026,32.0140146 24.7389193,32.3871533 24.598737,32.7305109 C24.2000751,32.7550365 23.7002691,32.9220438 23.4145812,32.5477372 C23.0868977,32.3024818 23.2318119,31.8586861 23.2158418,31.5141606 C23.4553938,31.3442336 23.6783841,31.1462774 23.9486934,31.0230657" id="Fill-112" fill="#00CD79" mask="url(#mask-2)"></path>
                            <path d="M72.598451,31.5474453 C71.6869704,31.8551825 71.4320398,33.220438 72.1950572,33.800292 C72.5274726,34.1716788 73.0722316,34.0840876 73.5270847,34.030365 C73.5673057,33.2140146 73.5951056,32.3959124 73.6158076,31.579562 C73.2987709,31.4540146 72.9249515,31.469781 72.598451,31.5474453" id="Fill-113" fill="#00CD79" mask="url(#mask-2)"></path>
                            <path d="M50.4579315,31.7138686 C51.2369191,31.499562 52.0845192,32.3912409 51.7674824,33.1386861 C51.6687042,33.6724088 51.0872731,33.9970803 50.5709054,33.9906569 C50.0356102,33.8843796 49.5162852,33.4108029 49.6020507,32.830365 C49.5227915,32.2925547 49.9622659,31.8475912 50.4579315,31.7138686" id="Fill-114" fill="#00CD79" mask="url(#mask-2)"></path>
                            <path d="M27.7377554,32.1985401 C28.080226,31.8131387 28.7888267,31.9024818 29.0804295,32.3153285 C29.1715185,32.660438 29.1058635,33.0224818 29.0952167,33.3734307 C28.7491972,33.6607299 28.2251402,33.8989781 27.8312102,33.5527007 C27.3609785,33.2858394 27.3325872,32.5284672 27.7377554,32.1985401" id="Fill-115" fill="#00CD79" mask="url(#mask-2)"></path>
                            <path d="M5.56647864,32.3118248 C5.96987238,32.169927 6.39041922,32.2843796 6.66486891,32.6090511 C6.76187269,33.1077372 6.15678208,33.8376642 5.67353768,33.420146 C5.25299084,33.220438 5.22282504,32.5967883 5.56647864,32.3118248" id="Fill-116" fill="#00CD79" mask="url(#mask-2)"></path>
                            <path d="M54.5847322,32.6265693 C55.358988,32.3118248 56.2669196,32.9559124 56.1699158,33.7874453 C56.164001,34.6475912 54.9703814,35.1608759 54.3345335,34.5821898 C53.6395369,34.1319708 53.7507364,32.8671533 54.5847322,32.6265693" id="Fill-117" fill="#00CD79" mask="url(#mask-2)"></path>
                            <path d="M32.1206697,32.9127007 C32.7482368,32.3824818 33.7922103,33.1089051 33.5532498,33.8878832 C33.3811273,34.6814599 32.2833285,34.7217518 31.7906203,34.1868613 C31.7953522,33.7442336 31.6622677,33.1865693 32.1206697,32.9127007" id="Fill-118" fill="#00CD79" mask="url(#mask-2)"></path>
                            <path d="M9.66015612,33.390365 C9.81630853,32.9973723 10.383544,32.9459854 10.7153679,33.1410219 C11.0637534,33.3027737 10.9141073,33.7418978 10.9602433,34.0432117 C10.6686405,34.3328467 10.1363027,34.5389781 9.80802772,34.190365 C9.54836518,34.009927 9.61165423,33.6531387 9.66015612,33.390365" id="Fill-119" fill="#00CD79" mask="url(#mask-2)"></path>
                            <path d="M58.8960767,33.4318248 C59.5887073,33.1964964 60.4061415,33.6776642 60.4717965,34.4070073 C60.5285792,35.0294891 59.9814543,35.7436496 59.3006534,35.639708 C58.7192223,35.7045255 58.2602288,35.249635 58.1164976,34.7305109 C58.0496597,34.1909489 58.3732027,33.6221898 58.8960767,33.4318248" id="Fill-120" fill="#00CD79" mask="url(#mask-2)"></path>
                            <path d="M36.441478,33.7272993 C36.830676,33.4534307 37.3576904,33.560292 37.638055,33.9310949 C38.2579328,34.4706569 37.5907361,35.5643796 36.8271271,35.4312409 C35.9895824,35.3775182 35.6707712,34.1173723 36.441478,33.7272993" id="Fill-121" fill="#00CD79" mask="url(#mask-2)"></path>
                            <path d="M14.2518651,33.8207299 C14.5771827,33.8458394 14.9468617,33.8207299 15.173401,34.0986861 C15.282826,34.32 15.2449708,34.579854 15.2704048,34.820438 C14.9829424,35.1754745 14.5340042,35.1661314 14.1164148,35.1381022 C13.8549778,34.7217518 13.8697649,34.1594161 14.2518651,33.8207299" id="Fill-122" fill="#00CD79" mask="url(#mask-2)"></path>
                            <path d="M63.0465369,34.3567883 C63.9521026,33.7465693 65.2847215,34.9874453 64.6607033,35.9089051 C64.345441,36.6727007 63.1660171,36.7743066 62.692828,36.1051095 C62.1539839,35.5894891 62.4207443,34.6727007 63.0465369,34.3567883" id="Fill-123" fill="#00CD79" mask="url(#mask-2)"></path>
                            <path d="M40.8758516,34.4910949 C41.1993947,34.4227737 41.6134352,34.3772263 41.8730977,34.6283212 C42.2900956,34.9448175 42.3190785,35.6443796 41.9493995,36.0046715 C41.666669,36.369635 41.1372886,36.2808759 40.7398097,36.1962044 C40.0962725,35.8131387 40.1400425,34.739854 40.8758516,34.4910949" id="Fill-124" fill="#00CD79" mask="url(#mask-2)"></path>
                            <path d="M18.0947524,35.2029197 C18.3041386,34.7970803 18.8216892,34.4776642 19.262938,34.7258394 C19.6036342,34.9576642 19.5433026,35.3991241 19.5563153,35.7535766 C19.2972443,36.0332847 18.9358461,36.089927 18.5714904,36.0835036 C18.3768914,35.8119708 18.0983013,35.5562044 18.0947524,35.2029197" id="Fill-125" fill="#00CD79" mask="url(#mask-2)"></path>
                            <path d="M45.1954769,35.2916788 C45.5829005,35.2245255 46.0507663,35.2367883 46.2980076,35.5894891 C46.7865754,36.1506569 46.3547903,37.1579562 45.5953217,37.1690511 C45.0564776,37.2239416 44.4750464,36.6878832 44.5537141,36.1459854 C44.5483908,35.7594161 44.8512318,35.4353285 45.1954769,35.2916788" id="Fill-126" fill="#00CD79" mask="url(#mask-2)"></path>
                            <path d="M67.2910434,35.1754745 C67.6240502,35.0388321 68.0079249,35.070365 68.3604508,35.1240876 C69.0323794,35.3763504 69.3369949,36.2475912 68.9022524,36.8327007 C68.547952,37.5421898 67.3738515,37.5713869 66.9467983,36.9214599 C66.457639,36.3947445 66.7113867,35.5345985 67.2910434,35.1754745" id="Fill-127" fill="#00CD79" mask="url(#mask-2)"></path>
                            <path d="M22.5238026,35.8674453 C22.811265,35.3827737 23.5488486,35.499562 23.8741661,35.8884672 C23.8688428,36.1529927 23.8576045,36.4151825 23.8469578,36.679708 C23.5044871,36.8677372 23.1182465,36.8963504 22.7361463,36.8613139 C22.5309005,36.5851095 22.2132723,36.1868613 22.5238026,35.8674453" id="Fill-128" fill="#00CD79" mask="url(#mask-2)"></path>
                            <path d="M71.7916635,35.9293431 C71.1735602,36.1127007 70.9062084,36.809927 71.0132674,37.3985401 C71.2185132,37.8545985 71.6520727,38.32 72.1997891,38.2762044 C72.6333487,38.3036496 73.0426573,38.0554745 73.2567754,37.6957664 C73.2715625,37.6175182 73.2887156,37.539854 73.3029113,37.4610219 C73.3236133,37.2035036 73.3407664,36.9454015 73.359694,36.6890511 C73.1668694,36.0811679 72.4275114,35.6864234 71.7916635,35.9293431" id="Fill-129" fill="#00CD79" mask="url(#mask-2)"></path>
                            <path d="M49.3406137,36.2189781 C49.6706631,35.9556204 50.2237029,36.0128467 50.5123483,36.3194161 C50.8867592,36.6090511 50.8897166,37.1859854 50.696892,37.5708029 C50.2698388,38.2843796 48.9632454,38.0782482 48.8532289,37.239708 C48.7645059,36.8210219 49.0034664,36.4472993 49.3406137,36.2189781" id="Fill-130" fill="#00CD79" mask="url(#mask-2)"></path>
                            <path d="M26.9280105,37.5708029 C26.4447661,37.1783942 26.8262748,36.3159124 27.4396462,36.3591241 C27.7342065,36.3054015 27.952465,36.5267153 28.166583,36.6855474 C28.1281364,36.9991241 28.2724591,37.4108029 27.973167,37.6286131 C27.7123215,37.9129927 27.1740688,37.8581022 26.9280105,37.5708029" id="Fill-131" fill="#00CD79" mask="url(#mask-2)"></path>
                            <path d="M4.80050374,36.5564964 C5.21513571,36.4572263 5.48899392,36.7708029 5.72440552,37.0563504 C5.6640739,37.1655474 5.54281919,37.3856934 5.48248757,37.4966423 C5.24530152,37.4919708 5.00929844,37.4861314 4.77211239,37.480292 C4.71769564,37.3810219 4.60945363,37.179562 4.55503688,37.0791241 C4.63961943,36.9068613 4.72065307,36.7310949 4.80050374,36.5564964" id="Fill-132" fill="#00CD79" mask="url(#mask-2)"></path>
                            <path d="M54.0872922,36.8805839 C54.4475074,36.8385401 54.7982588,37.0960584 55.0194748,37.3605839 C55.159657,37.8078832 55.2312269,38.4671533 54.7391102,38.7305109 C54.2416701,39.1024818 53.5236056,38.8729927 53.2426496,38.3451095 C52.9037279,37.7167883 53.4135891,36.989781 54.0872922,36.8805839" id="Fill-133" fill="#00CD79" mask="url(#mask-2)"></path>
                            <path d="M31.2505932,37.400292 C31.5392386,36.9658394 32.1762694,37.1783942 32.4524936,37.5182482 C32.4986295,37.8055474 32.4743786,38.0986861 32.4660978,38.3883212 C32.1715375,38.5465693 31.8355733,38.8835036 31.4954686,38.6218978 C30.9796924,38.4467153 30.822357,37.7494891 31.2505932,37.400292" id="Fill-134" fill="#00CD79" mask="url(#mask-2)"></path>
                            <path d="M9.06512078,37.5042336 C9.45964222,37.3016058 9.83346163,37.5246715 10.0505371,37.8592701 C9.90207406,38.0589781 9.87072528,38.4613139 9.5389014,38.4268613 C9.37979155,38.4291971 9.22009022,38.4256934 9.06098038,38.4157664 C8.91133431,38.109781 8.76464568,37.7745985 9.06512078,37.5042336" id="Fill-135" fill="#00CD79" mask="url(#mask-2)"></path>
                            <path d="M57.9508814,37.8166423 C58.7570774,37.4224818 59.8282593,38.2867153 59.4313719,39.1229197 C59.1042799,39.9270073 57.8763541,39.9357664 57.4729604,39.1947445 C57.3599865,38.680292 57.4398372,38.0893431 57.9508814,37.8166423" id="Fill-136" fill="#00CD79" mask="url(#mask-2)"></path>
                            <path d="M13.2037512,38.2972263 C13.5432644,38.2744526 14.0572661,38.1080292 14.215193,38.5261314 C14.4115665,38.7877372 14.2394439,39.2560584 13.8851436,39.2449635 C13.6272555,39.3062774 13.388295,39.1865693 13.1605727,39.0908029 C13.1700365,38.8251095 13.1824577,38.5605839 13.2037512,38.2972263" id="Fill-137" fill="#00CD79" mask="url(#mask-2)"></path>
                            <path d="M35.484453,38.2470073 C35.7352432,37.9375182 36.1871388,38.1167883 36.529018,38.0916788 C36.6443578,38.260438 36.7679785,38.4239416 36.8685312,38.6037956 C36.9945178,39.0861314 36.5260605,39.5994161 36.0286205,39.5381022 C35.7518048,39.5416058 35.547742,39.3144526 35.3182453,39.1935766 C35.3401303,38.8776642 35.2040884,38.4817518 35.484453,38.2470073" id="Fill-138" fill="#00CD79" mask="url(#mask-2)"></path>
                            <path d="M62.235609,38.7246715 C62.8708654,38.260438 63.826116,38.8624818 63.8207926,39.6005839 C63.8113288,40.1232117 63.3570672,40.6621898 62.7975211,40.6294891 C62.3994507,40.6691971 62.0569801,40.390073 61.8369472,40.0934307 C61.5914803,39.6163504 61.7559135,38.9962044 62.235609,38.7246715" id="Fill-139" fill="#00CD79" mask="url(#mask-2)"></path>
                            <path d="M39.9342052,38.8922628 C40.2577483,38.9051095 40.6682399,38.7620438 40.9077919,39.0534307 C41.1420205,39.2881752 41.3348451,39.7127007 41.0704506,39.9941606 C40.7912691,40.6032117 39.6023814,40.4548905 39.6006069,39.7418978 C39.532586,39.4125547 39.7733209,39.1521168 39.9342052,38.8922628" id="Fill-140" fill="#00CD79" mask="url(#mask-2)"></path>
                            <path d="M17.4399769,39.8528467 C17.4180919,39.4773723 17.5405296,38.9827737 18.024957,39.0452555 C18.591601,38.999708 18.8305615,39.8084672 18.3579638,40.089927 C18.0474335,40.3217518 17.6653332,40.0957664 17.4399769,39.8528467" id="Fill-141" fill="#00CD79" mask="url(#mask-2)"></path>
                            <path d="M66.6664337,39.4639416 C67.3578814,39.1316788 68.2374216,39.8072993 68.1208988,40.5518248 C68.0783118,41.4633577 66.740961,41.8108029 66.2157211,41.0948905 C65.7969487,40.5781022 66.0146157,39.6986861 66.6664337,39.4639416" id="Fill-142" fill="#00CD79" mask="url(#mask-2)"></path>
                            <path d="M44.3892809,39.6887591 C45.0487883,39.4674453 45.802342,40.2178102 45.3829781,40.840292 C45.1026135,41.5089051 44.0290657,41.329635 43.8936153,40.6621898 C43.8167221,40.2756204 43.9906191,39.8172263 44.3892809,39.6887591" id="Fill-143" fill="#00CD79" mask="url(#mask-2)"></path>
                            <path d="M21.7755723,40.1605839 C21.8968271,39.9748905 22.138745,39.9270073 22.3173739,39.8113869 C22.5113814,39.9270073 22.704206,40.039708 22.8970306,40.1570803 C22.8798775,40.420438 22.878103,40.7048175 22.6935593,40.9191241 C22.401365,41.0242336 22.0908346,40.9454015 21.7944999,40.9121168 C21.7737979,40.6616058 21.7341683,40.4093431 21.7755723,40.1605839" id="Fill-144" fill="#00CD79" mask="url(#mask-2)"></path>
                            <path d="M70.986059,40.3089051 C71.3841294,40.2452555 71.8892588,40.220146 72.1554277,40.5839416 C72.7333099,41.12 72.3991201,42.139562 71.6674514,42.3456934 C71.3758486,42.3813139 71.0481651,42.3871533 70.8026982,42.2043796 C70.0556509,41.8277372 70.1609355,40.5167883 70.986059,40.3089051" id="Fill-145" fill="#00CD79" mask="url(#mask-2)"></path>
                            <path d="M48.5397411,40.6166423 C49.1909676,40.1027737 50.1598224,41.0744526 49.6884077,41.7232117 C49.4843449,42.1851095 48.934854,42.0572263 48.5285028,42.0642336 C48.1209687,41.689927 48.021599,40.9418978 48.5397411,40.6166423" id="Fill-146" fill="#00CD79" mask="url(#mask-2)"></path>
                            <path d="M26.1111678,40.8128467 C26.4548214,40.7550365 26.8020239,40.7614599 27.146269,40.819854 C27.1717029,41.069781 27.1959538,41.3226277 27.2148814,41.5760584 C26.9901166,41.7868613 26.7162584,41.9112409 26.4039535,41.9024818 C26.2832903,41.7880292 26.1602611,41.6776642 26.0395979,41.5678832 C26.0549765,41.3150365 26.0804105,41.0639416 26.1111678,40.8128467" id="Fill-147" fill="#00CD79" mask="url(#mask-2)"></path>
                            <path d="M3.91283919,40.947672 C4.07245959,40.9437051 4.23207999,40.9407299 4.39299812,40.9407299 C4.39991933,41.1589103 4.39991933,41.3775865 4.39170039,41.5962627 C4.23337772,41.595271 4.07505504,41.5927917 3.91629979,41.5898165 C3.90721571,41.3765948 3.90591798,41.1613896 3.91283919,40.947672" id="Fill-148" fill="#00CD79" mask="url(#mask-2)"></path>
                            <path d="M52.854043,41.4335766 C53.2000625,41.3547445 53.6838984,41.2724088 53.9281823,41.5988321 C54.2120958,41.9077372 54.2274744,42.4840876 53.8962421,42.7690511 C53.5123674,43.190073 52.7540818,43.009635 52.5228106,42.5167883 C52.4400025,42.1255474 52.4459174,41.6420438 52.854043,41.4335766" id="Fill-149" fill="#00CD79" mask="url(#mask-2)"></path>
                            <path d="M30.5242479,41.7115328 C30.9022077,41.3010219 31.6888846,41.7051095 31.5262259,42.2569343 C31.5741363,42.6148905 31.1902616,42.7007299 30.9400628,42.8251095 C30.7614339,42.7451095 30.582805,42.6674453 30.4047676,42.5944526 C30.3763763,42.3013139 30.2332366,41.9229197 30.5242479,41.7115328" id="Fill-150" fill="#00CD79" mask="url(#mask-2)"></path>
                            <path d="M8.19267832,41.8661611 C8.3746044,41.8535476 8.55744468,41.8458895 8.73937076,41.8440876 C8.73937076,42.0233782 8.73434265,42.2040203 8.72428644,42.3851128 C8.59675534,42.3797071 8.33895055,42.370247 8.21096235,42.3639403 C8.20593424,42.2409596 8.19770643,41.9909437 8.19267832,41.8661611" id="Fill-151" fill="#00CD79" mask="url(#mask-2)"></path>
                            <path d="M57.1541492,42.2213139 C57.5001688,42.1564964 57.9496984,42.1027737 58.2028546,42.4040876 C58.471981,42.6627737 58.4861766,43.0814599 58.3702453,43.4154745 C58.054983,44.0029197 56.9968138,43.9766423 56.7738235,43.3185401 C56.5200758,42.9226277 56.859589,42.4840876 57.1541492,42.2213139" id="Fill-152" fill="#00CD79" mask="url(#mask-2)"></path>
                            <path d="M34.6841718,42.5454015 C34.9450173,42.4881752 35.244901,42.24 35.4998316,42.4426277 C35.9529102,42.6026277 35.9493613,43.3640876 35.5158017,43.539854 C35.2579137,43.7191241 34.9296387,43.5877372 34.719661,43.4032117 C34.590717,43.1316788 34.6682017,42.8280292 34.6841718,42.5454015" id="Fill-153" fill="#00CD79" mask="url(#mask-2)"></path>
                            <path d="M12.5679033,42.65464 C12.7589534,42.6525212 12.951778,42.6504025 13.1428281,42.6493431 C13.1860066,42.7436291 13.2705892,42.9306122 13.3131762,43.0248983 C13.2546191,43.1170655 13.1363218,43.3040486 13.0777646,43.3972753 C12.7666428,43.4015128 12.5182185,43.2780934 12.3478704,43.049794 C12.4016956,42.9512704 12.5123036,42.7536934 12.5679033,42.65464" id="Fill-154" fill="#00CD79" mask="url(#mask-2)"></path>
                            <path d="M61.5642719,43.0516788 C61.9374999,42.8490511 62.3852551,43.0656934 62.6354538,43.3640876 C62.9217332,43.8493431 62.7182619,44.5962044 62.1125798,44.7124088 C61.6683735,44.8262774 61.2028737,44.5319708 61.0644659,44.1150365 C60.8586286,43.7021898 61.1934099,43.240292 61.5642719,43.0516788" id="Fill-155" fill="#00CD79" mask="url(#mask-2)"></path>
                            <path d="M39.008529,43.3243796 C39.3604634,43.2706569 39.7189042,43.2764964 40.0708386,43.3267153 C40.098047,43.6233577 40.1985997,43.9369343 40.0743875,44.2254015 C39.903448,44.3579562 39.7177212,44.4659854 39.5361349,44.579854 C39.3190594,44.4058394 38.9203975,44.3270073 38.9493804,43.9859854 C38.9381421,43.7623358 38.9819121,43.5421898 39.008529,43.3243796" id="Fill-156" fill="#00CD79" mask="url(#mask-2)"></path>
                            <path d="M16.8325044,43.470365 C17.0437407,43.4734077 17.2544752,43.4815215 17.4652097,43.4952137 C17.4707289,43.7021175 17.4722342,43.9100354 17.4707289,44.1189677 C17.2529699,44.1407737 17.0357127,44.1529445 16.8164484,44.1559872 C16.8084204,43.9262632 16.8124344,43.6980605 16.8325044,43.470365" id="Fill-157" fill="#00CD79" mask="url(#mask-2)"></path>
                            <path d="M65.871476,43.8534307 C66.4322051,43.5854015 67.1987715,44.1547445 67.0556318,44.7818978 C67.1076826,45.6239416 65.8040465,45.8470073 65.4207633,45.1813139 C65.0362972,44.7270073 65.3663466,44.0613139 65.871476,43.8534307" id="Fill-158" fill="#00CD79" mask="url(#mask-2)"></path>
                            <path d="M43.3453074,44.1191241 C43.6812717,44.0794161 44.1225205,43.9527007 44.344328,44.299562 C44.5353781,44.5915328 44.4862847,45.1310949 44.1166057,45.2747445 C43.7173524,45.5357664 43.2690057,45.1550365 43.1347382,44.7818978 C43.1625381,44.5494891 43.2725546,44.3381022 43.3453074,44.1191241" id="Fill-159" fill="#00CD79" mask="url(#mask-2)"></path>
                            <path d="M21.1988731,44.2131387 C21.5224162,44.2183942 21.7879936,44.3632117 21.9778607,44.6213139 C21.8885462,44.8058394 21.7879936,44.9839416 21.6785686,45.1562044 C21.4106252,45.2618978 21.1864519,45.1048175 20.9936273,44.939562 C20.9007639,44.6668613 21.0811673,44.4408759 21.1988731,44.2131387" id="Fill-160" fill="#00CD79" mask="url(#mask-2)"></path>
                            <path d="M70.052102,44.7328467 C70.509321,44.6032117 71.1564071,44.6440876 71.3249807,45.1708029 C71.6887449,45.7938686 71.0268716,46.6329927 70.3265517,46.4531387 C69.4848665,46.3491971 69.290859,45.1059854 70.052102,44.7328467" id="Fill-161" fill="#00CD79" mask="url(#mask-2)"></path>
                            <path d="M25.3049718,45.939854 C25.2339934,45.5690511 25.338095,45.230365 25.6563147,45.010219 C25.8479563,45.1229197 26.0425553,45.2367883 26.2347884,45.3512409 C26.2205927,45.5462774 26.2034396,45.7436496 26.1874695,45.939854 C25.8940922,45.9772263 25.5977575,45.9725547 25.3049718,45.939854" id="Fill-162" fill="#00CD79" mask="url(#mask-2)"></path>
                            <path d="M47.5229759,45.8359124 C47.2508922,45.4569343 47.6229371,45.0008759 47.9878843,44.8665693 C48.4054737,44.749781 48.6450257,45.1456934 48.8869436,45.3991241 C48.7645059,45.650219 48.7372975,45.990073 48.4723116,46.1459854 C48.128658,46.1769343 47.6596093,46.2475912 47.5229759,45.8359124" id="Fill-163" fill="#00CD79" mask="url(#mask-2)"></path>
                            <path d="M3.12718867,45.3398093 C3.2345844,45.3375587 3.34159795,45.3368086 3.44861149,45.3360584 C3.44555396,45.4388321 3.443643,45.5419809 3.44058547,45.6447546 C3.34389109,45.6380031 3.24681452,45.6308764 3.15012014,45.6241249 C3.14285851,45.5288529 3.1348325,45.4335809 3.12718867,45.3398093" id="Fill-164" fill="#00CD79" mask="url(#mask-2)"></path>
                            <path d="M51.9348731,45.8481752 C52.2294333,45.7950365 52.5358233,45.7162044 52.832158,45.8154745 C53.136182,46.0636496 53.3242747,46.5827737 52.9273873,46.8449635 C52.6405164,47.2589781 51.9620815,47.0505109 51.8023801,46.6271533 C51.6450448,46.3719708 51.8804564,46.0981022 51.9348731,45.8481752" id="Fill-165" fill="#00CD79" mask="url(#mask-2)"></path>
                            <path d="M29.7683282,45.9637956 C30.0380461,45.9509489 30.2929767,46.0309489 30.5319372,46.1494891 C30.5277968,46.3316788 30.5242479,46.5121168 30.520699,46.6948905 C30.3349722,46.7743066 30.1480625,46.8554745 29.9635188,46.9366423 C29.8310258,46.7982482 29.7050392,46.6557664 29.5837845,46.5086131 C29.6382012,46.3240876 29.6985329,46.1413139 29.7683282,45.9637956" id="Fill-166" fill="#00CD79" mask="url(#mask-2)"></path>
                            <path d="M7.45592284,46.1560488 C7.55299941,46.1429208 7.64854722,46.130918 7.74562379,46.1185401 C7.74868132,46.2291907 7.75059228,46.3398412 7.75364981,46.4512419 C7.64434312,46.4459907 7.53503643,46.4411146 7.42611193,46.4358634 C7.43643109,46.3420917 7.44713245,46.2490703 7.45592284,46.1560488" id="Fill-167" fill="#00CD79" mask="url(#mask-2)"></path>
                            <path d="M56.1220054,46.9056934 C56.2799323,46.4677372 56.7862447,46.6078832 57.1482344,46.5944526 C57.2647572,46.8566423 57.5610919,47.1176642 57.4144032,47.4254015 C57.2754039,47.6776642 57.0808049,47.9731387 56.7448406,47.8943066 C56.2426687,47.9515328 55.8144325,47.3255474 56.1220054,46.9056934" id="Fill-168" fill="#00CD79" mask="url(#mask-2)"></path>
                            <path d="M11.7293667,46.9343181 C11.8333227,46.9335357 11.9361321,46.9319708 12.0400882,46.9319708 C12.0496429,47.0673313 12.0580511,47.203083 12.063784,47.3400084 C11.9472157,47.3376611 11.8325583,47.3368786 11.7167544,47.3360962 C11.7198119,47.2015181 11.7243982,47.0677225 11.7293667,46.9343181" id="Fill-169" fill="#00CD79" mask="url(#mask-2)"></path>
                            <path d="M33.8602313,46.939562 C34.1086556,46.8508029 34.4499432,46.6329927 34.6806229,46.8805839 C34.9408769,47.0610219 34.7930053,47.4236496 34.8119329,47.6846715 C34.5475385,47.7051095 34.284327,47.7156204 34.0199326,47.7185401 C33.9110991,47.4715328 33.8685121,47.2075912 33.8602313,46.939562" id="Fill-170" fill="#00CD79" mask="url(#mask-2)"></path>
                            <path d="M60.7551185,47.4166423 C61.4388768,47.1293431 62.1640391,48.0951825 61.5364721,48.5821898 C61.167976,49.0908029 60.2848868,48.6645255 60.3345717,48.0963504 C60.2819294,47.7909489 60.5658429,47.6023358 60.7551185,47.4166423" id="Fill-171" fill="#00CD79" mask="url(#mask-2)"></path>
                            <path d="M38.2005586,47.7220438 C38.5051741,47.6893431 38.8097896,47.6788321 39.1149966,47.7051095 C39.1262348,47.9433577 39.1356986,48.1862774 39.137473,48.4268613 C39.0351459,48.4817518 38.833449,48.5938686 38.7311219,48.6481752 C38.5589993,48.569927 38.3868768,48.4934307 38.2147542,48.4192701 C38.2017415,48.1862774 38.1987841,47.9527007 38.2005586,47.7220438" id="Fill-172" fill="#00CD79" mask="url(#mask-2)"></path>
                            <path d="M16.0280988,47.8259854 C16.211898,47.8361127 16.4329712,47.8083563 16.508376,47.9989003 C16.4539646,48.2070734 16.2144687,48.1616879 16.0293842,48.1748159 C16.0280988,48.058164 16.0280988,47.941137 16.0280988,47.8259854" id="Fill-173" fill="#00CD79" mask="url(#mask-2)"></path>
                            <path d="M42.6585917,48.499854 C42.9105649,48.4531387 43.16727,48.4986861 43.4222006,48.5162044 C43.4316644,48.8116788 43.4281155,49.1077372 43.4109624,49.4032117 C43.1140362,49.4236496 42.8165185,49.4236496 42.5201839,49.4078832 C42.513086,49.1077372 42.3309082,48.6937226 42.6585917,48.499854" id="Fill-174" fill="#00CD79" mask="url(#mask-2)"></path>
                            <path d="M64.8393322,48.2983942 C65.2368111,48.3071533 65.7803871,48.1670073 66.0069264,48.6026277 C66.3937585,49.2251095 65.4840524,49.9211679 64.9233233,49.5164964 C64.4448108,49.2607299 64.6098355,48.6674453 64.8393322,48.2983942" id="Fill-175" fill="#00CD79" mask="url(#mask-2)"></path>
                            <path d="M20.3061411,48.6470073 C20.4185054,48.6477941 20.531634,48.6501545 20.6447626,48.652515 C20.6470557,48.7717165 20.6501132,48.8928851 20.6527886,49.014447 C20.3753178,49.1725956 20.2629535,48.8830499 20.3061411,48.6470073" id="Fill-176" fill="#00CD79" mask="url(#mask-2)"></path>
                            <path d="M69.2583272,49.1287591 C69.6043468,49.0347445 70.0621572,49.0259854 70.2833732,49.3576642 C70.6353076,49.8767883 70.139642,50.6680292 69.4972877,50.5278832 C68.8525675,50.3912409 68.6851769,49.4651095 69.2583272,49.1287591" id="Fill-177" fill="#00CD79" mask="url(#mask-2)"></path>
                            <path d="M46.758184,49.5743066 C46.9669787,49.3529927 47.3402066,49.1159124 47.5945458,49.4172263 C47.954761,49.729635 47.6885921,50.2277372 47.3301514,50.4116788 C46.9510086,50.2715328 46.6765589,50.0011679 46.758184,49.5743066" id="Fill-178" fill="#00CD79" mask="url(#mask-2)"></path>
                            <path d="M24.6301916,49.4329927 C24.7712852,49.4434482 24.910694,49.4534856 25.0526299,49.4647775 C25.0593687,49.6011178 25.0669498,49.7378762 25.0741098,49.8742164 C24.9195387,49.8838355 24.7641252,49.8921999 24.6099752,49.8993097 C24.614187,49.7441495 24.6209258,49.5889893 24.6301916,49.4329927" id="Fill-179" fill="#00CD79" mask="url(#mask-2)"></path>
                            <path d="M2.38115535,49.6522668 C2.54587977,49.5990045 2.60359064,49.6552675 2.55505236,49.8233063 C2.38650603,49.8694419 2.32879515,49.8128039 2.38115535,49.6522668" id="Fill-180" fill="#00CD79" mask="url(#mask-2)"></path>
                            <path d="M28.9560031,50.2634313 C29.0099402,50.2596745 29.1194869,50.2521607 29.1734241,50.2493431 C29.2453402,50.3202539 29.3185107,50.3935128 29.3929356,50.4658325 C29.3816464,50.5869915 29.3716116,50.7100289 29.3611587,50.8311879 C29.219417,50.8340055 29.0776752,50.835884 28.9355154,50.8372928 C28.9355154,50.6456926 28.9422053,50.4540923 28.9560031,50.2634313" id="Fill-181" fill="#00CD79" mask="url(#mask-2)"></path>
                            <path d="M51.0760348,50.2633577 C51.1813194,50.2154745 51.3883397,50.1162044 51.4936242,50.0659854 C51.6704787,50.1424818 51.8491076,50.2166423 52.0301024,50.289635 C52.0945744,50.5985401 52.0419321,50.9045255 51.8786819,51.1778102 C51.6006833,51.1608759 51.328008,51.1036496 51.066571,51.0090511 C51.0630221,50.760292 51.066571,50.5121168 51.0760348,50.2633577" id="Fill-182" fill="#00CD79" mask="url(#mask-2)"></path>
                            <path d="M55.401575,51.0125547 C55.7079649,50.9991241 56.0155379,51.0078832 56.3225193,51.0364964 C56.356234,51.3366423 56.3609659,51.639708 56.3384895,51.9421898 C56.0261846,51.9672993 55.7126968,51.9672993 55.401575,51.9363504 C55.3702262,51.6274453 55.3731836,51.3191241 55.401575,51.0125547" id="Fill-183" fill="#00CD79" mask="url(#mask-2)"></path>
                            <path d="M33.1900772,51.6333042 C33.2198881,51.4782339 33.1319841,51.1010243 33.3750577,51.1586951 C33.6223354,51.1168303 33.5401643,51.4756707 33.5676821,51.6392849 C33.4411768,51.6384305 33.3154359,51.6358673 33.1900772,51.6333042" id="Fill-184" fill="#00CD79" mask="url(#mask-2)"></path>
                            <path d="M59.6815707,51.9591241 C59.9950585,51.7471533 60.3393036,51.8119708 60.6646211,51.9637956 C60.6752678,52.220146 60.6788168,52.4782482 60.6788168,52.7381022 C60.450503,52.8011679 60.187883,53.020146 59.9572033,52.8513869 C59.5473033,52.7381022 59.68926,52.2691971 59.6815707,51.9591241" id="Fill-185" fill="#00CD79" mask="url(#mask-2)"></path>
                            <path d="M37.396137,52.0985346 C37.6199666,52.0791624 37.8448112,52.0746285 38.0701634,52.0783381 C38.0610275,52.2279571 38.0508765,52.3796371 38.0392028,52.5300805 C37.8346602,52.5284318 37.6326553,52.5234857 37.4301429,52.5156544 C37.4179617,52.3763397 37.4067956,52.237025 37.396137,52.0985346" id="Fill-186" fill="#00CD79" mask="url(#mask-2)"></path>
                            <path d="M15.2930127,52.2284803 C15.4600303,52.1733426 15.515448,52.2284803 15.4600303,52.3931433 C15.2922483,52.4482811 15.2364484,52.3931433 15.2930127,52.2284803" id="Fill-187" fill="#00CD79" mask="url(#mask-2)"></path>
                            <path d="M63.8284819,53.1246715 C63.9929151,52.8455474 64.2987136,52.4110949 64.6713501,52.6551825 C65.15282,52.7667153 64.9730081,53.3325547 64.9333785,53.6770803 C64.6382268,53.7010219 64.3436666,53.7051095 64.0514723,53.6794161 C63.978128,53.4919708 63.9047837,53.3074453 63.8284819,53.1246715" id="Fill-188" fill="#00CD79" mask="url(#mask-2)"></path>
                            <path d="M41.7045241,52.9022386 C41.9061055,52.8937926 42.1096346,52.8921838 42.3131636,52.8982167 C42.3170589,53.0389831 42.3209542,53.1821627 42.3248495,53.3249401 C42.1188859,53.3273532 41.914383,53.3249401 41.7113408,53.3177007 C41.7069586,53.1781408 41.7054979,53.0405919 41.7045241,52.9022386" id="Fill-189" fill="#00CD79" mask="url(#mask-2)"></path>
                            <path d="M46.0179348,53.7074878 C46.223676,53.7002243 46.4289284,53.6963504 46.635647,53.6963504 C46.6395565,53.9036037 46.6395565,54.1123098 46.635647,54.3215 C46.4289284,54.3185946 46.2217212,54.3147207 46.0164688,54.3079414 C46.0125592,54.1064989 46.0125592,53.9069934 46.0179348,53.7074878" id="Fill-190" fill="#00CD79" mask="url(#mask-2)"></path>
                            <path d="M50.3238619,54.5072504 C50.5284125,54.4999985 50.731958,54.4970978 50.9375138,54.4980647 C50.9470629,54.7030513 50.9551042,54.9085214 50.9591248,55.1154419 C50.737989,55.1222103 50.5178583,55.1231772 50.2982302,55.1164088 C50.3022508,54.9123891 50.3107947,54.7093363 50.3238619,54.5072504" id="Fill-191" fill="#00CD79" mask="url(#mask-2)"></path>
                            <path d="M54.6004034,55.4251691 C54.8284678,55.4043134 55.0570601,55.3985781 55.2861804,55.4084846 C55.2956831,55.5836722 55.3072975,55.7619882 55.3173281,55.9413469 C55.2191337,55.9872294 55.0259125,56.0826441 54.9277181,56.1285266 C54.6289114,56.001307 54.5550017,55.719234 54.6004034,55.4251691" id="Fill-192" fill="#00CD79" mask="url(#mask-2)"></path>
                            <path d="M32.4425384,55.5579051 C32.4991027,55.5549044 32.6103204,55.5492781 32.6657381,55.5462774 C32.6680312,55.6062912 32.6722353,55.7278193 32.6737641,55.7885833 C32.615671,55.7844573 32.4979562,55.7762054 32.4394809,55.7724546 C32.4402453,55.7191923 32.4425384,55.6115424 32.4425384,55.5579051" id="Fill-193" fill="#00CD79" mask="url(#mask-2)"></path>
                            <path d="M59.0304589,56.1985401 C59.2258442,56.2047217 59.422321,56.2103882 59.6198894,56.2206909 C59.6340794,56.4442588 59.6417202,56.6673116 59.6417202,56.8929401 C59.3726561,56.9186967 59.0964969,56.9186967 58.862362,56.7760048 C58.9065693,56.5797389 58.9644208,56.3875941 59.0304589,56.1985401" id="Fill-194" fill="#00CD79" mask="url(#mask-2)"></path>
                            <path d="M36.762646,56.3686163 C36.8108021,56.3637402 36.9074965,56.3521125 36.9560348,56.3468613 C36.9629142,56.4083755 36.9778197,56.5329043 36.9858457,56.5944185 C36.9220197,56.5891672 36.7943679,56.5782897 36.7313063,56.5730385 C36.7385679,56.5212766 36.75462,56.4200032 36.762646,56.3686163" id="Fill-195" fill="#00CD79" mask="url(#mask-2)"></path>
                            <path d="M63.1944085,57.1313845 C63.4312539,57.1132156 63.6707135,57.1074547 63.9096503,57.111443 C63.9070361,57.2847129 63.9044219,57.4579829 63.8986707,57.6334685 C63.6680993,57.6352411 63.4380508,57.6299234 63.2085251,57.6144133 C63.2017282,57.4535514 63.195977,57.2926895 63.1944085,57.1313845" id="Fill-196" fill="#00CD79" mask="url(#mask-2)"></path>
                            <path d="M41.0367359,57.273274 C41.0967399,57.2691481 41.2159836,57.2631467 41.2756054,57.260146 C41.2733123,57.32091 41.2694904,57.4405626 41.2675794,57.4998263 C41.2113973,57.4953253 41.1017084,57.4874485 41.0459085,57.4836976 C41.0439976,57.4308104 41.0386469,57.3261612 41.0367359,57.273274" id="Fill-197" fill="#00CD79" mask="url(#mask-2)"></path>
                            <path d="M45.365552,58.0855368 C45.4137081,58.0810358 45.511549,58.0754095 45.5600873,58.0724088 C45.5692599,58.1324226 45.5856941,58.2562012 45.5948667,58.316215 C45.5321874,58.3105887 45.4068286,58.2970856 45.3445315,58.2907091 C45.3498822,58.2385721 45.3602013,58.1369237 45.365552,58.0855368" id="Fill-198" fill="#00CD79" mask="url(#mask-2)"></path>
                            <path d="M49.6245181,58.8737429 C49.6852865,58.8737429 49.8064411,58.8737429 49.8672095,58.8729927 C49.8725602,58.9746412 49.8786752,59.0759145 49.8844081,59.1779381 C49.8186712,59.1768128 49.6852865,59.1726869 49.6180208,59.1711865 C49.6191674,59.0706633 49.6210783,58.9720156 49.6245181,58.8737429" id="Fill-199" fill="#00CD79" mask="url(#mask-2)"></path>
                            <path d="M53.9281823,59.7705109 C54.0340493,59.7780127 54.141445,59.7858895 54.2492229,59.7941414 C54.2492229,59.8496542 54.2503695,59.9595546 54.2515161,60.0146923 C54.1445026,60.0188183 54.0382534,60.0240695 53.9323864,60.030821 C53.9312398,59.965556 53.9289467,59.8365262 53.9281823,59.7705109" id="Fill-200" fill="#00CD79" mask="url(#mask-2)"></path>
                            <path d="M58.2481942,60.5938686 C58.3502392,60.5968693 58.4530487,60.59987 58.5562403,60.6036209 C58.5562403,60.7007683 58.5562403,60.799041 58.5570047,60.8980638 C58.4530487,60.8965635 58.3502392,60.8980638 58.2470476,60.898814 C58.2462832,60.7967905 58.2470476,60.6943918 58.2481942,60.5938686" id="Fill-201" fill="#00CD79" mask="url(#mask-2)"></path>
                            <path d="M62.4248847,61.3973968 C62.5595153,61.3927113 62.6945397,61.3907589 62.8303513,61.3891971 C62.8268084,61.5239075 62.8248401,61.6597894 62.8205099,61.7956713 C62.6921777,61.7894238 62.5638456,61.7823955 62.4366944,61.7765385 C62.4315768,61.6500278 62.4268529,61.5231266 62.4248847,61.3973968" id="Fill-202" fill="#00CD79" mask="url(#mask-2)"></path>
                            <path d="M48.8420321,63.2493911 C49.011725,63.2017551 49.0682893,63.2595184 49.0136359,63.4208057 C48.8481471,63.4706922 48.7904363,63.4125537 48.8420321,63.2493911" id="Fill-203" fill="#00CD79" mask="url(#mask-2)"></path>
                        </g>
                        <rect id="Rectangle-51" fill="#FFFFFF" x="38.2635378" y="40.6666667" width="18.0860303" height="3.11775362" rx="1.55887681"></rect>
                        <rect id="Rectangle-51-Copy" fill="#FFFFFF" x="36.2496674" y="48" width="18.6495667" height="3.11775362" rx="1.55887681"></rect>
                        <rect id="Rectangle-51-Copy-2" fill="#FFFFFF" x="24.1664449" y="55.3333333" width="28.8654759" height="3.11775362" rx="1.55887681"></rect>
                        <path d="M38.3815534,0.410510949 L38.3815534,0.405839416 L38.3720896,0.405839416 L38.3720896,0.410510949 L0.0147871604,19.1468613 C0.0147871604,64.4373723 37.7368332,79.3728467 38.3720896,79.6221898 L38.3720896,79.6268613 C38.3720896,79.6268613 38.3744556,79.6245255 38.3780045,79.6245255 C38.3803704,79.6245255 38.3815534,79.6268613 38.3815534,79.6268613 L38.3815534,79.6221898 C39.0179928,79.3728467 76.7406303,64.4373723 76.7406303,19.1468613 L38.3815534,0.410510949 L38.3815534,0.410510949 Z M38.3709067,76.0788321 L38.3709067,76.0811679 L38.3679492,76.0811679 L38.3614429,76.0811679 L38.3614429,76.0788321 C37.79125,75.8540146 3.89257209,62.4291971 3.89257209,21.7331387 L38.3614429,4.89518248 L38.3614429,4.89167883 L38.3679492,4.89284672 L38.3709067,4.89167883 L38.3709067,4.89518248 L72.8409604,21.7331387 C72.8409604,62.4291971 38.941691,75.8540146 38.3709067,76.0788321 L38.3709067,76.0788321 Z" id="Fill-206" fill="#703480"></path>
                        <path d="M38.3614429,76.0788321 C35.4111086,74.8513869 3.89257209,60.840292 3.89257209,21.7331387 L38.3614429,4.89167883 L38.3720896,0.410510949 L0.0147871604,19.1468613 C0.0147871604,62.8291971 35.309373,78.3608759 38.3720896,79.6268613 L38.3614429,76.0788321" id="Fill-207" fill="#9445A9"></path>
                        <path d="M39.7025315,75.4545985 C39.4592129,75.5337418 39.2206446,75.6151356 38.9736313,75.6927785 C39.1683918,75.6312643 39.4132938,75.5521211 39.7025315,75.4545985" id="Fill-208" fill="#703480"></path>
                        <path d="M74.0570565,20.6306569 L38.3602599,3.25255474 L2.74331399,20.0157664 C2.74331399,20.0157664 2.19027419,36.1518248 11.6049634,52.0607299 C7.1226794,44.2732847 3.89257209,34.3007299 3.89257209,21.7331387 L38.3614429,4.89518248 L38.3614429,4.89167883 L38.3679492,4.89284672 L38.3709067,4.89167883 L38.3709067,4.89518248 L72.8409604,21.7331387 C72.8409604,57.7564964 46.2838119,72.4064234 39.790474,75.4545985 C76.3514323,58.8694891 74.0570565,20.6306569 74.0570565,20.6306569" id="Fill-209" fill="#703480"></path>
                        <path d="M70.4383426,48.5127007 C66.4310221,56.4151825 59.6289284,67.8020438 38.2614817,78.3859854 C15.3413831,66.6341606 9.27864738,55.0283212 4.47459472,44.2218978 C14.4760385,70.1582482 37.8734666,79.4259854 38.3720896,79.6221898 L38.3720896,79.6268613 C38.3720896,79.6268613 38.3744556,79.6245255 38.3780045,79.6245255 C38.3803704,79.6245255 38.3815534,79.6268613 38.3815534,79.6268613 L38.3815534,79.6221898 C38.8535596,79.4376642 59.6750643,71.1883212 70.4383426,48.5127007" id="Fill-210" fill="#703480"></path>
                        <path d="M38.5572249,3.34832117 L38.5572249,4.98510949 L72.8409604,21.7331387 C72.8409604,57.7564964 46.2838119,72.4064234 39.790474,75.4545985 C76.3514323,58.8694891 74.0570565,20.6306569 74.0570565,20.6306569 L38.5572249,3.34832117" id="Fill-211" fill="#9445A9"></path>
                        <path d="M16.1109633,38.0241312 C16.1105134,38.0241312 21.0124318,45.1995044 22.5333445,52.3739894 C22.7029346,52.7079549 29.4635963,52.3739894 29.4635963,52.3739894 C29.4635963,52.3739894 38.8954144,30.382894 55.3389055,13.3333333 C45.1518042,19.2647738 32.6390245,34.7062373 26.381735,44.2810993 C26.3430487,42.2444426 24.8995086,38.0241312 22.7029346,35.6885932 C22.5333445,35.8551319 16.1109633,38.0241312 16.1109633,38.0241312" id="Fill-28" fill="#FF6545"></path>
                    </g>
                </g>
            </g>
        </g>
    </g>
</svg>