<?xml version="1.0" encoding="UTF-8"?>
<svg width="77px" height="80px" viewBox="0 0 77 80" version="1.1" xmlns="http://www.w3.org/2000/svg" xmlns:xlink="http://www.w3.org/1999/xlink">
    <!-- Generator: Sketch 39.1 (31720) - http://www.bohemiancoding.com/sketch -->
    <title>Badge</title>
    <desc>Created with Sketch.</desc>
    <defs></defs>
    <g id="Page-1" stroke="none" stroke-width="1" fill="none" fill-rule="evenodd">
        <g id="Landing_new-03-1920" transform="translate(-636.000000, -2352.000000)">
            <g id="Modes" transform="translate(-1.000000, 1593.000000)">
                <g id="Group-10-Copy-3" transform="translate(617.000000, 737.000000)">
                    <g id="Badge" transform="translate(20.000000, 22.000000)">
                        <path d="M38.4704023,0.00409079299 L38.4704023,0 L38.4609161,0 L38.4609161,0.00409079299 L0.0112649515,18.7551171 C0.0112649515,64.0816878 37.8241498,79.0282766 38.4609161,79.2783993 L38.4609161,79.2824901 L38.4656592,79.2801525 L38.4704023,79.2824901 L38.4704023,79.2783993 C39.1083543,79.0282766 76.9200534,64.0816878 76.9200534,18.7551171 L38.4704023,0.00409079299" id="Fill-1" fill="#00CD79"></path>
                        <path d="M38.4567658,52.2633868 L76.9093814,19.614768 C76.9123458,19.3278281 76.9200534,19.044979 76.9200534,18.7551171 L75.7757715,18.1976004 L38.4567658,49.8837141 L38.4567658,52.2633868" id="Fill-2" fill="#00AF67"></path>
                        <path d="M38.4567658,57.0215635 L76.7042407,24.5476799 C76.7647157,23.7260149 76.8103684,22.8914932 76.8459419,22.047621 L38.4567658,54.6418907 L38.4567658,57.0215635" id="Fill-3" fill="#00AF67"></path>
                        <polyline id="Fill-4" fill="#00AF67" points="38.4567658 47.8803943 74.277533 17.4665173 72.4976706 16.5986848 38.4567658 45.501306 38.4567658 47.8803943"></polyline>
                        <polyline id="Fill-5" fill="#00AF67" points="38.4567658 43.3723405 70.9051622 15.8214341 69.1252999 14.954186 38.4567658 40.9926677 38.4567658 43.3723405"></polyline>
                        <path d="M38.4567658,70.6707865 L73.50203,40.9155271 C73.8465003,39.8735437 74.1696266,38.8081843 74.4684442,37.7159426 L38.4567658,68.2916982 L38.4567658,70.6707865" id="Fill-6" fill="#00AF67"></path>
                        <polyline id="Fill-7" fill="#00AF67" points="38.4567658 38.6141638 67.3454375 14.0851847 65.5655752 13.2179365 38.4567658 36.2344911 38.4567658 38.6141638"></polyline>
                        <path d="M38.4567658,75.9461562 L70.1877627,49.0041936 C70.8014061,47.7629301 71.3830333,46.4760835 71.9320515,45.1448226 L38.4567658,73.5676523 L38.4567658,75.9461562" id="Fill-8" fill="#00AF67"></path>
                        <path d="M38.4567658,61.7797401 L76.1202419,29.8014269 C76.2500853,28.9224908 76.3686637,28.03362 76.4682696,27.1266327 L38.4567658,59.4000674 L38.4567658,61.7797401" id="Fill-9" fill="#00AF67"></path>
                        <path d="M38.4567658,66.287794 L75.1058033,35.1708849 C75.3245806,34.2241585 75.5279426,33.261069 75.7105534,32.2781099 L38.4567658,63.9087057 L38.4567658,66.287794" id="Fill-10" fill="#00AF67"></path>
                        <polyline id="Fill-11" fill="#00AF67" points="38.4567658 6.30683399 43.1767805 2.29902566 41.3969182 1.43119315 38.4567658 3.92774567 38.4567658 6.30683399"></polyline>
                        <polyline id="Fill-12" fill="#00AF67" points="38.4567658 10.8148879 46.5485584 3.94410884 44.7698818 3.07627633 38.4567658 8.43579954 38.4567658 10.8148879"></polyline>
                        <path d="M38.4609161,79.2783993 L38.4609161,79.2824901 L38.4656592,79.2801525 L38.4704023,79.2824901 L38.4704023,79.2783993 C38.5895737,79.2316474 40.0101433,78.6706244 42.2400108,77.4930604 L63.9730668,59.0394932 C65.2886945,57.3061658 66.5586696,55.4425174 67.7574976,53.4479636 L38.4567658,78.325829 L38.4567658,79.2766461 L38.4609161,79.2783993" id="Fill-13" fill="#00AF67"></path>
                        <polyline id="Fill-14" fill="#00AF67" points="38.4567658 15.197296 49.827845 5.5430245 48.0479827 4.67460759 38.4567658 12.8182076 38.4567658 15.197296"></polyline>
                        <polyline id="Fill-15" fill="#00AF67" points="38.4567658 1.54807295 39.6170558 0.563360634 38.4698094 0.00409079299 38.4698094 0 38.4609161 0 38.4609161 0.00409079299 38.4567658 0.00642838898 38.4567658 1.54807295"></polyline>
                        <polyline id="Fill-16" fill="#00AF67" points="38.4567658 25.0900022 57.2283253 9.15227271 55.4484629 8.2838558 38.4567658 22.7109139 38.4567658 25.0900022"></polyline>
                        <polyline id="Fill-17" fill="#00AF67" points="38.4567658 29.5974717 60.600696 10.7967715 58.8208337 9.92835458 38.4567658 27.2189677 38.4567658 29.5974717"></polyline>
                        <polyline id="Fill-18" fill="#00AF67" points="38.4567658 20.3318256 53.6686006 7.41602329 51.8887383 6.54760638 38.4567658 17.9527372 38.4567658 20.3318256"></polyline>
                        <polyline id="Fill-19" fill="#00AF67" points="38.4567658 33.981633 63.8793898 12.3956872 62.0995275 11.5278546 38.4567658 31.6013758 38.4567658 33.981633"></polyline>
                        <path d="M38.4704023,0.00409079299 L38.4704023,0 L38.4609161,0 L38.4609161,0.00409079299 L0.0112649515,18.7551171 C0.0112649515,64.0816878 37.8241498,79.0282766 38.4609161,79.2783993 L38.4609161,79.2824901 L38.4656592,79.2801525 L38.4704023,79.2824901 L38.4704023,79.2783993 C39.1083543,79.0282766 76.9200534,64.0816878 76.9200534,18.7551171 L38.4704023,0.00409079299 M38.4704023,76.0314785 L38.4704023,76.0338161 L38.4597303,76.0338161 L38.4597303,76.0314785 C37.8763244,75.8018097 3.16189402,62.0760304 3.16189402,20.4674061 L38.4597303,3.25101163 L38.4597303,3.24692084 L38.4656592,3.24867403 L38.4704023,3.24692084 L38.4704023,3.25101163 L73.7694244,20.4674061 C73.7694244,62.0760304 39.054994,75.8018097 38.4704023,76.0314785" id="Fill-20" fill="#34587A"></path>
                        <path d="M38.4704023,0 L38.4609161,0 L38.4609161,0.00409079299 L38.4259354,0.0204539649 L38.4259354,3.2673748 L38.4597303,3.25101163 L38.4597303,3.24692084 L38.4656592,3.24867403 L38.4704023,3.24692084 L38.4704023,3.25101163 L73.7694244,20.4674061 C73.7694244,62.0760304 39.054994,75.8018097 38.4704023,76.0314785 L38.4704023,76.0338161 L38.4597303,76.0338161 L38.4597303,76.0314785 L38.4259354,76.0180373 L38.4259354,79.2649581 L38.4609161,79.2783993 L38.4609161,79.2824901 L38.4656592,79.2801525 L38.4704023,79.2824901 L38.4704023,79.2783993 C39.1083543,79.0282766 76.9200534,64.0816878 76.9200534,18.7551171 L38.4704023,0.00409079299 L38.4704023,0" id="Fill-21" fill="#007BAB"></path>
                        <path d="M44.6702759,42.9504044 L44.3258055,37.7878236 L42.739819,34.6618734 C42.673415,34.8418683 42.6040466,35.0212788 42.513927,35.1948453 C42.2121449,35.7739847 41.7028505,36.2882558 41.2961265,36.8311625 C41.9577942,39.4726459 39.8903791,42.0965975 40.1239786,43.6318136 C39.0870102,45.1419006 36.9626775,47.9177959 36.9626775,47.9177959 L51.587549,69.637569 L62.5560545,57.2681798 L44.6702759,42.9504044" id="Fill-22" fill="#007BAB"></path>
                        <path d="M49.5136122,66.5577863 L49.5136122,66.5577863 L50.5333867,68.0725485 L49.5136122,66.5577863 M47.2535072,63.2015829 L47.2535072,63.2015829 L48.4944305,65.0447773 L48.4950234,65.0447773 L47.2535072,63.2015829 M45.3758176,60.4128309 L45.3758176,60.4128309 L46.2343255,61.6879895 L45.3758176,60.4128309 M43.4447678,57.5446006 L43.4447678,57.5446006 L44.3566359,58.8992375 L43.4447678,57.5446006" id="Fill-23" fill="#00A871"></path>
                        <polyline id="Fill-24" fill="#008F61" points="46.2343255 61.6879895 46.2343255 61.6879895 47.2535072 63.2015829 46.2343255 61.6879895"></polyline>
                        <polyline id="Fill-25" fill="#008F61" points="48.4950234 65.0447773 48.4944305 65.0447773 49.5136122 66.5577863 48.4950234 65.0447773"></polyline>
                        <polyline id="Fill-26" fill="#008F61" points="44.3566359 58.8992375 44.3566359 58.8992375 45.3758176 60.4128309 44.3566359 58.8992375"></polyline>
                        <polyline id="Fill-27" fill="#008F61" points="50.5333867 68.0725485 50.5333867 68.0725485 50.9136705 68.5611061 50.5333867 68.0725485"></polyline>
                        <path d="M45.4143556,44.6007472 C43.7862737,45.8741526 39.7119186,47.844746 38.9696175,48.2409685 L38.0790935,49.5763202 L50.8624419,68.5611061 C52.1638402,67.9527467 53.9401452,66.8131687 53.9401452,66.8131687 L41.7117439,50.5960965 L42.6751937,48.8428995 L48.4558925,53.8833408 C48.4558925,53.8833408 44.4538703,49.5003484 43.8609781,48.6967997 C44.6074293,47.5934544 45.1617835,45.6211078 45.4143556,44.6007472" id="Fill-28" fill="#0064A0"></path>
                        <path d="M47.2736655,42.4355489 L46.6618008,41.2351933 L46.8064665,40.2615846 L46.4228652,38.8233787 L45.2649468,38.2226165 L45.0266041,36.981353 L44.1669104,36.4191612 L44.5339107,35.5618479 L43.8674999,33.5316457 L42.0330915,32.7801086 L40.8526431,33.5976828 L39.9111303,34.6057711 L37.0628763,31.7977339 L30.7882983,36.9112251 L31.4802035,42.9504044 L13.5944249,57.2681798 L24.5629303,69.637569 L38.9696175,48.2409685 C39.8382046,47.7775401 45.2708757,45.157095 46.0054691,44.0216078 C46.1068537,43.8649888 47.2736655,42.4355489 47.2736655,42.4355489" id="Fill-29" fill="#34587A"></path>
                        <path d="M21.3298893,68.1210536 C21.5575599,68.4436419 21.8569704,68.7101278 22.2073697,68.8959667 C21.9150738,68.6423376 21.6239638,68.385202 21.3298893,68.1210536" id="Fill-30" fill="#82D0EF"></path>
                        <path d="M38.0749432,49.5698918 L25.5495029,68.1718964 C31.5821809,72.9838377 36.8174189,75.3436409 38.1437187,75.9023263 C36.8239407,75.3459785 31.6290194,73.0019541 25.6307292,68.2338427 L38.0790935,49.5763202 L38.0749432,49.5698918" id="Fill-31" fill="#00A871"></path>
                        <path d="M20.7749422,65.3661968 C20.3777044,65.82495 20.0107041,66.2638336 19.7284875,66.6314206 C20.2614975,67.1421853 20.7927289,67.6330805 21.3227745,68.1105345 C21.3251461,68.1140409 21.3275177,68.1175473 21.3298893,68.1210536 C21.6239638,68.385202 21.9150738,68.6423376 22.2073697,68.8959667 C22.2115199,68.8983043 22.2156702,68.9006419 22.2198204,68.9023951 C30.3756453,75.9818046 37.7986555,79.0148354 38.4259354,79.2649581 L38.4259354,76.0186217 C38.3761325,75.9987521 38.2806768,75.9601818 38.1437187,75.9023263 C36.8174189,75.3436409 31.5821809,72.9838377 25.5495029,68.1718964 L24.5629303,69.637569 L20.7749422,65.3661968" id="Fill-32" fill="#1B4872"></path>
                        <path d="M39.4789119,75.5984388 C38.8800908,75.8696 38.5249484,76.0098557 38.4704023,76.0314785 C38.5249484,76.0104401 38.8800908,75.8701844 39.4789119,75.5990232 L39.4789119,75.5984388" id="Fill-33" fill="#00A871"></path>
                        <path d="M38.4354217,79.2684645 C38.4608399,79.2789946 38.479569,79.2855759 38.492947,79.290841 L38.4354217,79.2684645" id="Fill-34" fill="#1B4872"></path>
                        <path d="M39.4789119,75.5990232 C38.8800908,75.8701844 38.5249484,76.0104401 38.4704023,76.0314785 L38.4704023,76.0338161 L38.4597303,76.0338161 L38.4597303,76.0314785 C38.4532085,76.0291409 38.4419435,76.0244657 38.4259354,76.0186217 L38.4259354,79.2649581 C38.4294928,79.2661269 38.4324572,79.2672957 38.4354217,79.2684645 L38.4609161,79.2783993 L38.4609161,79.2824901 L38.4656592,79.2801525 L38.4704023,79.2824901 L38.4704023,79.2783993 C38.4976754,79.2678801 38.598467,79.2275566 38.7573621,79.1615195 C38.9648744,78.1458341 39.4883982,76.0326473 39.4883982,75.7983033 C39.4883982,75.7632393 39.4848409,75.6931115 39.4789119,75.5990232" id="Fill-35" fill="#0064A0"></path>
                        <polyline id="Fill-36" fill="#0064A0" points="38.0749432 49.5698918 38.0749432 49.5698918 38.0843078 49.5843707 38.0749432 49.5698918"></polyline>
                        <polyline id="Fill-37" fill="#005296" points="38.9696175 48.2409685 38.0749432 49.5698918 38.0790935 49.5763202 38.9696175 48.2409685"></polyline>
                        <path d="M40.4565911,34.2714949 C40.3700289,34.3731803 40.2905813,34.4818785 40.2271419,34.6034335 C40.1909754,34.672977 40.1743745,34.7471956 40.1648882,34.8214143 L40.0765473,34.7197289 C40.0765473,36.6681152 36.5191941,38.6165014 36.5191941,38.6165014 L35.5314358,37.6417239 L35.8812422,36.987197 C35.7152323,36.8475256 35.4923049,36.6412328 35.2675987,36.4267584 L35.4075213,40.7758557 L34.9681882,42.2029581 L33.7367511,42.576389 L32.7857521,43.783173 L31.3746687,43.4412995 L30.3424434,44.3132229 C30.4663578,44.370494 30.6471899,44.3985451 30.8677458,44.3985451 C31.9877192,44.3985451 34.1470325,43.6797343 35.2640414,42.4145105 C35.9618755,41.6249875 35.7087105,39.5901101 35.7087105,39.5901101 L39.6117198,36.9603147 C39.6117198,36.9603147 40.1476943,35.1264706 40.4565911,34.2714949 M42.0330915,32.7801086 L41.1899988,33.3639232 C41.1330811,33.4942442 41.0554123,33.6099552 40.9664784,33.718069 C41.5107535,33.5146982 41.903841,33.4340511 42.2103662,33.4340511 C42.8020726,33.4340511 43.0676883,33.7361854 43.465519,34.0383197 C44.1076212,34.525124 43.564532,36.5705205 43.564532,36.7651254 C43.564532,36.9603147 43.613742,38.1776178 44.0584112,38.4213121 C44.5030803,38.6650065 45.1949855,39.2488211 45.1949855,39.2488211 C45.1949855,39.2488211 45.3432085,40.4667086 45.4914316,40.5152138 C45.6396546,40.5637189 46.5289929,42.122311 46.5289929,42.122311 C46.5289929,42.122311 45.9853108,42.6091154 45.0959725,43.4857139 C43.212354,45.3429339 40.584063,46.1669365 39.2524271,46.1669365 C38.8711974,46.1669365 38.5966884,46.0997306 38.4757384,45.9694096 C41.0696417,45.1623546 41.2344657,44.7673009 42.1706425,44.1390719 C40.7915752,44.8906091 35.7087105,46.3106986 35.7087105,46.3106986 L21.507164,64.6526456 L21.4496535,64.5982965 C21.22139,64.8542632 20.9931265,65.113152 20.7749422,65.3661968 L24.5629303,69.637569 L38.9696175,48.2409685 C39.8382046,47.7775401 45.2708757,45.157095 46.0054691,44.0216078 C46.1068537,43.8649888 47.2736655,42.4355489 47.2736655,42.4355489 L47.2606219,42.4092509 L46.6618008,41.2351933 L46.8064665,40.2615846 L46.4228652,38.8233787 L46.3606115,38.7906523 L45.2649468,38.2226165 L45.0266041,36.981353 L44.1669104,36.4191612 L44.5339107,35.5618479 L43.8674999,33.5316457 L42.0330915,32.7801086" id="Fill-38" fill="#1B4872"></path>
                        <path d="M42.5509262,43.9731026 C42.4124819,44.1031143 42.2880572,44.2278193 42.1706425,44.3498711 C42.332745,44.2145529 42.4650557,44.0871945 42.5509262,43.9731026" id="Fill-39" fill="#1D0706"></path>
                        <polyline id="Fill-40" fill="#007BAB" points="34.034383 33.353404 32.7904952 32.6328401 31.0236765 33.5281393 30.5262399 35.6056778 30.9626086 36.4302648 30.1515321 37.0590781 30.0163527 38.3155359 28.9117945 39.0062955 28.6467717 40.470215 28.8714778 41.4297982 28.3604048 42.6745681 30.3424434 44.3132229 31.3746687 43.4412995 32.7857521 43.783173 33.7367511 42.576389 34.9681882 42.2029581 35.4075213 40.7758557 35.2029735 34.4175946 34.034383 33.353404"></polyline>
                        <path d="M40.1648882,34.8214143 C40.1743745,34.7471956 40.1909754,34.672977 40.2271419,34.6034335 C40.4856429,34.1055255 41.0174672,33.8273516 41.2125287,33.3078209 L38.89017,31.3594347 L35.5314358,37.6417239 L36.5191941,38.6165014 C36.5191941,38.6165014 40.0765473,36.6681152 40.0765473,34.7197289 L40.1648882,34.8214143" id="Fill-41" fill="#007BAB"></path>
                        <path d="M57.0729875,10.0288712 C57.0729875,10.0288712 49.5136122,16.6033599 54.0338222,28.802689 C56.4480792,35.3164003 59.5921864,39.321871 59.5921864,39.321871 L71.5982532,27.4147414 L73.6733758,36.2537763 L74.4886026,31.5055344 L75.82261,20.4019534 L74.4150839,19.0140058 L60.2591901,11.5629186 L56.9982831,10.75937 L57.0729875,10.0288712" id="Fill-42" fill="#007BAB"></path>
                        <path d="M54.997272,25.0771454 L61.2599921,20.6579202 C61.2599921,20.6579202 59.0971214,25.1198065 56.6283184,25.4061621 C55.998074,25.4792119 54.997272,25.0771454 54.997272,25.0771454" id="Fill-43" fill="#FFFFFF"></path>
                        <polyline id="Fill-44" fill="#34587A" points="66.7566956 17.9182577 62.4576344 28.8757389 64.8292031 26.6842427 61.5682961 37.3986139 71.5982532 27.4147414 66.7566956 17.9182577"></polyline>
                        <path d="M20.1577414,10.0288712 C20.1577414,10.0288712 27.7171168,16.6033599 23.1963139,28.802689 C20.7826498,35.3164003 17.6379496,39.321871 17.6379496,39.321871 L5.63188287,27.4147414 L3.55676022,36.2537763 L2.74153346,31.5055344 L1.40752605,20.4019534 L2.81564499,19.0140058 L16.9709459,11.5629186 L20.2318529,10.75937 L20.1577414,10.0288712" id="Fill-45" fill="#34587A"></path>
                        <path d="M22.2328641,25.0771454 L15.9701439,20.6579202 C15.9701439,20.6579202 18.1336075,25.1198065 20.6024105,25.4061621 C21.232062,25.4792119 22.2328641,25.0771454 22.2328641,25.0771454" id="Fill-46" fill="#FFFFFF"></path>
                        <polyline id="Fill-47" fill="#007BAB" points="10.4740333 17.9182577 14.7725017 28.8757389 12.4009329 26.6842427 15.66184 37.3986139 5.63188287 27.4147414 10.4740333 17.9182577"></polyline>
                        <path d="M28.4700898,42.4057445 L28.3604048,42.6745681 L28.4706827,42.4063289 L28.4700898,42.4057445 M28.8714778,41.4297982 L28.8483551,41.4859005 L28.8714778,41.4297982 M28.8507266,39.3411562 L28.6467717,40.470215 L28.8507266,39.3417406 C28.8507266,39.3417406 28.8507266,39.3417406 28.8507266,39.3411562" id="Fill-48" fill="#00A871"></path>
                        <path d="M34.6308325,33.8968951 L34.7452607,34.7442737 C34.7452607,34.7442737 34.7452607,38.4335845 34.5970377,38.8350666 C34.5857727,38.8660398 34.5579068,38.8800654 34.5169972,38.8800654 C34.0213394,38.8800654 31.5584652,36.8264873 31.5584652,36.8264873 L34.8193723,40.478981 C34.8193723,40.478981 34.6343899,41.3555795 34.2638323,41.5747291 C34.2501958,41.5823263 34.232409,41.5864171 34.2110649,41.5864171 C33.6460386,41.5864171 30.4467924,38.9081165 30.4467924,38.9081165 L33.4486055,42.3052279 C33.4486055,42.3052279 33.2553227,42.9030681 32.6072915,42.9030681 C32.5041283,42.9030681 32.3897001,42.8878737 32.2628211,42.8528098 C31.5400856,42.6535297 29.6493524,40.34866 28.8507266,39.3417406 L28.6467717,40.470215 L28.8714778,41.4297982 L28.8483551,41.4859005 C29.4946075,42.0901691 30.965573,43.2548763 30.965573,43.2548763 L30.1503463,43.8024581 L28.4706827,42.4063289 L28.3604048,42.6745681 L30.3424434,44.3132229 L31.3746687,43.4412995 L32.7857521,43.783173 L33.7367511,42.576389 L34.9681882,42.2029581 L35.4075213,40.7758557 L35.2029735,34.4175946 L34.6308325,33.8968951" id="Fill-49" fill="#0064A0"></path>
                    </g>
                </g>
            </g>
        </g>
    </g>
</svg>