<?xml version="1.0" encoding="UTF-8"?>
<svg width="77px" height="80px" viewBox="0 0 77 80" version="1.1" xmlns="http://www.w3.org/2000/svg" xmlns:xlink="http://www.w3.org/1999/xlink">
    <!-- Generator: Sketch 39.1 (31720) - http://www.bohemiancoding.com/sketch -->
    <title>badge</title>
    <desc>Created with Sketch.</desc>
    <defs>
        <path d="M0.401039851,2.3596515 C0.401039851,3.23312882 0.871016975,3.99570582 1.56859652,4.40362138 L1.56859652,7.0789545 L3.90261563,7.0789545 L3.90261563,4.40362138 C4.60019518,3.99570582 5.0701723,3.23312882 5.0701723,2.3596515 C5.0701723,1.05684717 4.02462366,0 2.73560608,0 C1.44658849,0 0.401039851,1.05684717 0.401039851,2.3596515 L0.401039851,2.3596515 Z" id="path-1"></path>
    </defs>
    <g id="Page-1" stroke="none" stroke-width="1" fill="none" fill-rule="evenodd">
        <g id="Landing_new-03-1920" transform="translate(-925.000000, -2534.000000)">
            <g id="Modes" transform="translate(-1.000000, 1593.000000)">
                <g id="Group-10" transform="translate(905.000000, 920.000000)">
                    <g id="Bot" transform="translate(21.000000, 21.000000)">
                        <g id="badge">
                            <g id="bots"></g>
                            <path d="M0.0111823472,18.9114097 C0.0111823472,64.6157018 37.5467906,79.6868455 38.1788875,79.9390527 C38.8215782,79.6868455 76.3560093,64.6157018 76.3560093,18.9114097 L38.1883042,0.00412488293 L0.0111823472,18.9114097 Z" id="Path" fill="#6648CB"></path>
                            <polyline id="Fill-18" fill="#46D8B7" opacity="0.138756793" points="64.8315645 26.5264373 69.0946117 20 45.3016581 24.0899648 38.2003941 51.0691118 31.0991302 24.0899648 7.30808393 20 11.5692238 26.5264373 26.3935653 28.5281345 28.2342098 34.3350766 18.759182 33.3991557 21.8653889 38.6193436 29.8240308 39.3542291 38.1899034 65.5003776 46.5777111 39.3542291 54.5353993 38.6193436 57.6416062 33.3991557 48.164671 34.3350766 50.0062693 28.5281345 64.8315645 26.5264373"></polyline>
                            <path d="M37.8691622,50.6666667 L37.8691622,70.6715686 L38.2685457,70.6715686 L38.2685457,53.9256863 C38.2544874,53.8713333 38.2561914,53.8221569 38.2685457,53.7764314 L38.2685457,52.7398431 C38.2174246,52.6524902 38.2140165,52.5336471 38.2685457,52.4473725 L38.2685457,51.5518431 C38.2148685,51.4638431 38.2069874,51.3439216 38.2146555,51.2434118 C38.2259448,51.2078235 38.2446892,51.1763333 38.2685457,51.1489412 L38.2685457,50.6666667" id="Fill-272" fill="#FF6545"></path>
                            <g id="Group">
                                <g id="Page-1" transform="translate(18.602395, 14.666667)">
                                    <g id="Group-5" transform="translate(0.176149, 31.274506)">
                                        <path d="M38.730492,21.7456115 L0.0818493338,21.7456115 L0.0818493338,5.51063225 C0.0818493338,2.62059143 2.04163753,0.278605428 4.45881906,0.278605428 L34.3535223,0.278605428 C36.7707038,0.278605428 38.730492,2.62059143 38.730492,5.51063225 L38.730492,21.7456115 Z" id="Fill-1" fill="#DDDDDD"></path>
                                        <path d="M37.802465,31.3921609 L1.0331837,31.3921609 L1.0331837,9.01614764 C1.0331837,4.76257737 2.9929719,1.31389273 5.41015343,1.31389273 L33.4254953,1.31389273 C35.8426768,1.31389273 37.802465,4.76257737 37.802465,9.01614764 L37.802465,31.3921609 Z" id="Fill-3" fill="#2FAABE"></path>
                                    </g>
                                    <g id="Group-8" transform="translate(16.589786, 0.372941)">
                                        <mask id="mask-2" fill="white">
                                            <use xlink:href="#path-1"></use>
                                        </mask>
                                        <g id="Clip-7"></g>
                                        <polygon id="Fill-6" fill="#DCDCDC" mask="url(#mask-2)" points="-2.33456623 9.82401209 7.80523126 9.82401209 7.80523126 -2.74505759 -2.33456623 -2.74505759"></polygon>
                                    </g>
                                    <g id="Group-28" transform="translate(1.817513, 5.863057)">
                                        <path d="M2.58060664,18.1134272 L2.58060664,18.1134272 L2.58060664,21.2933019 C2.58060664,25.8484504 6.23811196,29.5416509 10.751862,29.5416509 L24.7559766,29.5416509 C29.2691795,29.5416509 32.9277791,25.8479014 32.9277791,21.2933019 L32.9277791,18.1134272 C32.9277791,9.63065023 26.1385519,2.76855528 17.7539193,2.76855528 C9.37311652,2.76855528 2.58060664,9.63778738 2.58060664,18.1134272 L2.58060664,18.1134272 Z M0.246040411,18.1134272 C0.246040411,8.33553206 8.08245758,0.408903778 17.7539193,0.408903778 C27.4231925,0.408903778 35.2617982,8.3229048 35.2617982,18.1134272 L35.2617982,21.2933019 C35.2617982,27.1518038 30.55765,31.9013024 24.7559766,31.9013024 L10.751862,31.9013024 C4.9496415,31.9013024 0.246040411,27.1523528 0.246040411,21.2933019 L0.246040411,18.1134272 Z" id="Fill-12" fill="#DBDBDB"></path>
                                        <path d="M1.41337824,18.1140311 L1.41337824,18.1140311 L1.41337824,22.3825956 C1.41337824,27.2885626 5.35210386,31.265602 10.2132759,31.265602 L25.2946722,31.265602 C30.155297,31.265602 34.0945698,27.2880135 34.0945698,22.3825956 L34.0945698,18.1140311 C34.0945698,8.97847945 26.783389,1.58878443 17.7542476,1.58878443 C8.72838888,1.58878443 1.41337824,8.98616561 1.41337824,18.1140311" id="Fill-14" fill="#2FAABE"></path>
                                        <path d="M17.7540834,21.6450536 C28.1428211,21.6450536 29.4258203,18.4756101 29.4258203,14.5660991 C29.4258203,10.6565881 24.2002656,10.0878121 17.7540834,10.0878121 C11.3079013,10.0878121 6.08234655,10.6565881 6.08234655,14.5660991 C6.08234655,18.4756101 7.3653458,21.6450536 17.7540834,21.6450536 M12.5017198,16.9257506 C13.468483,16.9257506 14.8089299,16.4409734 14.8089299,15.4637329 C14.8089299,14.4864924 13.468483,13.3862733 12.5017198,13.3862733 C11.5349566,13.3862733 10.7509319,14.1790459 10.7509319,15.1562864 C10.7509319,16.1335269 11.5349566,16.9257506 12.5017198,16.9257506 M23.0064471,16.9257506 C23.9732103,16.9257506 24.757235,16.1335269 24.757235,15.1562864 C24.757235,14.1790459 23.9732103,13.3862733 23.0064471,13.3862733 C22.0396839,13.3862733 20.2801421,14.1790459 20.2801421,15.1562864 C20.2801421,16.1335269 22.0396839,16.9257506 23.0064471,16.9257506" id="Fill-16" fill="#262626" opacity="0.0760261194"></path>
                                        <path d="M29.4258203,13.3863282 C29.4258203,11.3182018 27.9633653,9.45705279 25.6309876,8.16303264 C23.5552097,7.01065747 20.7900592,8.16303263 17.7540835,8.16303263 C14.4483772,8.16303263 11.4638308,7.14132221 9.33990627,8.4803613 C7.32267035,9.75297 6.08234655,11.4818073 6.08234655,13.3863282 C6.08234655,17.2958392 7.3653458,20.4652827 17.7540834,20.4652827 C28.1428211,20.4652827 29.4258203,17.2958392 29.4258203,13.3863282 Z M12.5017198,15.7459797 C13.468483,15.7459797 15.1733127,15.137675 15.1733127,14.1604345 C15.1733127,13.183194 14.2525077,12.5814773 12.5017198,12.2065025 C11.5562943,12.0044662 10.7509319,12.9992751 10.7509319,13.9765156 C10.7509319,14.9537561 11.5349566,15.7459797 12.5017198,15.7459797 M24.757235,13.9765156 C24.757235,12.9992751 23.9732103,12.2065025 23.0064471,12.2065025 C22.0396839,12.2065025 20.0886497,13.183194 20.0886497,14.1604345 C20.0886497,15.137675 22.0396839,15.7459797 23.0064471,15.7459797 C23.9732103,15.7459797 24.757235,14.9537561 24.757235,13.9765156 Z" id="Fill-18" fill="#DDDDDD"></path>
                                        <path d="M18.2794766,45.3859697 C19.5684942,45.3859697 20.6140428,44.3296715 20.6140428,43.0263182 C20.6140428,41.7229648 19.5684942,40.6666667 18.2794766,40.6666667 C16.990459,40.6666667 15.9449104,41.7229648 15.9449104,43.0263182 C15.9449104,44.3296715 16.990459,45.3859697 18.2794766,45.3859697" id="Fill-24" fill="#DADADA"></path>
                                        <path d="M20.5401815,43.6159565 C20.5883281,43.4276456 20.6134957,43.2300014 20.6134957,43.0257692 C20.6134957,41.7229648 19.5684942,40.6666667 18.2794766,40.6666667 C16.9899119,40.6666667 15.9449104,41.7229648 15.9449104,43.0257692 C15.9449104,43.2300014 15.9706251,43.4276456 16.0187718,43.6159565 C16.2775601,42.5980892 17.1917996,41.8464924 18.2794766,41.8464924 C19.3671536,41.8464924 20.280846,42.5980892 20.5401815,43.6159565" id="Fill-26" fill="#FFFFFF"></path>
                                    </g>
                                </g>
                            </g>
                            <path d="M38.1883042,0.00412488293 L38.1883042,0 L38.1788875,0 L38.1788875,0.00412488293 L0.0111823472,18.9114097 C0.0111823472,64.6157018 37.5467906,79.6868455 38.1788875,79.9390527 L38.1788875,79.9431775 L38.1835958,79.9408205 L38.1883042,79.9431775 L38.1883042,79.9390527 C38.8215782,79.6868455 76.3560093,64.6157018 76.3560093,18.9114097 L38.1883042,0.00412488293 M38.1883042,76.6650741 L38.1883042,76.6674312 L38.1777104,76.6674312 L38.1777104,76.6650741 C37.5985825,76.4334914 3.13870829,62.5933307 3.13870829,20.6379678 L38.1777104,3.27810339 L38.1777104,3.27397851 L38.1835958,3.27574632 L38.1883042,3.27397851 L38.1883042,3.27810339 L73.2284834,20.6379678 C73.2284834,62.5933307 38.7686091,76.4334914 38.1883042,76.6650741" id="Fill-20" fill="#4A339B"></path>
                        </g>
                    </g>
                </g>
            </g>
        </g>
    </g>
</svg>