<?xml version="1.0" encoding="UTF-8"?>
<svg width="77px" height="80px" viewBox="0 0 77 80" version="1.1" xmlns="http://www.w3.org/2000/svg" xmlns:xlink="http://www.w3.org/1999/xlink">
    <!-- Generator: Sketch 39.1 (31720) - http://www.bohemiancoding.com/sketch -->
    <title>Badge</title>
    <desc>Created with Sketch.</desc>
    <defs></defs>
    <g id="Page-1" stroke="none" stroke-width="1" fill="none" fill-rule="evenodd">
        <g id="Landing_new-03-1920" transform="translate(-1211.000000, -2351.000000)">
            <g id="Modes" transform="translate(-1.000000, 1593.000000)">
                <g id="Group-10-Copy-5" transform="translate(1191.000000, 737.000000)">
                    <g id="Badge" transform="translate(21.000000, 21.000000)">
                        <path d="M38.3598661,0.26550339 L38.3598661,0.260804215 L38.3504718,0.260804215 L38.3504718,0.26550339 L0.273021868,19.1127197 C0.273021868,64.6712219 37.7198793,79.6944845 38.3504718,79.9458904 L38.3504718,79.9500022 L38.3551689,79.94824 L38.3598661,79.9500022 L38.3598661,79.9458904 C38.9916328,79.6944845 76.4367288,64.6712219 76.4367288,19.1127197 L38.3598661,0.26550339" id="Fill-1" fill="#E74C3C"></path>
                        <path d="M76.008701,27.3656459 L44.9793253,30.1146633 L68.7298793,15.2981644 L67.1580953,14.5192761 L43.5361258,27.615877 L56.1415161,9.06705826 L54.5603379,8.28405822 L41.2034035,25.9200622 L45.288163,3.69472639 L43.7011133,2.90937675 L38.3821775,25.3197426 L33.0579575,2.88529348 L31.471495,3.67005572 L35.5609516,25.9200622 L22.1887515,8.26526152 L20.6093346,9.04708677 L33.2282292,27.615877 L9.58101258,14.505766 L8.0104029,15.2828921 L31.7856169,30.1146633 L0.701049701,27.3603593 C0.747434061,27.7997322 0.802038435,28.2320563 0.856055665,28.6649678 L31.483825,32.9846845 L4.01136646,42.4300263 C4.16226242,42.8670496 4.31550695,43.3005485 4.47403578,43.7287609 L32.3756964,35.7290027 L10.6355228,56.0693819 C10.8797747,56.4476655 11.1263751,56.8218373 11.375324,57.1889604 L34.305051,37.8735887 L21.3861259,68.7277847 C21.6814592,68.9973999 21.974444,69.2611411 22.268603,69.5195957 L36.9401524,39.0466203 L38.0046441,79.8025655 C38.2007501,79.8859759 38.3199403,79.9341424 38.3504718,79.9458904 L38.3504718,79.9500022 L38.3551689,79.94824 L38.3598661,79.9500022 L38.3598661,79.9458904 C38.3927461,79.933555 38.5342478,79.8754028 38.759711,79.7784823 L39.8242027,39.0466203 L54.4804863,69.4861141 C54.7740582,69.2270721 55.0682173,68.9627435 55.3635506,68.6937157 L42.458717,37.8735887 L65.3543896,57.1613527 C65.6039257,56.7930549 65.8505261,56.4177083 66.0947779,56.0382499 L44.3892458,35.7290027 L72.2421735,43.7152507 C72.4001152,43.2858636 72.5539469,42.8517773 72.7048428,42.4135792 L45.2805301,32.9846845 L75.8542822,28.672604 C75.9077123,28.2391051 75.9623166,27.8056062 76.008701,27.3656459" id="Fill-2" fill="#CD2F30"></path>
                        <path d="M38.3710218,0.270789962 L38.3598661,0.26550339 L38.3598661,0.260804215 L38.3504718,0.260804215 L38.3504718,0.26550339 L0.273021868,19.1127197 C0.273021868,64.6712219 37.7198793,79.6944845 38.3504718,79.9458904 L38.3504718,79.9500022 L38.3551689,79.94824 L38.3598661,79.9500022 L38.3598661,79.9458904 L38.3710218,79.9411912 L38.3710218,0.270789962" id="Fill-3" fill="#CD2F30"></path>
                        <path d="M38.3710218,25.2739256 L33.0579575,2.88529348 L31.471495,3.67064311 L35.5609516,25.9200622 L22.1887515,8.26526152 L20.6093346,9.04708677 L33.2282292,27.615877 L9.58101258,14.505766 L8.0104029,15.2828921 L31.7856169,30.1146633 L0.701049701,27.3603593 C0.747434061,27.7997322 0.802038435,28.2320563 0.856055665,28.6649678 L31.483825,32.9846845 L4.01136646,42.4300263 L4.01547647,42.4411869 C4.16519814,42.8740984 4.31726838,43.3034855 4.47403578,43.7287609 L32.3756964,35.7290027 L10.6355228,56.0693819 L10.7071544,56.1768756 C10.9279205,56.5187406 11.150448,56.8570812 11.375324,57.1889604 L34.305051,37.8735887 L21.3861259,68.7277847 L21.390823,68.7324839 C21.6838078,68.9997495 21.9762054,69.2623159 22.268603,69.5195957 L36.9401524,39.0466203 L38.0046441,79.8025655 L38.12266,79.8519069 L38.14732,79.8618926 L38.2242359,79.8941995 L38.2676845,79.9124088 L38.3058488,79.9270937 L38.3504718,79.9458904 L38.3504718,79.9500022 L38.3551689,79.94824 L38.3598661,79.9500022 L38.3598661,79.9458904 L38.3710218,79.9411912 L38.3710218,25.2739256" id="Fill-4" fill="#E74C3C"></path>
                        <path d="M38.3598661,0.26550339 L38.3598661,0.260804215 L38.3504718,0.260804215 L38.3504718,0.26550339 L0.273609012,19.1127197 C0.273609012,64.6712219 37.7198793,79.6944845 38.3504718,79.9458904 L38.3504718,79.9505896 L38.3551689,79.94824 L38.3598661,79.9505896 L38.3598661,79.9458904 C38.9916328,79.6944845 76.4367288,64.6712219 76.4367288,19.1127197 L38.3598661,0.26550339 L38.3598661,0.26550339 Z M38.1455586,77.3783786 L38.1455586,77.3807282 L38.1355771,77.3807282 L38.1355771,77.3783786 C37.5460848,77.1416577 2.51532405,63.0846629 2.51532405,20.4672569 L38.1355771,2.83301516 L38.1355771,2.82949078 L38.1408614,2.83184037 L38.1455586,2.82949078 L38.1455586,2.83301516 L73.766986,20.4672569 C73.766986,63.0846629 38.7362253,77.1416577 38.1455586,77.3783786 L38.1455586,77.3783786 Z" id="Fill-5" fill="#FF9834"></path>
                        <path d="M38.3598661,0.260804215 L38.3504718,0.260804215 L38.3504718,0.26550339 L38.3123074,0.284300091 L38.0944771,2.85357405 L38.1355771,2.83301516 L38.1355771,2.82949078 L38.1408614,2.83184037 L38.1455586,2.82949078 L38.1455586,2.83301516 L73.766986,20.4672569 C73.766986,63.0846629 38.7362253,77.1416577 38.1455586,77.3783786 L38.1455586,77.3807282 L38.1355771,77.3807282 L38.1355771,77.3783786 L38.0944771,77.3607567 L38.3123074,79.9306181 L38.3504718,79.9458904 L38.3504718,79.9505896 L38.3551689,79.94824 L38.3598661,79.9505896 L38.3598661,79.9458904 C38.9916328,79.6944845 76.4367288,64.6712219 76.4367288,19.1127197 L38.3598661,0.26550339 L38.3598661,0.260804215" id="Fill-6" fill="#FBC13D"></path>
                        <path d="M38.3592789,1.64353647 L38.3592789,1.64001209 L38.3504718,1.64001209 L38.3504718,1.64353647 L1.59115971,19.8387423 C1.59115971,63.8212586 37.7416037,78.324675 38.3504718,78.5678573 L38.3504718,78.5713817 L38.3551689,78.5690321 L38.3592789,78.5713817 L38.3592789,78.5678573 C38.9699085,78.324675 75.118591,63.8212586 75.118591,19.8387423 L38.3592789,1.64353647 L38.3592789,1.64353647 Z M38.3592789,76.6047769 L38.3592789,76.6071265 L38.3492975,76.6071265 L38.3492975,76.6047769 C37.7727223,76.3745173 3.46884559,62.6071092 3.46884559,20.8749104 L38.3492975,3.60602946 L38.3492975,3.60367987 L38.3551689,3.60485466 L38.3592789,3.60367987 L38.3592789,3.60602946 L73.2414923,20.8749104 C73.2414923,62.6071092 38.9376156,76.3745173 38.3592789,76.6047769 L38.3592789,76.6047769 Z" id="Fill-7" fill="#FBC13D"></path>
                        <path d="M75.118591,19.8387423 L38.3592789,1.64353647 L38.3592789,1.64001209 L38.3504718,1.64001209 L38.3504718,1.64353647 L38.3123074,1.66292057 L38.3123074,3.62482616 L38.3492975,3.60602946 L38.3492975,3.60367987 L38.3551689,3.60485466 L38.3592789,3.60367987 L38.3592789,3.60602946 L73.2414923,20.8749104 C73.2414923,62.6071092 38.9376156,76.3745173 38.3592789,76.6047769 L38.3592789,76.6071265 L38.3492975,76.6071265 L38.3492975,76.6047769 L38.3123074,76.590092 L38.3123074,78.5519976 L38.3504718,78.5678573 L38.3504718,78.5713817 L38.3551689,78.5690321 L38.3592789,78.5713817 L38.3592789,78.5678573 C38.9699085,78.324675 75.118591,63.8212586 75.118591,19.8387423" id="Fill-8" fill="#FF9834"></path>
                        <path d="M57.2200993,16.570466 C54.279096,16.4200924 52.3720529,18.4718697 51.4326228,20.372686 L51.4326228,18.0213363 C43.1151437,15.9401892 34.4905884,15.9401892 26.171935,18.0213363 L26.171935,20.6317281 C25.281825,18.6627737 23.3377919,16.4124563 20.2629198,16.570466 C14.1178727,17.365214 13.9716739,25.2662895 17.0682704,30.5405261 C20.6533704,36.9225932 26.3915268,40.5814884 29.0818197,41.7175139 C28.8563565,41.9583467 28.711332,42.2802401 28.711332,42.6191681 C28.711332,43.2506198 29.2045328,43.6847061 29.8104652,43.5672267 C30.3048402,43.471481 30.7170152,43.0467931 30.8532326,42.5645402 C32.6164254,44.6233663 34.7782889,46.2839373 36.3624029,47.3559366 C36.2784413,52.8880404 35.7570576,62.5166501 32.8413015,64.9937028 C31.6000795,65.1611109 30.3653161,65.3790351 29.1381855,65.6533495 L29.1381855,67.5430052 C35.3842213,68.939835 41.8615917,68.939835 48.1082146,67.5430052 L48.1082146,65.6533495 C46.9762014,65.399594 45.8377295,65.1945925 44.6939734,65.0336457 C41.7324201,62.6259059 41.2051649,52.9191725 41.1200291,47.3559366 C42.7041431,46.2839373 44.8665937,44.6233663 46.6291994,42.5645402 C46.7648296,43.0467931 47.1770046,43.471481 47.6719668,43.5672267 C48.2784863,43.6847061 48.7705128,43.2506198 48.7705128,42.6191681 C48.7705128,42.2802401 48.6254883,41.9583467 48.4006122,41.7175139 C51.0909052,40.5814884 56.8296487,36.9225932 60.4141616,30.5405261 C63.510758,25.2662895 63.3645592,17.365214 57.2200993,16.570466 M22.0290483,34.7803568 C17.3195679,29.3469356 15.3919748,20.871386 19.5237057,19.1462014 C21.8799138,18.2380858 22.8269768,20.2651924 23.7928283,21.9433853 C23.6695281,22.2200492 23.5961352,22.526083 23.5961352,22.8544379 C23.5961352,24.0586015 24.5167766,25.0372047 25.6482027,25.0677493 C26.0703591,25.0771477 26.4631583,24.9579061 26.7878489,24.7423314 C26.8935347,27.4719648 27.164208,32.1282598 27.841772,36.6324191 C28.0637123,38.1020861 28.6772776,39.490105 29.5028018,40.768868 C27.8364877,39.7996631 24.8179814,37.9904807 22.0290483,34.7803568 M55.4533836,34.7803568 C52.6638634,37.9904807 49.6453571,39.7996631 47.9802173,40.768868 C48.8051543,39.490105 49.4193067,38.1020861 49.64066,36.6324191 C50.3182239,32.1282598 50.5883101,27.4719648 50.6951702,24.7423314 C51.0204479,24.9579061 51.4120728,25.0771477 51.8342292,25.0677493 C52.9668296,25.0372047 53.8868839,24.0586015 53.8868839,22.8544379 C53.8868839,22.526083 53.8129038,22.2200492 53.6907779,21.9433853 C54.6554552,20.2651924 55.6042796,18.2380858 57.9587262,19.1462014 C62.0904572,20.871386 60.1628641,29.3469356 55.4533836,34.7803568" id="Fill-9" fill="#FF9834"></path>
                        <path d="M38.3739575,16.4670842 C34.2815652,16.5017406 30.1909343,17.0163003 26.171935,18.0213363 L26.171935,20.6317281 C25.281825,18.6627737 23.3377919,16.4124563 20.2629198,16.570466 C14.1178727,17.365214 13.9716739,25.2662895 17.0682704,30.5405261 C20.6533704,36.9225932 26.3915268,40.5814884 29.0818197,41.7175139 C28.8563565,41.9583467 28.711332,42.2802401 28.711332,42.6191681 C28.711332,43.2506198 29.2045328,43.6847061 29.8104652,43.5672267 C30.3048402,43.471481 30.7170152,43.0467931 30.8532326,42.5645402 C32.6164254,44.6233663 34.7782889,46.2839373 36.3624029,47.3559366 C36.2784413,52.8880404 35.7570576,62.5166501 32.8413015,64.9937028 C31.6000795,65.1611109 30.3653161,65.3790351 29.1381855,65.6533495 L29.1381855,67.5430052 C32.1801776,68.2232108 35.276774,68.5662506 38.3739575,68.5832851 L38.3739575,16.4670842 M22.0290483,34.7803568 C17.3195679,29.3469356 15.3919748,20.871386 19.5237057,19.1462014 C21.8799138,18.2380858 22.8269768,20.2651924 23.7928283,21.9433853 C23.6695281,22.2200492 23.5961352,22.526083 23.5961352,22.8544379 C23.5961352,24.0586015 24.5167766,25.0372047 25.6482027,25.0677493 C26.0703591,25.0771477 26.4631583,24.9579061 26.7878489,24.7423314 C26.8935347,27.4719648 27.164208,32.1282598 27.841772,36.6324191 C28.0637123,38.1020861 28.6772776,39.490105 29.5028018,40.768868 C27.8364877,39.7996631 24.8179814,37.9904807 22.0290483,34.7803568" id="Fill-10" fill="#FBC13D"></path>
                        <path d="M33.3849966,25.4801019 C33.3849966,25.4801019 33.2211835,26.2108237 32.3756964,26.6096661 C31.5390165,27.0026346 30.6982266,26.7565154 30.6982266,26.7565154 C30.6982266,26.7565154 30.8861126,26.0205071 31.7621312,25.5999309 C32.6493054,25.1746556 33.3849966,25.4801019 33.3849966,25.4801019" id="Fill-11" fill="#C27327"></path>
                        <path d="M33.1430934,27.0995551 C33.1430934,27.0995551 33.0268389,27.8478988 32.2013147,28.2972574 C31.3834234,28.740742 30.5167992,28.5380901 30.5167992,28.5380901 C30.5167992,28.5380901 30.6559522,27.7815229 31.5114208,27.308081 C32.3768707,26.8287652 33.1430934,27.0995551 33.1430934,27.0995551" id="Fill-12" fill="#C27327"></path>
                        <path d="M33.0297746,28.6168013 C33.0297746,28.6168013 33.0286003,29.3774802 32.2858634,29.9266963 C31.5519337,30.4700384 30.6747408,30.3737054 30.6747408,30.3737054 C30.6747408,30.3737054 30.6982266,29.603628 31.463275,29.0273917 C32.2388919,28.4435192 33.0297746,28.6168013 33.0297746,28.6168013" id="Fill-13" fill="#C27327"></path>
                        <path d="M33.2141378,30.1217121 C33.2141378,30.1217121 33.2869436,30.8671187 32.618774,31.4645014 C31.9605858,32.0536604 31.099833,32.0295772 31.099833,32.0295772 C31.099833,32.0295772 31.0475772,31.2735974 31.7333611,30.6497819 C32.4279522,30.0159807 33.2141378,30.1217121 33.2141378,30.1217121" id="Fill-14" fill="#C27327"></path>
                        <path d="M33.815373,31.5091435 C33.815373,31.5091435 33.8934632,32.2216559 33.2528893,32.8002419 C32.6193611,33.3700168 31.7885526,33.3523949 31.7885526,33.3523949 C31.7891398,33.3523949 31.7315997,32.6275472 32.3892007,32.0237032 C33.0567832,31.4128104 33.815373,31.5091435 33.815373,31.5091435" id="Fill-15" fill="#C27327"></path>
                        <path d="M34.4348098,32.9083229 C34.4348098,32.9083229 34.6332644,33.5838293 34.1341921,34.2299659 C33.6421656,34.8678789 32.8595029,34.9683238 32.8595029,34.9683238 C32.8595029,34.9683238 32.6780755,34.2810694 33.1883035,33.6073252 C33.7055772,32.92477 34.4348098,32.9083229 34.4348098,32.9083229" id="Fill-16" fill="#C27327"></path>
                        <path d="M35.1481895,34.0901654 C35.1481895,34.0901654 35.5145672,34.7227919 35.2045553,35.4728977 C34.8974791,36.2130178 34.1729436,36.473822 34.1729436,36.473822 C34.1729436,36.473822 33.8212445,35.8229862 34.133605,35.0464475 C34.4535984,34.2581609 35.1481895,34.0901654 35.1481895,34.0901654" id="Fill-17" fill="#C27327"></path>
                        <path d="M36.162774,35.5751047 C36.162774,35.5751047 36.4680887,36.1249082 36.1798011,36.7634086 C35.8950364,37.3936855 35.2562239,37.6069106 35.2562239,37.6069106 C35.2562239,37.6069106 34.9650006,37.0424221 35.2562239,36.3798385 C35.5527316,35.7090312 36.162774,35.5751047 36.162774,35.5751047" id="Fill-18" fill="#C27327"></path>
                        <path d="M37.6500092,36.6030493 C37.6500092,36.6030493 37.8977839,37.1869218 37.514379,37.8054507 C37.1350841,38.4151687 36.4422544,38.5702414 36.4422544,38.5702414 C36.4422544,38.5702414 36.2109198,37.9728588 36.6013704,37.3314214 C36.9971053,36.6794109 37.6500092,36.6030493 37.6500092,36.6030493" id="Fill-19" fill="#C27327"></path>
                        <path d="M29.597332,24.1431866 C29.597332,24.1431866 30.4516262,24.4128018 30.8086096,25.2580659 C31.1626573,26.0962813 30.7387395,26.821129 30.7387395,26.821129 C30.7387395,26.821129 29.8803353,26.5145078 29.5057375,25.6451605 C29.1287912,24.7675895 29.597332,24.1431866 29.597332,24.1431866" id="Fill-20" fill="#C27327"></path>
                        <path d="M33.2411464,23.6350883 C33.2411464,23.6350883 33.2693293,24.3335032 32.6346269,24.8727336 C32.0069701,25.4060899 31.2260689,25.3585108 31.2260689,25.3585108 C31.2260689,25.3585108 31.218436,24.6495227 31.8748628,24.0850343 C32.537161,23.5129098 33.2411464,23.6350883 33.2411464,23.6350883" id="Fill-21" fill="#C27327"></path>
                        <path d="M30.708208,22.9584071 C30.708208,22.9584071 31.3605248,23.2756014 31.5284479,23.9857643 C31.6963711,24.6912279 31.2495546,25.2128363 31.2495546,25.2128363 C31.2495546,25.2128363 30.5972379,24.8662722 30.4175719,24.1326135 C30.2373187,23.391906 30.708208,22.9584071 30.708208,22.9584071" id="Fill-22" fill="#C27327"></path>
                        <path d="M28.9021537,26.1109662 C28.9021537,26.1109662 29.7629065,26.2390187 30.259043,27.0102708 C30.7522438,27.7750615 30.4821577,28.5521876 30.4821577,28.5521876 C30.4821577,28.5521876 29.6079005,28.3871291 29.0918011,27.5923811 C28.5715917,26.7935214 28.9021537,26.1109662 28.9021537,26.1109662" id="Fill-23" fill="#C27327"></path>
                        <path d="M28.5216845,28.3689198 C28.5216845,28.3689198 29.3513187,28.2984322 30.0147912,28.934583 C30.675328,29.5672094 30.6330536,30.3842785 30.6330536,30.3842785 C30.6330536,30.3836911 29.776998,30.4177601 29.0882783,29.7628126 C28.3966229,29.1043407 28.5216845,28.3689198 28.5216845,28.3689198" id="Fill-24" fill="#C27327"></path>
                        <path d="M28.9855281,30.4700384 C28.9855281,30.4700384 29.7423565,30.3607826 30.4410576,30.9176349 C31.136823,31.4727249 31.2072803,32.2369283 31.2072803,32.2369283 C31.2072803,32.2369283 30.4187461,32.3121151 29.6942107,31.7382283 C28.9685009,31.1614046 28.9855281,30.4700384 28.9855281,30.4700384" id="Fill-25" fill="#C27327"></path>
                        <path d="M29.0324996,32.4384054 C29.0324996,32.4384054 29.7100636,32.0583596 30.618375,32.3925884 C31.5272736,32.7274047 31.9230086,33.5045307 31.9230086,33.5045307 C31.9230086,33.5045307 31.1949502,33.8622554 30.250823,33.5127543 C29.3096315,33.1661901 29.0324996,32.4384054 29.0324996,32.4384054" id="Fill-26" fill="#C27327"></path>
                        <path d="M29.7012564,34.6969464 C29.7012564,34.6969464 30.2337958,34.1559539 31.2425089,34.2505248 C32.255332,34.3445083 32.9199787,35.0018054 32.9199787,35.0018054 C32.9199787,35.0018054 32.3246149,35.5351618 31.2712789,35.4335421 C30.2249887,35.3330972 29.7012564,34.6969464 29.7012564,34.6969464" id="Fill-27" fill="#C27327"></path>
                        <path d="M30.9460013,36.1642638 C30.9460013,36.1642638 31.4979165,35.6473546 32.5031066,35.7665961 C33.512994,35.8864251 34.1535679,36.5466592 34.1535679,36.5466592 C34.1535679,36.5466592 33.5382412,37.0541701 32.4890152,36.9284672 C31.4462478,36.8004146 30.9460013,36.1642638 30.9460013,36.1642638" id="Fill-28" fill="#C27327"></path>
                        <path d="M32.2893863,37.7696195 C32.2893863,37.7696195 32.7467713,37.191621 33.7413929,37.1904462 C34.741886,37.188684 35.46466,37.7696195 35.46466,37.7696195 C35.4652471,37.7696195 34.9438634,38.3470306 33.9028575,38.3452684 C32.8700715,38.3429188 32.2893863,37.7696195 32.2893863,37.7696195" id="Fill-29" fill="#C27327"></path>
                        <path d="M33.7472644,39.2804043 C33.7472644,39.2804043 34.0208734,38.6160584 34.9550192,38.4081199 C35.8962107,38.1990066 36.7381749,38.624282 36.7381749,38.624282 C36.7381749,38.624282 36.4023286,39.3050749 35.4206242,39.5165378 C34.4477269,39.7280007 33.7472644,39.2804043 33.7472644,39.2804043" id="Fill-30" fill="#C27327"></path>
                        <path d="M37.8560967,39.4254913 C37.7052007,39.3632272 34.1154035,37.8471559 31.4262849,32.9053859 C29.3836116,29.1489829 31.1268416,25.1805295 31.1456302,25.1394117 L31.4644493,25.2915475 C31.4462478,25.3314905 29.7523379,29.1736535 31.7192697,32.8020041 C34.3414539,37.63863 37.9365354,39.1617501 37.9723512,39.176435 L37.8560967,39.4254913" id="Fill-31" fill="#C27327"></path>
                        <path d="M35.7758462,38.0163262 C35.7758462,38.0163262 36.9383909,39.0777523 41.2456779,39.9429879 C41.4112524,40.0845506 41.413601,40.7030795 41.3096765,40.7776789 C37.8977839,39.490105 36.7047077,39.2058049 35.7758462,38.0163262" id="Fill-32" fill="#C27327"></path>
                        <path d="M43.6488575,25.5265063 C43.6488575,25.5265063 43.8091477,26.2584028 44.6522862,26.6619445 C45.4866176,27.0601995 46.3279946,26.8205416 46.3279946,26.8205416 C46.3279946,26.8205416 46.1453929,26.0815963 45.2717229,25.6557336 C44.3880715,25.2245843 43.6488575,25.5265063 43.6488575,25.5265063" id="Fill-33" fill="#C27327"></path>
                        <path d="M43.8819535,27.1477217 C43.8819535,27.1471343 43.9923366,27.8966527 44.8160993,28.3501231 C45.6304678,28.8000691 46.4982663,28.6027038 46.4982663,28.6027038 C46.4982663,28.6027038 46.3643975,27.8443744 45.5124519,27.3662333 C44.6493505,26.8816309 43.8819535,27.1477217 43.8819535,27.1477217" id="Fill-34" fill="#C27327"></path>
                        <path d="M43.9852909,28.6655552 C43.9852909,28.6655552 43.9811808,29.4262342 44.720982,29.9807368 C45.4513889,30.5264285 46.3285818,30.4365568 46.3285818,30.4365568 C46.3285818,30.4365568 46.3109675,29.6670669 45.5482677,29.085544 C44.7773478,28.4969723 43.9852909,28.6655552 43.9852909,28.6655552" id="Fill-35" fill="#C27327"></path>
                        <path d="M43.7915334,30.1692912 C43.7915334,30.1692912 43.7134433,30.9141105 44.3780901,31.5150175 C45.0327554,32.1088757 45.8935082,32.090079 45.8935082,32.090079 C45.8935082,32.090079 45.9510483,31.3340993 45.2693743,30.706172 C44.5783061,30.068259 43.7915334,30.1692912 43.7915334,30.1692912" id="Fill-36" fill="#C27327"></path>
                        <path d="M43.1803167,31.5520235 C43.1803167,31.5520235 43.0981166,32.2645359 43.7351676,32.8466462 C44.3639986,33.420533 45.1971557,33.4081976 45.1971557,33.4081976 C45.1971557,33.4081976 45.2576315,32.6839373 44.6041404,32.0771563 C43.9412551,31.4603896 43.1803167,31.5520235 43.1803167,31.5520235" id="Fill-37" fill="#C27327"></path>
                        <path d="M42.55266,32.9470911 C42.55266,32.9470911 42.3500954,33.6214227 42.8444704,34.2704963 C43.3329741,34.9125211 44.1144625,35.0176651 44.1144625,35.0176651 C44.1144625,35.0176651 44.3005871,34.3309981 43.7950563,33.6554917 C43.2818926,32.9688248 42.55266,32.9470911 42.55266,32.9470911" id="Fill-38" fill="#C27327"></path>
                        <path d="M41.8322345,34.1242344 C41.8322345,34.1242344 41.4611596,34.7556861 41.7670616,35.5063793 C42.0688535,36.248849 42.7933889,36.5149397 42.7933889,36.5149397 C42.7933889,36.5149397 43.1480238,35.8664536 42.8403604,35.0869779 C42.5268256,34.2975165 41.8322345,34.1242344 41.8322345,34.1242344" id="Fill-39" fill="#C27327"></path>
                        <path d="M40.8082557,35.6038872 C40.8082557,35.6038872 40.5000052,36.1513411 40.78477,36.7916037 C41.0636633,37.4242301 41.7007143,37.6409796 41.7007143,37.6409796 C41.7007143,37.6409796 41.9960476,37.0788408 41.7089343,36.4144949 C41.417711,35.7413381 40.8082557,35.6038872 40.8082557,35.6038872" id="Fill-40" fill="#C27327"></path>
                        <path d="M39.3145619,36.6212586 C39.3145619,36.6212586 39.0626772,37.2045437 39.4425592,37.8248348 C39.817157,38.4374897 40.5088124,38.5978491 40.5088124,38.5978491 C40.5088124,38.5978491 40.7442571,38.0010539 40.3579164,37.3566795 C39.9668787,36.7029068 39.3145619,36.6212586 39.3145619,36.6212586" id="Fill-41" fill="#C27327"></path>
                        <path d="M47.4459164,24.2130869 C47.4459164,24.2130869 46.5904479,24.4774155 46.2270059,25.3209174 C45.8676739,26.1567831 46.2874817,26.8845679 46.2874817,26.8845679 C46.2874817,26.8845679 47.1482345,26.5838207 47.5269423,25.7156481 C47.9109343,24.8398393 47.4459164,24.2130869 47.4459164,24.2130869" id="Fill-42" fill="#C27327"></path>
                        <path d="M43.8044506,23.6820801 C43.8044506,23.6820801 43.7727448,24.380495 44.4033372,24.9238371 C45.0280582,25.459543 45.8095466,25.4184253 45.8095466,25.4184253 C45.8095466,25.4184253 45.8207024,24.7082624 45.1689728,24.1396622 C44.5096103,23.5646007 43.8044506,23.6820801 43.8044506,23.6820801" id="Fill-43" fill="#C27327"></path>
                        <path d="M46.3432604,23.0200838 C46.3432604,23.0200838 45.6880079,23.3343411 45.5148005,24.0433292 C45.3427673,24.747618 45.7860609,25.2721634 45.7860609,25.2721634 C45.7860609,25.2721634 46.4413134,24.9302984 46.6245022,24.1966397 C46.8100397,23.4582819 46.3432604,23.0200838 46.3432604,23.0200838" id="Fill-44" fill="#C27327"></path>
                        <path d="M48.1293518,26.1849782 C48.1293518,26.1849782 47.2662504,26.3077441 46.7648296,27.0766467 C46.268106,27.8373256 46.5329078,28.6168013 46.5329078,28.6168013 C46.5329078,28.6168013 47.4083392,28.4570293 47.9303101,27.6652183 C48.4546295,26.8704703 48.1293518,26.1849782 48.1293518,26.1849782" id="Fill-45" fill="#C27327"></path>
                        <path d="M48.4945553,28.4452814 C48.4945553,28.444694 47.6649211,28.3695072 46.9979257,29.0009588 C46.3332789,29.6294735 46.3714433,30.4477174 46.3714433,30.4477174 C46.3714433,30.4477174 47.2263246,30.4864856 47.9197415,29.8362372 C48.6149197,29.1818771 48.4945553,28.4452814 48.4945553,28.4452814" id="Fill-46" fill="#C27327"></path>
                        <path d="M48.0172073,30.5440504 C48.0172073,30.5440504 47.2609661,30.4300955 46.5593293,30.9822485 C45.8594539,31.532052 45.7848866,32.2962553 45.7848866,32.2962553 C45.7848866,32.2962553 46.5722464,32.3761413 47.2997176,31.8063663 C48.0301245,31.2354166 48.0172073,30.5440504 48.0172073,30.5440504" id="Fill-47" fill="#C27327"></path>
                        <path d="M47.9579058,32.5124174 C47.9579058,32.5124174 47.2832776,32.1276724 46.3720304,32.4560273 C45.4619575,32.7849696 45.0603512,33.559746 45.0603512,33.559746 C45.0603512,33.559746 45.786648,33.9221699 46.7325367,33.5785427 C47.6766639,33.2372651 47.9579058,32.5124174 47.9579058,32.5124174" id="Fill-48" fill="#C27327"></path>
                        <path d="M47.2738833,34.7662592 C47.2738833,34.7662592 46.746041,34.2223297 45.7367408,34.3098519 C44.7233306,34.397374 44.0539867,35.0511467 44.0539867,35.0511467 C44.0539867,35.0511467 44.6470019,35.5874401 45.7003379,35.4928692 C46.7478024,35.3988857 47.2738833,34.7662592 47.2738833,34.7662592" id="Fill-49" fill="#C27327"></path>
                        <path d="M46.0209184,36.2253531 C46.0209184,36.2253531 45.4725261,35.7055068 44.4655745,35.8188744 C43.4562743,35.9316546 42.8110032,36.5883644 42.8110032,36.5883644 C42.8110032,36.5883644 43.4228071,37.0988122 44.4726202,36.9795707 C45.5153876,36.8597417 46.0209184,36.2253531 46.0209184,36.2253531" id="Fill-50" fill="#C27327"></path>
                        <path d="M44.6681391,37.8218978 C44.6681391,37.8218978 44.2136898,37.2415497 43.218481,37.2333261 C42.2191623,37.2262774 41.491104,37.8019263 41.491104,37.8019263 C41.491104,37.8019263 42.0107262,38.3828618 43.0505579,38.387561 C44.0833439,38.3922602 44.6681391,37.8218978 44.6681391,37.8218978" id="Fill-51" fill="#C27327"></path>
                        <path d="M43.2002796,39.324459 C43.2002796,39.324459 42.9301934,38.6577636 41.9989834,38.4445385 C41.0601404,38.2295512 40.2140662,38.6489526 40.2140662,38.6489526 C40.2140662,38.6489526 40.5452153,39.3326826 41.5257455,39.5506068 C42.4962942,39.7667689 43.2002796,39.324459 43.2002796,39.324459" id="Fill-52" fill="#C27327"></path>
                        <path d="M39.0908601,39.4419384 C39.2423432,39.3808491 42.8409476,37.8894485 45.5611848,32.9641256 C47.627931,29.2200579 45.9105354,25.2398566 45.8917468,25.1987388 L45.5717534,25.3496998 C45.5881934,25.3902302 47.2592047,29.2417916 45.2699615,32.8578068 C42.6160715,37.6779856 39.0115957,39.1787846 38.9763671,39.1940569 L39.0908601,39.4419384" id="Fill-53" fill="#C27327"></path>
                        <path d="M41.1805049,38.0480456 C41.1805049,38.0480456 40.0109144,39.1006608 35.6983432,39.9382888 C35.5315944,40.079264 35.5251358,40.6983803 35.6290602,40.7735671 C39.0491729,39.5077269 40.2428363,39.2310629 41.1805049,38.0480456" id="Fill-54" fill="#C27327"></path>
                        <path d="M33.3849966,25.2157733 C33.3849966,25.2157733 33.2211835,25.9464951 32.3756964,26.3447501 C31.5390165,26.7377187 30.6982266,26.4927742 30.6982266,26.4927742 C30.6982266,26.4927742 30.8861126,25.7550037 31.7621312,25.3356023 C32.6493054,24.9097396 33.3849966,25.2157733 33.3849966,25.2157733" id="Fill-55" fill="#FF9834"></path>
                        <path d="M33.1430934,26.8346391 C33.1430934,26.8346391 33.0268389,27.5841576 32.2013147,28.0329288 C31.3834234,28.4764134 30.5167992,28.2737615 30.5167992,28.2737615 C30.5167992,28.2737615 30.6559522,27.5160195 31.5114208,27.0443398 C32.3768707,26.565024 33.1430934,26.8346391 33.1430934,26.8346391" id="Fill-56" fill="#FF9834"></path>
                        <path d="M33.0297746,28.3518853 C33.0297746,28.3518853 33.0286003,29.1125642 32.2858634,29.6635425 C31.5519337,30.2057098 30.6747408,30.1099642 30.6747408,30.1099642 C30.6747408,30.1099642 30.6982266,29.338712 31.463275,28.7630631 C32.2388919,28.179778 33.0297746,28.3518853 33.0297746,28.3518853" id="Fill-57" fill="#FF9834"></path>
                        <path d="M33.2141378,29.8573835 C33.2141378,29.8573835 33.2869436,30.6027901 32.618774,31.2001728 C31.9605858,31.7905066 31.099833,31.765836 31.099833,31.765836 C31.099833,31.765836 31.0475772,31.0098562 31.7333611,30.3848659 C32.4279522,29.7516521 33.2141378,29.8573835 33.2141378,29.8573835" id="Fill-58" fill="#FF9834"></path>
                        <path d="M33.815373,31.2448149 C33.815373,31.2448149 33.8934632,31.9573273 33.2528893,32.5365007 C32.6193611,33.1056882 31.7885526,33.0880663 31.7885526,33.0880663 C31.7891398,33.0880663 31.7315997,32.3632186 32.3892007,31.759962 C33.0567832,31.1478944 33.815373,31.2448149 33.815373,31.2448149" id="Fill-59" fill="#FF9834"></path>
                        <path d="M34.4348098,32.6434069 C34.4348098,32.6434069 34.6332644,33.3189133 34.1341921,33.9650499 C33.6421656,34.6041377 32.8595029,34.7039952 32.8595029,34.7039952 C32.8595029,34.7039952 32.6780755,34.0161534 33.1883035,33.3418218 C33.7055772,32.659854 34.4348098,32.6434069 34.4348098,32.6434069" id="Fill-60" fill="#FF9834"></path>
                        <path d="M35.1481895,33.8252494 C35.1481895,33.8252494 35.5145672,34.4584633 35.2045553,35.2079817 C34.8974791,35.9486892 34.1729436,36.2094934 34.1729436,36.2094934 C34.1729436,36.2094934 33.8212445,35.5580702 34.133605,34.7821189 C34.4535984,33.9938323 35.1481895,33.8252494 35.1481895,33.8252494" id="Fill-61" fill="#FF9834"></path>
                        <path d="M36.162774,35.3119509 C36.162774,35.3119509 36.4680887,35.8605796 36.1798011,36.4984926 C35.8950364,37.1299443 35.2562239,37.3419946 35.2562239,37.3419946 C35.2562239,37.3419946 34.9650006,36.7786809 35.2562239,36.1149225 C35.5527316,35.4441152 36.162774,35.3119509 36.162774,35.3119509" id="Fill-62" fill="#FF9834"></path>
                        <path d="M37.6500092,36.3387207 C37.6500092,36.3387207 37.8977839,36.9225932 37.514379,37.5411221 C37.1350841,38.1508401 36.4422544,38.3065002 36.4422544,38.3065002 C36.4422544,38.3065002 36.2109198,37.7085302 36.6013704,37.0665054 C36.9971053,36.4156697 37.6500092,36.3387207 37.6500092,36.3387207" id="Fill-63" fill="#FF9834"></path>
                        <path d="M29.597332,23.878858 C29.597332,23.878858 30.4516262,24.1484732 30.8086096,24.9937373 C31.1626573,25.8319527 30.7387395,26.5573878 30.7387395,26.5573878 C30.7387395,26.5573878 29.8803353,26.2507666 29.5057375,25.3802445 C29.1287912,24.5026735 29.597332,23.878858 29.597332,23.878858" id="Fill-64" fill="#FF9834"></path>
                        <path d="M33.2411464,23.3707597 C33.2411464,23.3707597 33.2693293,24.0685872 32.6346269,24.6078176 C32.0069701,25.1411739 31.2260689,25.0941822 31.2260689,25.0941822 C31.2260689,25.0941822 31.218436,24.3840193 31.8748628,23.8195309 C32.537161,23.2491686 33.2411464,23.3707597 33.2411464,23.3707597" id="Fill-65" fill="#FF9834"></path>
                        <path d="M30.708208,22.6934911 C30.708208,22.6934911 31.3605248,23.0112728 31.5284479,23.7214357 C31.6963711,24.4263119 31.2495546,24.9485078 31.2495546,24.9485078 C31.2495546,24.9485078 30.5972379,24.6019436 30.4175719,23.8676975 C30.2373187,23.1275774 30.708208,22.6934911 30.708208,22.6934911" id="Fill-66" fill="#FF9834"></path>
                        <path d="M28.9021537,25.8460502 C28.9021537,25.8460502 29.7629065,25.9735153 30.259043,26.7447674 C30.7522438,27.5113203 30.4821577,28.2884464 30.4821577,28.2884464 C30.4821577,28.2884464 29.6079005,28.1222131 29.0918011,27.3280525 C28.5715917,26.5297802 28.9021537,25.8460502 28.9021537,25.8460502" id="Fill-67" fill="#FF9834"></path>
                        <path d="M28.5216845,28.1045912 C28.5216845,28.1045912 29.3513187,28.0335162 30.0147912,28.6690796 C30.675328,29.3028808 30.6330536,30.1199499 30.6330536,30.1199499 C30.6330536,30.1199499 29.776998,30.1534315 29.0882783,29.498484 C28.3966229,28.8400121 28.5216845,28.1045912 28.5216845,28.1045912" id="Fill-68" fill="#FF9834"></path>
                        <path d="M28.9855281,30.2057098 C28.9855281,30.2051224 29.7423565,30.096454 30.4410576,30.6527189 C31.136823,31.2083963 31.2072803,31.9720123 31.2072803,31.9720123 C31.2072803,31.9720123 30.4187461,32.0477865 29.6942107,31.4738997 C28.9685009,30.897076 28.9855281,30.2057098 28.9855281,30.2057098" id="Fill-69" fill="#FF9834"></path>
                        <path d="M29.0324996,32.1734894 C29.0324996,32.1734894 29.7100636,31.794031 30.618375,32.1288472 C31.5272736,32.4636635 31.9230086,33.2402021 31.9230086,33.2402021 C31.9230086,33.2402021 31.1949502,33.5973394 30.250823,33.2484257 C29.3096315,32.9012741 29.0324996,32.1734894 29.0324996,32.1734894" id="Fill-70" fill="#FF9834"></path>
                        <path d="M29.7012564,34.4326178 C29.7012564,34.4326178 30.2337958,33.8904505 31.2425089,33.9856088 C32.255332,34.0807671 32.9199787,34.7380642 32.9199787,34.7380642 C32.9199787,34.7380642 32.3246149,35.2708332 31.2712789,35.1692135 C30.2249887,35.0687686 29.7012564,34.4326178 29.7012564,34.4326178" id="Fill-71" fill="#FF9834"></path>
                        <path d="M30.9460013,35.8987604 C30.9460013,35.8987604 31.4979165,35.3836134 32.5031066,35.5022675 C33.512994,35.6215091 34.1535679,36.2823306 34.1535679,36.2823306 C34.1535679,36.2823306 33.5382412,36.7898415 32.4890152,36.6623764 C31.4462478,36.5366734 30.9460013,35.8987604 30.9460013,35.8987604" id="Fill-72" fill="#FF9834"></path>
                        <path d="M32.2893863,37.5041161 C32.2893863,37.5041161 32.7467713,36.9272924 33.7413929,36.9261176 C34.741886,36.9249428 35.46466,37.5047035 35.46466,37.5047035 C35.4652471,37.5047035 34.9438634,38.082702 33.9028575,38.0803524 C32.8700715,38.0791776 32.2893863,37.5041161 32.2893863,37.5041161" id="Fill-73" fill="#FF9834"></path>
                        <path d="M33.7472644,39.0160757 C33.7472644,39.0160757 34.0208734,38.3511424 34.9550192,38.1437913 C35.8962107,37.934678 36.7381749,38.3587786 36.7381749,38.3587786 C36.7381749,38.3587786 36.4023286,39.0407463 35.4206242,39.2527966 C34.4477269,39.4636721 33.7472644,39.0160757 33.7472644,39.0160757" id="Fill-74" fill="#FF9834"></path>
                        <path d="M37.8560967,39.1599879 C37.7052007,39.0977238 34.1154035,37.5828273 31.4262849,32.6404699 C29.3836116,28.8846543 31.1268416,24.9156135 31.1456302,24.8744957 L31.4644493,25.0272189 C31.4462478,25.0671619 29.7523379,28.9087375 31.7192697,32.5376755 C34.3414539,37.3743014 37.9365354,38.8968341 37.9723512,38.9126938 L37.8560967,39.1599879" id="Fill-75" fill="#FF9834"></path>
                        <path d="M35.7758462,37.752585 C35.7758462,37.752585 36.9383909,38.8128363 41.2456779,39.6792467 C41.4112524,39.820222 41.413601,40.4387509 41.3096765,40.5127629 C37.8977839,39.2263638 36.7047077,38.9414763 35.7758462,37.752585" id="Fill-76" fill="#FF9834"></path>
                        <path d="M43.6488575,25.2627651 C43.6488575,25.2627651 43.8091477,25.9934868 44.6522862,26.3964411 C45.4866176,26.7964583 46.3279946,26.556213 46.3279946,26.556213 C46.3279946,26.556213 46.1453929,25.8172677 45.2717229,25.391405 C44.3880715,24.9602557 43.6488575,25.2627651 43.6488575,25.2627651" id="Fill-77" fill="#FBC13D"></path>
                        <path d="M43.8819535,26.8816309 C43.8819535,26.8816309 43.9923366,27.6329115 44.8160993,28.0857945 C45.6304678,28.5357405 46.4982663,28.3377878 46.4982663,28.3377878 C46.4982663,28.3377878 46.3643975,27.5800458 45.5124519,27.1019047 C44.6493505,26.6173023 43.8819535,26.8816309 43.8819535,26.8816309" id="Fill-78" fill="#FBC13D"></path>
                        <path d="M43.9852909,28.4006392 C43.9852909,28.4006392 43.9811808,29.1613182 44.720982,29.7164082 C45.4513889,30.2626873 46.3285818,30.1722282 46.3285818,30.1722282 C46.3285818,30.1722282 46.3109675,29.4021509 45.5482677,28.820628 C44.7773478,28.2320563 43.9852909,28.4006392 43.9852909,28.4006392" id="Fill-79" fill="#FBC13D"></path>
                        <path d="M43.7915334,29.9049626 C43.7915334,29.9049626 43.7134433,30.6497819 44.3780901,31.2506889 C45.0327554,31.8451345 45.8935082,31.8257504 45.8935082,31.8257504 C45.8935082,31.8257504 45.9510483,31.0703581 45.2693743,30.4418434 C44.5783061,29.8039304 43.7915334,29.9049626 43.7915334,29.9049626" id="Fill-80" fill="#FBC13D"></path>
                        <path d="M43.1803167,31.2876949 C43.1803167,31.2876949 43.0981166,32.0002073 43.7351676,32.5817302 C44.3639986,33.1562044 45.1971557,33.1432816 45.1971557,33.1432816 C45.1971557,33.1432816 45.2576315,32.4201961 44.6041404,31.8128277 C43.9412551,31.196061 43.1803167,31.2876949 43.1803167,31.2876949" id="Fill-81" fill="#FBC13D"></path>
                        <path d="M42.55266,32.6827625 C42.55266,32.6827625 42.3500954,33.3570941 42.8444704,34.0067551 C43.3329741,34.6476051 44.1144625,34.7539239 44.1144625,34.7539239 C44.1144625,34.7539239 44.3005871,34.0666695 43.7950563,33.3899883 C43.2818926,32.7039088 42.55266,32.6827625 42.55266,32.6827625" id="Fill-82" fill="#FBC13D"></path>
                        <path d="M41.8322345,33.8593184 C41.8322345,33.8593184 41.4611596,34.4907701 41.7670616,35.2432255 C42.0688535,35.983933 42.7933889,36.2500238 42.7933889,36.2500238 C42.7933889,36.2500238 43.1480238,35.602125 42.8403604,34.8232367 C42.5268256,34.0320131 41.8322345,33.8593184 41.8322345,33.8593184" id="Fill-83" fill="#FBC13D"></path>
                        <path d="M40.8082557,35.3395586 C40.8082557,35.3395586 40.5000052,35.8870125 40.78477,36.5272751 C41.0636633,37.1587267 41.7007143,37.376651 41.7007143,37.376651 C41.7007143,37.376651 41.9960476,36.8145122 41.7089343,36.1495789 C41.417711,35.4775969 40.8082557,35.3395586 40.8082557,35.3395586" id="Fill-84" fill="#FBC13D"></path>
                        <path d="M39.3145619,36.3575174 C39.3145619,36.3575174 39.0626772,36.9390403 39.4425592,37.5599188 C39.817157,38.1731611 40.5088124,38.3323457 40.5088124,38.3323457 C40.5088124,38.3323457 40.7442571,37.7367253 40.3579164,37.0923509 C39.9668787,36.4391656 39.3145619,36.3575174 39.3145619,36.3575174" id="Fill-85" fill="#FBC13D"></path>
                        <path d="M47.4459164,23.9481709 C47.4459164,23.9481709 46.5904479,24.2124995 46.2270059,25.0565888 C45.8676739,25.8924545 46.2874817,26.6196519 46.2874817,26.6196519 C46.2874817,26.6196519 47.1482345,26.3200795 47.5269423,25.4519069 C47.9109343,24.5749233 47.4459164,23.9481709 47.4459164,23.9481709" id="Fill-86" fill="#FBC13D"></path>
                        <path d="M43.8044506,23.4183389 C43.8044506,23.4183389 43.7727448,24.115579 44.4033372,24.6589211 C45.0280582,25.1963892 45.8095466,25.1535093 45.8095466,25.1535093 C45.8095466,25.1535093 45.8207024,24.4439338 45.1689728,23.8753337 C44.5096103,23.3002721 43.8044506,23.4183389 43.8044506,23.4183389" id="Fill-87" fill="#FBC13D"></path>
                        <path d="M46.3432604,22.75693 C46.3432604,22.75693 45.6880079,23.0700125 45.5148005,23.7784132 C45.3427673,24.482702 45.7860609,25.0078348 45.7860609,25.0078348 C45.7860609,25.0078348 46.4413134,24.6647951 46.6245022,23.9323111 C46.8100397,23.1933659 46.3432604,22.75693 46.3432604,22.75693" id="Fill-88" fill="#FBC13D"></path>
                        <path d="M48.1293518,25.9200622 C48.1293518,25.9200622 47.2662504,26.0434155 46.7648296,26.8117307 C46.268106,27.572997 46.5329078,28.3518853 46.5329078,28.3518853 C46.5329078,28.3518853 47.4083392,28.1921133 47.9303101,27.4014771 C48.4546295,26.6061418 48.1293518,25.9200622 48.1293518,25.9200622" id="Fill-89" fill="#FBC13D"></path>
                        <path d="M48.4945553,28.1809528 C48.4945553,28.1809528 47.6649211,28.1045912 46.9979257,28.7372176 C46.3332789,29.3657323 46.3714433,30.1828014 46.3714433,30.1828014 C46.3714433,30.1828014 47.2263246,30.222157 47.9197415,29.5719086 C48.6149197,28.9175485 48.4945553,28.1809528 48.4945553,28.1809528" id="Fill-90" fill="#FBC13D"></path>
                        <path d="M48.0172073,30.2791345 C48.0172073,30.2791345 47.2609661,30.1657669 46.5593293,30.7179199 C45.8594539,31.2683108 45.7848866,32.0313394 45.7848866,32.0313394 C45.7848866,32.0313394 46.5722464,32.1129875 47.2997176,31.5432125 C48.0301245,30.9699132 48.0172073,30.2791345 48.0172073,30.2791345" id="Fill-91" fill="#FBC13D"></path>
                        <path d="M47.9579058,32.2475014 C47.9579058,32.2475014 47.2832776,31.8627564 46.3720304,32.1916987 C45.4619575,32.5212284 45.0603512,33.2954174 45.0603512,33.2954174 C45.0603512,33.2954174 45.786648,33.6572539 46.7325367,33.3148015 C47.6766639,32.9735239 47.9579058,32.2475014 47.9579058,32.2475014" id="Fill-92" fill="#FBC13D"></path>
                        <path d="M47.2738833,34.5019306 C47.2738833,34.5019306 46.746041,33.9574137 45.7367408,34.0449359 C44.7233306,34.1336328 44.0539867,34.7862307 44.0539867,34.7862307 C44.0539867,34.7862307 44.6470019,35.3231115 45.7003379,35.2285406 C46.7478024,35.1345571 47.2738833,34.5019306 47.2738833,34.5019306" id="Fill-93" fill="#FBC13D"></path>
                        <path d="M46.0209184,35.9610245 C46.0209184,35.9610245 45.4725261,35.4417656 44.4655745,35.5539585 C43.4562743,35.6661513 42.8110032,36.3240358 42.8110032,36.3240358 C42.8110032,36.3240358 43.4228071,36.8344837 44.4726202,36.7152421 C45.5153876,36.5948257 46.0209184,35.9610245 46.0209184,35.9610245" id="Fill-94" fill="#FBC13D"></path>
                        <path d="M44.6681391,37.5581566 C44.6681391,37.5581566 44.2136898,36.9772211 43.218481,36.9689975 C42.2191623,36.9619488 41.491104,37.5375977 41.491104,37.5375977 C41.491104,37.5375977 42.0107262,38.1185332 43.0505579,38.122645 C44.0833439,38.1279316 44.6681391,37.5581566 44.6681391,37.5581566" id="Fill-95" fill="#FBC13D"></path>
                        <path d="M43.2002796,39.059543 C43.2002796,39.059543 42.9301934,38.393435 41.9989834,38.1802099 C41.0601404,37.9652226 40.2140662,38.3840366 40.2140662,38.3840366 C40.2140662,38.3840366 40.5452153,39.0671792 41.5257455,39.2862782 C42.4962942,39.5030277 43.2002796,39.059543 43.2002796,39.059543" id="Fill-96" fill="#FBC13D"></path>
                        <path d="M39.0908601,39.1776098 C39.2423432,39.1165205 42.8409476,37.6245325 45.5611848,32.6992096 C47.627931,28.9551419 45.9105354,24.9761154 45.8917468,24.9349976 L45.5717534,25.0859586 C45.5881934,25.1259016 47.2592047,28.9780504 45.2699615,32.5940656 C42.6160715,37.413657 39.0115957,38.914456 38.9763671,38.9291409 L39.0908601,39.1776098" id="Fill-97" fill="#FBC13D"></path>
                        <path d="M41.1805049,37.7825422 C41.1805049,37.7825422 40.0109144,38.8363322 35.6983432,39.6745476 C35.5315944,39.8149354 35.5251358,40.4340517 35.6290602,40.5092385 C39.0491729,39.2433983 40.2428363,38.9661469 41.1805049,37.7825422" id="Fill-98" fill="#FBC13D"></path>
                        <polyline id="Fill-99" fill="#C27327" points="37.2014314 24.0486157 38.3510589 20.917203 39.5241722 24.0362804 42.9836235 24.2495055 40.2534048 26.2425431 41.2480264 29.6876258 38.3810033 27.6182266 35.542163 29.7158208 36.4950974 26.2619272 33.7513744 24.2953224 37.2014314 24.0486157"></polyline>
                        <polyline id="Fill-100" fill="#FF9834" points="37.2014314 23.7302466 38.3510589 20.5994212 39.5241722 23.7184987 42.9836235 23.9317238 40.2534048 25.9235866 41.2480264 29.3698441 38.3810033 27.2998575 35.542163 29.3980391 36.4950974 25.9441455 33.7513744 23.9763659 37.2014314 23.7302466"></polyline>
                        <polyline id="Fill-101" fill="#FBC13D" points="39.5241722 23.7220231 38.4068376 20.7533192 38.4068376 27.3227659 41.2480264 29.3727811 40.2534048 25.9276984 42.9836235 23.9352481 39.5241722 23.7220231"></polyline>
                        <path d="M30.8332697,32.2204811 C30.9642027,32.28392 31.0828058,32.3555824 31.1890788,32.4313566 C31.1597216,32.3679178 31.1309516,32.3038915 31.1033558,32.2398652 C31.03877,32.2398652 30.9454141,32.2351661 30.8332697,32.2204811 M30.4070033,17.6741848 C30.4070033,17.6741848 28.205214,17.9678832 27.2511053,18.4818555 C27.2511053,18.4818555 27.5446772,34.0478728 28.7189648,37.0582819 C29.8932524,40.0686909 32.9757574,43.9596078 36.0582624,46.1623461 C34.9186162,44.1740077 33.7789701,41.3909213 32.81899,38.1108971 C32.4737495,37.9511251 32.2893863,37.7696195 32.2893863,37.7696195 C32.2893863,37.7696195 32.3381192,37.7079428 32.4379337,37.6251199 C32.3398807,37.5546322 32.2893863,37.5041161 32.2893863,37.5041161 C32.2893863,37.5041161 32.3827422,37.3866367 32.5764996,37.2574094 C32.5465553,37.1481536 32.5166109,37.0383104 32.4866666,36.9278798 C31.4456607,36.7998272 30.9460013,36.1642638 30.9460013,36.1642638 C30.9460013,36.1642638 30.9970828,36.1160973 31.0968972,36.0532458 C30.9959085,35.9621993 30.9460013,35.8987604 30.9460013,35.8987604 C30.9460013,35.8987604 31.3575891,35.5146029 32.1173532,35.4864078 C32.1091332,35.4529262 32.1009131,35.4182698 32.0926931,35.3847881 C31.9294671,35.4217942 31.7433426,35.4464648 31.5354937,35.4464648 C31.4509449,35.4464648 31.3628734,35.442353 31.2712789,35.4335421 C30.2249887,35.3330972 29.7012564,34.6969464 29.7012564,34.6969464 C29.7012564,34.6969464 29.7511636,34.6464303 29.8492167,34.5788796 C29.7505765,34.4925323 29.7012564,34.4326178 29.7012564,34.4326178 C29.7012564,34.4326178 30.1515957,33.9744482 31.0076514,33.9744482 C31.0828058,33.9744482 31.1608959,33.9779726 31.2425089,33.9856088 C31.4415506,34.0044055 31.6265009,34.0443485 31.7961855,34.0972142 C31.7591954,33.9286313 31.7227925,33.7582862 31.6863896,33.5879411 C31.5419522,33.6272967 31.3376262,33.6660649 31.0916129,33.6660649 C30.846774,33.6660649 30.5608349,33.6272967 30.250823,33.5127543 C29.3096315,33.1661901 29.0324996,32.4384054 29.0324996,32.4384054 C29.0324996,32.4384054 29.0730125,32.4160843 29.1469927,32.3867145 C29.0653797,32.2598367 29.0324996,32.1734894 29.0324996,32.1734894 C29.0324996,32.1734894 29.3589516,31.990809 29.8621338,31.990809 C29.9443339,31.990809 30.0318184,31.9955081 30.1228257,32.0072561 C29.9819112,31.939118 29.8368866,31.8510085 29.6942107,31.7382283 C28.9685009,31.1614046 28.9855281,30.4700384 28.9855281,30.4700384 C28.9855281,30.4700384 28.9978581,30.4682762 29.0213439,30.4659267 C28.9831795,30.3079169 28.9855281,30.2057098 28.9855281,30.2057098 C28.9855281,30.2051224 29.0460039,30.1968989 29.1475798,30.1968989 C29.4070974,30.1968989 29.9390497,30.2527016 30.4410576,30.6527189 C30.5185606,30.7143955 30.5884307,30.7790092 30.6512551,30.8447977 C30.6160265,30.6897249 30.585495,30.5358269 30.5596607,30.3831037 C30.3383074,30.3748801 29.6560463,30.3032177 29.0882783,29.7628126 C28.454163,29.1589686 28.5070059,28.4899236 28.5199231,28.3836047 C28.5034831,28.2126722 28.5216845,28.1045912 28.5216845,28.1045912 C28.5216845,28.1045912 28.5492803,28.1022416 28.5980132,28.1022416 C28.8181921,28.1022416 29.4722703,28.1492334 30.0147912,28.6690796 C30.2155944,28.8617458 30.3512246,29.0708591 30.442819,29.2693992 C30.4351862,29.0890684 30.4334247,28.9116745 30.4357733,28.7383924 C30.434599,28.6720166 30.434599,28.6068155 30.4351862,28.5416145 C30.2461259,28.4940353 29.536269,28.2766985 29.0918011,27.5923811 C28.821715,27.1776789 28.7806149,26.7941088 28.8041007,26.5209692 C28.7700463,26.1186023 28.9021537,25.8460502 28.9021537,25.8460502 C28.9021537,25.8460502 29.7629065,25.9735153 30.259043,26.7447674 C30.3940861,26.9538807 30.4715891,27.1641688 30.5132763,27.359772 C30.5396978,27.1506587 30.5708164,26.9515311 30.6054579,26.7629767 C30.3494632,26.6384486 29.7887408,26.303045 29.5057375,25.6451605 C29.373043,25.3361897 29.3454473,25.0589384 29.364823,24.8292662 C29.3166772,24.2530298 29.597332,23.878858 29.597332,23.878858 C29.597332,23.878858 30.050607,24.0221829 30.4351862,24.4268993 C30.4287276,24.3276292 30.4228561,24.2283592 30.4169847,24.1290891 C30.3758846,23.9581566 30.3694261,23.8042586 30.3835175,23.6679826 C30.3747104,23.5845722 30.3747104,23.5052736 30.3805818,23.431849 C30.2930974,21.5269209 30.2954459,19.5967348 30.4070033,17.6741848" id="Fill-102" fill="#FCCD64"></path>
                        <path d="M29.364823,24.8292662 C29.3454473,25.0589384 29.373043,25.3361897 29.5057375,25.6451605 C29.7887408,26.303045 30.3494632,26.6384486 30.6054579,26.7629767 C30.610155,26.7388934 30.614265,26.7148102 30.6189622,26.6907269 C30.6125036,26.6261132 30.606045,26.5614996 30.5995864,26.4962985 C30.3412432,26.3700082 29.7869794,26.0346046 29.5057375,25.3802445 C29.4206017,25.1822917 29.3789145,24.9972617 29.364823,24.8292662" id="Fill-103" fill="#CE8F52"></path>
                        <path d="M30.386128,23.6679826 C30.3665954,23.8042586 30.3755479,23.9581566 30.4325179,24.1290891 C30.4227516,24.0086727 30.4137992,23.8894312 30.4048467,23.7690148 C30.3967082,23.7349458 30.3901973,23.7008768 30.386128,23.6679826" id="Fill-104" fill="#CE8F52"></path>
                        <path d="M28.8041007,26.5209692 C28.7806149,26.7941088 28.821715,27.1776789 29.0918011,27.5923811 C29.536269,28.2766985 30.2461259,28.4940353 30.4351862,28.5416145 C30.4351862,28.4529175 30.4375347,28.3653954 30.4404705,28.2790481 C30.2596302,28.2344059 29.540379,28.0182439 29.0918011,27.3280525 C28.8998051,27.0337667 28.8240636,26.7553406 28.8041007,26.5209692" id="Fill-105" fill="#CE8F52"></path>
                        <path d="M28.5199231,28.3836047 C28.5070059,28.4899236 28.454163,29.1589686 29.0882783,29.7628126 C29.6560463,30.3032177 30.3383074,30.3748801 30.5596607,30.3831037 C30.5443949,30.2938194 30.5308906,30.2051224 30.5185606,30.1170129 C30.263153,30.1011532 29.6249277,30.0083445 29.0882783,29.498484 C28.6620119,29.0925928 28.5463446,28.6573317 28.5199231,28.3836047" id="Fill-106" fill="#CE8F52"></path>
                        <path d="M29.0213439,30.4659267 C28.9978581,30.4682762 28.9855281,30.4700384 28.9855281,30.4700384 C28.9855281,30.4700384 28.9685009,31.1614046 29.6942107,31.7382283 C29.8368866,31.8510085 29.9819112,31.939118 30.1228257,32.0072561 C30.2778316,32.0266402 30.4439933,32.0642336 30.618375,32.1288472 C30.6935294,32.1564549 30.765161,32.1875869 30.8332697,32.2204811 C30.9454141,32.2351661 31.03877,32.2398652 31.1033558,32.2398652 C31.0651915,32.1505809 31.0287886,32.0607092 30.9941471,31.9714249 C30.7105566,31.953803 30.1874115,31.8645186 29.6942107,31.4738997 C29.2473943,31.1185246 29.0824068,30.7202695 29.0213439,30.4659267" id="Fill-107" fill="#CE8F52"></path>
                        <path d="M29.1469927,32.3867145 C29.0730125,32.4160843 29.0324996,32.4384054 29.0324996,32.4384054 C29.0324996,32.4384054 29.3096315,33.1661901 30.250823,33.5127543 C30.5608349,33.6272967 30.846774,33.6660649 31.0916129,33.6660649 C31.3376262,33.6660649 31.5419522,33.6272967 31.6863896,33.5879411 C31.6693624,33.5045307 31.6517481,33.420533 31.6341338,33.3365352 C31.4943936,33.3711916 31.3094433,33.4011489 31.0916129,33.4011489 C30.846774,33.4011489 30.5608349,33.3629681 30.250823,33.2484257 C29.6331477,33.0205157 29.3019986,32.6293094 29.1469927,32.3867145" id="Fill-108" fill="#CE8F52"></path>
                        <path d="M29.8492167,34.5788796 C29.7511636,34.6464303 29.7012564,34.6969464 29.7012564,34.6969464 C29.7012564,34.6969464 30.2249887,35.3330972 31.2712789,35.4335421 C31.3628734,35.442353 31.4509449,35.4464648 31.5354937,35.4464648 C31.7433426,35.4464648 31.9294671,35.4217942 32.0926931,35.3847881 C32.0727302,35.3007904 32.0527673,35.2179674 32.0328045,35.1333823 C31.8842571,35.1633395 31.7180954,35.1821362 31.5354937,35.1821362 C31.4509449,35.1821362 31.3628734,35.1780244 31.2712789,35.1692135 C30.5461563,35.0993133 30.0723313,34.7727206 29.8492167,34.5788796" id="Fill-109" fill="#CE8F52"></path>
                        <path d="M31.0968972,36.0532458 C30.9970828,36.1160973 30.9460013,36.1642638 30.9460013,36.1642638 C30.9460013,36.1642638 31.4456607,36.7998272 32.4866666,36.9278798 C32.4620066,36.8362458 32.4379337,36.7446119 32.4132736,36.6518032 C31.7427554,36.5531205 31.3076819,36.242975 31.0968972,36.0532458" id="Fill-110" fill="#CE8F52"></path>
                        <path d="M32.4379337,37.6251199 C32.3381192,37.7079428 32.2893863,37.7696195 32.2893863,37.7696195 C32.2893863,37.7696195 32.4737495,37.9511251 32.81899,38.1108971 C32.7890457,38.00869 32.7596885,37.9058956 32.7297441,37.8031011 C32.6082054,37.7402496 32.5101524,37.6773982 32.4379337,37.6251199" id="Fill-111" fill="#CE8F52"></path>
                        <path d="M30.9941471,31.9714249 C31.0287886,32.0607092 31.0651915,32.1505809 31.1033558,32.2398652 C31.1309516,32.3038915 31.1597216,32.3679178 31.1890788,32.4313566 C31.2689304,32.4889215 31.3423233,32.5482486 31.4086706,32.6075757 C31.2953518,32.3972876 31.1943631,32.1864121 31.1033558,31.9749493 C31.0728243,31.9749493 31.0364214,31.9737745 30.9941471,31.9714249 M30.5185606,30.1170129 C30.5308906,30.2051224 30.5443949,30.2938194 30.5596607,30.3831037 C30.585495,30.5358269 30.6160265,30.6897249 30.6512551,30.8447977 C30.683548,30.8788667 30.7146666,30.9135231 30.7434367,30.9481795 C30.6665208,30.669166 30.606045,30.3919147 30.5596607,30.1193625 C30.5473306,30.1187751 30.5338263,30.1181877 30.5185606,30.1170129 M30.4357733,28.7383924 C30.4334247,28.9116745 30.4351862,29.0890684 30.442819,29.2693992 C30.4492776,29.2829093 30.4551491,29.2958321 30.4610205,29.3093422 C30.4463419,29.1155012 30.4381219,28.9251846 30.4357733,28.7383924" id="Fill-112" fill="#CE8F52"></path>
                        <path d="M30.7779967,28.5745087 C30.7739274,28.6461711 30.7714859,28.7184209 30.7698581,28.7912582 C30.7747413,29.0450136 30.7950877,29.3052304 30.8325252,29.5719086 C30.8781012,29.4967218 30.9342574,29.4168358 31.0034354,29.3357751 C30.95379,29.0843692 30.9065863,28.8323759 30.8610102,28.5786205 C30.8317113,28.5774457 30.8040402,28.5762709 30.7779967,28.5745087" id="Fill-113" fill="#FCCD64"></path>
                        <path d="M30.7936344,28.3113549 C30.7863097,28.4172818 30.7797989,28.5253704 30.7757296,28.6341796 C30.801773,28.6363414 30.8294442,28.6377826 30.8587431,28.6392238 C30.8424659,28.5311351 30.8270026,28.4208847 30.8115393,28.3120755 C30.8058423,28.3120755 30.8001453,28.3113549 30.7936344,28.3113549" id="Fill-114" fill="#CE8F52"></path>
                        <path d="M30.7783442,28.3101801 C30.7702056,28.4670151 30.7669502,28.6273744 30.7702056,28.7912582 C30.7718334,28.7184209 30.7742749,28.6461711 30.7783442,28.5745087 C30.7824135,28.4858118 30.7889244,28.3977022 30.7962491,28.3113549 C30.7905521,28.3107675 30.7840412,28.3107675 30.7783442,28.3101801" id="Fill-115" fill="#CE8F52"></path>
                        <path d="M31.1202098,30.367244 C31.0541225,30.3725306 30.992854,30.3760549 30.9377813,30.3778171 C31.0073106,30.6709282 31.0974923,30.9675636 31.2124567,31.2659612 C31.2276017,31.2219064 31.2455004,31.1760895 31.2668411,31.1290977 C31.2165872,30.8765171 31.1670217,30.6227616 31.1202098,30.367244" id="Fill-116" fill="#FCCD64"></path>
                        <path d="M31.1153008,30.1070272 C31.0314735,30.1134281 30.9557847,30.1162729 30.8890483,30.1176954 C30.9093948,30.2229548 30.9313689,30.3289254 30.9565985,30.434896 C31.0217072,30.4327624 31.0941405,30.4284951 31.1722709,30.4220942 C31.1527383,30.3168348 31.1340196,30.2129978 31.1153008,30.1070272" id="Fill-117" fill="#CE8F52"></path>
                        <path d="M30.784682,28.1580443 C30.7814266,28.2280216 30.7781711,28.2979988 30.7757296,28.3687898 C30.7814266,28.3696035 30.7879374,28.3696035 30.7936344,28.3704172 C30.8001453,28.3704172 30.8058423,28.3712309 30.8115393,28.3712309 C30.8025869,28.2996262 30.7936344,28.2304626 30.784682,28.1580443" id="Fill-118" fill="#FFAD5D"></path>
                        <path d="M30.9861142,29.3357751 C30.9168813,29.4168358 30.8606805,29.4967218 30.8150682,29.5719086 C30.8411324,29.7504773 30.874527,29.9325703 30.9176958,30.1158381 C30.9844852,30.1146633 31.0602341,30.1123137 31.144128,30.1070272 C31.0895562,29.8509221 31.0366134,29.5942297 30.9861142,29.3357751" id="Fill-119" fill="#FFAD5D"></path>
                        <path d="M31.2363464,31.1290977 C31.2111168,31.1760895 31.1899565,31.2219064 31.1720516,31.2659612 C31.2298356,31.3946011 31.2933165,31.523241 31.3633082,31.6524684 C31.3201738,31.4785989 31.2778532,31.304142 31.2363464,31.1290977" id="Fill-120" fill="#FFAD5D"></path>
                        <path d="M29.597332,23.878858 C29.597332,23.878858 29.3166772,24.2530298 29.364823,24.8292662 C29.3789145,24.9972617 29.4206017,25.1822917 29.5057375,25.3802445 C29.7869794,26.0346046 30.3412432,26.3700082 30.5995864,26.4962985 C30.5338263,25.8113938 30.4786348,25.1212024 30.4351862,24.4268993 C30.050607,24.0221829 29.597332,23.878858 29.597332,23.878858" id="Fill-121" fill="#FFAD5D"></path>
                        <path d="M30.3821619,23.431849 C30.3740233,23.5052736 30.3740233,23.5845722 30.3862311,23.6679826 C30.3903004,23.7008768 30.3968113,23.7349458 30.4049499,23.7690148 C30.3968113,23.6562346 30.3894866,23.5446292 30.3821619,23.431849" id="Fill-122" fill="#FFAD5D"></path>
                        <path d="M28.9021537,25.8460502 C28.9021537,25.8460502 28.7700463,26.1186023 28.8041007,26.5209692 C28.8240636,26.7553406 28.8998051,27.0337667 29.0918011,27.3280525 C29.540379,28.0182439 30.2596302,28.2344059 30.4404705,28.2790481 C30.4510391,27.9571546 30.4774605,27.6493586 30.5132763,27.359772 C30.4715891,27.1641688 30.3940861,26.9538807 30.259043,26.7447674 C29.7629065,25.9735153 28.9021537,25.8460502 28.9021537,25.8460502" id="Fill-123" fill="#FFAD5D"></path>
                        <path d="M28.5980132,28.1022416 C28.5492803,28.1022416 28.5216845,28.1045912 28.5216845,28.1045912 C28.5216845,28.1045912 28.5034831,28.2126722 28.5199231,28.3836047 C28.5463446,28.6573317 28.6620119,29.0925928 29.0882783,29.498484 C29.6249277,30.0083445 30.263153,30.1011532 30.5185606,30.1170129 C30.5338263,30.1181877 30.5473306,30.1187751 30.5596607,30.1193625 C30.5132763,29.8444608 30.4809834,29.5736708 30.4610205,29.3093422 C30.4551491,29.2958321 30.4492776,29.2829093 30.442819,29.2693992 C30.3512246,29.0708591 30.2155944,28.8617458 30.0147912,28.6690796 C29.4722703,28.1492334 28.8181921,28.1022416 28.5980132,28.1022416" id="Fill-124" fill="#FFAD5D"></path>
                        <path d="M29.1475798,30.1968989 C29.0460039,30.1968989 28.9855281,30.2057098 28.9855281,30.2057098 C28.9855281,30.2051224 28.9831795,30.3079169 29.0213439,30.4659267 C29.0824068,30.7202695 29.2473943,31.1185246 29.6942107,31.4738997 C30.1874115,31.8645186 30.7105566,31.953803 30.9941471,31.9714249 C31.0364214,31.9737745 31.0728243,31.9749493 31.1033558,31.9749493 C30.9565699,31.6313221 30.8379668,31.2882823 30.7434367,30.9481795 C30.7146666,30.9135231 30.683548,30.8788667 30.6512551,30.8447977 C30.5884307,30.7790092 30.5185606,30.7143955 30.4410576,30.6527189 C29.9390497,30.2527016 29.4070974,30.1968989 29.1475798,30.1968989" id="Fill-125" fill="#FFAD5D"></path>
                        <path d="M29.8621338,31.990809 C29.3589516,31.990809 29.0324996,32.1734894 29.0324996,32.1734894 C29.0324996,32.1734894 29.0653797,32.2598367 29.1469927,32.3867145 C29.3019986,32.6293094 29.6331477,33.0205157 30.250823,33.2484257 C30.5608349,33.3629681 30.846774,33.4011489 31.0916129,33.4011489 C31.3094433,33.4011489 31.4943936,33.3711916 31.6341338,33.3365352 C31.5994923,33.1691271 31.5660251,33.0011316 31.5319708,32.8319613 C31.4967422,32.7685224 31.4615135,32.7050836 31.4262849,32.6404699 C31.4204135,32.6298968 31.414542,32.6187362 31.4086706,32.6075757 C31.3423233,32.5482486 31.2689304,32.4889215 31.1890788,32.4313566 C31.0828058,32.3555824 30.9642027,32.28392 30.8332697,32.2204811 C30.765161,32.1875869 30.6935294,32.1564549 30.618375,32.1288472 C30.4439933,32.0642336 30.2778316,32.0266402 30.1228257,32.0072561 C30.0318184,31.9955081 29.9443339,31.990809 29.8621338,31.990809" id="Fill-126" fill="#FFAD5D"></path>
                        <path d="M31.0076514,33.9744482 C30.1515957,33.9744482 29.7012564,34.4326178 29.7012564,34.4326178 C29.7012564,34.4326178 29.7505765,34.4925323 29.8492167,34.5788796 C30.0723313,34.7727206 30.5461563,35.0993133 31.2712789,35.1692135 C31.3628734,35.1780244 31.4509449,35.1821362 31.5354937,35.1821362 C31.7180954,35.1821362 31.8842571,35.1633395 32.0328045,35.1333823 C31.9517786,34.7921047 31.8725142,34.4461279 31.7961855,34.0972142 C31.6265009,34.0443485 31.4415506,34.0044055 31.2425089,33.9856088 C31.1608959,33.9779726 31.0828058,33.9744482 31.0076514,33.9744482" id="Fill-127" fill="#FFAD5D"></path>
                        <path d="M32.1173532,35.4864078 C31.3575891,35.5146029 30.9460013,35.8987604 30.9460013,35.8987604 C30.9460013,35.8987604 30.9959085,35.9621993 31.0968972,36.0532458 C31.3076819,36.242975 31.7427554,36.5531205 32.4132736,36.6518032 C32.3116978,36.2688205 32.2130576,35.8805511 32.1173532,35.4864078" id="Fill-128" fill="#FFAD5D"></path>
                        <path d="M32.5764996,37.2574094 C32.3827422,37.3866367 32.2893863,37.5041161 32.2893863,37.5041161 C32.2893863,37.5041161 32.3398807,37.5546322 32.4379337,37.6251199 C32.5101524,37.6773982 32.6082054,37.7402496 32.7297441,37.8031011 C32.6780755,37.6221829 32.6275811,37.4412646 32.5764996,37.2574094" id="Fill-129" fill="#FFAD5D"></path>
                        <path d="M30.6189622,26.6907269 C30.614265,26.7148102 30.610155,26.7388934 30.6054579,26.7629767 C30.5708164,26.9515311 30.5396978,27.1506587 30.5132763,27.359772 C30.4774605,27.6493586 30.4510391,27.9571546 30.4404705,28.2790481 C30.4375347,28.3653954 30.4351862,28.4529175 30.4351862,28.5416145 C30.434599,28.6068155 30.434599,28.6720166 30.4357733,28.7383924 C30.4381219,28.9251846 30.4463419,29.1155012 30.4610205,29.3093422 C30.4809834,29.5736708 30.5132763,29.8444608 30.5596607,30.1193625 C30.606045,30.3919147 30.6665208,30.669166 30.7434367,30.9481795 C30.8379668,31.2882823 30.9565699,31.6313221 31.1033558,31.9749493 C31.1943631,32.1864121 31.2953518,32.3972876 31.4086706,32.6075757 C31.414542,32.6187362 31.4204135,32.6298968 31.4262849,32.6404699 C31.4615135,32.7050836 31.4967422,32.7685224 31.5319708,32.8319613 C31.455055,32.4425172 31.3810748,32.0489613 31.3100304,31.6524684 C31.2595361,31.523241 31.2137389,31.3946011 31.1720516,31.2659612 C31.0739986,30.9675636 30.9970828,30.6709282 30.9377813,30.3778171 C30.9195798,30.290295 30.9037269,30.2027729 30.8890483,30.1158381 C30.8579297,29.9325703 30.8338568,29.7504773 30.8150682,29.5719086 C30.7880596,29.3052304 30.773381,29.0450136 30.7698581,28.7912582 C30.7675096,28.6273744 30.7698581,28.4670151 30.7757296,28.3101801 C30.777491,28.2590766 30.7798396,28.2085604 30.7821882,28.1580443 C30.7228866,27.6728545 30.6676951,27.1823781 30.6189622,26.6907269" id="Fill-130" fill="#FFAD5D"></path>
                        <path d="M46.1559615,32.2821578 C46.0772842,32.292731 46.0080013,32.2974301 45.9510483,32.2991923 C45.9504612,32.3309118 45.9492869,32.3626312 45.9486997,32.3943506 C46.0138727,32.354995 46.0831557,32.3174016 46.1559615,32.2821578 M41.4159496,17.1602125 C41.4159496,17.1602125 43.4821086,19.3934954 44.8301908,23.6368505 C44.9417481,23.6991146 45.0562411,23.7772384 45.1689728,23.8753337 C45.296383,23.9863517 45.3979588,24.1032436 45.480159,24.2183734 C45.4690032,24.0832721 45.4766361,23.9352481 45.5148005,23.7784132 C45.6880079,23.0700125 46.3432604,22.75693 46.3432604,22.75693 C46.3432604,22.75693 46.7231424,23.1123051 46.6614923,23.7237853 C46.6761709,23.8629983 46.668538,24.0215955 46.6245022,24.1966397 C46.5047249,24.6759556 46.1835572,24.9878633 45.9751212,25.1470479 C46.0097627,25.240444 46.0526242,25.3626226 46.0990085,25.511234 C46.1195586,25.3661469 46.1594844,25.2134237 46.2270059,25.0565888 C46.5904479,24.2124995 47.4459164,23.9481709 47.4459164,23.9481709 C47.4459164,23.9481709 47.7206997,24.3194057 47.6731411,24.8897681 C47.693104,25.1217898 47.6643339,25.4025655 47.5269423,25.7156481 C47.239829,26.3729452 46.6761709,26.7054118 46.4201762,26.8281778 C46.4530563,27.0155574 46.4830006,27.2140975 46.5076606,27.422036 C46.5505221,27.2281951 46.6297865,27.0190818 46.7648296,26.8117307 C47.2662504,26.0434155 48.1293518,25.9200622 48.1293518,25.9200622 C48.1293518,25.9200622 48.2573492,26.18909 48.2232948,26.5861703 C48.2467806,26.8598972 48.2062677,27.2469918 47.9303101,27.6652183 C47.4799708,28.3489483 46.7660039,28.561586 46.578705,28.6068155 C46.578705,28.6514577 46.578705,28.6960999 46.5781179,28.7413294 C46.5804665,28.9328208 46.5775307,29.1295988 46.5681364,29.3299011 C46.6609052,29.1337105 46.7971225,28.9269468 46.9979257,28.7372176 C47.5351623,28.2279445 48.1780847,28.1786032 48.407658,28.1786032 C48.4628495,28.1786032 48.4945553,28.1809528 48.4945553,28.1809528 C48.4945553,28.1809528 48.5115824,28.2860968 48.4957295,28.4523302 C48.505711,28.5310413 48.5738197,29.2206453 47.9197415,29.8362372 C47.3472763,30.373118 46.664428,30.4400812 46.4442491,30.44713 C46.4172405,30.5992658 46.3861219,30.7519889 46.3503061,30.9064743 C46.4125433,30.8418607 46.4824134,30.7790092 46.5593293,30.7179199 C47.0566401,30.3267136 47.5815466,30.2697361 47.8445871,30.2697361 C47.9532087,30.2697361 48.0172073,30.2791345 48.0172073,30.2791345 C48.0172073,30.2791345 48.0195559,30.3813415 47.9802173,30.5399387 C48.0042902,30.5417009 48.0172073,30.5440504 48.0172073,30.5440504 C48.0172073,30.5440504 48.0301245,31.2354166 47.2997176,31.8063663 C47.1564545,31.9185592 47.0102557,32.0060813 46.8687541,32.0736319 C46.9550642,32.0630588 47.0372643,32.058947 47.1153545,32.058947 C47.6267567,32.058947 47.9579058,32.2475014 47.9579058,32.2475014 C47.9579058,32.2475014 47.9244386,32.3332613 47.8428256,32.4589643 C47.9173929,32.4889215 47.9579058,32.5124174 47.9579058,32.5124174 C47.9579058,32.5124174 47.6766639,33.2372651 46.7325367,33.5785427 C46.4278091,33.6889734 46.1465672,33.7265668 45.9046639,33.7265668 L45.8852882,33.7265668 C45.8788296,33.830536 45.8711967,33.9345052 45.8635639,34.0367123 C45.8940954,34.0355375 45.9240397,34.0355375 45.9528097,34.0355375 C46.8211954,34.0355375 47.2738833,34.5019306 47.2738833,34.5019306 C47.2738833,34.5019306 47.2245632,34.5612577 47.1259231,34.6464303 C47.2239761,34.7151557 47.2738833,34.7662592 47.2738833,34.7662592 C47.2738833,34.7662592 46.7560225,35.3894873 45.7238237,35.491107 C45.7132551,35.5774543 45.7026865,35.6632143 45.6921179,35.7483868 C45.9081868,35.8541183 46.0209184,35.9610245 46.0209184,35.9610245 C46.0209184,35.9610245 45.9710112,36.0232886 45.8700225,36.1125729 C45.9698369,36.1765991 46.0209184,36.2253531 46.0209184,36.2253531 C46.0209184,36.2253531 45.872371,36.4115579 45.5705791,36.6012871 C44.7714764,41.6681726 43.0476222,43.6664968 43.103988,43.6664968 C51.1038223,40.2889647 49.4157839,18.3350063 49.4157839,18.3350063 C46.2598859,17.6007602 41.4159496,17.1602125 41.4159496,17.1602125" id="Fill-131" fill="#FFAD5D"></path>
                        <path d="M47.6731411,24.8897681 C47.6590496,25.0607006 47.615601,25.2498424 47.5269423,25.4519069 C47.2216275,26.152084 46.6021908,26.4827884 46.3737918,26.5844081 C46.3896447,26.6631193 46.4054976,26.7447674 46.4201762,26.8281778 C46.6761709,26.7054118 47.239829,26.3729452 47.5269423,25.7156481 C47.6643339,25.4025655 47.693104,25.1217898 47.6731411,24.8897681" id="Fill-132" fill="#CE8F52"></path>
                        <path d="M46.6614923,23.7237853 C46.6550337,23.7901611 46.6427037,23.8600613 46.6245022,23.9323111 C46.4876977,24.4785902 46.08844,24.8081199 45.8940954,24.9402842 C45.9029025,24.9608431 45.9328468,25.0313307 45.9751212,25.1470479 C46.1835572,24.9878633 46.5047249,24.6759556 46.6245022,24.1966397 C46.668538,24.0215955 46.6761709,23.8629983 46.6614923,23.7237853" id="Fill-133" fill="#CE8F52"></path>
                        <path d="M48.2232948,26.5861703 C48.2033319,26.8223038 48.1264161,27.1042543 47.9303101,27.4014771 C47.4764479,28.0881441 46.7560225,28.2990196 46.5751822,28.3424869 C46.5775307,28.4294217 46.578705,28.5181186 46.578705,28.6068155 C46.7660039,28.561586 47.4799708,28.3489483 47.9303101,27.6652183 C48.2062677,27.2469918 48.2467806,26.8598972 48.2232948,26.5861703" id="Fill-134" fill="#CE8F52"></path>
                        <path d="M48.4957295,28.4523302 C48.4693081,28.7260571 48.3524665,29.1648426 47.9197415,29.5719086 C47.3801563,30.0776573 46.7431053,30.1663543 46.4871106,30.1804518 C46.4741934,30.2691487 46.460102,30.3578456 46.4442491,30.44713 C46.664428,30.4400812 47.3472763,30.373118 47.9197415,29.8362372 C48.5738197,29.2206453 48.505711,28.5310413 48.4957295,28.4523302" id="Fill-135" fill="#CE8F52"></path>
                        <path d="M47.9802173,30.5399387 C47.9173929,30.7931067 47.7494698,31.190187 47.2997176,31.5432125 C46.8053425,31.9303071 46.2833717,32.0166544 45.9991941,32.0325141 C45.9851026,32.0689328 45.970424,32.1053514 45.9551583,32.14177 C45.953984,32.1946357 45.9528097,32.246914 45.9510483,32.2991923 C46.0080013,32.2974301 46.0772842,32.292731 46.1559615,32.2821578 C46.2246573,32.249851 46.296876,32.2193064 46.3720304,32.1916987 C46.5475864,32.1288472 46.7143352,32.0918412 46.8687541,32.0736319 C47.0102557,32.0060813 47.1564545,31.9185592 47.2997176,31.8063663 C48.0301245,31.2354166 48.0172073,30.5440504 48.0172073,30.5440504 C48.0172073,30.5440504 48.0042902,30.5417009 47.9802173,30.5399387" id="Fill-136" fill="#CE8F52"></path>
                        <path d="M47.8428256,32.4589643 C47.6866454,32.7003844 47.3525606,33.0910033 46.7325367,33.3148015 C46.4283962,33.4246448 46.1471543,33.4616508 45.9052511,33.4616508 L45.9017282,33.4616508 C45.8970311,33.5503477 45.8911596,33.6390446 45.8852882,33.7265668 L45.9046639,33.7265668 C46.1465672,33.7265668 46.4278091,33.6889734 46.7325367,33.5785427 C47.6766639,33.2372651 47.9579058,32.5124174 47.9579058,32.5124174 C47.9579058,32.5124174 47.9173929,32.4889215 47.8428256,32.4589643" id="Fill-137" fill="#CE8F52"></path>
                        <path d="M47.1259231,34.6464303 C46.9080927,34.8343973 46.4507077,35.1474798 45.7543551,35.223254 C45.7443737,35.3131257 45.7343922,35.4029975 45.7238237,35.491107 C46.7560225,35.3894873 47.2738833,34.7662592 47.2738833,34.7662592 C47.2738833,34.7662592 47.2239761,34.7151557 47.1259231,34.6464303" id="Fill-138" fill="#CE8F52"></path>
                        <path d="M45.8700225,36.1125729 C45.8060238,36.1701378 45.7208879,36.2382758 45.615202,36.308176 C45.6005235,36.4068587 45.5852577,36.504954 45.5705791,36.6012871 C45.872371,36.4115579 46.0209184,36.2253531 46.0209184,36.2253531 C46.0209184,36.2253531 45.9698369,36.1765991 45.8700225,36.1125729" id="Fill-139" fill="#CE8F52"></path>
                        <path d="M45.9991941,32.0325141 C45.9851026,32.0331015 45.9710112,32.0336889 45.9575069,32.0342763 C45.9569197,32.0701075 45.9563326,32.1059388 45.9551583,32.14177 C45.970424,32.1053514 45.9851026,32.0689328 45.9991941,32.0325141 M46.4871106,30.1804518 C46.4712577,30.1810392 46.4565791,30.1816266 46.4442491,30.182214 C46.3961033,30.4553535 46.3332789,30.7326048 46.2546016,31.0116184 C46.284546,30.9763746 46.3162517,30.9411307 46.3503061,30.9064743 C46.3861219,30.7519889 46.4172405,30.5992658 46.4442491,30.44713 C46.460102,30.3578456 46.4741934,30.2691487 46.4871106,30.1804518 M46.5781179,28.7413294 C46.5751822,28.9475057 46.5657879,29.1583812 46.5481736,29.3733685 C46.554045,29.3592709 46.5610907,29.344586 46.5681364,29.3299011 C46.5775307,29.1295988 46.5804665,28.9328208 46.5781179,28.7413294" id="Fill-140" fill="#CE8F52"></path>
                        <path d="M45.3063644,25.3649721 C45.3104744,25.3837458 45.3139973,25.4025195 45.3181073,25.4219637 C45.4590218,25.5051042 45.5817349,25.5969611 45.6874207,25.692841 C45.6486692,25.5681301 45.6175506,25.4749322 45.5970006,25.4172702 C45.5165619,25.4085539 45.4173346,25.3924622 45.3063644,25.3649721" id="Fill-141" fill="#FFAD5D"></path>
                        <path d="M45.2388429,25.0841964 C45.2617415,25.1773678 45.2840529,25.2711289 45.3063644,25.3660693 C45.4173346,25.3902467 45.5165619,25.4043993 45.5970006,25.4120653 C45.5817349,25.374325 45.5729277,25.3536858 45.5717534,25.3507373 L45.6586507,25.3094588 C45.6328164,25.2386958 45.6116792,25.1838544 45.5964134,25.1461141 C45.5001219,25.1372687 45.3768217,25.119578 45.2388429,25.0841964" id="Fill-142" fill="#CE8F52"></path>
                        <path d="M45.6928998,25.308582 L45.5717534,25.3496998 C45.5733905,25.3526368 45.5856689,25.3731957 45.6069513,25.4107891 C45.6356008,25.4613052 45.6789843,25.5429534 45.7330091,25.6522092 C45.7927637,25.6862782 45.8484256,25.7209347 45.9008132,25.7555911 C45.8222318,25.5705611 45.7501988,25.4196001 45.6928998,25.308582" id="Fill-143" fill="#CE8F52"></path>
                        <path d="M46.0262027,26.8745821 C45.9369569,26.8845679 45.8306838,26.892204 45.7126679,26.892204 C45.680375,26.892204 45.647495,26.8916166 45.6134406,26.8904418 C45.6304678,26.9908867 45.6469078,27.091919 45.6627607,27.194126 C45.8776553,27.3368635 46.0385327,27.4966354 46.1588972,27.649946 C46.1219072,27.3721073 46.0761099,27.1118905 46.0262027,26.8745821" id="Fill-144" fill="#FFAD5D"></path>
                        <path d="M45.9686626,26.6161275 C45.8923339,26.6244986 45.8066109,26.6300794 45.7138422,26.6300794 C45.6668707,26.6300794 45.6175506,26.6286842 45.5670563,26.6251962 C45.5829091,26.7305328 45.598762,26.8351718 45.6134406,26.9419036 C45.647495,26.9432988 45.680375,26.9439964 45.7126679,26.9439964 C45.8306838,26.9439964 45.9369569,26.9349276 46.0262027,26.9230686 C46.0074141,26.8170344 45.9880384,26.7144882 45.9686626,26.6161275" id="Fill-145" fill="#CE8F52"></path>
                        <path d="M46.0497983,26.6102535 C46.023305,26.6120157 45.9959838,26.6143653 45.9686626,26.6161275 C45.9959838,26.6989505 46.023305,26.7852978 46.0497983,26.8745821 C46.120171,27.1118905 46.1847484,27.3721073 46.236907,27.649946 C46.2542932,27.6663931 46.2716794,27.6822528 46.2874098,27.6981126 C46.2311116,27.3004449 46.1458364,26.9344966 46.0497983,26.6102535" id="Fill-146" fill="#CE8F52"></path>
                        <path d="M46.2393359,28.6373602 C46.1765115,28.6426467 46.1037057,28.6455837 46.0238541,28.6455837 C45.9674883,28.6455837 45.9075997,28.6444089 45.8447753,28.6402972 C45.8612153,28.8065305 45.8753068,28.9739386 45.8888111,29.1436963 C46.0308999,29.3122792 46.1266043,29.4820369 46.1917773,29.6341727 C46.223483,29.347523 46.2393359,29.0679221 46.2428588,28.7959573 C46.2422716,28.7425042 46.2410973,28.6902259 46.2393359,28.6373602" id="Fill-147" fill="#FFAD5D"></path>
                        <path d="M46.227593,28.373619 C46.1671172,28.3792841 46.0984214,28.3828248 46.0226798,28.3828248 C45.9586812,28.3828248 45.8899853,28.3799922 45.8177667,28.373619 C45.827161,28.4805481 45.8365553,28.5867691 45.8447753,28.6951146 C45.9075997,28.7000715 45.9674883,28.7014878 46.0238541,28.7014878 C46.1037057,28.7014878 46.1765115,28.6979471 46.2393359,28.6915739 C46.2364002,28.5839366 46.2328773,28.4784237 46.227593,28.373619" id="Fill-148" fill="#CE8F52"></path>
                        <path d="M46.2438702,28.3724442 C46.238987,28.3730316 46.23329,28.373619 46.227593,28.373619 C46.2349178,28.4605537 46.2398009,28.5480758 46.2438702,28.6373602 C46.2463118,28.6902259 46.2479395,28.7425042 46.2487533,28.7959573 C46.2520088,28.6526325 46.2495672,28.5110698 46.2438702,28.3724442" id="Fill-149" fill="#CE8F52"></path>
                        <path d="M45.9557455,30.4318576 C45.9614425,30.5734203 45.9655117,30.7161577 45.9679533,30.86007 C46.0200402,30.7190947 46.0656163,30.5787069 46.1063092,30.4394938 C46.0599193,30.4377316 46.0094601,30.435382 45.9557455,30.4318576" id="Fill-150" fill="#FFAD5D"></path>
                        <path d="M45.9475254,30.1669416 C45.9515947,30.2729337 45.955664,30.3789258 45.9589195,30.4856245 C46.0126341,30.4898642 46.0630933,30.4926907 46.1094832,30.4948105 C46.1347128,30.3888184 46.1583146,30.2835329 46.1794749,30.1789541 C46.1111109,30.1775409 46.0329805,30.1733012 45.9475254,30.1669416" id="Fill-151" fill="#CE8F52"></path>
                        <path d="M45.3181073,25.4149009 C45.4091146,25.804345 45.492489,26.2078867 45.5670563,26.6237637 C45.6175506,26.6267006 45.6668707,26.6278754 45.7138422,26.6278754 C45.8066109,26.6278754 45.8923339,26.6231763 45.9686626,26.6161275 C45.9880384,26.6143653 46.0074141,26.6120157 46.0262027,26.6102535 C45.9563326,26.2777869 45.8788296,25.989375 45.8077852,25.7555911 C45.770208,25.7209347 45.7302822,25.6862782 45.6874207,25.6522092 C45.5817349,25.5682115 45.4590218,25.4877381 45.3181073,25.4149009" id="Fill-152" fill="#FCCD64"></path>
                        <path d="M45.6627607,27.194126 C45.7226494,27.5765214 45.774318,27.9700773 45.8177667,28.373619 C45.8899853,28.3789055 45.9586812,28.3812551 46.0226798,28.3812551 C46.0984214,28.3812551 46.1671172,28.3783181 46.227593,28.373619 C46.231703,28.373619 46.235813,28.3730316 46.2393359,28.3724442 C46.2322902,28.139835 46.2164373,27.9142746 46.194713,27.6981126 C46.1835572,27.6822528 46.1712272,27.6663931 46.1588972,27.649946 C46.0385327,27.4966354 45.8776553,27.3368635 45.6627607,27.194126" id="Fill-153" fill="#FCCD64"></path>
                        <path d="M45.8888111,29.1436963 C45.9168704,29.4779251 45.9379149,29.8192027 45.9525823,30.1669416 C46.0195422,30.1722282 46.0807626,30.1757526 46.1343305,30.1769274 C46.1694047,29.994247 46.1968264,29.8127413 46.2178709,29.6341727 C46.1470848,29.4820369 46.0431376,29.3122792 45.8888111,29.1436963" id="Fill-154" fill="#FCCD64"></path>
                        <path d="M47.4459164,23.9481709 C47.4459164,23.9481709 46.5904479,24.2124995 46.2270059,25.0565888 C46.1594844,25.2134237 46.1195586,25.3661469 46.0990085,25.511234 C46.186493,25.7867231 46.2874817,26.1514966 46.3737918,26.5844081 C46.6021908,26.4827884 47.2216275,26.152084 47.5269423,25.4519069 C47.615601,25.2498424 47.6590496,25.0607006 47.6731411,24.8897681 C47.7206997,24.3194057 47.4459164,23.9481709 47.4459164,23.9481709" id="Fill-155" fill="#FCCD64"></path>
                        <path d="M44.8301908,23.6368505 C44.9758024,24.0956075 45.1131941,24.5784477 45.2388429,25.0841964 C45.3768217,25.1194402 45.5001219,25.1370622 45.5964134,25.1458731 C45.5817349,25.1088671 45.5729277,25.0883082 45.5717534,25.0859586 L45.7725566,24.9908003 C45.7185394,24.9203127 45.513039,24.6272017 45.480159,24.2183734 C45.3979588,24.1032436 45.296383,23.9863517 45.1689728,23.8753337 C45.0562411,23.7772384 44.9417481,23.6991146 44.8301908,23.6368505" id="Fill-156" fill="#FCCD64"></path>
                        <path d="M46.3432604,22.75693 C46.3432604,22.75693 45.6880079,23.0700125 45.5148005,23.7784132 C45.4766361,23.9352481 45.4690032,24.0832721 45.480159,24.2183734 C45.513039,24.6272017 45.7185394,24.9203127 45.7725566,24.9908003 L45.8917468,24.9349976 C45.8923339,24.935585 45.8929211,24.9373472 45.8940954,24.9402842 C46.08844,24.8081199 46.4876977,24.4785902 46.6245022,23.9323111 C46.6427037,23.8600613 46.6550337,23.7901611 46.6614923,23.7237853 C46.7231424,23.1123051 46.3432604,22.75693 46.3432604,22.75693" id="Fill-157" fill="#FCCD64"></path>
                        <path d="M48.1293518,25.9200622 C48.1293518,25.9200622 47.2662504,26.0434155 46.7648296,26.8117307 C46.6297865,27.0190818 46.5505221,27.2281951 46.5076606,27.422036 C46.5423021,27.7122101 46.566375,28.0205934 46.5751822,28.3424869 C46.7560225,28.2990196 47.4764479,28.0881441 47.9303101,27.4014771 C48.1264161,27.1042543 48.2033319,26.8223038 48.2232948,26.5861703 C48.2573492,26.18909 48.1293518,25.9200622 48.1293518,25.9200622" id="Fill-158" fill="#FCCD64"></path>
                        <path d="M48.407658,28.1786032 C48.1780847,28.1786032 47.5351623,28.2279445 46.9979257,28.7372176 C46.7971225,28.9269468 46.6609052,29.1337105 46.5681364,29.3299011 C46.5610907,29.344586 46.554045,29.3592709 46.5481736,29.3733685 C46.5264492,29.6376971 46.4923949,29.908487 46.4442491,30.182214 C46.4565791,30.1816266 46.4712577,30.1810392 46.4871106,30.1804518 C46.7431053,30.1663543 47.3801563,30.0776573 47.9197415,29.5719086 C48.3524665,29.1648426 48.4693081,28.7260571 48.4957295,28.4523302 C48.5115824,28.2860968 48.4945553,28.1809528 48.4945553,28.1809528 C48.4945553,28.1809528 48.4628495,28.1786032 48.407658,28.1786032" id="Fill-159" fill="#FCCD64"></path>
                        <path d="M47.8445871,30.2697361 C47.5815466,30.2697361 47.0566401,30.3267136 46.5593293,30.7179199 C46.4824134,30.7790092 46.4125433,30.8418607 46.3503061,30.9064743 C46.3162517,30.9411307 46.284546,30.9763746 46.2546016,31.0116184 C46.1747501,31.2941563 46.0772842,31.5784564 45.9610297,31.8633438 C45.9598555,31.9203213 45.9586812,31.9772988 45.9575069,32.0342763 C45.9710112,32.0336889 45.9851026,32.0331015 45.9991941,32.0325141 C46.2833717,32.0166544 46.8053425,31.9303071 47.2997176,31.5432125 C47.7494698,31.190187 47.9173929,30.7931067 47.9802173,30.5399387 C48.0195559,30.3813415 48.0172073,30.2791345 48.0172073,30.2791345 C48.0172073,30.2791345 47.9532087,30.2697361 47.8445871,30.2697361" id="Fill-160" fill="#FCCD64"></path>
                        <path d="M47.1153545,32.058947 C47.0372643,32.058947 46.9550642,32.0630588 46.8687541,32.0736319 C46.7143352,32.0918412 46.5475864,32.1288472 46.3720304,32.1916987 C46.296876,32.2193064 46.2246573,32.249851 46.1559615,32.2821578 C46.0831557,32.3174016 46.0138727,32.354995 45.9486997,32.3943506 C45.937544,32.7602989 45.9216911,33.115674 45.9017282,33.4616508 L45.9052511,33.4616508 C46.1471543,33.4616508 46.4283962,33.4246448 46.7325367,33.3148015 C47.3525606,33.0910033 47.6866454,32.7003844 47.8428256,32.4589643 C47.9244386,32.3332613 47.9579058,32.2475014 47.9579058,32.2475014 C47.9579058,32.2475014 47.6267567,32.058947 47.1153545,32.058947" id="Fill-161" fill="#FCCD64"></path>
                        <path d="M45.9528097,34.0355375 C45.9240397,34.0355375 45.8940954,34.0355375 45.8635639,34.0367123 C45.8330324,34.4473027 45.7966295,34.8426208 45.7543551,35.223254 C46.4507077,35.1474798 46.9080927,34.8343973 47.1259231,34.6464303 C47.2245632,34.5612577 47.2738833,34.5019306 47.2738833,34.5019306 C47.2738833,34.5019306 46.8211954,34.0355375 45.9528097,34.0355375" id="Fill-162" fill="#FCCD64"></path>
                        <path d="M45.6921179,35.7483868 C45.6674578,35.9392908 45.6422107,36.1249082 45.615202,36.308176 C45.7208879,36.2382758 45.8060238,36.1701378 45.8700225,36.1125729 C45.9710112,36.0232886 46.0209184,35.9610245 46.0209184,35.9610245 C46.0209184,35.9610245 45.9081868,35.8541183 45.6921179,35.7483868" id="Fill-163" fill="#FCCD64"></path>
                        <path d="M45.8917468,24.9349976 L45.7725566,24.9908003 L45.5717534,25.0859586 C45.5729277,25.0883082 45.5817349,25.1088671 45.5964134,25.1458731 C45.6116792,25.1834665 45.6328164,25.2380944 45.6586507,25.308582 C45.6997508,25.4196001 45.7514194,25.5705611 45.8077852,25.7555911 C45.8788296,25.989375 45.9563326,26.2777869 46.0262027,26.6102535 C46.0943114,26.9344966 46.1547872,27.3004449 46.194713,27.6981126 C46.2164373,27.9142746 46.2322902,28.139835 46.2393359,28.3724442 C46.2434459,28.5110698 46.2452073,28.6526325 46.2428588,28.7959573 C46.2393359,29.0679221 46.223483,29.347523 46.1917773,29.6341727 C46.1724015,29.8127413 46.1471543,29.994247 46.1148614,30.1769274 C46.0995957,30.2638621 46.0825685,30.3513843 46.0643671,30.4394938 C46.0350099,30.5787069 46.0021298,30.7190947 45.9645526,30.86007 C45.9657269,30.9675636 45.966314,31.0756446 45.966314,31.1837257 C45.966314,31.4139852 45.9645526,31.6407204 45.9610297,31.8633438 C46.0772842,31.5784564 46.1747501,31.2941563 46.2546016,31.0116184 C46.3332789,30.7326048 46.3961033,30.4553535 46.4442491,30.182214 C46.4923949,29.908487 46.5264492,29.6376971 46.5481736,29.3733685 C46.5657879,29.1583812 46.5751822,28.9475057 46.5781179,28.7413294 C46.578705,28.6960999 46.578705,28.6514577 46.578705,28.6068155 C46.578705,28.5181186 46.5775307,28.4294217 46.5751822,28.3424869 C46.566375,28.0205934 46.5423021,27.7122101 46.5076606,27.422036 C46.4830006,27.2140975 46.4530563,27.0155574 46.4201762,26.8281778 C46.4054976,26.7447674 46.3896447,26.6631193 46.3737918,26.5844081 C46.2874817,26.1514966 46.186493,25.7867231 46.0990085,25.511234 C46.0526242,25.3626226 46.0097627,25.240444 45.9751212,25.1470479 C45.9328468,25.0313307 45.9029025,24.9608431 45.8940954,24.9402842 C45.8929211,24.9373472 45.8923339,24.935585 45.8917468,24.9349976" id="Fill-164" fill="#FCCD64"></path>
                        <path d="M39.8746971,48.3650844 C39.8746971,48.3650844 38.7004095,62.4626096 41.5627355,65.6932924 C42.9572021,65.7667171 43.9847037,65.6932924 44.2782756,65.9869909 C44.5501232,66.2589556 42.9372392,66.6560359 41.1259005,66.6560359 C40.9791146,66.6560359 40.8305672,66.6536863 40.6820198,66.6478124 C41.3396209,66.8257936 41.9848919,66.8956939 42.5949343,66.8956939 C44.5031517,66.8956939 46.0708256,66.2096143 46.6268508,65.9869909 C44.7186335,65.4730186 42.6636302,64.9590463 42.6636302,64.9590463 C42.6636302,64.9590463 41.1957706,63.3437049 39.8746971,48.3650844" id="Fill-165" fill="#FFAD5D"></path>
                    </g>
                </g>
            </g>
        </g>
    </g>
</svg>