<?xml version="1.0" encoding="UTF-8"?>
<svg width="52px" height="40px" viewBox="0 0 52 40" version="1.1" xmlns="http://www.w3.org/2000/svg" xmlns:xlink="http://www.w3.org/1999/xlink">
    <!-- Generator: Sketch 39.1 (31720) - http://www.bohemiancoding.com/sketch -->
    <title>“</title>
    <desc>Created with Sketch.</desc>
    <defs></defs>
    <g id="Page-1" stroke="none" stroke-width="1" fill="none" fill-rule="evenodd" opacity="0.527570199">
        <g id="Landing_new-02" transform="translate(-150.000000, -3619.000000)" fill="#FFFFFF">
            <g id="Group-14" transform="translate(0.000000, 3384.000000)">
                <path d="M202,239.649446 C199.771079,240.830264 197.696316,242.023364 195.77565,243.228782 C193.854984,244.4342 192.207029,245.6273 190.831737,246.808118 C189.219326,248.234939 187.891478,249.760139 186.848153,251.383764 C185.804828,253.007388 184.903789,255.098388 184.145007,257.656827 L187.20383,257.656827 C190.191533,257.656827 192.337431,258.419427 193.641587,259.944649 C194.945743,261.469872 195.597811,263.167272 195.597811,265.0369 C195.597811,267.398536 194.720483,269.649436 192.9658,271.789668 C191.211118,273.9299 188.816249,275 185.781122,275 C182.556299,275 180.173286,274.0652 178.632011,272.195572 C177.090736,270.325944 176.320109,267.865944 176.320109,264.815498 C176.320109,260.830238 177.150015,257.214038 178.80985,253.96679 C180.469685,250.719541 182.556303,247.816741 185.069767,245.258303 C187.535808,242.798266 190.108514,240.756466 192.787962,239.132841 C195.46741,237.509217 197.826711,236.131617 199.865937,235 L202,239.649446 Z M175.679891,239.649446 C173.450969,240.830264 171.376207,242.023364 169.45554,243.228782 C167.534874,244.4342 165.88692,245.6273 164.511628,246.808118 C162.899217,248.234939 161.571369,249.760139 160.528044,251.383764 C159.484719,253.007388 158.583679,255.098388 157.824897,257.656827 L160.883721,257.656827 C163.871424,257.656827 166.017321,258.419427 167.321477,259.944649 C168.625634,261.469872 169.277702,263.167272 169.277702,265.0369 C169.277702,267.398536 168.400374,269.649436 166.645691,271.789668 C164.891008,273.9299 162.496139,275 159.461012,275 C156.23619,275 153.853177,274.0652 152.311902,272.195572 C150.770626,270.325944 150,267.865944 150,264.815498 C150,260.830238 150.829905,257.214038 152.48974,253.96679 C154.149575,250.719541 156.236194,247.816741 158.749658,245.258303 C161.215699,242.798266 163.788404,240.756466 166.467852,239.132841 C169.1473,237.509217 171.506602,236.131617 173.545828,235 L175.679891,239.649446 Z" id="“"></path>
            </g>
        </g>
    </g>
</svg>