<?xml version="1.0" encoding="UTF-8"?>
<svg width="52px" height="40px" viewBox="0 0 52 40" version="1.1" xmlns="http://www.w3.org/2000/svg" xmlns:xlink="http://www.w3.org/1999/xlink">
    <!-- Generator: Sketch 39.1 (31720) - http://www.bohemiancoding.com/sketch -->
    <title>“ copy</title>
    <desc>Created with Sketch.</desc>
    <defs></defs>
    <g id="Page-1" stroke="none" stroke-width="1" fill="none" fill-rule="evenodd" opacity="0.527570199">
        <g id="Landing_new-02" transform="translate(-1237.000000, -3738.000000)" fill="#FFFFFF">
            <g id="Group-14" transform="translate(0.000000, 3384.000000)">
                <path d="M1289,358.649446 C1286.77108,359.830264 1284.69632,361.023364 1282.77565,362.228782 C1280.85498,363.4342 1279.20703,364.6273 1277.83174,365.808118 C1276.21933,367.234939 1274.89148,368.760139 1273.84815,370.383764 C1272.80483,372.007388 1271.90379,374.098388 1271.14501,376.656827 L1274.20383,376.656827 C1277.19153,376.656827 1279.33743,377.419427 1280.64159,378.944649 C1281.94574,380.469872 1282.59781,382.167272 1282.59781,384.0369 C1282.59781,386.398536 1281.72048,388.649436 1279.9658,390.789668 C1278.21112,392.9299 1275.81625,394 1272.78112,394 C1269.5563,394 1267.17329,393.0652 1265.63201,391.195572 C1264.09074,389.325944 1263.32011,386.865944 1263.32011,383.815498 C1263.32011,379.830238 1264.15001,376.214038 1265.80985,372.96679 C1267.46968,369.719541 1269.5563,366.816741 1272.06977,364.258303 C1274.53581,361.798266 1277.10851,359.756466 1279.78796,358.132841 C1282.46741,356.509217 1284.82671,355.131617 1286.86594,354 L1289,358.649446 Z M1262.67989,358.649446 C1260.45097,359.830264 1258.37621,361.023364 1256.45554,362.228782 C1254.53487,363.4342 1252.88692,364.6273 1251.51163,365.808118 C1249.89922,367.234939 1248.57137,368.760139 1247.52804,370.383764 C1246.48472,372.007388 1245.58368,374.098388 1244.8249,376.656827 L1247.88372,376.656827 C1250.87142,376.656827 1253.01732,377.419427 1254.32148,378.944649 C1255.62563,380.469872 1256.2777,382.167272 1256.2777,384.0369 C1256.2777,386.398536 1255.40037,388.649436 1253.64569,390.789668 C1251.89101,392.9299 1249.49614,394 1246.46101,394 C1243.23619,394 1240.85318,393.0652 1239.3119,391.195572 C1237.77063,389.325944 1237,386.865944 1237,383.815498 C1237,379.830238 1237.82991,376.214038 1239.48974,372.96679 C1241.14958,369.719541 1243.23619,366.816741 1245.74966,364.258303 C1248.2157,361.798266 1250.7884,359.756466 1253.46785,358.132841 C1256.1473,356.509217 1258.5066,355.131617 1260.54583,354 L1262.67989,358.649446 Z" id="“-copy" transform="translate(1263.000000, 374.000000) rotate(-180.000000) translate(-1263.000000, -374.000000) "></path>
            </g>
        </g>
    </g>
</svg>