<?xml version="1.0" encoding="UTF-8"?>
<svg width="32px" height="32px" viewBox="0 0 32 32" version="1.1" xmlns="http://www.w3.org/2000/svg" xmlns:xlink="http://www.w3.org/1999/xlink">
    <!-- Generator: Sketch 39.1 (31720) - http://www.bohemiancoding.com/sketch -->
    <title>Page 1</title>
    <desc>Created with Sketch.</desc>
    <defs></defs>
    <g id="Page-1" stroke="none" stroke-width="1" fill="none" fill-rule="evenodd">
        <g id="Landing_new-02" transform="translate(-666.000000, -4625.000000)" fill="#FFFFFF">
            <g id="FOOTER" transform="translate(-1.000000, 4605.000000)">
                <g id="Group-6" transform="translate(611.000000, 20.000000)">
                    <path d="M72,32 C63.1637333,32 56,24.8362667 56,16 C56,7.1632 63.1637333,0 72,0 C80.8362667,0 88,7.1632 88,16 C88,24.8362667 80.8362667,32 72,32 L72,32 Z M69.7413333,24.704 L73.3381333,24.704 L73.3381333,15.9989333 L75.7376,15.9989333 L76.0554667,12.9994667 L73.3381333,12.9994667 L73.3418667,11.4976 C73.3418667,10.7157333 73.4165333,10.296 74.5386667,10.296 L76.0384,10.296 L76.0384,7.296 L73.6384,7.296 C70.7557333,7.296 69.7413333,8.75146667 69.7413333,11.1984 L69.7413333,12.9994667 L67.9445333,12.9994667 L67.9445333,15.9994667 L69.7413333,15.9994667 L69.7413333,24.704 Z" id="Page-1"></path>
                </g>
            </g>
        </g>
    </g>
</svg>