<?xml version="1.0" encoding="UTF-8"?>
<svg width="32px" height="32px" viewBox="0 0 32 32" version="1.1" xmlns="http://www.w3.org/2000/svg" xmlns:xlink="http://www.w3.org/1999/xlink">
    <!-- Generator: Sketch 41 (35326) - http://www.bohemiancoding.com/sketch -->
    <title>mail</title>
    <desc>Created with Sketch.</desc>
    <defs></defs>
    <g id="Page-1" stroke="none" stroke-width="1" fill="none" fill-rule="evenodd">
        <g id="Landing_new-02" transform="translate(-610.000000, -4625.000000)" fill="#FFFFFF">
            <g id="FOOTER" transform="translate(-1.000000, 4605.000000)">
                <g id="Group-6" transform="translate(611.000000, 11.000000)">
                    <g id="mail" transform="translate(0.000000, 9.000000)">
                        <path d="M16,32 C7.16373333,32 0,24.8362667 0,16 C0,7.1632 7.16373333,0 16,0 C24.8362667,0 32,7.1632 32,16 C32,24.8362667 24.8362667,32 16,32 Z M24,8 L8,8 C6.9,8 6.01,8.9 6.01,10 L6,22 C6,23.1 6.9,24 8,24 L24,24 C25.1,24 26,23.1 26,22 L26,10 C26,8.9 25.1,8 24,8 Z" id="Combined-Shape"></path>
                        <polygon id="Path" points="24 12 16 17 8 12 8 10 16 15 24 10"></polygon>
                    </g>
                </g>
            </g>
        </g>
    </g>
</svg>