<?xml version="1.0" encoding="UTF-8"?>
<svg width="32px" height="32px" viewBox="0 0 32 32" version="1.1" xmlns="http://www.w3.org/2000/svg" xmlns:xlink="http://www.w3.org/1999/xlink">
    <!-- Generator: Sketch 39.1 (31720) - http://www.bohemiancoding.com/sketch -->
    <title>Page 1</title>
    <desc>Created with Sketch.</desc>
    <defs></defs>
    <g id="Page-1" stroke="none" stroke-width="1" fill="none" fill-rule="evenodd">
        <g id="Landing_new-02" transform="translate(-723.000000, -4625.000000)" fill="#FFFFFF">
            <g id="FOOTER" transform="translate(-1.000000, 4605.000000)">
                <g id="Group-6" transform="translate(611.000000, 20.000000)">
                    <path d="M129,32 C120.163733,32 113,24.8362667 113,16 C113,7.1632 120.163733,0 129,0 C137.836267,0 145,7.1632 145,16 C145,24.8362667 137.836267,32 129,32 M131.2224,9.75093333 C129.8256,10.2592 128.942933,11.5701333 129.0432,13.0048 L129.0768,13.5584 L128.517867,13.4906667 C126.484267,13.2309333 124.7072,12.3498667 123.1984,10.8693333 L122.4608,10.1349333 L122.270933,10.6773333 C121.8688,11.8864 122.125867,13.1632 122.963733,14.0218667 C123.410667,14.4965333 123.309867,14.5642667 122.5392,14.2816 C122.270933,14.1914667 122.036267,14.1237333 122.013867,14.1573333 C121.936,14.2368 122.203733,15.2645333 122.416,15.6714667 C122.706667,16.2368 123.298667,16.7898667 123.9472,17.1178667 L124.494933,17.3776 L123.846933,17.3888 C123.221333,17.3888 123.198933,17.4 123.266133,17.6378667 C123.4896,18.3722667 124.372267,19.152 125.355733,19.4912 L126.048533,19.728 L125.445333,20.0896 C124.551467,20.6101333 123.5008,20.9034667 122.450133,20.9253333 C121.946667,20.9365333 121.533333,20.9818667 121.533333,21.016 C121.533333,21.1285333 122.897067,21.7610667 123.690133,22.0101333 C126.0704,22.7445333 128.898133,22.4277333 131.021333,21.1738667 C132.530133,20.2810667 134.0384,18.5072 134.742933,16.7893333 C135.1232,15.8746667 135.502933,14.2021333 135.502933,13.4005333 C135.502933,12.8805333 135.536533,12.8128 136.162133,12.1914667 C136.5312,11.8298667 136.877333,11.4346667 136.944533,11.3216 C137.056533,11.1066667 137.0448,11.1066667 136.4752,11.2986667 C135.525333,11.6378667 135.390933,11.5925333 135.8608,11.0842667 C136.206933,10.7226667 136.6208,10.0672 136.6208,9.8752 C136.6208,9.8416 136.453333,9.8976 136.262933,9.99946667 C136.061867,10.1125333 135.614933,10.2821333 135.279467,10.3834667 L134.676267,10.576 L134.128533,10.2026667 C133.826667,9.99946667 133.402667,9.77333333 133.178667,9.7056 C132.608533,9.54773333 131.736533,9.57013333 131.2224,9.75093333" id="Page-1"></path>
                </g>
            </g>
        </g>
    </g>
</svg>