<?xml version="1.0" encoding="UTF-8"?>
<svg width="42px" height="44px" viewBox="0 0 42 44" version="1.1" xmlns="http://www.w3.org/2000/svg" xmlns:xlink="http://www.w3.org/1999/xlink">
    <!-- Generator: Sketch 39.1 (31720) - http://www.bohemiancoding.com/sketch -->
    <title>Group 29</title>
    <desc>Created with Sketch.</desc>
    <defs></defs>
    <g id="Page-1" stroke="none" stroke-width="1" fill="none" fill-rule="evenodd">
        <g id="Landing_new-03-1920" transform="translate(-849.000000, -3103.000000)">
            <g id="Langs" transform="translate(0.000000, 2694.000000)">
                <rect id="Rectangle-56" fill="#EEECF3" x="0" y="0" width="1921" height="729"></rect>
                <g id="Group-58" transform="translate(838.000000, 399.000000)">
                    <g id="Group-49">
                        <circle id="Oval-6-Copy-13" fill="#FFFFFF" cx="32" cy="32" r="32"></circle>
                        <g id="Group-29" transform="translate(11.000000, 10.000000)">
                            <g id="Group-+-Group-+-Group">
                                <g id="Group-+-Group">
                                    <g id="Group">
                                        <path d="M0.0911076923,10.5359124 C0.0911076923,35.4456934 20.6959846,43.6598832 21.0429692,43.7973431 C21.3957692,43.6598832 42,35.4456934 42,10.5359124 L21.0478154,0.230919708 L0.0911076923,10.5359124 Z" id="Fill-1" fill="#FFFFFF"></path>
                                        <path d="M21.0478154,0.228350365 L21.0429692,0.228350365 L21.0429692,0.230919708 L21.0219692,0.240875912 L21.0219692,43.7893139 L21.0429692,43.7973431 L21.0429692,43.7999124 L21.0455538,43.7986277 L21.0478154,43.7999124 L21.0478154,43.7973431 C21.3957692,43.6598832 42,35.4456934 42,10.5359124 L21.0478154,0.230919708 L21.0478154,0.228350365" id="Fill-2" fill="#D9DFE0" opacity="0.565298507"></path>
                                        <path d="M21.0478154,0.230919708 L21.0478154,0.228350365 L21.0429692,0.228350365 L21.0429692,0.230919708 L0.0911076923,10.5359124 C0.0911076923,35.4456934 20.6959846,43.6598832 21.0429692,43.7973431 L21.0429692,43.7999124 L21.0455538,43.7986277 L21.0478154,43.7999124 L21.0478154,43.7973431 C21.3957692,43.6598832 42,35.4456934 42,10.5359124 L21.0478154,0.230919708 M21.0478154,40.835854 L21.0478154,40.8371387 L21.0429692,40.8371387 L21.0429692,40.835854 C20.7431538,40.7167007 2.94064615,33.617927 2.94064615,12.0971095 L21.0429692,3.19208759 L21.0429692,3.19048175 L21.0455538,3.19176642 L21.0478154,3.19048175 L21.0478154,3.19208759 L39.1504615,12.0971095 C39.1504615,33.617927 21.3476308,40.7167007 21.0478154,40.835854" id="Fill-3" fill="#378DC7"></path>
                                        <path d="M21.0478154,2.16145985 L21.0478154,2.15985401 L21.0436154,2.15985401 L21.0436154,2.16145985 L1.9488,11.5533723 C1.9488,34.2551241 20.7266769,41.7412263 21.0436154,41.8664818 L21.0436154,41.8684088 L21.0455538,41.8671241 L21.0478154,41.8684088 L21.0478154,41.8664818 C21.3647538,41.7412263 40.1423077,34.2551241 40.1423077,11.5533723 L21.0478154,2.16145985 M21.0478154,40.8535182 L21.0478154,40.8548029 L21.0429692,40.8548029 L21.0429692,40.8535182 C20.7431538,40.734365 2.92384615,33.6285255 2.92384615,12.0877956 L21.0429692,3.17474453 L21.0429692,3.17281752 L21.0455538,3.17410219 L21.0478154,3.17281752 L21.0478154,3.17474453 L39.1672615,12.0877956 C39.1672615,33.6285255 21.3482769,40.734365 21.0478154,40.8535182" id="Fill-4" fill="#3275A3"></path>
                                        <path d="M21.0219692,3.20236496 L39.1504615,12.0971095 C39.1504615,33.617927 21.3476308,40.7167007 21.0478154,40.835854 L21.0219692,43.7893139 C21.3957692,43.6598832 42,35.4456934 42,10.5359124 L26.0035581,2.66832151 L21.0478154,0.230919708 L21.0219692,3.20236496 Z" id="Fill-5" fill="#1A91DF"></path>
                                        <path d="M40.1423077,11.5533723 L21.0478154,2.16145985 L21.0478154,2.15985401 L21.0436154,2.15985401 L21.0436154,2.16145985 L21.0219692,2.17237956 L21.0219692,3.18470073 L21.0429692,3.17474453 L21.0429692,3.17281752 L21.0455538,3.17410219 L21.0478154,3.17281752 L21.0478154,3.17474453 L39.1672615,12.0877956 C39.1672615,33.6285255 21.3482769,40.734365 21.0478154,40.8535182 L21.0478154,40.8548029 L21.0429692,40.8548029 L21.0429692,40.8535182 L21.0219692,40.8448467 L21.0219692,41.8578102 L21.0436154,41.8664818 L21.0436154,41.8684088 L21.0455538,41.8671241 L21.0478154,41.8684088 L21.0478154,41.8664818 C21.3647538,41.7412263 40.1423077,34.2551241 40.1423077,11.5533723" id="Fill-6" fill="#2E7AAD"></path>
                                        <polyline id="Fill-7" fill="#55BBFF" points="2.92384615 12.0877956 1.9488 11.5533723 21.0436154 2.16145985 21.0478154 3.17474453 2.92384615 12.0877956"></polyline>
                                        <path d="M40.1423077,11.5533723 L39.1672615,12.0877956 C39.1672615,33.6285255 21.3482769,40.734365 21.0478154,40.8535182 L21.0478154,40.8548029 L21.0429692,40.8548029 L21.0429692,40.8535182 L21.0219692,40.8448467 L21.0219692,41.8578102 L21.0436154,41.8664818 L21.0436154,41.8684088 L21.0455538,41.8671241 L21.0478154,41.8684088 L21.0478154,41.8664818 C21.3647538,41.7412263 40.1423077,34.2551241 40.1423077,11.5533723" id="Fill-8" fill="#55BBFF"></path>
                                    </g>
                                </g>
                            </g>
                            <path d="M27.6220703,24.5917969 C27.5146479,26.3964934 26.9202528,27.7643183 25.8388672,28.6953125 C24.7574816,29.6263067 23.2213641,30.0917969 21.2304688,30.0917969 C19.2753808,30.0917969 17.7482151,29.5135149 16.6489258,28.3569336 C15.5496364,27.2003523 15,25.6409603 15,23.6787109 L15,20.4130859 C15,18.4794825 15.5639592,16.9272519 16.6918945,15.7563477 C17.8198299,14.5854434 19.3326728,14 21.2304688,14 C23.2500101,14 24.7807565,14.4744419 25.8227539,15.4233398 C26.8647513,16.3722378 27.4716788,17.7597565 27.6435547,19.5859375 L24.0234375,19.5859375 C23.973307,18.6262973 23.7423523,17.9209007 23.3305664,17.4697266 C22.9187805,17.0185524 22.2187549,16.7929688 21.2304688,16.7929688 C20.3925739,16.7929688 19.7480491,17.1170215 19.296875,17.7651367 C18.8457009,18.4132519 18.6201172,19.2887315 18.6201172,20.3916016 L18.6201172,23.6787109 C18.6201172,24.8173885 18.8295877,25.7054005 19.2485352,26.3427734 C19.6674826,26.9801464 20.3281205,27.2988281 21.2304688,27.2988281 C22.14714,27.2988281 22.8256814,27.0804058 23.2661133,26.6435547 C23.7065452,26.2067035 23.9518227,25.5227911 24.0019531,24.5917969 L27.6220703,24.5917969 Z" id="C" stroke="#FFFFFF" fill="#2982BE"></path>
                        </g>
                    </g>
                </g>
            </g>
        </g>
    </g>
</svg>