<?xml version="1.0" encoding="UTF-8"?>
<svg width="42px" height="44px" viewBox="0 0 42 44" version="1.1" xmlns="http://www.w3.org/2000/svg" xmlns:xlink="http://www.w3.org/1999/xlink">
    <!-- Generator: Sketch 39.1 (31720) - http://www.bohemiancoding.com/sketch -->
    <title>Group + C++ icon 24</title>
    <desc>Created with Sketch.</desc>
    <defs></defs>
    <g id="Page-1" stroke="none" stroke-width="1" fill="none" fill-rule="evenodd">
        <g id="Landing_new-03-1920" transform="translate(-581.000000, -2963.000000)">
            <g id="Langs" transform="translate(0.000000, 2694.000000)">
                <g id="Group-35" transform="translate(570.000000, 259.000000)">
                    <g id="Group-+-C++-icon-24" transform="translate(11.000000, 10.000000)">
                        <g id="Group">
                            <path d="M0.0911076923,10.5359124 C0.0911076923,35.4456934 20.6959846,43.6598832 21.0429692,43.7973431 C21.3957692,43.6598832 42,35.4456934 42,10.5359124 L21.0478154,0.230919708 L0.0911076923,10.5359124 Z" id="Fill-1" fill="#E9EFF0"></path>
                            <path d="M21.0478154,0.228350365 L21.0429692,0.228350365 L21.0429692,0.230919708 L21.0219692,0.240875912 L21.0219692,43.7893139 L21.0429692,43.7973431 L21.0429692,43.7999124 L21.0455538,43.7986277 L21.0478154,43.7999124 L21.0478154,43.7973431 C21.3957692,43.6598832 42,35.4456934 42,10.5359124 L21.0478154,0.230919708 L21.0478154,0.228350365" id="Fill-2" fill="#D9DFE0"></path>
                            <path d="M21.0478154,0.230919708 L21.0478154,0.228350365 L21.0429692,0.228350365 L21.0429692,0.230919708 L0.0911076923,10.5359124 C0.0911076923,35.4456934 20.6959846,43.6598832 21.0429692,43.7973431 L21.0429692,43.7999124 L21.0455538,43.7986277 L21.0478154,43.7999124 L21.0478154,43.7973431 C21.3957692,43.6598832 42,35.4456934 42,10.5359124 L21.0478154,0.230919708 M21.0478154,40.835854 L21.0478154,40.8371387 L21.0429692,40.8371387 L21.0429692,40.835854 C20.7431538,40.7167007 2.94064615,33.617927 2.94064615,12.0971095 L21.0429692,3.19208759 L21.0429692,3.19048175 L21.0455538,3.19176642 L21.0478154,3.19048175 L21.0478154,3.19208759 L39.1504615,12.0971095 C39.1504615,33.617927 21.3476308,40.7167007 21.0478154,40.835854" id="Fill-3" fill="#2C3E50"></path>
                            <path d="M21.0478154,2.16145985 L21.0478154,2.15985401 L21.0436154,2.15985401 L21.0436154,2.16145985 L1.9488,11.5533723 C1.9488,34.2551241 20.7266769,41.7412263 21.0436154,41.8664818 L21.0436154,41.8684088 L21.0455538,41.8671241 L21.0478154,41.8684088 L21.0478154,41.8664818 C21.3647538,41.7412263 40.1423077,34.2551241 40.1423077,11.5533723 L21.0478154,2.16145985 M21.0478154,40.8535182 L21.0478154,40.8548029 L21.0429692,40.8548029 L21.0429692,40.8535182 C20.7431538,40.734365 2.92384615,33.6285255 2.92384615,12.0877956 L21.0429692,3.17474453 L21.0429692,3.17281752 L21.0455538,3.17410219 L21.0478154,3.17281752 L21.0478154,3.17474453 L39.1672615,12.0877956 C39.1672615,33.6285255 21.3482769,40.734365 21.0478154,40.8535182" id="Fill-4" fill="#1B2733"></path>
                            <path d="M21.0219692,3.20236496 L39.1504615,12.0971095 C39.1504615,33.617927 21.3476308,40.7167007 21.0478154,40.835854 L21.0219692,43.7893139 C21.3957692,43.6598832 42,35.4456934 42,10.5359124 L26.0035581,2.66832151 L21.0478154,0.230919708 L21.0219692,3.20236496 Z" id="Fill-5" fill="#222F3D"></path>
                            <path d="M40.1423077,11.5533723 L21.0478154,2.16145985 L21.0478154,2.15985401 L21.0436154,2.15985401 L21.0436154,2.16145985 L21.0219692,2.17237956 L21.0219692,3.18470073 L21.0429692,3.17474453 L21.0429692,3.17281752 L21.0455538,3.17410219 L21.0478154,3.17281752 L21.0478154,3.17474453 L39.1672615,12.0877956 C39.1672615,33.6285255 21.3482769,40.734365 21.0478154,40.8535182 L21.0478154,40.8548029 L21.0429692,40.8548029 L21.0429692,40.8535182 L21.0219692,40.8448467 L21.0219692,41.8578102 L21.0436154,41.8664818 L21.0436154,41.8684088 L21.0455538,41.8671241 L21.0478154,41.8684088 L21.0478154,41.8664818 C21.3647538,41.7412263 40.1423077,34.2551241 40.1423077,11.5533723" id="Fill-6" fill="#0D1218"></path>
                            <polyline id="Fill-7" fill="#3E566E" points="2.92384615 12.0877956 1.9488 11.5533723 21.0436154 2.16145985 21.0478154 3.17474453 2.92384615 12.0877956"></polyline>
                            <path d="M40.1423077,11.5533723 L39.1672615,12.0877956 C39.1672615,33.6285255 21.3482769,40.734365 21.0478154,40.8535182 L21.0478154,40.8548029 L21.0429692,40.8548029 L21.0429692,40.8535182 L21.0219692,40.8448467 L21.0219692,41.8578102 L21.0436154,41.8664818 L21.0436154,41.8684088 L21.0455538,41.8671241 L21.0478154,41.8684088 L21.0478154,41.8664818 C21.3647538,41.7412263 40.1423077,34.2551241 40.1423077,11.5533723" id="Fill-8" fill="#3D566E"></path>
                        </g>
                        <g id="C++-icon-24" transform="translate(11.021969, 10.224403)">
                            <path d="M8.90782529,5.13855632 L8.90782529,5.82981149 L6.1430069,5.82981149 L6.1430069,5.13855632 C6.1430069,4.21688276 5.68196782,3.75584368 4.76069885,3.75584368 C3.83902529,3.75584368 3.37818851,4.21688276 3.37818851,5.13855632 L3.37818851,16.7507126 C3.37818851,17.6727908 3.83902529,18.1334253 4.76069885,18.1334253 C5.68196782,18.1334253 6.1430069,17.6727908 6.1430069,16.7507126 L6.1430069,16.0596598 L8.90782529,16.0596598 L8.90782529,16.7507126 C8.90782529,19.5157333 7.52531494,20.8982437 4.76069885,20.8982437 C1.99567816,20.8982437 0.613167816,19.5157333 0.613167816,16.7507126 L0.613167816,5.13855632 C0.613167816,2.37373793 1.99567816,0.991227586 4.76069885,0.991025287 C7.52531494,0.991025287 8.90782529,2.37373793 8.90782529,5.13855632" id="Fill-29" fill="#BCC3C7"></path>
                            <polyline id="Fill-30" fill="#E9EFF0" points="15.2642575 4.14425747 15.2642575 1.14011954 17.2666115 1.14011954 17.2666115 4.14425747 20.2707494 4.14425747 20.2707494 6.14661149 17.2666115 6.14661149 17.2666115 9.15074943 15.2642575 9.15074943 15.2642575 6.14661149 12.2603218 6.14661149 12.2603218 4.14425747 15.2642575 4.14425747"></polyline>
                            <polyline id="Fill-31" fill="#E9EFF0" points="15.2642575 14.6642023 15.2642575 11.6600644 17.2666115 11.6600644 17.2666115 14.6642023 20.2707494 14.6642023 20.2707494 16.6665563 17.2666115 16.6665563 17.2666115 19.6706943 15.2642575 19.6706943 15.2642575 16.6665563 12.2603218 16.6665563 12.2603218 14.6642023 15.2642575 14.6642023"></polyline>
                            <path d="M8.90782529,4.53165977 L8.90782529,5.22291494 L6.1430069,5.22291494 L6.1430069,4.53165977 C6.1430069,3.60998621 5.68196782,3.14894713 4.76069885,3.14894713 C3.83902529,3.14894713 3.37818851,3.60998621 3.37818851,4.53165977 L3.37818851,16.1438161 C3.37818851,17.0658943 3.83902529,17.5265287 4.76069885,17.5265287 C5.68196782,17.5265287 6.1430069,17.0658943 6.1430069,16.1438161 L6.1430069,15.4527632 L8.90782529,15.4527632 L8.90782529,16.1438161 C8.90782529,18.9088368 7.52531494,20.2913471 4.76069885,20.2913471 C1.99567816,20.2913471 0.613167816,18.9088368 0.613167816,16.1438161 L0.613167816,4.53165977 C0.613167816,1.76684138 1.99567816,0.384331034 4.76069885,0.384128736 C7.52531494,0.384128736 8.90782529,1.76684138 8.90782529,4.53165977" id="Fill-32" fill="#2C3E50"></path>
                            <polyline id="Fill-33" fill="#222F3D" points="15.2642575 3.53736092 15.2642575 0.533222989 17.2666115 0.533222989 17.2666115 3.53736092 20.2707494 3.53736092 20.2707494 5.53971494 17.2666115 5.53971494 17.2666115 8.54385287 15.2642575 8.54385287 15.2642575 5.53971494 12.2603218 5.53971494 12.2603218 3.53736092 15.2642575 3.53736092"></polyline>
                            <polyline id="Fill-34" fill="#222F3D" points="15.2642575 14.0573057 15.2642575 11.0531678 17.2666115 11.0531678 17.2666115 14.0573057 20.2707494 14.0573057 20.2707494 16.0596598 17.2666115 16.0596598 17.2666115 19.0637977 15.2642575 19.0637977 15.2642575 16.0596598 12.2603218 16.0596598 12.2603218 14.0573057 15.2642575 14.0573057"></polyline>
                        </g>
                    </g>
                </g>
            </g>
        </g>
    </g>
</svg>