<?xml version="1.0" encoding="UTF-8"?>
<svg width="42px" height="44px" viewBox="0 0 42 44" version="1.1" xmlns="http://www.w3.org/2000/svg" xmlns:xlink="http://www.w3.org/1999/xlink">
    <!-- Generator: Sketch 39.1 (31720) - http://www.bohemiancoding.com/sketch -->
    <title>Group + Java icon 24</title>
    <desc>Created with Sketch.</desc>
    <defs></defs>
    <g id="Page-1" stroke="none" stroke-width="1" fill="none" fill-rule="evenodd">
        <g id="Landing_new-03-1920" transform="translate(-402.000000, -2963.000000)">
            <g id="Langs" transform="translate(0.000000, 2694.000000)">
                <g id="Group-38" transform="translate(391.000000, 259.000000)">
                    <g id="Group-+-Java-icon-24" transform="translate(11.000000, 10.000000)">
                        <g id="Group">
                            <path d="M0.0911076923,10.5359124 C0.0911076923,35.4456934 20.6959846,43.6598832 21.0429692,43.7973431 C21.3957692,43.6598832 42,35.4456934 42,10.5359124 L21.0478154,0.230919708 L0.0911076923,10.5359124 Z" id="Fill-1" fill="#E9EFF0"></path>
                            <path d="M21.0478154,0.228350365 L21.0429692,0.228350365 L21.0429692,0.230919708 L21.0219692,0.240875912 L21.0219692,43.7893139 L21.0429692,43.7973431 L21.0429692,43.7999124 L21.0455538,43.7986277 L21.0478154,43.7999124 L21.0478154,43.7973431 C21.3957692,43.6598832 42,35.4456934 42,10.5359124 L21.0478154,0.230919708 L21.0478154,0.228350365" id="Fill-2" fill="#D9DFE0"></path>
                            <path d="M21.0478154,0.230919708 L21.0478154,0.228350365 L21.0429692,0.228350365 L21.0429692,0.230919708 L0.0911076923,10.5359124 C0.0911076923,35.4456934 20.6959846,43.6598832 21.0429692,43.7973431 L21.0429692,43.7999124 L21.0455538,43.7986277 L21.0478154,43.7999124 L21.0478154,43.7973431 C21.3957692,43.6598832 42,35.4456934 42,10.5359124 L21.0478154,0.230919708 M21.0478154,40.835854 L21.0478154,40.8371387 L21.0429692,40.8371387 L21.0429692,40.835854 C20.7431538,40.7167007 2.94064615,33.617927 2.94064615,12.0971095 L21.0429692,3.19208759 L21.0429692,3.19048175 L21.0455538,3.19176642 L21.0478154,3.19048175 L21.0478154,3.19208759 L39.1504615,12.0971095 C39.1504615,33.617927 21.3476308,40.7167007 21.0478154,40.835854" id="Fill-3" fill="#E74C3C"></path>
                            <path d="M21.0478154,2.16145985 L21.0478154,2.15985401 L21.0436154,2.15985401 L21.0436154,2.16145985 L1.9488,11.5533723 C1.9488,34.2551241 20.7266769,41.7412263 21.0436154,41.8664818 L21.0436154,41.8684088 L21.0455538,41.8671241 L21.0478154,41.8684088 L21.0478154,41.8664818 C21.3647538,41.7412263 40.1423077,34.2551241 40.1423077,11.5533723 L21.0478154,2.16145985 M21.0478154,40.8535182 L21.0478154,40.8548029 L21.0429692,40.8548029 L21.0429692,40.8535182 C20.7431538,40.734365 2.92384615,33.6285255 2.92384615,12.0877956 L21.0429692,3.17474453 L21.0429692,3.17281752 L21.0455538,3.17410219 L21.0478154,3.17281752 L21.0478154,3.17474453 L39.1672615,12.0877956 C39.1672615,33.6285255 21.3482769,40.734365 21.0478154,40.8535182" id="Fill-4" fill="#B3382B"></path>
                            <path d="M21.0219692,3.20236496 L39.1504615,12.0971095 C39.1504615,33.617927 21.3476308,40.7167007 21.0478154,40.835854 L21.0219692,43.7893139 C21.3957692,43.6598832 42,35.4456934 42,10.5359124 L26.0035581,2.66832151 L21.0478154,0.230919708 L21.0219692,3.20236496 Z" id="Fill-5" fill="#AB382C"></path>
                            <path d="M40.1423077,11.5533723 L21.0478154,2.16145985 L21.0478154,2.15985401 L21.0436154,2.15985401 L21.0436154,2.16145985 L21.0219692,2.17237956 L21.0219692,3.18470073 L21.0429692,3.17474453 L21.0429692,3.17281752 L21.0455538,3.17410219 L21.0478154,3.17281752 L21.0478154,3.17474453 L39.1672615,12.0877956 C39.1672615,33.6285255 21.3482769,40.734365 21.0478154,40.8535182 L21.0478154,40.8548029 L21.0429692,40.8548029 L21.0429692,40.8535182 L21.0219692,40.8448467 L21.0219692,41.8578102 L21.0436154,41.8664818 L21.0436154,41.8684088 L21.0455538,41.8671241 L21.0478154,41.8684088 L21.0478154,41.8664818 C21.3647538,41.7412263 40.1423077,34.2551241 40.1423077,11.5533723" id="Fill-6" fill="#79271F"></path>
                            <polyline id="Fill-7" fill="#F85443" points="2.92384615 12.0877956 1.9488 11.5533723 21.0436154 2.16145985 21.0478154 3.17474453 2.92384615 12.0877956"></polyline>
                            <path d="M40.1423077,11.5533723 L39.1672615,12.0877956 C39.1672615,33.6285255 21.3482769,40.734365 21.0478154,40.8535182 L21.0478154,40.8548029 L21.0429692,40.8548029 L21.0429692,40.8535182 L21.0219692,40.8448467 L21.0219692,41.8578102 L21.0436154,41.8664818 L21.0436154,41.8684088 L21.0455538,41.8671241 L21.0478154,41.8684088 L21.0478154,41.8664818 C21.3647538,41.7412263 40.1423077,34.2551241 40.1423077,11.5533723" id="Fill-8" fill="#F75443"></path>
                        </g>
                        <g id="Java-icon-24" transform="translate(12.588235, 8.000000)">
                            <path d="M8.4516998,8.01991075 C8.14675862,8.904357 8.41372819,9.86572008 9.2450142,10.8767383 C9.48959026,11.1738905 9.59649493,11.4827262 9.56241785,11.7946775 C9.49815822,12.3852819 8.95623529,12.8166004 8.94980933,12.821858 L7.58964706,13.8790264 L9.14103043,13.1293306 C9.20217444,13.0997323 10.6421744,12.3926815 10.9428316,11.2835213 C11.0680406,10.8220203 10.9794402,10.3618824 10.680146,9.91576471 L10.5444219,9.71539148 C10.1216714,9.09402028 9.78771602,8.60292089 9.91428803,8.07852333 C10.0901258,7.35024746 11.1570304,6.48644219 13.3734037,5.27816633 L14.5041785,4.66166329 L13.2466369,4.94090061 C13.0817039,4.9773144 9.19613793,5.86234483 8.4516998,8.01991075" id="Fill-43" fill="#AB382C"></path>
                            <path d="M13.8066694,12.1107181 L13.4917972,12.576503 L14.0206734,12.3835294 C14.0220365,12.3829452 14.1554239,12.3350426 14.4436187,12.2830507 C14.9220609,12.1960081 15.5821826,12.5093225 15.7175172,13.0972008 C15.8065071,13.483927 15.7578256,14.5070183 13.3870345,15.6603813 L13.3272535,15.6851116 L13.3007708,15.7493712 C13.2960974,15.7571602 13.2793509,15.7752698 13.2666937,15.7861744 L12.6908884,16.2747424 L13.4263692,16.102215 C16.2060852,15.4496876 17.0733955,14.1545639 16.9583124,13.1602921 C16.8574442,12.2904503 16.0528357,11.6593428 15.0451278,11.6593428 C14.7812738,11.6593428 14.5121623,11.7027667 14.2444138,11.7890304 C13.9702394,11.8784097 13.8226369,12.0871562 13.8066694,12.1107181" id="Fill-44" fill="#AB382C"></path>
                            <path d="M12.0294037,16.5294442 C11.522142,16.335497 10.840211,15.9918053 10.8333955,15.9884949 L10.7802353,15.961428 L10.7216227,15.971359 C9.56864909,16.1619959 9.06917647,16.2398864 8.27975659,16.259359 L8.16311562,16.2640325 C7.35110751,16.273574 6.60043813,16.2248925 5.57812576,16.0924787 C4.89931034,16.0038783 4.5038215,15.9655172 4.57606491,15.8438134 C4.64850304,15.7223043 5.02782961,15.5554239 5.02782961,15.5554239 L4.32116836,15.6432454 C3.49046653,15.8948316 3.14073834,16.149144 3.1880568,16.4679108 C3.32300203,17.3774767 7.27204868,17.4039594 7.72186613,17.4039594 L7.72206085,17.4039594 C7.90257201,17.4039594 8.08464097,17.4020122 8.2678783,17.3977282 L8.44585801,17.3920811 L8.44585801,17.3905233 C9.66776471,17.3470994 10.8966815,17.1697039 12.0109047,16.8756673 L12.5573063,16.7313753 L12.0294037,16.5294442" id="Fill-45" fill="#E74C3C"></path>
                            <path d="M12.7230183,21.9367951 C11.4405517,22.1433996 9.93259229,22.2524462 8.36212576,22.2524462 L8.02641785,22.2512779 C6.21974848,22.2316105 4.33869371,22.0723245 3.09439351,21.8330061 L2.14529817,21.6505477 C2.14529817,21.6505477 3.68266126,22.603927 6.17418256,22.8298093 C6.7869858,22.885501 7.44029209,22.9250304 8.11599189,22.9472292 C8.39425558,22.9557972 8.6816714,22.9686491 8.96908722,22.9600811 C15.6036024,22.7624341 16.6829696,20.3106369 16.6829696,20.3106369 L16.32,20.6745801 C16.3120162,20.6823692 15.4760568,21.4935984 12.7230183,21.9367951" id="Fill-46" fill="#AB382C"></path>
                            <path d="M8.24801623,12.2731197 L8.54555781,12.5570304 C8.54555781,12.5570304 7.81825558,11.2515862 7.69830426,10.8668073 C7.22141988,9.33606491 6.18976065,8.32290467 8.63883164,6.45061258 L8.70795943,6.39784178 L8.70912779,6.359286 C10.4293387,5.06474645 11.3560406,3.76670183 11.4643083,2.50039757 C11.5622556,1.34956592 10.9327059,0.670945233 10.9056389,0.642515213 L10.4499797,0.161931034 L10.5960243,0.808032454 C11.0489574,2.81312779 9.83912373,3.92248276 8.44975254,4.97380933 L8.37945639,5.02677485 L8.37867748,5.064357 C8.27352535,5.14302637 8.16778905,5.22150101 8.06224746,5.29978093 C7.28256389,5.87753347 6.47659229,6.4753428 5.96193103,7.20556592 C4.83972414,8.79706288 6.40318053,10.5108479 8.24801623,12.2731197" id="Fill-47" fill="#E74C3C"></path>
                            <path d="M7.28684787,15.118069 L7.2870426,15.118069 C7.62547667,15.1278053 7.96527383,15.1318945 8.29806085,15.1297525 L8.46941988,15.1289736 L8.46980933,15.1244949 C9.78615822,15.1067748 10.9644462,15.0000649 11.8835538,14.8117647 L11.9143205,14.8053387 L11.9411927,14.7889817 C12.3374604,14.5492738 12.8895091,14.3467586 12.8949615,14.3448114 L14.3887059,13.7997728 L12.8104503,13.9931359 C12.7946775,13.9948884 11.2039594,14.1878621 9.64868154,14.2328438 C9.23040974,14.2445274 8.78565517,14.249785 8.3266856,14.2484219 L8.15376876,14.247643 L8.15376876,14.2493955 C7.88154158,14.2468641 7.61145639,14.2423854 7.34935497,14.2349858 C6.21488032,14.2020771 5.27357404,14.1239919 4.69835294,14.0145558 C4.28670183,13.9360811 4.12391075,13.8618905 4.06237728,13.8235294 C4.25554564,13.6560649 5.14894929,13.3883164 6.11187018,13.2148154 L7.29561055,13.0015903 L6.10193915,12.854572 C6.0978499,12.8541826 5.99951318,12.8423043 5.82523327,12.8372414 C5.24884381,12.8208844 4.07250304,12.8800811 2.67144828,13.4644544 C2.53027181,13.5228722 2.10245842,13.7018256 2.16379716,14.0332495 C2.33651927,14.9650142 7.08491684,15.1122272 7.28684787,15.118069" id="Fill-48" fill="#E74C3C"></path>
                            <path d="M4.77079108,17.766929 C4.50343205,17.8341095 3.69064503,18.0379878 3.75081542,18.5236349 C3.83941582,19.2398377 6.10797566,19.7389209 8.08873022,19.7389209 L8.38393509,19.7348316 L8.38393509,19.7326897 C9.52425152,19.6974442 10.633217,19.4768195 11.6010061,19.09243 L12.0155781,18.9276917 L11.6043164,18.7551643 C10.9512049,18.4813793 10.2984828,18.1682596 10.2920568,18.165144 L10.2404544,18.1404138 L10.1839838,18.1495659 C9.28882759,18.2946369 8.83161055,18.3651278 8.22387018,18.3783692 L8.1175497,18.3828479 C7.53395538,18.3818742 6.96983367,18.3390345 6.12219067,18.2196673 C5.33666531,18.108284 5.08624746,18.0381826 5.01147262,17.9269939 C4.93708722,17.8158053 5.08975254,17.6868966 5.08975254,17.6868966 L4.77079108,17.766929" id="Fill-49" fill="#AB382C"></path>
                            <path d="M8.3303854,21.7492738 L8.3303854,21.7484949 C11.693501,21.7220122 15.304503,21.227213 15.5062394,20.34043 C15.543432,20.1756917 15.603213,19.8797079 15.2088925,19.6976389 C14.8143773,19.51557 13.964787,19.3938661 13.964787,19.3938661 C13.964787,19.3938661 14.9861258,19.7897444 14.7941258,19.9484462 C14.601931,20.1071481 14.6071886,20.1735497 13.8804706,20.373144 C12.8511481,20.655497 10.7701095,20.8307505 8.44936308,20.8307505 L8.03440162,20.8299716 C5.24475456,20.8015416 3.03636511,20.5293144 2.1127789,20.0978012 C2.06370791,20.0746288 2.03547262,20.0557404 2.01989452,20.0428884 C3.32845436,19.1816146 4.22361055,19.2423692 4.22361055,19.2423692 C4.22361055,19.2423692 3.73815822,19.0451116 3.10529817,19.0414118 C2.20410548,19.0365436 0.351870183,19.5950183 0.283326572,20.321931 C0.230750507,20.8844949 1.18140365,21.0644219 1.49413387,21.1238134 C3.69220284,21.5397485 5.91617039,21.7508316 8.10411359,21.7508316 L8.3303854,21.7492738" id="Fill-50" fill="#E74C3C"></path>
                        </g>
                    </g>
                </g>
            </g>
        </g>
    </g>
</svg>