<?xml version="1.0" encoding="UTF-8"?>
<svg width="42px" height="44px" viewBox="0 0 42 44" version="1.1" xmlns="http://www.w3.org/2000/svg" xmlns:xlink="http://www.w3.org/1999/xlink">
    <!-- Generator: Sketch 39.1 (31720) - http://www.bohemiancoding.com/sketch -->
    <title>Group 32</title>
    <desc>Created with Sketch.</desc>
    <defs></defs>
    <g id="Page-1" stroke="none" stroke-width="1" fill="none" fill-rule="evenodd">
        <g id="Landing_new-03-1920" transform="translate(-1028.000000, -3103.000000)">
            <g id="Langs" transform="translate(0.000000, 2694.000000)">
                <rect id="Rectangle-56" fill="#EEECF3" x="0" y="0" width="1921" height="729"></rect>
                <g id="Group-51" transform="translate(1017.000000, 399.000000)">
                    <circle id="Oval-6-Copy-4" fill="#FFFFFF" cx="32" cy="32" r="32"></circle>
                    <g id="Group-32" transform="translate(11.000000, 10.000000)">
                        <g id="Group-+-Group-+-Group">
                            <g id="Group-+-Group">
                                <g id="Group">
                                    <path d="M0.0911076923,10.5359124 C0.0911076923,35.4456934 20.6959846,43.6598832 21.0429692,43.7973431 C21.3957692,43.6598832 42,35.4456934 42,10.5359124 L21.0478154,0.230919708 L0.0911076923,10.5359124 Z" id="Fill-1"></path>
                                    <path d="M21.0478154,0.228350365 L21.0429692,0.228350365 L21.0429692,0.230919708 L21.0219692,0.240875912 L21.0219692,43.7893139 L21.0429692,43.7973431 L21.0429692,43.7999124 L21.0455538,43.7986277 L21.0478154,43.7999124 L21.0478154,43.7973431 C21.3957692,43.6598832 42,35.4456934 42,10.5359124 L21.0478154,0.230919708 L21.0478154,0.228350365" id="Fill-2" fill="#B3B3B3" opacity="0.349405317"></path>
                                    <path d="M21.0478154,0.230919708 L21.0478154,0.228350365 L21.0429692,0.228350365 L21.0429692,0.230919708 L0.0911076923,10.5359124 C0.0911076923,35.4456934 20.6959846,43.6598832 21.0429692,43.7973431 L21.0429692,43.7999124 L21.0455538,43.7986277 L21.0478154,43.7999124 L21.0478154,43.7973431 C21.3957692,43.6598832 42,35.4456934 42,10.5359124 L21.0478154,0.230919708 M21.0478154,40.835854 L21.0478154,40.8371387 L21.0429692,40.8371387 L21.0429692,40.835854 C20.7431538,40.7167007 2.94064615,33.617927 2.94064615,12.0971095 L21.0429692,3.19208759 L21.0429692,3.19048175 L21.0455538,3.19176642 L21.0478154,3.19048175 L21.0478154,3.19208759 L39.1504615,12.0971095 C39.1504615,33.617927 21.3476308,40.7167007 21.0478154,40.835854" id="Fill-3" fill="#848484"></path>
                                    <path d="M21.0478154,2.16145985 L21.0478154,2.15985401 L21.0436154,2.15985401 L21.0436154,2.16145985 L1.9488,11.5533723 C1.9488,34.2551241 20.7266769,41.7412263 21.0436154,41.8664818 L21.0436154,41.8684088 L21.0455538,41.8671241 L21.0478154,41.8684088 L21.0478154,41.8664818 C21.3647538,41.7412263 40.1423077,34.2551241 40.1423077,11.5533723 L21.0478154,2.16145985 M21.0478154,40.8535182 L21.0478154,40.8548029 L21.0429692,40.8548029 L21.0429692,40.8535182 C20.7431538,40.734365 2.92384615,33.6285255 2.92384615,12.0877956 L21.0429692,3.17474453 L21.0429692,3.17281752 L21.0455538,3.17410219 L21.0478154,3.17281752 L21.0478154,3.17474453 L39.1672615,12.0877956 C39.1672615,33.6285255 21.3482769,40.734365 21.0478154,40.8535182" id="Fill-4" fill="#5A5A5A"></path>
                                    <path d="M21.0219692,3.20236496 L39.1504615,12.0971095 C39.1504615,33.617927 21.3476308,40.7167007 21.0478154,40.835854 L21.0219692,43.7893139 C21.3957692,43.6598832 42,35.4456934 42,10.5359124 L26.0035581,2.66832151 L21.0478154,0.230919708 L21.0219692,3.20236496 Z" id="Fill-5" fill="#707070"></path>
                                    <path d="M40.1423077,11.5533723 L21.0478154,2.16145985 L21.0478154,2.15985401 L21.0436154,2.15985401 L21.0436154,2.16145985 L21.0219692,2.17237956 L21.0219692,3.18470073 L21.0429692,3.17474453 L21.0429692,3.17281752 L21.0455538,3.17410219 L21.0478154,3.17281752 L21.0478154,3.17474453 L39.1672615,12.0877956 C39.1672615,33.6285255 21.3482769,40.734365 21.0478154,40.8535182 L21.0478154,40.8548029 L21.0429692,40.8548029 L21.0429692,40.8535182 L21.0219692,40.8448467 L21.0219692,41.8578102 L21.0436154,41.8664818 L21.0436154,41.8684088 L21.0455538,41.8671241 L21.0478154,41.8684088 L21.0478154,41.8664818 C21.3647538,41.7412263 40.1423077,34.2551241 40.1423077,11.5533723" id="Fill-6" fill="#5B5B5B"></path>
                                    <polyline id="Fill-7" fill="#B0B0B0" points="2.92384615 12.0877956 1.9488 11.5533723 21.0436154 2.16145985 21.0478154 3.17474453 2.92384615 12.0877956"></polyline>
                                    <path d="M40.1423077,11.5533723 L39.1672615,12.0877956 C39.1672615,33.6285255 21.3482769,40.734365 21.0478154,40.8535182 L21.0478154,40.8548029 L21.0429692,40.8548029 L21.0429692,40.8535182 L21.0219692,40.8448467 L21.0219692,41.8578102 L21.0436154,41.8664818 L21.0436154,41.8684088 L21.0455538,41.8671241 L21.0478154,41.8684088 L21.0478154,41.8664818 C21.3647538,41.7412263 40.1423077,34.2551241 40.1423077,11.5533723" id="Fill-8" fill="#B0B0B0"></path>
                                </g>
                            </g>
                        </g>
                        <path d="M11.9667969,21.5419922 L11.2900391,24.953125 L9,24.953125 L10.9892578,15 L14.8105469,15 C15.8632865,15 16.6699191,15.3019176 17.2304688,15.9057617 C17.7910184,16.5096059 17.9733083,17.2991488 17.7773438,18.2744141 C17.56315,19.3362683 17.0857784,20.1463188 16.3452148,20.7045898 C15.6046512,21.2628609 14.6578834,21.5419922 13.5048828,21.5419922 L11.9667969,21.5419922 Z M12.3222656,19.7646484 L13.8603516,19.7646484 C14.2750672,19.7646484 14.6282537,19.6256524 14.9199219,19.3476562 C15.21159,19.0696601 15.4029943,18.7164735 15.4941406,18.2880859 C15.5852869,17.8141252 15.5476896,17.443849 15.3813477,17.1772461 C15.2150057,16.9106432 14.9062523,16.7773438 14.4550781,16.7773438 L12.9238281,16.7773438 L12.3222656,19.7646484 Z M25.4746094,24.953125 L23.1982422,24.953125 L23.9980469,20.9472656 L20.7578125,20.9472656 L19.9580078,24.953125 L17.6679688,24.953125 L19.6572266,15 L21.9472656,15 L21.1132812,19.1699219 L24.3535156,19.1699219 L25.1875,15 L27.4638672,15 L25.4746094,24.953125 Z M29.8837891,21.5419922 L29.2070312,24.953125 L26.9169922,24.953125 L28.90625,15 L32.7275391,15 C33.7802787,15 34.5869113,15.3019176 35.1474609,15.9057617 C35.7080106,16.5096059 35.8903005,17.2991488 35.6943359,18.2744141 C35.4801422,19.3362683 35.0027706,20.1463188 34.262207,20.7045898 C33.5216434,21.2628609 32.5748756,21.5419922 31.421875,21.5419922 L29.8837891,21.5419922 Z M30.2392578,19.7646484 L31.7773438,19.7646484 C32.1920594,19.7646484 32.5452459,19.6256524 32.8369141,19.3476562 C33.1285822,19.0696601 33.3199865,18.7164735 33.4111328,18.2880859 C33.5022791,17.8141252 33.4646818,17.443849 33.2983398,17.1772461 C33.1319979,16.9106432 32.8232444,16.7773438 32.3720703,16.7773438 L30.8408203,16.7773438 L30.2392578,19.7646484 Z" id="PHP" stroke="#FFFFFF" stroke-width="0.5" fill="#737373"></path>
                    </g>
                </g>
            </g>
        </g>
    </g>
</svg>