<?xml version="1.0" encoding="UTF-8"?>
<svg width="42px" height="44px" viewBox="0 0 42 44" version="1.1" xmlns="http://www.w3.org/2000/svg" xmlns:xlink="http://www.w3.org/1999/xlink">
    <!-- Generator: Sketch 39.1 (31720) - http://www.bohemiancoding.com/sketch -->
    <title>Group 26</title>
    <desc>Created with Sketch.</desc>
    <defs>
        <polygon id="path-1" points="21.8574219 22.4794922 16.5664062 22.4794922 16.5664062 27.796875 14 27.796875 14 15 22.7539062 15 22.7539062 16.9775391 16.5664062 16.9775391 16.5664062 20.5019531 21.8574219 20.5019531"></polygon>
    </defs>
    <g id="Page-1" stroke="none" stroke-width="1" fill="none" fill-rule="evenodd">
        <g id="Landing_new-03-1920" transform="translate(-939.000000, -2963.000000)">
            <g id="Langs" transform="translate(0.000000, 2694.000000)">
                <g id="Group-40" transform="translate(928.000000, 259.000000)">
                    <g id="Group-26" transform="translate(11.000000, 10.000000)">
                        <g id="Group-+-Group-+-Group">
                            <g id="Group-+-Group">
                                <g id="Group">
                                    <path d="M0.0911076923,10.5359124 C0.0911076923,35.4456934 20.6959846,43.6598832 21.0429692,43.7973431 C21.3957692,43.6598832 42,35.4456934 42,10.5359124 L21.0478154,0.230919708 L0.0911076923,10.5359124 Z" id="Fill-1" fill="#F6F5F5"></path>
                                    <path d="M21.0478154,0.228350365 L21.0429692,0.228350365 L21.0429692,0.230919708 L21.0219692,0.240875912 L21.0219692,43.7893139 L21.0429692,43.7973431 L21.0429692,43.7999124 L21.0455538,43.7986277 L21.0478154,43.7999124 L21.0478154,43.7973431 C21.3957692,43.6598832 42,35.4456934 42,10.5359124 L21.0478154,0.230919708 L21.0478154,0.228350365" id="Fill-2" fill="#AEAEAE" opacity="0.125291511"></path>
                                    <path d="M21.0478154,0.230919708 L21.0478154,0.228350365 L21.0429692,0.228350365 L21.0429692,0.230919708 L0.0911076923,10.5359124 C0.0911076923,35.4456934 20.6959846,43.6598832 21.0429692,43.7973431 L21.0429692,43.7999124 L21.0455538,43.7986277 L21.0478154,43.7999124 L21.0478154,43.7973431 C21.3957692,43.6598832 42,35.4456934 42,10.5359124 L21.0478154,0.230919708 M21.0478154,40.835854 L21.0478154,40.8371387 L21.0429692,40.8371387 L21.0429692,40.835854 C20.7431538,40.7167007 2.94064615,33.617927 2.94064615,12.0971095 L21.0429692,3.19208759 L21.0429692,3.19048175 L21.0455538,3.19176642 L21.0478154,3.19048175 L21.0478154,3.19208759 L39.1504615,12.0971095 C39.1504615,33.617927 21.3476308,40.7167007 21.0478154,40.835854" id="Fill-3" fill="#23B9DD"></path>
                                    <path d="M21.0478154,2.16145985 L21.0478154,2.15985401 L21.0436154,2.15985401 L21.0436154,2.16145985 L1.9488,11.5533723 C1.9488,34.2551241 20.7266769,41.7412263 21.0436154,41.8664818 L21.0436154,41.8684088 L21.0455538,41.8671241 L21.0478154,41.8684088 L21.0478154,41.8664818 C21.3647538,41.7412263 40.1423077,34.2551241 40.1423077,11.5533723 L21.0478154,2.16145985 M21.0478154,40.8535182 L21.0478154,40.8548029 L21.0429692,40.8548029 L21.0429692,40.8535182 C20.7431538,40.734365 2.92384615,33.6285255 2.92384615,12.0877956 L21.0429692,3.17474453 L21.0429692,3.17281752 L21.0455538,3.17410219 L21.0478154,3.17281752 L21.0478154,3.17474453 L39.1672615,12.0877956 C39.1672615,33.6285255 21.3482769,40.734365 21.0478154,40.8535182" id="Fill-4" fill="#2981B3"></path>
                                    <path d="M21.0219692,3.20236496 L39.1504615,12.0971095 C39.1504615,33.617927 21.3476308,40.7167007 21.0478154,40.835854 L21.0219692,43.7893139 C21.3957692,43.6598832 42,35.4456934 42,10.5359124 L26.0035581,2.66832151 L21.0478154,0.230919708 L21.0219692,3.20236496 Z" id="Fill-5" fill="#328ABC"></path>
                                    <path d="M40.1423077,11.5533723 L21.0478154,2.16145985 L21.0478154,2.15985401 L21.0436154,2.15985401 L21.0436154,2.16145985 L21.0219692,2.17237956 L21.0219692,3.18470073 L21.0429692,3.17474453 L21.0429692,3.17281752 L21.0455538,3.17410219 L21.0478154,3.17281752 L21.0478154,3.17474453 L39.1672615,12.0877956 C39.1672615,33.6285255 21.3482769,40.734365 21.0478154,40.8535182 L21.0478154,40.8548029 L21.0429692,40.8548029 L21.0429692,40.8535182 L21.0219692,40.8448467 L21.0219692,41.8578102 L21.0436154,41.8664818 L21.0436154,41.8684088 L21.0455538,41.8671241 L21.0478154,41.8684088 L21.0478154,41.8664818 C21.3647538,41.7412263 40.1423077,34.2551241 40.1423077,11.5533723" id="Fill-6" fill="#2777A4"></path>
                                    <polyline id="Fill-7" fill="#73D4EC" points="2.92384615 12.0877956 1.9488 11.5533723 21.0436154 2.16145985 21.0478154 3.17474453 2.92384615 12.0877956"></polyline>
                                    <path d="M40.1423077,11.5533723 L39.1672615,12.0877956 C39.1672615,33.6285255 21.3482769,40.734365 21.0478154,40.8535182 L21.0478154,40.8548029 L21.0429692,40.8548029 L21.0429692,40.8535182 L21.0219692,40.8448467 L21.0219692,41.8578102 L21.0436154,41.8664818 L21.0436154,41.8684088 L21.0455538,41.8671241 L21.0478154,41.8684088 L21.0478154,41.8664818 C21.3647538,41.7412263 40.1423077,34.2551241 40.1423077,11.5533723" id="Fill-8" fill="#73D4EB"></path>
                                </g>
                            </g>
                        </g>
                        <path d="M28.9785156,24.1503906 L27.8779297,24.1503906 L27.4199219,26.953125 L26.0595703,26.953125 L26.5175781,24.1503906 L25,24.1503906 L25,22.8994141 L26.7226562,22.8994141 L27.0234375,21.0947266 L25.5126953,21.0947266 L25.5126953,19.84375 L27.2285156,19.84375 L27.7001953,17 L29.0537109,17 L28.5888672,19.84375 L29.6894531,19.84375 L30.1611328,17 L31.5214844,17 L31.0498047,19.84375 L32.6289062,19.84375 L32.6289062,21.0947266 L30.8447266,21.0947266 L30.5439453,22.8994141 L32.109375,22.8994141 L32.109375,24.1503906 L30.3388672,24.1503906 L29.8808594,26.953125 L28.5205078,26.953125 L28.9785156,24.1503906 Z M28.0830078,22.8994141 L29.1835938,22.8994141 L29.484375,21.0947266 L28.3837891,21.0947266 L28.0830078,22.8994141 Z" id="#" stroke="#FFFFFF" fill="#1FAA8A"></path>
                        <path d="M28.9785156,24.1503906 L27.8779297,24.1503906 L27.4199219,26.953125 L26.0595703,26.953125 L26.5175781,24.1503906 L25,24.1503906 L25,22.8994141 L26.7226562,22.8994141 L27.0234375,21.0947266 L25.5126953,21.0947266 L25.5126953,19.84375 L27.2285156,19.84375 L27.7001953,17 L29.0537109,17 L28.5888672,19.84375 L29.6894531,19.84375 L30.1611328,17 L31.5214844,17 L31.0498047,19.84375 L32.6289062,19.84375 L32.6289062,21.0947266 L30.8447266,21.0947266 L30.5439453,22.8994141 L32.109375,22.8994141 L32.109375,24.1503906 L30.3388672,24.1503906 L29.8808594,26.953125 L28.5205078,26.953125 L28.9785156,24.1503906 Z M28.0830078,22.8994141 L29.1835938,22.8994141 L29.484375,21.0947266 L28.3837891,21.0947266 L28.0830078,22.8994141 Z" id="#-copy" fill="#328ABC"></path>
                        <g id="F">
                            <use fill="#328ABC" fill-rule="evenodd" xlink:href="#path-1"></use>
                            <use fill="black" fill-opacity="1" xlink:href="#path-1"></use>
                        </g>
                        <polygon id="F" stroke="#328ABC" fill="#328ABC" points="21.8574219 22.4794922 16.5664062 22.4794922 16.5664062 27.796875 14 27.796875 14 15 22.7539062 15 22.7539062 16.9775391 16.5664062 16.9775391 16.5664062 20.5019531 21.8574219 20.5019531"></polygon>
                    </g>
                </g>
            </g>
        </g>
    </g>
</svg>