<?xml version="1.0" encoding="UTF-8"?>
<svg width="42px" height="44px" viewBox="0 0 42 44" version="1.1" xmlns="http://www.w3.org/2000/svg" xmlns:xlink="http://www.w3.org/1999/xlink">
    <!-- Generator: Sketch 39.1 (31720) - http://www.bohemiancoding.com/sketch -->
    <title>Group 57</title>
    <desc>Created with Sketch.</desc>
    <defs>
        <linearGradient x1="0%" y1="50.0000128%" x2="100%" y2="50.0000128%" id="linearGradient-1">
            <stop stop-color="#000026" stop-opacity="0.49803922" offset="0%"></stop>
            <stop stop-color="#0B0826" offset="100%"></stop>
        </linearGradient>
    </defs>
    <g id="Page-1" stroke="none" stroke-width="1" fill="none" fill-rule="evenodd">
        <g id="Landing_new-03-1920" transform="translate(-402.000000, -3245.000000)">
            <g id="Langs" transform="translate(0.000000, 2694.000000)">
                <g id="Group-62" transform="translate(391.000000, 539.000000)">
                    <g id="Group-57" transform="translate(11.000000, 12.000000)">
                        <g id="Group-2">
                            <g id="Group-+-Java-icon-24">
                                <g id="Group">
                                    <path d="M0.0911076923,10.5359124 C0.0911076923,35.4456934 20.6959846,43.6598832 21.0429692,43.7973431 C21.3957692,43.6598832 42,35.4456934 42,10.5359124 L21.0478154,0.230919708 L0.0911076923,10.5359124 Z" id="Fill-1" fill="#FFFFFF"></path>
                                    <path d="M21.0478154,0.228350365 L21.0429692,0.228350365 L21.0429692,0.230919708 L21.0219692,0.240875912 L21.0219692,43.7893139 L21.0429692,43.7973431 L21.0429692,43.7999124 L21.0455538,43.7986277 L21.0478154,43.7999124 L21.0478154,43.7973431 C21.3957692,43.6598832 42,35.4456934 42,10.5359124 L21.0478154,0.230919708 L21.0478154,0.228350365" id="Fill-2" fill="#D9DFE0" opacity="0.613164646"></path>
                                    <path d="M21.0478154,0.230919708 L21.0478154,0.228350365 L21.0429692,0.228350365 L21.0429692,0.230919708 L0.0911076923,10.5359124 C0.0911076923,35.4456934 20.6959846,43.6598832 21.0429692,43.7973431 L21.0429692,43.7999124 L21.0455538,43.7986277 L21.0478154,43.7999124 L21.0478154,43.7973431 C21.3957692,43.6598832 42,35.4456934 42,10.5359124 L21.0478154,0.230919708 M21.0478154,40.835854 L21.0478154,40.8371387 L21.0429692,40.8371387 L21.0429692,40.835854 C20.7431538,40.7167007 2.94064615,33.617927 2.94064615,12.0971095 L21.0429692,3.19208759 L21.0429692,3.19048175 L21.0455538,3.19176642 L21.0478154,3.19048175 L21.0478154,3.19208759 L39.1504615,12.0971095 C39.1504615,33.617927 21.3476308,40.7167007 21.0478154,40.835854" id="Fill-3" fill="#BD181B"></path>
                                    <path d="M21.0478154,2.16145985 L21.0478154,2.15985401 L21.0436154,2.15985401 L21.0436154,2.16145985 L1.9488,11.5533723 C1.9488,34.2551241 20.7266769,41.7412263 21.0436154,41.8664818 L21.0436154,41.8684088 L21.0455538,41.8671241 L21.0478154,41.8684088 L21.0478154,41.8664818 C21.3647538,41.7412263 40.1423077,34.2551241 40.1423077,11.5533723 L21.0478154,2.16145985 M21.0478154,40.8535182 L21.0478154,40.8548029 L21.0429692,40.8548029 L21.0429692,40.8535182 C20.7431538,40.734365 2.92384615,33.6285255 2.92384615,12.0877956 L21.0429692,3.17474453 L21.0429692,3.17281752 L21.0455538,3.17410219 L21.0478154,3.17281752 L21.0478154,3.17474453 L39.1672615,12.0877956 C39.1672615,33.6285255 21.3482769,40.734365 21.0478154,40.8535182" id="Fill-4" fill="#B3382B"></path>
                                    <path d="M21.0219692,3.20236496 L39.1504615,12.0971095 C39.1504615,33.617927 21.3476308,40.7167007 21.0478154,40.835854 L21.0219692,43.7893139 C21.3957692,43.6598832 42,35.4456934 42,10.5359124 L26.0035581,2.66832151 L21.0478154,0.230919708 L21.0219692,3.20236496 Z" id="Fill-5" fill="#AB382C" opacity="0.30701959"></path>
                                    <path d="M40.1423077,11.5533723 L21.0478154,2.16145985 L21.0478154,2.15985401 L21.0436154,2.15985401 L21.0436154,2.16145985 L21.0219692,2.17237956 L21.0219692,3.18470073 L21.0429692,3.17474453 L21.0429692,3.17281752 L21.0455538,3.17410219 L21.0478154,3.17281752 L21.0478154,3.17474453 L39.1672615,12.0877956 C39.1672615,33.6285255 21.3482769,40.734365 21.0478154,40.8535182 L21.0478154,40.8548029 L21.0429692,40.8548029 L21.0429692,40.8535182 L21.0219692,40.8448467 L21.0219692,41.8578102 L21.0436154,41.8664818 L21.0436154,41.8684088 L21.0455538,41.8671241 L21.0478154,41.8684088 L21.0478154,41.8664818 C21.3647538,41.7412263 40.1423077,34.2551241 40.1423077,11.5533723" id="Fill-6" fill="#A8372B"></path>
                                    <polyline id="Fill-7" fill="#D73336" points="2.92384615 12.0877956 1.9488 11.5533723 21.0436154 2.16145985 21.0478154 3.17474453 2.92384615 12.0877956"></polyline>
                                    <path d="M40.1423077,11.5533723 L39.1672615,12.0877956 C39.1672615,33.6285255 21.3482769,40.734365 21.0478154,40.8535182 L21.0478154,40.8548029 L21.0429692,40.8548029 L21.0429692,40.8535182 L21.0219692,40.8448467 L21.0219692,41.8578102 L21.0436154,41.8664818 L21.0436154,41.8684088 L21.0455538,41.8671241 L21.0478154,41.8684088 L21.0478154,41.8664818 C21.3647538,41.7412263 40.1423077,34.2551241 40.1423077,11.5533723" id="Fill-8" fill="#D73336"></path>
                                </g>
                            </g>
                        </g>
                        <g id="scala" transform="translate(13.000000, 9.000000)">
                            <g id="svg3246">
                                <g id="g5067" transform="translate(0.002989, 0.018186)">
                                    <path d="M14.9634497,20.9419159 L14.9634497,15.2904801 C14.9634497,14.9384462 14.3286453,14.5564329 13.307958,14.16577 C14.0234085,13.8712142 14.5951542,13.5776399 14.9634497,13.2920283 L14.9634497,7.64988759 C14.9634497,7.29986443 14.3366121,6.91357392 13.3262507,6.52517751 C14.034627,6.23322731 14.5977357,5.93504566 14.9634497,5.65143579 L14.9634497,0.00929512466 C14.9634497,1.97683655 5.61868535,3.49192997 0.256098161,3.84818161 L0.256098161,9.44384665 C2.52130834,9.59432952 5.4950236,9.96287452 8.17684842,10.4756055 C5.49539824,10.988161 2.52089859,11.3476131 0.256098161,11.4980692 L0.256098161,17.0937342 C2.51844004,17.2440267 5.48852602,17.6045318 8.16770206,18.116198 C5.48852602,18.6278641 2.51844004,18.9883692 0.256098161,19.1386617 L0.256098161,24.7343267 L0.256098161,24.7808023 C4.24668702,21.6165337 10.826601,23.9058471 14.9634497,20.9419159 L14.9634497,20.9419159 Z" id="rect4525" fill="#BD181B"></path>
                                    <path d="M13.3262507,6.52517751 C10.3221842,7.76553977 4.6825456,8.98406071 0.256098161,9.44384665 C2.52626055,9.59465968 5.50874168,9.9611077 8.19514114,10.4756055 C11.8538443,9.77510705 14.9634497,8.78487437 14.9634497,7.64988759 C14.9634497,7.29986443 14.3366121,6.91357392 13.3262507,6.52517751 L13.3262507,6.52517751 Z M13.307958,14.16577 C10.3001685,15.4040293 4.67518168,16.6347127 0.256098161,17.0937342 C2.51844004,17.2440267 5.48852602,17.6045318 8.16770206,18.116198 C11.8378287,17.4153991 14.9634497,16.4281914 14.9634497,15.2904801 C14.9634497,14.9384462 14.3286453,14.5564329 13.307958,14.16577 L13.307958,14.16577 Z" id="path3857" fill="url(#linearGradient-1)"></path>
                                </g>
                            </g>
                        </g>
                    </g>
                </g>
            </g>
        </g>
    </g>
</svg>