<?xml version="1.0" encoding="UTF-8"?>
<svg width="42px" height="44px" viewBox="0 0 42 44" version="1.1" xmlns="http://www.w3.org/2000/svg" xmlns:xlink="http://www.w3.org/1999/xlink">
    <!-- Generator: Sketch 39.1 (31720) - http://www.bohemiancoding.com/sketch -->
    <title>Group 56</title>
    <desc>Created with Sketch.</desc>
    <defs></defs>
    <g id="Page-1" stroke="none" stroke-width="1" fill="none" fill-rule="evenodd">
        <g id="Landing_new-03-1920" transform="translate(-581.000000, -3245.000000)">
            <g id="Langs" transform="translate(0.000000, 2694.000000)">
                <g id="Group-53" transform="translate(570.000000, 539.000000)">
                    <g id="Group-56" transform="translate(11.000000, 12.000000)">
                        <g id="Group-+-Group-+-Group">
                            <g id="Group-+-Group">
                                <g id="Group">
                                    <path d="M0.0911076923,10.5359124 C0.0911076923,35.4456934 20.6959846,43.6598832 21.0429692,43.7973431 C21.3957692,43.6598832 42,35.4456934 42,10.5359124 L21.0478154,0.230919708 L0.0911076923,10.5359124 Z" id="Fill-1" fill="#F6F5F5"></path>
                                    <path d="M21.0478154,0.228350365 L21.0429692,0.228350365 L21.0429692,0.230919708 L21.0219692,0.240875912 L21.0219692,43.7893139 L21.0429692,43.7973431 L21.0429692,43.7999124 L21.0455538,43.7986277 L21.0478154,43.7999124 L21.0478154,43.7973431 C21.3957692,43.6598832 42,35.4456934 42,10.5359124 L21.0478154,0.230919708 L21.0478154,0.228350365" id="Fill-2" fill="#AEAEAE" opacity="0.125291511"></path>
                                    <path d="M21.0478154,0.230919708 L21.0478154,0.228350365 L21.0429692,0.228350365 L21.0429692,0.230919708 L0.0911076923,10.5359124 C0.0911076923,35.4456934 20.6959846,43.6598832 21.0429692,43.7973431 L21.0429692,43.7999124 L21.0455538,43.7986277 L21.0478154,43.7999124 L21.0478154,43.7973431 C21.3957692,43.6598832 42,35.4456934 42,10.5359124 L21.0478154,0.230919708 M21.0478154,40.835854 L21.0478154,40.8371387 L21.0429692,40.8371387 L21.0429692,40.835854 C20.7431538,40.7167007 2.94064615,33.617927 2.94064615,12.0971095 L21.0429692,3.19208759 L21.0429692,3.19048175 L21.0455538,3.19176642 L21.0478154,3.19048175 L21.0478154,3.19208759 L39.1504615,12.0971095 C39.1504615,33.617927 21.3476308,40.7167007 21.0478154,40.835854" id="Fill-3" fill="#6AD7E5"></path>
                                    <path d="M21.0478154,2.16145985 L21.0478154,2.15985401 L21.0436154,2.15985401 L21.0436154,2.16145985 L1.9488,11.5533723 C1.9488,34.2551241 20.7266769,41.7412263 21.0436154,41.8664818 L21.0436154,41.8684088 L21.0455538,41.8671241 L21.0478154,41.8684088 L21.0478154,41.8664818 C21.3647538,41.7412263 40.1423077,34.2551241 40.1423077,11.5533723 L21.0478154,2.16145985 M21.0478154,40.8535182 L21.0478154,40.8548029 L21.0429692,40.8548029 L21.0429692,40.8535182 C20.7431538,40.734365 2.92384615,33.6285255 2.92384615,12.0877956 L21.0429692,3.17474453 L21.0429692,3.17281752 L21.0455538,3.17410219 L21.0478154,3.17281752 L21.0478154,3.17474453 L39.1672615,12.0877956 C39.1672615,33.6285255 21.3482769,40.734365 21.0478154,40.8535182" id="Fill-4" fill="#2C7C9B"></path>
                                    <path d="M21.0219692,3.20236496 L39.1504615,12.0971095 C39.1504615,33.617927 21.3476308,40.7167007 21.0478154,40.835854 L21.0219692,43.7893139 C21.3957692,43.6598832 42,35.4456934 42,10.5359124 L26.0035581,2.66832151 L21.0478154,0.230919708 L21.0219692,3.20236496 Z" id="Fill-5" fill="#3F95B7"></path>
                                    <path d="M40.1423077,11.5533723 L21.0478154,2.16145985 L21.0478154,2.15985401 L21.0436154,2.15985401 L21.0436154,2.16145985 L21.0219692,2.17237956 L21.0219692,3.18470073 L21.0429692,3.17474453 L21.0429692,3.17281752 L21.0455538,3.17410219 L21.0478154,3.17281752 L21.0478154,3.17474453 L39.1672615,12.0877956 C39.1672615,33.6285255 21.3482769,40.734365 21.0478154,40.8535182 L21.0478154,40.8548029 L21.0429692,40.8548029 L21.0429692,40.8535182 L21.0219692,40.8448467 L21.0219692,41.8578102 L21.0436154,41.8664818 L21.0436154,41.8684088 L21.0455538,41.8671241 L21.0478154,41.8684088 L21.0478154,41.8664818 C21.3647538,41.7412263 40.1423077,34.2551241 40.1423077,11.5533723" id="Fill-6" fill="#2C7C9B"></path>
                                    <polyline id="Fill-7" fill="#86E4F0" points="2.92384615 12.0877956 1.9488 11.5533723 21.0436154 2.16145985 21.0478154 3.17474453 2.92384615 12.0877956"></polyline>
                                    <path d="M40.1423077,11.5533723 L39.1672615,12.0877956 C39.1672615,33.6285255 21.3482769,40.734365 21.0478154,40.8535182 L21.0478154,40.8548029 L21.0429692,40.8548029 L21.0429692,40.8535182 L21.0219692,40.8448467 L21.0219692,41.8578102 L21.0436154,41.8664818 L21.0436154,41.8684088 L21.0455538,41.8671241 L21.0478154,41.8684088 L21.0478154,41.8664818 C21.3647538,41.7412263 40.1423077,34.2551241 40.1423077,11.5533723" id="Fill-8" fill="#86E4F0"></path>
                                </g>
                            </g>
                        </g>
                        <g id="go" transform="translate(13.000000, 11.000000)">
                            <g id="レイヤー_1">
                                <g id="Group" transform="translate(0.000000, 11.185410)">
                                    <path d="M0.306905371,1.19148936 C0.332480818,1.84802432 1.04859335,1.556231 1.35549872,1.33738602 C1.66240409,1.14285714 1.73913043,1.31306991 1.76470588,0.924012158 C1.79028133,0.656534954 1.81585678,0.41337386 1.79028133,0.145896657 C1.32992327,0.0972644377 0.84398977,0.218844985 0.460358056,0.462006079 C0.306905371,0.607902736 -0.0767263427,1.0212766 0.306905371,1.19148936" id="Shape" fill="#F6D2A2"></path>
                                    <path d="M0.690537084,1.67781155 C0.613810742,1.67781155 0.562659847,1.67781155 0.485933504,1.62917933 C0.358056266,1.556231 0.281329923,1.43465046 0.255754476,1.24012158 C0.127877238,1.16717325 0.10230179,1.06990881 0.0767263427,1.0212766 C0.0511508951,0.778115502 0.306905371,0.534954407 0.434782609,0.43768997 C0.792838875,0.170212766 1.30434783,0.0486322188 1.81585678,0.0972644377 L1.86700767,0.0972644377 L1.86700767,0.145896657 C1.86700767,0.340425532 1.86700767,0.559270517 1.84143223,0.753799392 C1.84143223,0.802431611 1.84143223,0.875379939 1.81585678,0.924012158 C1.79028133,1.19148936 1.73913043,1.24012158 1.58567775,1.2887538 C1.53452685,1.31306991 1.45780051,1.33738602 1.35549872,1.38601824 C1.32992327,1.45896657 0.971867008,1.67781155 0.690537084,1.67781155 L0.690537084,1.67781155 Z M1.6112532,0.194528875 C1.20204604,0.194528875 0.818414322,0.316109422 0.511508951,0.510638298 C0.383631714,0.607902736 0.179028133,0.82674772 0.204603581,0.972644377 C0.204603581,1.04559271 0.255754476,1.06990881 0.332480818,1.11854103 L0.358056266,1.14285714 L0.358056266,1.19148936 C0.358056266,1.36170213 0.409207161,1.45896657 0.511508951,1.50759878 C0.690537084,1.60486322 1.04859335,1.45896657 1.30434783,1.2887538 C1.40664962,1.21580547 1.50895141,1.19148936 1.5601023,1.16717325 C1.66240409,1.14285714 1.68797954,1.11854103 1.68797954,0.899696049 C1.68797954,0.85106383 1.68797954,0.778115502 1.71355499,0.729483283 C1.73913043,0.559270517 1.73913043,0.364741641 1.73913043,0.194528875 C1.71355499,0.194528875 1.66240409,0.194528875 1.6112532,0.194528875 L1.6112532,0.194528875 Z" id="Shape" fill="#000000"></path>
                                </g>
                                <g id="Group" transform="translate(0.000000, 12.158055)">
                                    <path d="M0.306905371,0.428571429 C0.520809114,0.371428571 0.734712857,0.257142857 0.895140665,0.0857142857" id="Shape" fill="#C6B198"></path>
                                    <path d="M0.326632642,0.571428571 C0.292811059,0.571428571 0.258989475,0.523809524 0.258989475,0.476190476 C0.225167891,0.428571429 0.258989475,0.333333333 0.326632642,0.333333333 C0.360454226,0.333333333 0.360454226,0.333333333 0.39427581,0.285714286 C0.495740561,0.238095238 0.597205312,0.19047619 0.664848479,0.0476190476 C0.698670063,0 0.76631323,0 0.800134814,0 C0.833956398,0.0476190476 0.833956398,0.142857143 0.833956398,0.19047619 C0.732491647,0.380952381 0.597205312,0.428571429 0.495740561,0.476190476 C0.39427581,0.523809524 0.39427581,0.523809524 0.326632642,0.571428571 L0.326632642,0.571428571 L0.326632642,0.571428571 Z" id="Shape" fill="#000000"></path>
                                </g>
                                <g id="Group" transform="translate(0.511509, 1.215805)">
                                    <path d="M1.43222506,3.20972644 C-1.25319693,2.48024316 0.74168798,-0.778115502 2.91560102,0.583586626 L1.43222506,3.20972644 L1.43222506,3.20972644 Z" id="Shape" fill="#6AD7E5"></path>
                                    <path d="M1.45780051,3.28267477 L1.40664962,3.25835866 C0.639386189,3.06382979 0.179028133,2.62613982 0.0767263427,2.04255319 C-0.0255754476,1.45896657 0.332480818,0.802431611 0.920716113,0.43768997 C1.53452685,0.0729483283 2.27621483,0.0972644377 2.94117647,0.510638298 L2.99232737,0.534954407 L1.45780051,3.28267477 L1.45780051,3.28267477 Z M1.84143223,0.316109422 C1.53452685,0.316109422 1.25319693,0.389057751 0.971867008,0.559270517 C0.434782609,0.899696049 0.127877238,1.48328267 0.204603581,2.04255319 C0.281329923,2.55319149 0.716112532,2.94224924 1.38107417,3.13677812 L2.78772379,0.607902736 C2.48081841,0.389057751 2.17391304,0.316109422 1.84143223,0.316109422 L1.84143223,0.316109422 Z" id="Shape" fill="#000000"></path>
                                </g>
                                <g id="Group" transform="translate(13.810742, 0.972644)">
                                    <path d="M0.0767263427,0.559270517 C2.19948849,-0.875379939 4.14322251,2.35866261 1.66240409,3.16109422 L0.0767263427,0.559270517 L0.0767263427,0.559270517 Z" id="Shape" fill="#6AD7E5"></path>
                                    <path d="M1.63682864,3.23404255 L0,0.534954407 L0.0511508951,0.510638298 C0.690537084,0.0729483283 1.40664962,0.0243161094 1.99488491,0.364741641 C2.5831202,0.680851064 2.94117647,1.33738602 2.89002558,1.94528875 C2.86445013,2.28571429 2.65984655,2.89361702 1.68797954,3.20972644 L1.63682864,3.23404255 L1.63682864,3.23404255 Z M0.179028133,0.583586626 L1.68797954,3.0881459 C2.32736573,2.86930091 2.68542199,2.45592705 2.73657289,1.94528875 C2.78772379,1.38601824 2.45524297,0.778115502 1.91815857,0.486322188 C1.6112532,0.291793313 0.971867008,0.0729483283 0.179028133,0.583586626 L0.179028133,0.583586626 Z" id="Shape" fill="#000000"></path>
                                </g>
                                <g id="Group" transform="translate(13.043478, 20.425532)">
                                    <path d="M1.30434783,0.194528875 C1.84143223,0.510638298 2.83887468,1.48328267 2.02046036,1.94528875 C1.22762148,2.62613982 0.792838875,1.19148936 0.127877238,0.996960486 C0.434782609,0.607902736 0.792838875,0.267477204 1.30434783,0.194528875 L1.30434783,0.194528875 Z" id="Shape" fill="#F6D2A2"></path>
                                    <path d="M1.6112532,2.18844985 L1.58567775,2.18844985 C1.27877238,2.16413374 1.0230179,1.89665653 0.767263427,1.60486322 C0.562659847,1.36170213 0.332480818,1.11854103 0.10230179,1.04559271 L0,1.0212766 L0.0511508951,0.948328267 C0.306905371,0.632218845 0.690537084,0.218844985 1.27877238,0.121580547 L1.30434783,0.121580547 L1.32992327,0.145896657 C1.68797954,0.340425532 2.37851662,0.948328267 2.37851662,1.48328267 C2.37851662,1.70212766 2.27621483,1.87234043 2.04603581,1.99392097 C1.91815857,2.11550152 1.76470588,2.18844985 1.6112532,2.18844985 L1.6112532,2.18844985 Z M0.230179028,0.972644377 C0.460358056,1.06990881 0.664961637,1.31306991 0.869565217,1.53191489 C1.09974425,1.7993921 1.32992327,2.04255319 1.58567775,2.0668693 C1.71355499,2.0668693 1.84143223,2.01823708 1.96930946,1.89665653 L1.96930946,1.89665653 C2.1483376,1.7993921 2.25063939,1.65349544 2.25063939,1.48328267 C2.25063939,1.04559271 1.68797954,0.510638298 1.27877238,0.267477204 C0.920716113,0.316109422 0.588235294,0.534954407 0.230179028,0.972644377 L0.230179028,0.972644377 Z" id="Shape" fill="#000000"></path>
                                </g>
                                <path d="M15.1241849,22.4194529 C15.0950127,22.4194529 15.0658404,22.3951368 15.0658404,22.3951368 C15.0074959,22.3221884 14.9783237,22.224924 14.9491515,22.1519757 C14.890807,22.006079 14.8032903,21.8358663 14.6574291,21.7386018 C14.6282568,21.7142857 14.6282568,21.6656535 14.6574291,21.6413374 C14.6866013,21.6170213 14.7449458,21.6170213 14.774118,21.6413374 C14.9491515,21.7629179 15.0074959,21.9331307 15.0950127,22.1033435 C15.1241849,22.1762918 15.1533571,22.2492401 15.2117016,22.3221884 C15.2408739,22.3465046 15.2117016,22.3951368 15.1825294,22.4194529 C15.1533571,22.4194529 15.1533571,22.4194529 15.1241849,22.4194529 L15.1241849,22.4194529 Z" id="Shape" fill="#000000"></path>
                                <g id="Group" transform="translate(1.790281, 20.668693)">
                                    <path d="M2.89002558,1.0212766 C2.25063939,1.11854103 1.89258312,1.65349544 1.35549872,1.94528875 C0.84398977,2.23708207 0.664961637,1.84802432 0.613810742,1.77507599 C0.537084399,1.75075988 0.537084399,1.7993921 0.409207161,1.70212766 C-0.0511508951,0.996960486 0.895140665,0.510638298 1.38107417,0.145896657 C2.0971867,0.0243161094 2.53196931,0.583586626 2.89002558,1.0212766 L2.89002558,1.0212766 Z" id="Shape" fill="#F6D2A2"></path>
                                    <path d="M1.0230179,2.11550152 C0.971867008,2.11550152 0.94629156,2.11550152 0.895140665,2.09118541 C0.716112532,2.04255319 0.613810742,1.89665653 0.562659847,1.82370821 C0.562659847,1.82370821 0.562659847,1.82370821 0.537084399,1.82370821 C0.485933504,1.82370821 0.434782609,1.82370821 0.358056266,1.72644377 L0.358056266,1.72644377 C-0.0767263427,1.06990881 0.664961637,0.559270517 1.17647059,0.218844985 C1.22762148,0.170212766 1.30434783,0.145896657 1.35549872,0.0972644377 L1.35549872,0.0972644377 L1.38107417,0.0972644377 C2.0971867,-0.0486322188 2.53196931,0.510638298 2.89002558,0.972644377 L2.99232737,1.09422492 L2.89002558,1.11854103 C2.50639386,1.16717325 2.25063939,1.38601824 1.94373402,1.62917933 C1.76470588,1.77507599 1.58567775,1.92097264 1.38107417,2.01823708 C1.27877238,2.0668693 1.15089514,2.11550152 1.0230179,2.11550152 L1.0230179,2.11550152 Z M0.588235294,1.70212766 C0.613810742,1.70212766 0.639386189,1.70212766 0.664961637,1.72644377 L0.690537084,1.72644377 L0.716112532,1.75075988 C0.74168798,1.7993921 0.818414322,1.92097264 0.971867008,1.96960486 C1.0741688,1.99392097 1.20204604,1.96960486 1.35549872,1.89665653 C1.5601023,1.7993921 1.71355499,1.65349544 1.89258312,1.50759878 C2.1483376,1.2887538 2.42966752,1.06990881 2.78772379,0.996960486 C2.45524297,0.583586626 2.04603581,0.121580547 1.45780051,0.218844985 C1.40664962,0.243161094 1.35549872,0.291793313 1.27877238,0.340425532 C0.767263427,0.680851064 0.127877238,1.11854103 0.485933504,1.67781155 C0.562659847,1.70212766 0.562659847,1.70212766 0.588235294,1.70212766 L0.588235294,1.70212766 L0.588235294,1.70212766 Z" id="Shape" fill="#000000"></path>
                                </g>
                                <path d="M2.45427828,22.5167173 L2.45427828,22.5167173 C2.38672021,22.5167173 2.35294118,22.4924012 2.35294118,22.443769 C2.38672021,22.2492401 2.52183634,22.1276596 2.62317344,21.9817629 C2.69073151,21.9088146 2.75828957,21.8358663 2.79206861,21.7629179 C2.82584764,21.7386018 2.85962667,21.7142857 2.8934057,21.7386018 C2.92718474,21.7629179 2.96096377,21.787234 2.92718474,21.8115502 C2.85962667,21.9088146 2.79206861,21.9817629 2.72451054,22.0547112 C2.58939441,22.1762918 2.48805731,22.2978723 2.45427828,22.4680851 C2.52183634,22.4924012 2.48805731,22.5167173 2.45427828,22.5167173 L2.45427828,22.5167173 Z" id="Shape" fill="#000000"></path>
                                <path d="M2.04603581,3.52583587 C1.68797954,3.3556231 1.43222506,3.11246201 1.63682864,2.72340426 C1.84143223,2.35866261 2.19948849,2.40729483 2.55754476,2.5775076 L2.04603581,3.52583587 L2.04603581,3.52583587 Z" id="Shape" fill="#000000"></path>
                                <path d="M14.9104859,3.18541033 C15.2685422,3.01519757 15.5242967,2.77203647 15.3196931,2.38297872 C15.1150895,2.01823708 14.7570332,2.0668693 14.398977,2.23708207 L14.9104859,3.18541033 L14.9104859,3.18541033 Z" id="Shape" fill="#000000"></path>
                                <g id="Group" transform="translate(15.601023, 11.185410)">
                                    <path d="M1.76470588,1.11854103 C1.73913043,1.77507599 1.0230179,1.48328267 0.716112532,1.26443769 C0.409207161,1.06990881 0.332480818,1.24012158 0.306905371,0.85106383 C0.281329923,0.583586626 0.255754476,0.340425532 0.281329923,0.0729483283 C0.74168798,0.0243161094 1.22762148,0.145896657 1.6112532,0.389057751 C1.76470588,0.510638298 2.1483376,0.948328267 1.76470588,1.11854103" id="Shape" fill="#F6D2A2"></path>
                                    <path d="M1.40664962,1.58054711 C1.09974425,1.58054711 0.767263427,1.36170213 0.690537084,1.31306991 C0.588235294,1.24012158 0.537084399,1.21580547 0.460358056,1.21580547 C0.306905371,1.16717325 0.255754476,1.11854103 0.230179028,0.85106383 C0.230179028,0.802431611 0.230179028,0.729483283 0.204603581,0.680851064 C0.179028133,0.486322188 0.179028133,0.267477204 0.179028133,0.0729483283 L0.179028133,0.0243161094 L0.230179028,0.0243161094 C0.74168798,-0.0243161094 1.22762148,0.0972644377 1.6112532,0.364741641 C1.73913043,0.462006079 1.99488491,0.705167173 1.96930946,0.948328267 C1.96930946,1.0212766 1.91815857,1.11854103 1.79028133,1.16717325 C1.76470588,1.36170213 1.68797954,1.48328267 1.5601023,1.556231 C1.53452685,1.58054711 1.45780051,1.58054711 1.40664962,1.58054711 L1.40664962,1.58054711 Z M0.332480818,0.121580547 C0.332480818,0.291793313 0.332480818,0.486322188 0.358056266,0.656534954 C0.358056266,0.705167173 0.358056266,0.778115502 0.383631714,0.82674772 C0.409207161,1.04559271 0.409207161,1.04559271 0.511508951,1.09422492 C0.562659847,1.11854103 0.664961637,1.14285714 0.767263427,1.21580547 C1.0230179,1.38601824 1.38107417,1.53191489 1.5601023,1.43465046 C1.66240409,1.38601824 1.71355499,1.2887538 1.71355499,1.11854103 L1.71355499,1.06990881 L1.73913043,1.04559271 C1.81585678,1.0212766 1.86700767,0.972644377 1.86700767,0.899696049 C1.89258312,0.753799392 1.68797954,0.510638298 1.5601023,0.43768997 C1.20204604,0.218844985 0.767263427,0.0972644377 0.332480818,0.121580547 L0.332480818,0.121580547 Z" id="Shape" fill="#000000"></path>
                                </g>
                                <g id="Group" transform="translate(16.879795, 11.914894)">
                                    <path d="M0.792838875,0.628571429 C0.578935131,0.571428571 0.365031388,0.457142857 0.204603581,0.285714286" id="Shape" fill="#C6B198"></path>
                                    <path d="M0.591629274,0.752661307 C0.591629274,0.752661307 0.558314432,0.752661307 0.591629274,0.752661307 C0.558314432,0.752661307 0.524999591,0.703640486 0.49168475,0.703640486 C0.358425386,0.654619664 0.225166021,0.556578021 0.158536339,0.409515557 C0.125221498,0.360494735 0.125221498,0.262453092 0.19185118,0.213432271 C0.225166021,0.164411449 0.291795703,0.164411449 0.325110545,0.262453092 C0.391740227,0.360494735 0.49168475,0.409515557 0.591629274,0.5075572 C0.624944115,0.5075572 0.624944115,0.5075572 0.658258956,0.556578021 C0.691573797,0.605598843 0.724888638,0.654619664 0.724888638,0.703640486 C0.658258956,0.752661307 0.624944115,0.752661307 0.591629274,0.752661307 L0.591629274,0.752661307 Z" id="Shape" fill="#000000"></path>
                                </g>
                                <g id="Group" transform="translate(1.278772, 0.000000)">
                                    <path d="M7.28900256,0.170212766 C9.97442455,0.170212766 12.5063939,0.534954407 13.8363171,2.99088146 C15.0127877,5.73860182 14.6035806,8.72948328 14.7826087,11.6474164 C14.9360614,14.1519757 15.2685422,17.0455927 14.0664962,19.3556231 C12.7877238,21.787234 9.56521739,22.4194529 6.93094629,22.3221884 C4.85933504,22.2492401 2.35294118,21.6170213 1.17647059,19.7933131 C-0.204603581,17.6778116 0.460358056,14.5167173 0.562659847,12.1580547 C0.690537084,9.36170213 -0.230179028,6.56534954 0.74168798,3.84194529 C1.68797954,1.04559271 4.37340153,0.389057751 7.28900256,0.170212766" id="Shape" fill="#6AD7E5"></path>
                                    <path d="M7.3657289,22.4194529 L6.90537084,22.4194529 C6.08695652,22.3951368 4.85933504,22.2735562 3.657289,21.8115502 C2.50639386,21.3738602 1.63682864,20.7173252 1.0741688,19.8662614 C-0.0511508951,18.1641337 0.153452685,15.781155 0.332480818,13.6899696 C0.383631714,13.1550152 0.409207161,12.668693 0.434782609,12.2066869 C0.485933504,11.2097264 0.383631714,10.212766 0.306905371,9.24012158 C0.153452685,7.46504559 -0.0255754476,5.64133739 0.613810742,3.8662614 C1.0741688,2.55319149 1.94373402,1.60486322 3.24808184,0.996960486 C4.2455243,0.534954407 5.49872123,0.267477204 7.28900256,0.121580547 L7.28900256,0.121580547 C9.92327366,0.121580547 12.5319693,0.462006079 13.887468,2.99088146 L13.887468,2.99088146 C14.7570332,5.00911854 14.7570332,7.17325228 14.7826087,9.26443769 C14.7826087,10.0425532 14.7826087,10.8693009 14.8337596,11.6474164 C14.859335,11.8905775 14.859335,12.1337386 14.8849105,12.3768997 C15.0383632,14.6869301 15.2173913,17.2887538 14.1176471,19.4042553 C12.7109974,22.0547112 9.20716113,22.4194529 7.3657289,22.4194529 L7.3657289,22.4194529 Z M7.28900256,0.243161094 C4.47570332,0.462006079 1.73913043,1.04559271 0.74168798,3.89057751 C0.127877238,5.64133739 0.281329923,7.46504559 0.434782609,9.21580547 C0.511508951,10.1884498 0.613810742,11.2097264 0.562659847,12.2066869 C0.537084399,12.668693 0.511508951,13.1793313 0.460358056,13.7142857 C0.281329923,15.781155 0.10230179,18.1398176 1.17647059,19.8176292 C1.63682864,20.5227964 3.1202046,22.1762918 6.8797954,22.2978723 C8.51662404,22.3465046 12.4808184,22.1762918 13.9641944,19.3556231 C15.0639386,17.2644377 14.8849105,14.6869301 14.7314578,12.4012158 C14.7058824,12.1580547 14.7058824,11.9148936 14.6803069,11.6717325 C14.629156,10.8693009 14.629156,10.0668693 14.629156,9.26443769 C14.629156,7.17325228 14.6035806,5.03343465 13.7595908,3.03951368 C13.1713555,1.92097264 12.2762148,1.16717325 11.0485934,0.729483283 C9.82097187,0.291793313 8.3887468,0.243161094 7.28900256,0.243161094 L7.28900256,0.243161094 Z" id="Shape" fill="#000000"></path>
                                </g>
                                <g id="Group" transform="translate(8.951407, 1.215805)">
                                    <path d="M0.10230179,2.40729483 C0.588235294,5.08206687 5.19181586,4.3768997 4.52685422,1.67781155 C3.91304348,-0.753799392 -0.0767263427,-0.0729483283 0.10230179,2.40729483" id="Shape" fill="#FFFFFF"></path>
                                    <path d="M2.27621483,4.15805471 C1.99488491,4.15805471 1.71355499,4.10942249 1.43222506,4.03647416 C0.664961637,3.79331307 0.179028133,3.20972644 0.0255754476,2.43161094 L0.0255754476,2.43161094 C-0.0255754476,1.82370821 0.179028133,1.2887538 0.613810742,0.85106383 C0.997442455,0.486322188 1.50895141,0.218844985 2.0971867,0.145896657 C2.65984655,0.0729483283 3.19693095,0.170212766 3.63171355,0.389057751 C4.11764706,0.656534954 4.45012788,1.09422492 4.60358056,1.67781155 C4.7826087,2.43161094 4.57800512,3.11246201 4.04092072,3.57446809 C3.55498721,3.93920973 2.91560102,4.15805471 2.27621483,4.15805471 L2.27621483,4.15805471 Z M0.153452685,2.40729483 C0.281329923,3.13677812 0.767263427,3.67173252 1.48337596,3.91489362 C2.30179028,4.18237082 3.29923274,4.01215805 3.91304348,3.47720365 C4.42455243,3.03951368 4.62915601,2.40729483 4.45012788,1.70212766 C4.16879795,0.534954407 3.06905371,0.121580547 2.0971867,0.267477204 C1.09974425,0.389057751 0.0767263427,1.11854103 0.153452685,2.40729483 L0.153452685,2.40729483 Z" id="Shape" fill="#000000"></path>
                                </g>
                                <g id="Group" transform="translate(3.324808, 1.458967)">
                                    <path d="M0.230179028,2.60182371 C0.869565217,4.93617021 4.7826087,4.32826748 4.62915601,1.99392097 C4.45012788,-0.802431611 -0.383631714,-0.267477204 0.230179028,2.60182371" id="Shape" fill="#FFFFFF"></path>
                                    <path d="M2.32736573,4.1337386 C1.91815857,4.1337386 1.50895141,4.03647416 1.17647059,3.8662614 C0.664961637,3.59878419 0.306905371,3.16109422 0.179028133,2.60182371 L0.179028133,2.60182371 C2.79498646e-14,1.77507599 0.255754476,1.06990881 0.869565217,0.607902736 C1.58567775,0.0729483283 2.65984655,-0.0729483283 3.50383632,0.291793313 C4.21994885,0.583586626 4.65473146,1.19148936 4.70588235,1.99392097 C4.7826087,3.23404255 3.75959079,3.96352584 2.76214834,4.10942249 C2.60869565,4.10942249 2.45524297,4.1337386 2.32736573,4.1337386 L2.32736573,4.1337386 Z M0.281329923,2.5775076 C0.511508951,3.42857143 1.35549872,4.18237082 2.71099744,3.98784195 C3.657289,3.84194529 4.62915601,3.16109422 4.55242967,1.99392097 C4.50127877,1.24012158 4.11764706,0.680851064 3.42710997,0.389057751 C2.6342711,0.0486322188 1.6112532,0.170212766 0.920716113,0.680851064 C0.358056266,1.14285714 0.127877238,1.82370821 0.281329923,2.5775076 L0.281329923,2.5775076 Z" id="Shape" fill="#000000"></path>
                                </g>
                                <g id="Group" transform="translate(8.439898, 6.322188)">
                                    <path d="M1.15089514,0.510638298 C1.15089514,0.85106383 1.22762148,1.24012158 1.17647059,1.62917933 C1.0741688,1.7993921 0.895140665,1.82370821 0.74168798,1.87234043 C0.511508951,1.84802432 0.332480818,1.70212766 0.255754476,1.50759878 C0.204603581,1.09422492 0.281329923,0.680851064 0.281329923,0.243161094 L1.15089514,0.510638298 L1.15089514,0.510638298 Z" id="Shape" fill="#FFFFFF"></path>
                                    <path d="M0.74168798,1.94528875 L0.74168798,1.94528875 C0.485933504,1.89665653 0.281329923,1.75075988 0.179028133,1.53191489 L0.179028133,1.53191489 L0.179028133,1.53191489 C0.127877238,1.24012158 0.153452685,0.948328267 0.179028133,0.680851064 C0.179028133,0.559270517 0.204603581,0.41337386 0.204603581,0.267477204 L0.204603581,0.194528875 L1.20204604,0.486322188 L1.20204604,0.534954407 C1.20204604,0.656534954 1.20204604,0.778115502 1.22762148,0.899696049 C1.25319693,1.14285714 1.27877238,1.41033435 1.22762148,1.65349544 L1.22762148,1.65349544 L1.22762148,1.65349544 C1.15089514,1.7993921 0.997442455,1.84802432 0.869565217,1.89665653 C0.84398977,1.89665653 0.792838875,1.92097264 0.74168798,1.94528875 L0.74168798,1.94528875 L0.74168798,1.94528875 Z M0.306905371,1.48328267 C0.383631714,1.65349544 0.537084399,1.77507599 0.716112532,1.7993921 C0.74168798,1.77507599 0.792838875,1.77507599 0.818414322,1.75075988 C0.920716113,1.70212766 1.0230179,1.67781155 1.09974425,1.58054711 C1.15089514,1.33738602 1.12531969,1.09422492 1.09974425,0.85106383 C1.09974425,0.729483283 1.0741688,0.632218845 1.0741688,0.534954407 L0.332480818,0.316109422 C0.332480818,0.43768997 0.306905371,0.534954407 0.306905371,0.632218845 C0.306905371,0.948328267 0.281329923,1.21580547 0.306905371,1.48328267 L0.306905371,1.48328267 Z" id="Shape" fill="#000000"></path>
                                </g>
                                <g id="Group" transform="translate(3.836317, 2.917933)">
                                    <ellipse id="Oval" fill="#000000" cx="0.792838875" cy="0.753799392" rx="0.664961637" ry="0.680851064"></ellipse>
                                    <ellipse id="Oval" fill="#FFFFFF" cx="1.24040921" cy="1.01519757" rx="0.294117647" ry="0.285714286"></ellipse>
                                </g>
                                <g id="Group" transform="translate(9.462916, 2.674772)">
                                    <ellipse id="Oval" fill="#000000" cx="0.716112532" cy="0.82674772" rx="0.639386189" ry="0.680851064"></ellipse>
                                    <ellipse id="Oval" fill="#FFFFFF" cx="1.16368286" cy="1.0881459" rx="0.294117647" ry="0.285714286"></ellipse>
                                </g>
                                <g id="Group" transform="translate(7.416880, 6.322188)">
                                    <path d="M0.281329923,0.462006079 C-2.917111e-14,1.11854103 0.434782609,2.45592705 1.22762148,1.48328267 C1.17647059,1.06990881 1.25319693,0.656534954 1.25319693,0.218844985 L0.281329923,0.462006079 L0.281329923,0.462006079 Z" id="Shape" fill="#FFFFFF"></path>
                                    <path d="M0.716112532,1.89665653 C0.639386189,1.89665653 0.588235294,1.87234043 0.511508951,1.84802432 C0.204603581,1.67781155 4.002354e-14,0.972644377 0.230179028,0.43768997 L0.255754476,0.41337386 L1.35549872,0.145896657 L1.35549872,0.218844985 C1.35549872,0.364741641 1.32992327,0.486322188 1.32992327,0.632218845 C1.30434783,0.924012158 1.27877238,1.19148936 1.32992327,1.45896657 L1.32992327,1.48328267 L1.30434783,1.50759878 C1.04859335,1.82370821 0.869565217,1.89665653 0.716112532,1.89665653 L0.716112532,1.89665653 Z M0.332480818,0.534954407 C0.179028133,0.948328267 0.306905371,1.60486322 0.588235294,1.75075988 C0.792838875,1.87234043 1.0230179,1.67781155 1.17647059,1.48328267 C1.15089514,1.19148936 1.17647059,0.924012158 1.17647059,0.656534954 C1.17647059,0.559270517 1.20204604,0.43768997 1.20204604,0.340425532 L0.332480818,0.534954407 L0.332480818,0.534954407 Z" id="Shape" fill="#000000"></path>
                                </g>
                                <g id="Group" transform="translate(6.905371, 4.620061)">
                                    <g transform="translate(0.000000, 0.729483)" id="Shape">
                                        <path d="M0.895140665,0.170212766 C0.358056266,0.218844985 -0.0767263427,0.82674772 0.204603581,1.31306991 C0.562659847,1.94528875 1.40664962,1.26443769 1.91815857,1.31306991 C2.50639386,1.31306991 2.99232737,1.92097264 3.47826087,1.41033435 C4.01534527,0.875379939 3.24808184,0.340425532 2.65984655,0.0972644377 L0.895140665,0.170212766 L0.895140665,0.170212766 Z" fill="#F6D2A2"></path>
                                        <path d="M3.04347826,1.67781155 C2.86445013,1.67781155 2.68542199,1.60486322 2.50639386,1.53191489 C2.32736573,1.45896657 2.12276215,1.38601824 1.91815857,1.38601824 L1.91815857,1.38601824 C1.73913043,1.36170213 1.53452685,1.43465046 1.30434783,1.50759878 C0.895140665,1.65349544 0.409207161,1.7993921 0.153452685,1.33738602 C0.0255754476,1.11854103 0.0255754476,0.85106383 0.153452685,0.583586626 C0.306905371,0.316109422 0.588235294,0.121580547 0.895140665,0.0972644377 L0.895140665,0.0972644377 L2.65984655,0.0243161094 L2.68542199,0.0243161094 C3.1202046,0.194528875 3.63171355,0.534954407 3.7084399,0.899696049 C3.75959079,1.09422492 3.68286445,1.26443769 3.52941176,1.43465046 C3.37595908,1.60486322 3.19693095,1.67781155 3.04347826,1.67781155 L3.04347826,1.67781155 Z M1.91815857,1.24012158 C2.1483376,1.24012158 2.35294118,1.33738602 2.55754476,1.41033435 C2.89002558,1.53191489 3.14578005,1.65349544 3.42710997,1.36170213 C3.55498721,1.21580547 3.60613811,1.06990881 3.58056266,0.924012158 C3.50383632,0.607902736 3.04347826,0.291793313 2.6342711,0.145896657 L0.895140665,0.218844985 C0.639386189,0.243161094 0.383631714,0.41337386 0.255754476,0.632218845 C0.127877238,0.85106383 0.127877238,1.06990881 0.255754476,1.26443769 C0.460358056,1.62917933 0.84398977,1.50759878 1.25319693,1.36170213 C1.48337596,1.2887538 1.71355499,1.21580547 1.91815857,1.24012158 L1.91815857,1.24012158 Z" fill="#231F20"></path>
                                    </g>
                                    <path d="M0.84398977,0.875379939 C0.792838875,6.83619827e-14 2.5831202,-0.121580547 2.78772379,0.607902736 C2.99232737,1.36170213 0.920716113,1.53191489 0.84398977,0.875379939 C0.767263427,0.340425532 0.84398977,0.875379939 0.84398977,0.875379939 L0.84398977,0.875379939 Z" id="Shape" fill="#000000"></path>
                                </g>
                            </g>
                        </g>
                    </g>
                </g>
            </g>
        </g>
    </g>
</svg>