<?xml version="1.0" encoding="UTF-8"?>
<svg width="42px" height="44px" viewBox="0 0 42 44" version="1.1" xmlns="http://www.w3.org/2000/svg" xmlns:xlink="http://www.w3.org/1999/xlink">
    <!-- Generator: Sketch 39.1 (31720) - http://www.bohemiancoding.com/sketch -->
    <title>Group + Group</title>
    <desc>Created with Sketch.</desc>
    <defs></defs>
    <g id="Page-1" stroke="none" stroke-width="1" fill="none" fill-rule="evenodd">
        <g id="Landing_new-03-1920" transform="translate(-491.000000, -3104.000000)">
            <g id="Langs" transform="translate(0.000000, 2694.000000)">
                <rect id="Rectangle-56" fill="#EEECF3" x="0" y="0" width="1921" height="729"></rect>
                <g id="Group-52" transform="translate(480.000000, 399.000000)">
                    <circle id="Oval-6-Copy-3" fill="#FFFFFF" cx="32" cy="32" r="32"></circle>
                    <g id="Group-+-Group" transform="translate(11.000000, 11.000000)">
                        <g id="Group">
                            <path d="M0.0911076923,10.5359124 C0.0911076923,35.4456934 20.6959846,43.6598832 21.0429692,43.7973431 C21.3957692,43.6598832 42,35.4456934 42,10.5359124 L21.0478154,0.230919708 L0.0911076923,10.5359124 Z" id="Fill-1" fill="#E9EFF0"></path>
                            <path d="M21.0478154,0.228350365 L21.0429692,0.228350365 L21.0429692,0.230919708 L21.0219692,0.240875912 L21.0219692,43.7893139 L21.0429692,43.7973431 L21.0429692,43.7999124 L21.0455538,43.7986277 L21.0478154,43.7999124 L21.0478154,43.7973431 C21.3957692,43.6598832 42,35.4456934 42,10.5359124 L21.0478154,0.230919708 L21.0478154,0.228350365" id="Fill-2" fill="#D9DFE0"></path>
                            <path d="M21.0478154,0.230919708 L21.0478154,0.228350365 L21.0429692,0.228350365 L21.0429692,0.230919708 L0.0911076923,10.5359124 C0.0911076923,35.4456934 20.6959846,43.6598832 21.0429692,43.7973431 L21.0429692,43.7999124 L21.0455538,43.7986277 L21.0478154,43.7999124 L21.0478154,43.7973431 C21.3957692,43.6598832 42,35.4456934 42,10.5359124 L21.0478154,0.230919708 M21.0478154,40.835854 L21.0478154,40.8371387 L21.0429692,40.8371387 L21.0429692,40.835854 C20.7431538,40.7167007 2.94064615,33.617927 2.94064615,12.0971095 L21.0429692,3.19208759 L21.0429692,3.19048175 L21.0455538,3.19176642 L21.0478154,3.19048175 L21.0478154,3.19208759 L39.1504615,12.0971095 C39.1504615,33.617927 21.3476308,40.7167007 21.0478154,40.835854" id="Fill-3" fill="#F2BA3A"></path>
                            <path d="M21.0478154,2.16145985 L21.0478154,2.15985401 L21.0436154,2.15985401 L21.0436154,2.16145985 L1.9488,11.5533723 C1.9488,34.2551241 20.7266769,41.7412263 21.0436154,41.8664818 L21.0436154,41.8684088 L21.0455538,41.8671241 L21.0478154,41.8684088 L21.0478154,41.8664818 C21.3647538,41.7412263 40.1423077,34.2551241 40.1423077,11.5533723 L21.0478154,2.16145985 M21.0478154,40.8535182 L21.0478154,40.8548029 L21.0429692,40.8548029 L21.0429692,40.8535182 C20.7431538,40.734365 2.92384615,33.6285255 2.92384615,12.0877956 L21.0429692,3.17474453 L21.0429692,3.17281752 L21.0455538,3.17410219 L21.0478154,3.17281752 L21.0478154,3.17474453 L39.1672615,12.0877956 C39.1672615,33.6285255 21.3482769,40.734365 21.0478154,40.8535182" id="Fill-4" fill="#E1A622"></path>
                            <path d="M21.0219692,3.20236496 L39.1504615,12.0971095 C39.1504615,33.617927 21.3476308,40.7167007 21.0478154,40.835854 L21.0219692,43.7893139 C21.3957692,43.6598832 42,35.4456934 42,10.5359124 L26.0035581,2.66832151 L21.0478154,0.230919708 L21.0219692,3.20236496 Z" id="Fill-5" fill="#D39F28"></path>
                            <path d="M40.1423077,11.5533723 L21.0478154,2.16145985 L21.0478154,2.15985401 L21.0436154,2.15985401 L21.0436154,2.16145985 L21.0219692,2.17237956 L21.0219692,3.18470073 L21.0429692,3.17474453 L21.0429692,3.17281752 L21.0455538,3.17410219 L21.0478154,3.17281752 L21.0478154,3.17474453 L39.1672615,12.0877956 C39.1672615,33.6285255 21.3482769,40.734365 21.0478154,40.8535182 L21.0478154,40.8548029 L21.0429692,40.8548029 L21.0429692,40.8535182 L21.0219692,40.8448467 L21.0219692,41.8578102 L21.0436154,41.8664818 L21.0436154,41.8684088 L21.0455538,41.8671241 L21.0478154,41.8684088 L21.0478154,41.8664818 C21.3647538,41.7412263 40.1423077,34.2551241 40.1423077,11.5533723" id="Fill-6" fill="#B8881B"></path>
                            <polyline id="Fill-7" fill="#FFDA83" points="2.92384615 12.0877956 1.9488 11.5533723 21.0436154 2.16145985 21.0478154 3.17474453 2.92384615 12.0877956"></polyline>
                            <path d="M40.1423077,11.5533723 L39.1672615,12.0877956 C39.1672615,33.6285255 21.3482769,40.734365 21.0478154,40.8535182 L21.0478154,40.8548029 L21.0429692,40.8548029 L21.0429692,40.8535182 L21.0219692,40.8448467 L21.0219692,41.8578102 L21.0436154,41.8664818 L21.0436154,41.8684088 L21.0455538,41.8671241 L21.0478154,41.8684088 L21.0478154,41.8664818 C21.3647538,41.7412263 40.1423077,34.2551241 40.1423077,11.5533723" id="Fill-8" fill="#FFD983"></path>
                        </g>
                        <g id="Group" transform="translate(11.000000, 11.000000)">
                            <path d="M7.97730408,1.03824451 L7.97730408,15.7245141 C7.97730408,18.3468339 6.66633229,19.6581818 4.04363636,19.6581818 C1.42112853,19.6581818 0.109780564,18.3468339 0.109780564,15.7245141 L0.109780564,15.0688401 L2.73247649,15.0688401 L2.73247649,15.7245141 C2.73247649,16.5987461 3.16940439,17.0358621 4.04363636,17.0358621 C4.91768025,17.0358621 5.35498433,16.5987461 5.35498433,15.7245141 L5.35498433,1.03824451 L7.97730408,1.03824451" id="Fill-19" fill="#9BA3A8"></path>
                            <path d="M14.3312853,14.8064577 L14.3312853,15.4621317 C14.3312853,16.3361755 14.7685893,16.7732915 15.6426332,16.7732915 C16.5168652,16.7732915 16.9537931,16.3361755 16.9537931,15.4621317 L16.9537931,14.4131661 C16.9537931,13.189279 16.0797492,11.9655799 14.3312853,10.7413166 C12.5831975,9.51761755 11.7089655,7.94426332 11.7089655,6.02106583 L11.7089655,4.97191223 C11.7089655,2.34940439 13.0201254,1.03824451 15.6426332,1.03824451 C18.2651411,1.03824451 19.5763009,2.34978056 19.5763009,4.97210031 L19.5763009,5.62758621 L16.9537931,5.62758621 L16.9537931,4.97210031 C16.9537931,4.09786834 16.5168652,3.66075235 15.6426332,3.66075235 C14.7685893,3.66075235 14.3312853,4.09786834 14.3312853,4.97191223 L14.3312853,6.02106583 C14.3312853,7.24495298 15.2058934,8.46884013 16.9537931,9.69253918 C18.7024451,10.9164263 19.5763009,12.4903448 19.5763009,14.4131661 L19.5763009,15.4621317 C19.5763009,18.0842633 18.2651411,19.3957994 15.6426332,19.3957994 C13.0201254,19.3957994 11.7089655,18.0842633 11.7089655,15.4621317 L11.7089655,14.8064577 L14.3312853,14.8064577 Z" id="Fill-20" fill="#9BA3A8"></path>
                            <path d="M7.97730408,0.662068966 L7.97730408,15.3483386 C7.97730408,17.9706583 6.66633229,19.2820063 4.04363636,19.2820063 C1.42112853,19.2820063 0.109780564,17.9706583 0.109780564,15.3483386 L0.109780564,14.6926646 L2.73247649,14.6926646 L2.73247649,15.3483386 C2.73247649,16.2225705 3.16940439,16.6596865 4.04363636,16.6596865 C4.91768025,16.6596865 5.35498433,16.2225705 5.35498433,15.3483386 L5.35498433,0.662068966 L7.97730408,0.662068966" id="Fill-21" fill="#F0BC44"></path>
                            <path d="M11.7089655,14.4302821 L14.3312853,14.4302821 L14.3312853,15.0859561 C14.3312853,15.96 14.7685893,16.397116 15.6426332,16.397116 C16.5168652,16.397116 16.9537931,15.96 16.9537931,15.0859561 L16.9537931,14.0369906 C16.9537931,12.8131034 16.0797492,11.5894044 14.3312853,10.3651411 C12.5831975,9.14144201 11.7089655,7.56808777 11.7089655,5.64489028 L11.7089655,4.59573668 C11.7089655,1.97322884 13.0201254,0.662068966 15.6426332,0.662068966 C18.2651411,0.662068966 19.5763009,1.97360502 19.5763009,4.59592476 L19.5763009,5.25141066 L16.9537931,5.25141066 L16.9537931,4.59592476 C16.9537931,3.72169279 16.5168652,3.2845768 15.6426332,3.2845768 C14.7685893,3.2845768 14.3312853,3.72169279 14.3312853,4.59573668 L14.3312853,5.64489028 C14.3312853,6.86877743 15.2058934,8.09266458 16.9537931,9.31636364 C18.7024451,10.5402508 19.5763009,12.1141693 19.5763009,14.0369906 L19.5763009,15.0859561 C19.5763009,17.7080878 18.2651411,19.0196238 15.6426332,19.0196238 C13.0201254,19.0196238 11.7089655,17.7080878 11.7089655,15.0859561 L11.7089655,14.4302821" id="Fill-22" fill="#E1B248"></path>
                        </g>
                    </g>
                </g>
            </g>
        </g>
    </g>
</svg>