<?xml version="1.0" encoding="UTF-8"?>
<svg width="42px" height="44px" viewBox="0 0 42 44" version="1.1" xmlns="http://www.w3.org/2000/svg" xmlns:xlink="http://www.w3.org/1999/xlink">
    <!-- Generator: Sketch 39.1 (31720) - http://www.bohemiancoding.com/sketch -->
    <title>Group 2</title>
    <desc>Created with Sketch.</desc>
    <defs></defs>
    <g id="Page-1" stroke="none" stroke-width="1" fill="none" fill-rule="evenodd">
        <g id="Landing_new-03-1920" transform="translate(-1386.000000, -3104.000000)">
            <g id="Langs" transform="translate(0.000000, 2694.000000)">
                <rect id="Rectangle-56" fill="#EEECF3" x="0" y="0" width="1921" height="729"></rect>
                <g id="Group-60" transform="translate(1375.000000, 399.000000)">
                    <circle id="Oval-6-Copy-20" fill="#FFFFFF" cx="32" cy="32" r="32"></circle>
                    <g id="Group-2" transform="translate(11.000000, 11.000000)">
                        <g id="Group-+-Group-+-Group">
                            <g id="Group-+-Group">
                                <g id="Group">
                                    <path d="M0.0911076923,10.5359124 C0.0911076923,35.4456934 20.6959846,43.6598832 21.0429692,43.7973431 C21.3957692,43.6598832 42,35.4456934 42,10.5359124 L21.0478154,0.230919708 L0.0911076923,10.5359124 Z" id="Fill-1" fill="#F6F5F5"></path>
                                    <path d="M21.0478154,0.228350365 L21.0429692,0.228350365 L21.0429692,0.230919708 L21.0219692,0.240875912 L21.0219692,43.7893139 L21.0429692,43.7973431 L21.0429692,43.7999124 L21.0455538,43.7986277 L21.0478154,43.7999124 L21.0478154,43.7973431 C21.3957692,43.6598832 42,35.4456934 42,10.5359124 L21.0478154,0.230919708 L21.0478154,0.228350365" id="Fill-2" fill="#AEAEAE" opacity="0.125291511"></path>
                                    <path d="M21.0478154,0.230919708 L21.0478154,0.228350365 L21.0429692,0.228350365 L21.0429692,0.230919708 L0.0911076923,10.5359124 C0.0911076923,35.4456934 20.6959846,43.6598832 21.0429692,43.7973431 L21.0429692,43.7999124 L21.0455538,43.7986277 L21.0478154,43.7999124 L21.0478154,43.7973431 C21.3957692,43.6598832 42,35.4456934 42,10.5359124 L21.0478154,0.230919708 M21.0478154,40.835854 L21.0478154,40.8371387 L21.0429692,40.8371387 L21.0429692,40.835854 C20.7431538,40.7167007 2.94064615,33.617927 2.94064615,12.0971095 L21.0429692,3.19208759 L21.0429692,3.19048175 L21.0455538,3.19176642 L21.0478154,3.19048175 L21.0478154,3.19208759 L39.1504615,12.0971095 C39.1504615,33.617927 21.3476308,40.7167007 21.0478154,40.835854" id="Fill-3" fill="#6198BD"></path>
                                    <path d="M21.0478154,2.16145985 L21.0478154,2.15985401 L21.0436154,2.15985401 L21.0436154,2.16145985 L1.9488,11.5533723 C1.9488,34.2551241 20.7266769,41.7412263 21.0436154,41.8664818 L21.0436154,41.8684088 L21.0455538,41.8671241 L21.0478154,41.8684088 L21.0478154,41.8664818 C21.3647538,41.7412263 40.1423077,34.2551241 40.1423077,11.5533723 L21.0478154,2.16145985 M21.0478154,40.8535182 L21.0478154,40.8548029 L21.0429692,40.8548029 L21.0429692,40.8535182 C20.7431538,40.734365 2.92384615,33.6285255 2.92384615,12.0877956 L21.0429692,3.17474453 L21.0429692,3.17281752 L21.0455538,3.17410219 L21.0478154,3.17281752 L21.0478154,3.17474453 L39.1672615,12.0877956 C39.1672615,33.6285255 21.3482769,40.734365 21.0478154,40.8535182" id="Fill-4" fill="#255C80"></path>
                                    <path d="M21.0219692,3.20236496 L39.1504615,12.0971095 C39.1504615,33.617927 21.3476308,40.7167007 21.0478154,40.835854 L21.0219692,43.7893139 C21.3957692,43.6598832 42,35.4456934 42,10.5359124 L26.0035581,2.66832151 L21.0478154,0.230919708 L21.0219692,3.20236496 Z" id="Fill-5" fill="#255C80"></path>
                                    <path d="M40.1423077,11.5533723 L21.0478154,2.16145985 L21.0478154,2.15985401 L21.0436154,2.15985401 L21.0436154,2.16145985 L21.0219692,2.17237956 L21.0219692,3.18470073 L21.0429692,3.17474453 L21.0429692,3.17281752 L21.0455538,3.17410219 L21.0478154,3.17281752 L21.0478154,3.17474453 L39.1672615,12.0877956 C39.1672615,33.6285255 21.3482769,40.734365 21.0478154,40.8535182 L21.0478154,40.8548029 L21.0429692,40.8548029 L21.0429692,40.8535182 L21.0219692,40.8448467 L21.0219692,41.8578102 L21.0436154,41.8664818 L21.0436154,41.8684088 L21.0455538,41.8671241 L21.0478154,41.8684088 L21.0478154,41.8664818 C21.3647538,41.7412263 40.1423077,34.2551241 40.1423077,11.5533723" id="Fill-6" fill="#1D4967"></path>
                                    <polyline id="Fill-7" fill="#78B8E2" points="2.92384615 12.0877956 1.9488 11.5533723 21.0436154 2.16145985 21.0478154 3.17474453 2.92384615 12.0877956"></polyline>
                                    <path d="M40.1423077,11.5533723 L39.1672615,12.0877956 C39.1672615,33.6285255 21.3482769,40.734365 21.0478154,40.8535182 L21.0478154,40.8548029 L21.0429692,40.8548029 L21.0429692,40.8535182 L21.0219692,40.8448467 L21.0219692,41.8578102 L21.0436154,41.8664818 L21.0436154,41.8684088 L21.0455538,41.8671241 L21.0478154,41.8684088 L21.0478154,41.8664818 C21.3647538,41.7412263 40.1423077,34.2551241 40.1423077,11.5533723" id="Fill-8" fill="#78B7E2"></path>
                                </g>
                            </g>
                        </g>
                        <g id="Page-1" transform="translate(12.000000, 9.000000)" fill="#5382A1">
                            <path d="M20.2918,19.938 C20.4448,19.764 20.5208,19.542 20.5058,19.311 C20.4908,19.081 20.3878,18.871 20.2138,18.719 L16.4898,15.443 L18.9918,14.842 L17.5518,13.741 C16.5038,12.938 14.6298,11.551 13.7048,11.156 C13.6058,10.914 13.4678,10.419 13.3548,10.016 L13.2108,10.057 L13.2108,10.057 L13.3448,9.979 C12.8968,8.37 12.2228,5.94 10.6098,4.267 C8.8628,2.453 7.1218,1.229 4.3068,1.15 C3.5918,1.13 3.0478,0.792 2.5618,0.49 C2.0408,0.165 1.1658,-0.376 0.4418,0.393 C0.2818,0.563 -0.0522,0.918 0.0098,1.314 C-0.0112,1.571 0.0008,1.894 0.0488,2.303 C0.1788,3.426 0.6628,4.084 1.1888,4.711 C1.3608,4.924 1.7228,5.928 2.2708,7.71 C2.3488,7.963 2.4118,8.168 2.4548,8.296 C2.4528,8.439 2.4258,8.761 2.4058,9 C2.2428,10.957 2.1758,12.784 3.1308,13.641 C3.7078,14.158 4.2738,14.04 4.4888,13.966 C4.8978,13.83 5.2518,13.481 5.5438,12.927 C6.3128,14.042 7.3138,15.356 7.9988,15.745 C8.1078,15.806 8.2288,15.843 8.3738,15.855 C8.3748,15.857 8.3768,15.858 8.3778,15.859 C8.4348,15.916 8.5218,15.926 8.5908,15.883 L8.7018,15.806 L8.6718,15.695 C8.6688,15.685 8.6668,15.676 8.6628,15.668 C8.8048,15.379 8.7988,14.955 8.6438,14.716 C8.5458,14.565 8.3948,14.493 8.2418,14.511 C8.0318,14.455 7.3248,13.316 6.5058,11.997 C6.2878,11.646 6.0508,11.264 5.8058,10.878 L4.8888,8.525 L4.4388,10.794 C4.3658,11.163 4.2388,11.582 4.1088,11.903 C3.9628,11.112 4.0838,9.67 4.1278,9.141 C4.1898,8.385 4.2168,8.071 4.1038,7.781 C4.0758,7.709 4.0198,7.524 3.9438,7.275 L3.9188,7.194 C3.3168,5.233 2.9148,4.081 2.5148,3.604 C2.1108,3.122 1.8398,2.756 1.7648,2.105 C1.7608,2.076 1.7578,2.049 1.7558,2.023 C2.3208,2.372 3.1448,2.846 4.2588,2.877 C6.4038,2.937 7.8528,3.595 9.4228,5.227 C10.6028,6.452 11.1548,8.498 11.5588,9.992 L11.6828,10.446 C12.0538,11.784 12.2778,12.591 13.0268,12.739 C13.2808,12.815 14.8528,13.46 15.9108,14.129 L12.7708,14.518 L20.2918,19.938 Z" id="Fill-1"></path>
                            <path d="M3.3495,3.2329 C3.0705,3.6319 3.2985,4.2539 3.6815,4.5219 L3.8245,4.6219 C4.2005,4.8829 4.8985,5.3709 4.9625,5.5369 C5.1405,5.9819 5.2985,6.1909 5.7635,6.2499 C5.8005,6.2539 5.8365,6.2559 5.8725,6.2559 C6.2295,6.2559 6.3135,6.1879 6.3425,5.8679 C6.3465,5.8269 6.3505,5.7779 6.3575,5.7229 C6.4985,4.6119 5.6145,3.3409 4.4875,3.0499 C4.1065,2.9529 3.6335,2.8289 3.3495,3.2329" id="Fill-4"></path>
                        </g>
                    </g>
                </g>
            </g>
        </g>
    </g>
</svg>