<?xml version="1.0" encoding="UTF-8"?>
<svg width="42px" height="44px" viewBox="0 0 42 44" version="1.1" xmlns="http://www.w3.org/2000/svg" xmlns:xlink="http://www.w3.org/1999/xlink">
    <!-- Generator: Sketch 39.1 (31720) - http://www.bohemiancoding.com/sketch -->
    <title>pyth3</title>
    <desc>Created with Sketch.</desc>
    <defs></defs>
    <g id="Page-1" stroke="none" stroke-width="1" fill="none" fill-rule="evenodd">
        <g id="Landing_new-03-1920" transform="translate(-1477.000000, -2963.000000)">
            <g id="Langs" transform="translate(0.000000, 2694.000000)">
                <g id="Group-43" transform="translate(1466.000000, 259.000000)">
                    <g id="pyth3" transform="translate(11.000000, 10.000000)">
                        <g id="Group-+-Group">
                            <g id="Group">
                                <path d="M0.0911076923,10.5359124 C0.0911076923,35.4456934 20.6959846,43.6598832 21.0429692,43.7973431 C21.3957692,43.6598832 42,35.4456934 42,10.5359124 L21.0478154,0.230919708 L0.0911076923,10.5359124 Z" id="Fill-1" fill="#E9EFF0"></path>
                                <path d="M21.0478154,0.228350365 L21.0429692,0.228350365 L21.0429692,0.230919708 L21.0219692,0.240875912 L21.0219692,43.7893139 L21.0429692,43.7973431 L21.0429692,43.7999124 L21.0455538,43.7986277 L21.0478154,43.7999124 L21.0478154,43.7973431 C21.3957692,43.6598832 42,35.4456934 42,10.5359124 L21.0478154,0.230919708 L21.0478154,0.228350365" id="Fill-2" fill="#D9DFE0"></path>
                                <path d="M21.0478154,0.230919708 L21.0478154,0.228350365 L21.0429692,0.228350365 L21.0429692,0.230919708 L0.0911076923,10.5359124 C0.0911076923,35.4456934 20.6959846,43.6598832 21.0429692,43.7973431 L21.0429692,43.7999124 L21.0455538,43.7986277 L21.0478154,43.7999124 L21.0478154,43.7973431 C21.3957692,43.6598832 42,35.4456934 42,10.5359124 L21.0478154,0.230919708 M21.0478154,40.835854 L21.0478154,40.8371387 L21.0429692,40.8371387 L21.0429692,40.835854 C20.7431538,40.7167007 2.94064615,33.617927 2.94064615,12.0971095 L21.0429692,3.19208759 L21.0429692,3.19048175 L21.0455538,3.19176642 L21.0478154,3.19048175 L21.0478154,3.19208759 L39.1504615,12.0971095 C39.1504615,33.617927 21.3476308,40.7167007 21.0478154,40.835854" id="Fill-3" fill="#3498DB"></path>
                                <path d="M21.0478154,2.16145985 L21.0478154,2.15985401 L21.0436154,2.15985401 L21.0436154,2.16145985 L1.9488,11.5533723 C1.9488,34.2551241 20.7266769,41.7412263 21.0436154,41.8664818 L21.0436154,41.8684088 L21.0455538,41.8671241 L21.0478154,41.8684088 L21.0478154,41.8664818 C21.3647538,41.7412263 40.1423077,34.2551241 40.1423077,11.5533723 L21.0478154,2.16145985 M21.0478154,40.8535182 L21.0478154,40.8548029 L21.0429692,40.8548029 L21.0429692,40.8535182 C20.7431538,40.734365 2.92384615,33.6285255 2.92384615,12.0877956 L21.0429692,3.17474453 L21.0429692,3.17281752 L21.0455538,3.17410219 L21.0478154,3.17281752 L21.0478154,3.17474453 L39.1672615,12.0877956 C39.1672615,33.6285255 21.3482769,40.734365 21.0478154,40.8535182" id="Fill-4" fill="#3483B8"></path>
                                <path d="M21.0219692,3.20236496 L39.1504615,12.0971095 C39.1504615,33.617927 21.3476308,40.7167007 21.0478154,40.835854 L21.0219692,43.7893139 C21.3957692,43.6598832 42,35.4456934 42,10.5359124 L26.0035581,2.66832151 L21.0478154,0.230919708 L21.0219692,3.20236496 Z" id="Fill-5" fill="#1478BA"></path>
                                <path d="M40.1423077,11.5533723 L21.0478154,2.16145985 L21.0478154,2.15985401 L21.0436154,2.15985401 L21.0436154,2.16145985 L21.0219692,2.17237956 L21.0219692,3.18470073 L21.0429692,3.17474453 L21.0429692,3.17281752 L21.0455538,3.17410219 L21.0478154,3.17281752 L21.0478154,3.17474453 L39.1672615,12.0877956 C39.1672615,33.6285255 21.3482769,40.734365 21.0478154,40.8535182 L21.0478154,40.8548029 L21.0429692,40.8548029 L21.0429692,40.8535182 L21.0219692,40.8448467 L21.0219692,41.8578102 L21.0436154,41.8664818 L21.0436154,41.8684088 L21.0455538,41.8671241 L21.0478154,41.8684088 L21.0478154,41.8664818 C21.3647538,41.7412263 40.1423077,34.2551241 40.1423077,11.5533723" id="Fill-6" fill="#2A6A96"></path>
                                <polyline id="Fill-7" fill="#3AA8F2" points="2.92384615 12.0877956 1.9488 11.5533723 21.0436154 2.16145985 21.0478154 3.17474453 2.92384615 12.0877956"></polyline>
                                <path d="M40.1423077,11.5533723 L39.1672615,12.0877956 C39.1672615,33.6285255 21.3482769,40.734365 21.0478154,40.8535182 L21.0478154,40.8548029 L21.0429692,40.8548029 L21.0429692,40.8535182 L21.0219692,40.8448467 L21.0219692,41.8578102 L21.0436154,41.8664818 L21.0436154,41.8684088 L21.0455538,41.8671241 L21.0478154,41.8684088 L21.0478154,41.8664818 C21.3647538,41.7412263 40.1423077,34.2551241 40.1423077,11.5533723" id="Fill-8" fill="#3498DB"></path>
                            </g>
                        </g>
                        <g id="Group" transform="translate(10.000000, 10.000000)">
                            <path d="M13.1721167,5.63970439 L4.02266802,5.63970439 C2.49560206,5.63970439 1.15831204,6.56288501 0.739748783,8.31929268 C0.257302243,10.3323679 0.236007816,11.5886337 0.739748783,13.6908058 C1.11350857,15.2554838 2.00565988,16.3703941 3.53272584,16.3703941 L4.9986342,16.3703941 L4.9986342,13.9556976 C4.9986342,11.4095833 6.84017626,10.3297978 8.62226427,10.3297978 L13.1721167,10.3297978 L13.1721167,5.63970439" id="Fill-7-Copy" fill="#3498DB"></path>
                            <path d="M8.55821063,0.27093275 C6.33490209,0.66587175 5.9309894,1.49293056 5.9309894,3.0182004 L5.9309894,4.34728579 L11.9583344,4.34728579 L11.9583344,0.228097717 C11.0801522,0.235122663 9.29755314,0.13934353 8.55821063,0.27093275 L8.55821063,0.27093275 Z M8.1200565,3.14242199 C7.73181651,3.14242199 7.41734041,2.82612811 7.41734041,2.43564395 C7.41734041,2.04533114 7.73181651,1.72886592 8.1200565,1.72886592 C8.50812614,1.72886592 8.8227726,2.04533114 8.8227726,2.43564395 C8.8227726,2.82612811 8.50812614,3.14242199 8.1200565,3.14242199 L8.1200565,3.14242199 Z" id="Fill-8-Copy" fill="#3498DB"></path>
                            <path d="M11.0000852,10.3320252 L13.3240738,10.3320252 C14.7620438,10.3320252 15.4403991,9.60982654 15.4403991,8.16337316 L15.4403991,3.13813849 C15.4403991,1.70813376 14.7134926,0.866339702 13.3240738,0.456494111 C12.5073899,0.215075867 11.8385745,0.243689669 11.0000852,0.228097717 L11.0000852,10.3320252" id="Fill-9" fill="#1378BA"></path>
                            <path d="M8.82805361,16.1860321 L17.9775023,16.1860321 C19.5045683,16.1860321 20.841688,15.2628515 21.2602512,13.5064438 C21.7426978,11.4933686 21.7639922,10.2371028 21.2602512,8.1349307 C20.8866618,6.57025263 19.9945105,5.45517107 18.4674445,5.45517107 L17.0013658,5.45517107 L17.0013658,7.87003886 C17.0013658,10.4161532 15.1599941,11.4959387 13.3779061,11.4959387 L8.82805361,11.4959387 L8.82805361,16.1860321" id="Fill-10" fill="#3498DB"></path>
                            <path d="M13.4419597,21.5548037 C15.6652683,21.1598647 16.069181,20.3326346 16.069181,18.8075361 L16.069181,17.4784507 L10.041836,17.4784507 L10.041836,21.5976387 C10.9200181,21.5906138 12.7026172,21.6863929 13.4419597,21.5548037 L13.4419597,21.5548037 Z M13.8801139,18.6833145 C14.2681835,18.6833145 14.5828299,18.9996084 14.5828299,19.3900925 C14.5828299,19.7804053 14.2681835,20.0968705 13.8801139,20.0968705 C13.4920442,20.0968705 13.1773978,19.7804053 13.1773978,19.3900925 C13.1773978,18.9996084 13.4920442,18.6833145 13.8801139,18.6833145 L13.8801139,18.6833145 Z" id="Fill-11" fill="#3498DB"></path>
                            <path d="M10.9431865,11.4937113 L8.67592623,11.4937113 C7.23812651,11.4937113 6.55960088,12.2160813 6.55960088,13.6623633 L6.55960088,18.687598 C6.55960088,20.1176027 7.2866778,20.9593968 8.67592623,21.3692424 C9.49261009,21.6104893 10.1046971,21.5818755 10.9431865,21.5976387 L10.9431865,11.4937113" id="Fill-12" fill="#1378BA"></path>
                        </g>
                        <g id="Oval-1-+-2" transform="translate(21.000000, 24.000000)">
                            <circle id="Oval-1" stroke="#1478BA" fill="#FFFFFF" cx="8" cy="10" r="8"></circle>
                            <text id="3" font-family="Roboto-Black, Roboto" font-size="12" font-weight="700" fill="#E74C3C">
                                <tspan x="4.52539063" y="13.8888889">3</tspan>
                            </text>
                        </g>
                    </g>
                </g>
            </g>
        </g>
    </g>
</svg>