<?xml version="1.0" encoding="UTF-8"?>
<svg width="42px" height="44px" viewBox="0 0 42 44" version="1.1" xmlns="http://www.w3.org/2000/svg" xmlns:xlink="http://www.w3.org/1999/xlink">
    <!-- Generator: Sketch 39.1 (31720) - http://www.bohemiancoding.com/sketch -->
    <title>Group + Group + Group + Path 2203 + Fill 2</title>
    <desc>Created with Sketch.</desc>
    <defs>
        <linearGradient x1="19.6732229%" y1="4.54458283%" x2="96.6328559%" y2="104.07889%" id="linearGradient-1">
            <stop stop-color="#FFA428" offset="0%"></stop>
            <stop stop-color="#FF1C1D" offset="100%"></stop>
        </linearGradient>
        <linearGradient x1="41.3585346%" y1="10.5983932%" x2="70.8771845%" y2="110.912856%" id="linearGradient-2">
            <stop stop-color="#FFA829" offset="0%"></stop>
            <stop stop-color="#FF001B" offset="100%"></stop>
        </linearGradient>
    </defs>
    <g id="Page-1" stroke="none" stroke-width="1" fill="none" fill-rule="evenodd">
        <g id="Landing_new-03-1920" transform="translate(-1207.000000, -3104.000000)">
            <g id="Langs" transform="translate(0.000000, 2694.000000)">
                <rect id="Rectangle-56" fill="#EEECF3" x="0" y="0" width="1921" height="729"></rect>
                <g id="Group-47" transform="translate(1196.000000, 399.000000)">
                    <circle id="Oval-6-Copy-15" fill="#FFFFFF" cx="32" cy="32" r="32"></circle>
                    <g id="Group-+-Group-+-Group-+-Path-2203-+-Fill-2" transform="translate(11.000000, 11.000000)">
                        <g id="Group-+-Group-+-Group">
                            <g id="Group-+-Group">
                                <g id="Group">
                                    <path d="M0.0911076923,10.5359124 C0.0911076923,35.4456934 20.6959846,43.6598832 21.0429692,43.7973431 C21.3957692,43.6598832 42,35.4456934 42,10.5359124 L21.0478154,0.230919708 L0.0911076923,10.5359124 Z" id="Fill-1" fill="#FFFFFF"></path>
                                    <path d="M21.0478154,0.230919708 L21.0478154,0.228350365 L21.0429692,0.228350365 L21.0429692,0.230919708 L0.0911076923,10.5359124 C0.0911076923,35.4456934 20.6959846,43.6598832 21.0429692,43.7973431 L21.0429692,43.7999124 L21.0455538,43.7986277 L21.0478154,43.7999124 L21.0478154,43.7973431 C21.3957692,43.6598832 42,35.4456934 42,10.5359124 L21.0478154,0.230919708 M21.0478154,40.835854 L21.0478154,40.8371387 L21.0429692,40.8371387 L21.0429692,40.835854 C20.7431538,40.7167007 2.94064615,33.617927 2.94064615,12.0971095 L21.0429692,3.19208759 L21.0429692,3.19048175 L21.0455538,3.19176642 L21.0478154,3.19048175 L21.0478154,3.19208759 L39.1504615,12.0971095 C39.1504615,33.617927 21.3476308,40.7167007 21.0478154,40.835854" id="Fill-3" fill="url(#linearGradient-1)"></path>
                                    <path d="M21.0478154,2.16145985 L21.0478154,2.15985401 L21.0436154,2.15985401 L21.0436154,2.16145985 L1.9488,11.5533723 C1.9488,34.2551241 20.7266769,41.7412263 21.0436154,41.8664818 L21.0436154,41.8684088 L21.0455538,41.8671241 L21.0478154,41.8684088 L21.0478154,41.8664818 C21.3647538,41.7412263 40.1423077,34.2551241 40.1423077,11.5533723 L21.0478154,2.16145985 M21.0478154,40.8535182 L21.0478154,40.8548029 L21.0429692,40.8548029 L21.0429692,40.8535182 C20.7431538,40.734365 2.92384615,33.6285255 2.92384615,12.0877956 L21.0429692,3.17474453 L21.0429692,3.17281752 L21.0455538,3.17410219 L21.0478154,3.17281752 L21.0478154,3.17474453 L39.1672615,12.0877956 C39.1672615,33.6285255 21.3482769,40.734365 21.0478154,40.8535182" id="Fill-4" fill="#EF4734"></path>
                                    <path d="M21.0219692,3.20236496 L39.1504615,12.0971095 C39.1504615,33.617927 21.3476308,40.7167007 21.0478154,40.835854 L21.0219692,43.7893139 C21.3957692,43.6598832 42,35.4456934 42,10.5359124 L26.0035581,2.66832151 L21.0478154,0.230919708 L21.0219692,3.20236496 Z" id="Fill-5" fill="#000000" opacity="0.0956156716"></path>
                                    <path d="M40.1423077,11.5533723 L21.0478154,2.16145985 L21.0478154,2.15985401 L21.0436154,2.15985401 L21.0436154,2.16145985 L21.0219692,2.17237956 L21.0219692,3.18470073 L21.0429692,3.17474453 L21.0429692,3.17281752 L21.0455538,3.17410219 L21.0478154,3.17281752 L21.0478154,3.17474453 L39.1672615,12.0877956 C39.1672615,33.6285255 21.3482769,40.734365 21.0478154,40.8535182 L21.0478154,40.8548029 L21.0429692,40.8548029 L21.0429692,40.8535182 L21.0219692,40.8448467 L21.0219692,41.8578102 L21.0436154,41.8664818 L21.0436154,41.8684088 L21.0455538,41.8671241 L21.0478154,41.8684088 L21.0478154,41.8664818 C21.3647538,41.7412263 40.1423077,34.2551241 40.1423077,11.5533723" id="Fill-6" fill="#EE4735"></path>
                                    <polyline id="Fill-7" fill="#EA845E" points="2.92384615 12.0877956 1.9488 11.5533723 21.0436154 2.16145985 21.0478154 3.17474453 2.92384615 12.0877956"></polyline>
                                    <path d="M40.1423077,11.5533723 L39.1672615,12.0877956 C39.1672615,33.6285255 21.3482769,40.734365 21.0478154,40.8535182 L21.0478154,40.8548029 L21.0429692,40.8548029 L21.0429692,40.8535182 L21.0219692,40.8448467 L21.0219692,41.8578102 L21.0436154,41.8664818 L21.0436154,41.8684088 L21.0455538,41.8671241 L21.0478154,41.8684088 L21.0478154,41.8664818 C21.3647538,41.7412263 40.1423077,34.2551241 40.1423077,11.5533723" id="Fill-8" fill="#FF9268"></path>
                                </g>
                            </g>
                        </g>
                        <path d="M18.6922291,16.1641433 C18.0891612,15.6328101 12.4313372,10.8521568 12.4313372,10.8521568 C12.4313372,10.8521568 14.1321624,13.6727878 15.7060805,15.4560096 C17.2799986,17.2392313 18.9553596,19.1707875 18.9553596,19.1707875 C18.9553596,19.1707875 15.3552743,16.7906051 13.7603431,15.5455485 C12.1654118,14.3004918 9.22046148,11.9101652 9.22046148,11.9101652 C9.22046148,11.9101652 10.1244422,14.5143501 14.7662843,18.9304298 C19.4081263,23.3465096 20.8225306,24.565481 20.8225306,24.565481 C20.8225306,24.565481 19.1567963,26.1331753 15.4653088,25.8227522 C11.7738214,25.5123291 10.2689466,24.8421718 8.67722425,23.9997814 C7.0855019,23.157391 7,23.0061583 7,23.0061583 C7,23.0061583 9.44809268,27.8701328 14.2724228,29.6571914 C19.8965016,31.7404979 23.1704519,30.3342732 24.467023,29.826746 C25.9462357,29.247726 27.2420047,28.4035431 28.1201071,28.4035431 C29.2380496,28.4035431 29.8959794,28.846269 30.257344,29.132276 C30.6187085,29.4182829 31.9810456,30.7312443 31.9810456,30.7312443 C31.9810456,30.7312443 32.1448035,28.8398512 31.5096466,27.1951301 C30.8744896,25.550409 29.747438,24.0688247 29.747438,24.0688247 C29.747438,24.0688247 31.1001484,18.7805427 28.8341411,15.345354 C26.5681338,11.9101652 22.4750152,8.71616212 22.4750152,8.71616212 C22.4750152,8.71616212 24.8598556,13.1309998 24.8598556,15.9466621 C24.8598556,18.7623244 24.6173242,19.4593823 24.467023,20.3649157 C23.5043503,20.1525066 19.2952969,16.6954765 18.6922291,16.1641433 Z" id="Path-2203" fill="url(#linearGradient-2)"></path>
                        <path d="M21.0478154,0.228350365 L21.0429692,0.228350365 L21.0429692,0.230919708 L21.0219692,0.240875912 L21.0219692,43.7893139 L21.0429692,43.7973431 L21.0429692,43.7999124 L21.0455538,43.7986277 L21.0478154,43.7999124 L21.0478154,43.7973431 C21.3957692,43.6598832 42,35.4456934 42,10.5359124 L21.0478154,0.230919708 L21.0478154,0.228350365" id="Fill-2" fill="#000000" opacity="0.0534048507"></path>
                    </g>
                </g>
            </g>
        </g>
    </g>
</svg>