<?xml version="1.0" encoding="UTF-8"?>
<svg width="42px" height="44px" viewBox="0 0 42 44" version="1.1" xmlns="http://www.w3.org/2000/svg" xmlns:xlink="http://www.w3.org/1999/xlink">
    <!-- Generator: Sketch 39.1 (31720) - http://www.bohemiancoding.com/sketch -->
    <title>Group + Group + Group</title>
    <desc>Created with Sketch.</desc>
    <defs>
        <path d="M0.0911076923,9.55210573 C0.0911076923,32.0843693 18.7293493,39.5145546 19.0432159,39.6388946 C19.3623429,39.5145546 38,32.0843693 38,9.55210573 L19.0475995,0.230674477 L0.0911076923,9.55210573 Z" id="path-1"></path>
    </defs>
    <g id="Page-1" stroke="none" stroke-width="1" fill="none" fill-rule="evenodd">
        <g id="Landing_new-03-1920" transform="translate(-1118.000000, -2963.000000)">
            <g id="Langs" transform="translate(0.000000, 2694.000000)">
                <g id="Group-41" transform="translate(1107.000000, 259.000000)">
                    <g id="Group-+-Group-+-Group" transform="translate(11.000000, 10.000000)">
                        <g id="Group-+-Group">
                            <g id="Group">
                                <path d="M0.0911076923,10.5359124 C0.0911076923,35.4456934 20.6959846,43.6598832 21.0429692,43.7973431 C21.3957692,43.6598832 42,35.4456934 42,10.5359124 L21.0478154,0.230919708 L0.0911076923,10.5359124 Z" id="Fill-1" fill="#FFFFFF"></path>
                                <g id="Path-2143-Copy" transform="translate(2.000000, 3.000000)">
                                    <mask id="mask-2" fill="white">
                                        <use xlink:href="#path-1"></use>
                                    </mask>
                                    <use id="Mask" fill="#FFFFFF" xlink:href="#path-1"></use>
                                    <path d="M3.40698494,11.7211653 C3.40698494,11.7211653 3.70830442,11.0560232 4.0111816,10.9073593 C4.31405879,10.7586954 6.26703735,10.4815204 6.26703735,10.4815204 C6.26703735,10.4815204 6.57955286,10.0131366 6.79003839,9.84597483 C7.00052391,9.6788131 7.84402373,9.64191485 7.94371715,9.64191485 C8.04341057,9.64191485 8.48219793,9.73430651 8.48219793,9.73430651 C8.48219793,9.73430651 8.83326676,9.04891423 9.04939898,9.14860766 C9.2655312,9.24830108 9.82708556,9.88939599 9.82708556,9.88939599 C9.82708556,9.88939598 9.72271901,10.789168 9.72271901,11.0053003 C9.72271901,11.2214326 10.8063982,14.6821768 11.1149221,15.0775429 C11.423446,15.472909 12.6927847,17.3269732 13.2229901,17.3269731 C13.7531956,17.326973 15.6932257,15.768582 15.8226129,15.4230624 C15.9520002,15.0775428 16.9191432,14.1047533 17.2333138,13.9135443 C17.5474844,13.7223354 19.4866383,13.4580117 19.9558983,13.2659265 C20.4251584,13.0738413 23.7085184,10.4742186 24.102911,10.4742186 C24.4973036,10.4742186 26.5482232,12.3459043 26.961211,12.6978493 C27.3741988,13.0497942 27.9044042,13.9986343 28.169507,13.9986342 C28.4346097,13.9986341 30.8495465,15.5002665 31.2568876,15.9708894 C31.6642287,16.4415124 33.0315084,18.305507 33.0315084,18.5585374 C33.0315084,18.8115677 33.4934667,21.0914708 33.4934667,21.498033 C33.4934667,21.9045951 34.257426,25.3494703 34.257426,25.3494703 L33.228364,24.6778053 C33.228364,24.6778053 33.3817984,26.4145544 33.8196122,26.8950104 C34.257426,27.3754664 35.082428,28.8102146 35.082428,28.9524528 C35.082428,29.0946911 34.3987881,34.3473858 34.3987881,34.8479947 C34.3987881,35.3486036 34.7571587,37.0493306 34.7571587,37.0493306 C34.7571587,37.0493306 33.8896118,37.6904256 33.0637335,37.6904255 C32.2378553,37.6904254 31.3870537,37.6599528 31.3870537,37.6599528 C31.3870537,37.6599528 31.6642287,36.858998 32.0161737,36.6927124 C32.3681188,36.5264268 33.3168614,36.076541 33.3168614,35.7005487 C33.3168614,35.3245564 33.2872649,30.5701345 33.0831076,29.7612936 C32.8789502,28.9524527 31.8258411,26.4023847 31.8258411,26.4023847 C31.8258411,26.4023847 32.0354504,29.6671496 31.7888455,29.9941712 C31.5422406,30.3211928 28.8445794,35.6046523 28.9554689,36.1486823 C29.0663583,36.6927123 29.214146,37.47994 29.214146,37.47994 L26.2449566,37.6526511 C26.2449566,37.6526511 26.7051625,36.6853134 27.0699586,36.29647 C27.4347547,35.9076266 28.9554689,32.929383 28.9554689,32.929383 C28.9554689,32.929383 29.8191215,26.0457666 29.6713338,25.6976184 C29.5235461,25.3494702 28.3834973,21.0849479 28.3834973,20.8549909 C28.3834973,20.6250339 26.3206029,22.5208642 25.8457935,22.6381791 C25.3709841,22.755494 21.3614393,23.3531679 21.3614393,23.3531679 C21.3614393,23.3531679 21.8483209,28.8473075 21.8483209,29.5622962 C21.8483209,30.2772849 22.2797091,36.8429342 22.2797091,37.341888 C22.2797091,37.8408418 22.5568841,38.3091283 22.5568841,38.3091283 L19.827874,38.5373328 C19.827874,38.5373328 19.9740067,37.661608 20.3323773,37.5017479 C20.6907479,37.3418879 21.1157106,36.9586915 21.1157106,36.4228392 C21.1157106,35.886987 20.3297486,30.331026 20.1428235,29.8626421 C19.9558983,29.3942582 18.6462539,24.0784765 18.6462539,24.0784765 C18.6462539,24.0784765 18.4125974,30.1621119 18.2212912,30.9463213 C18.0299849,31.7305307 17.4757324,36.6784984 17.4757324,37.0101932 C17.4757324,37.3418879 17.9560911,38.0891993 17.9560911,38.0891992 C17.9560911,38.0891991 14.8704629,38.0827737 14.8704629,38.0827737 C14.8704629,38.0827737 15.7453116,36.782865 16.0112905,36.7828649 C16.2772694,36.7828648 16.7946238,34.793767 16.7946238,34.3984981 C16.7946238,34.0032292 16.8887679,30.8444861 16.6966828,30.6283538 C16.5045977,30.4122215 16.35681,29.7839778 16.35681,29.7839778 C16.35681,29.7839778 16.6099378,29.0319935 16.6099378,28.7853885 C16.6099378,28.5387835 16.5415933,23.7773517 16.5415933,23.7773517 L15.0015052,21.6090198 C15.0015052,21.6090198 11.5011367,21.3568656 10.7556753,20.7462433 C10.0102138,20.135621 7.14626713,13.6317936 7.14626713,13.6317936 C7.14626713,13.6317936 5.90827733,13.6695681 5.63587284,13.5458275 C5.36346835,13.4220868 5.01717001,13.3296953 5.01717001,13.3296953 L3.85132164,13.6261469 C3.85132164,13.6261469 3.14110337,13.1256354 3.14110337,13.1256353 C3.14110337,13.1256352 3.6214621,12.5824814 3.6214621,12.5824814 L2.91757202,12.1132213 L3.40698494,11.7211653 Z" fill="#368DA7" mask="url(#mask-2)"></path>
                                </g>
                                <path d="M21.0478154,0.228350365 L21.0429692,0.228350365 L21.0429692,0.230919708 L21.0219692,0.240875912 L21.0219692,43.7893139 L21.0429692,43.7973431 L21.0429692,43.7999124 L21.0455538,43.7986277 L21.0478154,43.7999124 L21.0478154,43.7973431 C21.3957692,43.6598832 42,35.4456934 42,10.5359124 L21.0478154,0.230919708 L21.0478154,0.228350365" id="Fill-2" fill="#000000" opacity="0.0534048507"></path>
                                <path d="M21.0478154,0.230919708 L21.0478154,0.228350365 L21.0429692,0.228350365 L21.0429692,0.230919708 L0.0911076923,10.5359124 C0.0911076923,35.4456934 20.6959846,43.6598832 21.0429692,43.7973431 L21.0429692,43.7999124 L21.0455538,43.7986277 L21.0478154,43.7999124 L21.0478154,43.7973431 C21.3957692,43.6598832 42,35.4456934 42,10.5359124 L21.0478154,0.230919708 M21.0478154,40.835854 L21.0478154,40.8371387 L21.0429692,40.8371387 L21.0429692,40.835854 C20.7431538,40.7167007 2.94064615,33.617927 2.94064615,12.0971095 L21.0429692,3.19208759 L21.0429692,3.19048175 L21.0455538,3.19176642 L21.0478154,3.19048175 L21.0478154,3.19208759 L39.1504615,12.0971095 C39.1504615,33.617927 21.3476308,40.7167007 21.0478154,40.835854" id="Fill-3" fill="#4CCBF1"></path>
                                <path d="M21.0478154,2.16145985 L21.0478154,2.15985401 L21.0436154,2.15985401 L21.0436154,2.16145985 L1.9488,11.5533723 C1.9488,34.2551241 20.7266769,41.7412263 21.0436154,41.8664818 L21.0436154,41.8684088 L21.0455538,41.8671241 L21.0478154,41.8684088 L21.0478154,41.8664818 C21.3647538,41.7412263 40.1423077,34.2551241 40.1423077,11.5533723 L21.0478154,2.16145985 M21.0478154,40.8535182 L21.0478154,40.8548029 L21.0429692,40.8548029 L21.0429692,40.8535182 C20.7431538,40.734365 2.92384615,33.6285255 2.92384615,12.0877956 L21.0429692,3.17474453 L21.0429692,3.17281752 L21.0455538,3.17410219 L21.0478154,3.17281752 L21.0478154,3.17474453 L39.1672615,12.0877956 C39.1672615,33.6285255 21.3482769,40.734365 21.0478154,40.8535182" id="Fill-4" fill="#46ADCB"></path>
                                <path d="M21.0219692,3.20236496 L39.1504615,12.0971095 C39.1504615,33.617927 21.3476308,40.7167007 21.0478154,40.835854 L21.0219692,43.7893139 C21.3957692,43.6598832 42,35.4456934 42,10.5359124 L26.0035581,2.66832151 L21.0478154,0.230919708 L21.0219692,3.20236496 Z" id="Fill-5" fill="#48B5D6"></path>
                                <path d="M40.1423077,11.5533723 L21.0478154,2.16145985 L21.0478154,2.15985401 L21.0436154,2.15985401 L21.0436154,2.16145985 L21.0219692,2.17237956 L21.0219692,3.18470073 L21.0429692,3.17474453 L21.0429692,3.17281752 L21.0455538,3.17410219 L21.0478154,3.17281752 L21.0478154,3.17474453 L39.1672615,12.0877956 C39.1672615,33.6285255 21.3482769,40.734365 21.0478154,40.8535182 L21.0478154,40.8548029 L21.0429692,40.8548029 L21.0429692,40.8535182 L21.0219692,40.8448467 L21.0219692,41.8578102 L21.0436154,41.8664818 L21.0436154,41.8684088 L21.0455538,41.8671241 L21.0478154,41.8684088 L21.0478154,41.8664818 C21.3647538,41.7412263 40.1423077,34.2551241 40.1423077,11.5533723" id="Fill-6" fill="#3C9DBB"></path>
                                <polyline id="Fill-7" fill="#86DAF4" points="2.92384615 12.0877956 1.9488 11.5533723 21.0436154 2.16145985 21.0478154 3.17474453 2.92384615 12.0877956"></polyline>
                                <path d="M40.1423077,11.5533723 L39.1672615,12.0877956 C39.1672615,33.6285255 21.3482769,40.734365 21.0478154,40.8535182 L21.0478154,40.8548029 L21.0429692,40.8548029 L21.0429692,40.8535182 L21.0219692,40.8448467 L21.0219692,41.8578102 L21.0436154,41.8664818 L21.0436154,41.8684088 L21.0455538,41.8671241 L21.0478154,41.8684088 L21.0478154,41.8664818 C21.3647538,41.7412263 40.1423077,34.2551241 40.1423077,11.5533723" id="Fill-8" fill="#86DBF4"></path>
                            </g>
                        </g>
                    </g>
                </g>
            </g>
        </g>
    </g>
</svg>