<?xml version="1.0" encoding="UTF-8"?>
<svg width="42px" height="44px" viewBox="0 0 42 44" version="1.1" xmlns="http://www.w3.org/2000/svg" xmlns:xlink="http://www.w3.org/1999/xlink">
    <!-- Generator: Sketch 39.1 (31720) - http://www.bohemiancoding.com/sketch -->
    <title>Group 45</title>
    <desc>Created with Sketch.</desc>
    <defs></defs>
    <g id="Page-1" stroke="none" stroke-width="1" fill="none" fill-rule="evenodd">
        <g id="Landing_new-03-1920" transform="translate(-939.000000, -3244.000000)">
            <g id="Langs" transform="translate(0.000000, 2694.000000)">
                <g id="Group-50" transform="translate(928.000000, 539.000000)">
                    <g id="Group-45" transform="translate(11.000000, 11.000000)">
                        <g id="Group-+-Group-+-Group">
                            <g id="Group-+-Group">
                                <g id="Group">
                                    <path d="M0.0911076923,10.5359124 C0.0911076923,35.4456934 20.6959846,43.6598832 21.0429692,43.7973431 C21.3957692,43.6598832 42,35.4456934 42,10.5359124 L21.0478154,0.230919708 L0.0911076923,10.5359124 Z" id="Fill-1" fill="#F6F5F5"></path>
                                    <path d="M21.0478154,0.228350365 L21.0429692,0.228350365 L21.0429692,0.230919708 L21.0219692,0.240875912 L21.0219692,43.7893139 L21.0429692,43.7973431 L21.0429692,43.7999124 L21.0455538,43.7986277 L21.0478154,43.7999124 L21.0478154,43.7973431 C21.3957692,43.6598832 42,35.4456934 42,10.5359124 L21.0478154,0.230919708 L21.0478154,0.228350365" id="Fill-2" fill="#AEAEAE" opacity="0.125291511"></path>
                                    <path d="M21.0478154,0.230919708 L21.0478154,0.228350365 L21.0429692,0.228350365 L21.0429692,0.230919708 L0.0911076923,10.5359124 C0.0911076923,35.4456934 20.6959846,43.6598832 21.0429692,43.7973431 L21.0429692,43.7999124 L21.0455538,43.7986277 L21.0478154,43.7999124 L21.0478154,43.7973431 C21.3957692,43.6598832 42,35.4456934 42,10.5359124 L21.0478154,0.230919708 M21.0478154,40.835854 L21.0478154,40.8371387 L21.0429692,40.8371387 L21.0429692,40.835854 C20.7431538,40.7167007 2.94064615,33.617927 2.94064615,12.0971095 L21.0429692,3.19208759 L21.0429692,3.19048175 L21.0455538,3.19176642 L21.0478154,3.19048175 L21.0478154,3.19208759 L39.1504615,12.0971095 C39.1504615,33.617927 21.3476308,40.7167007 21.0478154,40.835854" id="Fill-3" fill="#CF649A"></path>
                                    <path d="M21.0478154,2.16145985 L21.0478154,2.15985401 L21.0436154,2.15985401 L21.0436154,2.16145985 L1.9488,11.5533723 C1.9488,34.2551241 20.7266769,41.7412263 21.0436154,41.8664818 L21.0436154,41.8684088 L21.0455538,41.8671241 L21.0478154,41.8684088 L21.0478154,41.8664818 C21.3647538,41.7412263 40.1423077,34.2551241 40.1423077,11.5533723 L21.0478154,2.16145985 M21.0478154,40.8535182 L21.0478154,40.8548029 L21.0429692,40.8548029 L21.0429692,40.8535182 C20.7431538,40.734365 2.92384615,33.6285255 2.92384615,12.0877956 L21.0429692,3.17474453 L21.0429692,3.17281752 L21.0455538,3.17410219 L21.0478154,3.17281752 L21.0478154,3.17474453 L39.1672615,12.0877956 C39.1672615,33.6285255 21.3482769,40.734365 21.0478154,40.8535182" id="Fill-4" fill="#B73979"></path>
                                    <path d="M21.0219692,3.20236496 L39.1504615,12.0971095 C39.1504615,33.617927 21.3476308,40.7167007 21.0478154,40.835854 L21.0219692,43.7893139 C21.3957692,43.6598832 42,35.4456934 42,10.5359124 L26.0035581,2.66832151 L21.0478154,0.230919708 L21.0219692,3.20236496 Z" id="Fill-5" fill="#A52A68"></path>
                                    <path d="M40.1423077,11.5533723 L21.0478154,2.16145985 L21.0478154,2.15985401 L21.0436154,2.15985401 L21.0436154,2.16145985 L21.0219692,2.17237956 L21.0219692,3.18470073 L21.0429692,3.17474453 L21.0429692,3.17281752 L21.0455538,3.17410219 L21.0478154,3.17281752 L21.0478154,3.17474453 L39.1672615,12.0877956 C39.1672615,33.6285255 21.3482769,40.734365 21.0478154,40.8535182 L21.0478154,40.8548029 L21.0429692,40.8548029 L21.0429692,40.8535182 L21.0219692,40.8448467 L21.0219692,41.8578102 L21.0436154,41.8664818 L21.0436154,41.8684088 L21.0455538,41.8671241 L21.0478154,41.8684088 L21.0478154,41.8664818 C21.3647538,41.7412263 40.1423077,34.2551241 40.1423077,11.5533723" id="Fill-6" fill="#7C1C4D"></path>
                                    <polyline id="Fill-7" fill="#DF79AC" points="2.92384615 12.0877956 1.9488 11.5533723 21.0436154 2.16145985 21.0478154 3.17474453 2.92384615 12.0877956"></polyline>
                                    <path d="M40.1423077,11.5533723 L39.1672615,12.0877956 C39.1672615,33.6285255 21.3482769,40.734365 21.0478154,40.8535182 L21.0478154,40.8548029 L21.0429692,40.8548029 L21.0429692,40.8535182 L21.0219692,40.8448467 L21.0219692,41.8578102 L21.0436154,41.8664818 L21.0436154,41.8684088 L21.0455538,41.8671241 L21.0478154,41.8684088 L21.0478154,41.8664818 C21.3647538,41.7412263 40.1423077,34.2551241 40.1423077,11.5533723" id="Fill-8" fill="#DF79AC"></path>
                                </g>
                            </g>
                        </g>
                        <g id="logo" transform="translate(10.000000, 12.000000)" fill="#CF649A">
                            <path d="M20.6596491,10.340625 C19.8222222,10.3453125 19.097076,10.546875 18.4888889,10.846875 C18.2643275,10.4015625 18.0397661,10.0125 18.0023392,9.721875 C17.9602339,9.384375 17.9087719,9.178125 17.9602339,8.775 C18.0116959,8.371875 18.245614,7.8 18.245614,7.753125 C18.2409357,7.7109375 18.194152,7.5046875 17.7122807,7.5 C17.2304094,7.4953125 16.8140351,7.59375 16.7672515,7.7203125 C16.7204678,7.846875 16.6269006,8.1375 16.5660819,8.4375 C16.4818713,8.878125 15.6023392,10.4390625 15.1017544,11.259375 C14.9380117,10.940625 14.7976608,10.659375 14.7695906,10.434375 C14.7274854,10.096875 14.6760234,9.890625 14.7274854,9.4875 C14.7789474,9.084375 15.0128655,8.5125 15.0128655,8.465625 C15.0081871,8.4234375 14.9614035,8.2171875 14.4795322,8.2125 C13.9976608,8.2078125 13.5812865,8.30625 13.5345029,8.4328125 C13.4877193,8.559375 13.4362573,8.859375 13.3333333,9.15 C13.2350877,9.440625 12.0654971,12.046875 11.7614035,12.7265625 C11.6070175,13.0734375 11.471345,13.35 11.3730994,13.5375 C11.2748538,13.725 11.3684211,13.5515625 11.3590643,13.5703125 C11.2748538,13.7296875 11.2280702,13.81875 11.2280702,13.81875 L11.2280702,13.8234375 C11.1625731,13.940625 11.0923977,14.053125 11.0596491,14.053125 C11.0362573,14.053125 10.9894737,13.7390625 11.0690058,13.3078125 C11.2421053,12.403125 11.6631579,10.9921875 11.6584795,10.940625 C11.6584795,10.9171875 11.7380117,10.66875 11.3871345,10.5421875 C11.045614,10.415625 10.9239766,10.6265625 10.8959064,10.6265625 C10.8678363,10.6265625 10.8444444,10.7015625 10.8444444,10.7015625 C10.8444444,10.7015625 11.2233918,9.1125 10.1192982,9.1125 C9.42690058,9.1125 8.47251462,9.8671875 8,10.55625 C7.7005848,10.7203125 7.06432749,11.0671875 6.39064327,11.4375 C6.13333333,11.578125 5.86666667,11.728125 5.61403509,11.8640625 L5.5625731,11.8078125 C4.2245614,10.378125 1.7497076,9.365625 1.85263158,7.44375 C1.89005848,6.7453125 2.13333333,4.903125 6.60584795,2.671875 C10.2690058,0.84375 13.2023392,1.3453125 13.7122807,2.4609375 C14.4374269,4.0546875 12.1450292,7.0171875 8.33684211,7.44375 C6.88654971,7.6078125 6.12397661,7.0453125 5.93216374,6.834375 C5.73099415,6.6140625 5.70292398,6.6046875 5.62807018,6.646875 C5.50643275,6.7125 5.58128655,6.909375 5.62807018,7.0265625 C5.74035088,7.321875 6.20818713,7.846875 7.00350877,8.109375 C7.7005848,8.3390625 9.40350877,8.465625 11.4619883,7.66875 C13.7684211,6.7734375 15.5695906,4.2890625 15.0409357,2.2125 C14.502924,0.0984375 11.0035088,-0.5953125 7.69590643,0.58125 C5.72631579,1.284375 3.59298246,2.38125 2.05847953,3.8203125 C0.233918129,5.5265625 -0.0561403509,7.0171875 0.065497076,7.6359375 C0.49122807,9.84375 3.52748538,11.2828125 4.74385965,12.346875 C4.68304094,12.3796875 4.62690058,12.4125 4.5754386,12.440625 C3.96725146,12.740625 1.65146199,13.9546875 1.07134503,15.2390625 C0.416374269,16.6921875 1.17426901,17.7375 1.67953216,17.878125 C3.24210526,18.3140625 4.84210526,17.53125 5.70760234,16.2421875 C6.56842105,14.953125 6.46549708,13.2796875 6.06783626,12.515625 L6.05380117,12.4875 L6.53099415,12.20625 C6.83976608,12.0234375 7.14385965,11.8546875 7.41052632,11.709375 C7.26081871,12.1171875 7.15321637,12.6 7.09707602,13.303125 C7.03157895,14.128125 7.36842105,15.196875 7.8128655,15.61875 C8.00935673,15.8015625 8.24327485,15.80625 8.38830409,15.80625 C8.90292398,15.80625 9.13684211,15.3796875 9.39415205,14.86875 C9.7122807,14.2453125 9.99298246,13.5234375 9.99298246,13.5234375 C9.99298246,13.5234375 9.64210526,15.478125 10.6011696,15.478125 C10.9520468,15.478125 11.302924,15.0234375 11.4619883,14.7890625 L11.4619883,14.79375 C11.4619883,14.79375 11.471345,14.7796875 11.4900585,14.746875 C11.5274854,14.690625 11.5461988,14.6578125 11.5461988,14.6578125 L11.5461988,14.6484375 C11.6865497,14.4046875 12,13.846875 12.4678363,12.9234375 C13.071345,11.7328125 13.651462,10.2421875 13.651462,10.2421875 C13.651462,10.2421875 13.7076023,10.6078125 13.8807018,11.2078125 C13.9836257,11.5640625 14.2081871,11.953125 14.3812865,12.3328125 C14.2409357,12.5296875 14.1567251,12.6421875 14.1567251,12.6421875 L14.1614035,12.646875 C14.0491228,12.796875 13.922807,12.95625 13.7918129,13.115625 C13.3146199,13.6875 12.7438596,14.3390625 12.6690058,14.5265625 C12.580117,14.746875 12.5988304,14.9109375 12.7719298,15.0421875 C12.8982456,15.1359375 13.122807,15.1546875 13.3614035,15.1359375 C13.7918129,15.1078125 14.0912281,15 14.2409357,14.934375 C14.4748538,14.85 14.7415205,14.7234375 14.9988304,14.5359375 C15.4666667,14.1890625 15.7520468,13.696875 15.7239766,13.040625 C15.7099415,12.6796875 15.5929825,12.3234375 15.4479532,11.9859375 C15.4900585,11.925 15.5321637,11.8640625 15.574269,11.7984375 C16.3134503,10.715625 16.8842105,9.525 16.8842105,9.525 C16.8842105,9.525 16.9403509,9.890625 17.1134503,10.490625 C17.2023392,10.7953125 17.380117,11.128125 17.5391813,11.45625 C16.8467836,12.0234375 16.4116959,12.6796875 16.2619883,13.1109375 C15.9859649,13.9078125 16.2011696,14.26875 16.6081871,14.353125 C16.7906433,14.390625 17.0526316,14.30625 17.2491228,14.221875 C17.4923977,14.1421875 17.7871345,14.00625 18.0584795,13.8046875 C18.5263158,13.4578125 18.9754386,12.975 18.9520468,12.3234375 C18.9380117,12.0234375 18.8584795,11.728125 18.7508772,11.446875 C19.3403509,11.203125 20.102924,11.0625 21.071345,11.1796875 C23.1532164,11.4234375 23.5649123,12.7265625 23.4853801,13.2703125 C23.405848,13.8140625 22.9707602,14.1140625 22.825731,14.2078125 C22.6807018,14.296875 22.6339181,14.3296875 22.6479532,14.3953125 C22.6666667,14.49375 22.7321637,14.4890625 22.8584795,14.4703125 C23.0315789,14.4421875 23.9532164,14.025 23.9906433,13.021875 C24.0467836,11.7328125 22.825731,10.3265625 20.6596491,10.340625 L20.6596491,10.340625 Z M4.60350877,15.7640625 C3.91578947,16.51875 2.94736842,16.8046875 2.53567251,16.5609375 C2.09122807,16.303125 2.26432749,15.1921875 3.11111111,14.390625 C3.62573099,13.903125 4.29473684,13.453125 4.73450292,13.1765625 C4.83274854,13.115625 4.98245614,13.0265625 5.16023392,12.91875 C5.18830409,12.9 5.20701754,12.890625 5.20701754,12.890625 C5.23976608,12.871875 5.27719298,12.8484375 5.31461988,12.825 C5.62807018,13.96875 5.32865497,14.971875 4.60350877,15.7640625 L4.60350877,15.7640625 Z M9.63274854,12.3375 C9.39415205,12.9234375 8.88888889,14.428125 8.58479532,14.34375 C8.32280702,14.2734375 8.16374269,13.134375 8.53333333,12.009375 C8.72046784,11.4421875 9.11812865,10.7671875 9.35204678,10.5046875 C9.73099415,10.0828125 10.1426901,9.9421875 10.245614,10.115625 C10.3672515,10.340625 9.78245614,11.971875 9.63274854,12.3375 L9.63274854,12.3375 Z M13.7824561,14.325 C13.6795322,14.3765625 13.5859649,14.4140625 13.5438596,14.3859375 C13.5111111,14.3671875 13.5859649,14.296875 13.5859649,14.296875 C13.5859649,14.296875 14.1052632,13.7390625 14.3111111,13.48125 C14.4280702,13.33125 14.5684211,13.1578125 14.7181287,12.9609375 L14.7181287,13.0171875 C14.7181287,13.6921875 14.0725146,14.1421875 13.7824561,14.325 L13.7824561,14.325 Z M16.9824561,13.59375 C16.9076023,13.5375 16.9169591,13.3640625 17.1695906,12.8203125 C17.2678363,12.6046875 17.4923977,12.24375 17.8807018,11.9015625 C17.9274854,12.0421875 17.9555556,12.178125 17.9508772,12.3046875 C17.9461988,13.1484375 17.3473684,13.4625 16.9824561,13.59375 L16.9824561,13.59375 Z" id="Shape"></path>
                        </g>
                    </g>
                </g>
            </g>
        </g>
    </g>
</svg>