<?xml version="1.0" encoding="UTF-8"?>
<svg width="42px" height="44px" viewBox="0 0 42 44" version="1.1" xmlns="http://www.w3.org/2000/svg" xmlns:xlink="http://www.w3.org/1999/xlink">
    <!-- Generator: Sketch 39.1 (31720) - http://www.bohemiancoding.com/sketch -->
    <title>Group 25</title>
    <desc>Created with Sketch.</desc>
    <defs></defs>
    <g id="Page-1" stroke="none" stroke-width="1" fill="none" fill-rule="evenodd">
        <g id="Landing_new-03-1920" transform="translate(-1476.000000, -3247.000000)">
            <g id="Langs" transform="translate(0.000000, 2694.000000)">
                <g id="Group-61" transform="translate(1465.000000, 541.000000)">
                    <g id="Group-25" transform="translate(11.000000, 12.000000)">
                        <g id="Group-+-Group-+-Group">
                            <g id="Group-+-Group">
                                <g id="Group">
                                    <path d="M0.0911076923,10.5359124 C0.0911076923,35.4456934 20.6959846,43.6598832 21.0429692,43.7973431 C21.3957692,43.6598832 42,35.4456934 42,10.5359124 L21.0478154,0.230919708 L0.0911076923,10.5359124 Z" id="Fill-1" fill="#F6F5F5"></path>
                                    <path d="M21.0478154,0.228350365 L21.0429692,0.228350365 L21.0429692,0.230919708 L21.0219692,0.240875912 L21.0219692,43.7893139 L21.0429692,43.7973431 L21.0429692,43.7999124 L21.0455538,43.7986277 L21.0478154,43.7999124 L21.0478154,43.7973431 C21.3957692,43.6598832 42,35.4456934 42,10.5359124 L21.0478154,0.230919708 L21.0478154,0.228350365" id="Fill-2" fill="#AEAEAE" opacity="0.125291511"></path>
                                    <path d="M21.0478154,0.230919708 L21.0478154,0.228350365 L21.0429692,0.228350365 L21.0429692,0.230919708 L0.0911076923,10.5359124 C0.0911076923,35.4456934 20.6959846,43.6598832 21.0429692,43.7973431 L21.0429692,43.7999124 L21.0455538,43.7986277 L21.0478154,43.7999124 L21.0478154,43.7973431 C21.3957692,43.6598832 42,35.4456934 42,10.5359124 L21.0478154,0.230919708 M21.0478154,40.835854 L21.0478154,40.8371387 L21.0429692,40.8371387 L21.0429692,40.835854 C20.7431538,40.7167007 2.94064615,33.617927 2.94064615,12.0971095 L21.0429692,3.19208759 L21.0429692,3.19048175 L21.0455538,3.19176642 L21.0478154,3.19048175 L21.0478154,3.19208759 L39.1504615,12.0971095 C39.1504615,33.617927 21.3476308,40.7167007 21.0478154,40.835854" id="Fill-3" fill="#3498DB"></path>
                                    <path d="M21.0478154,2.16145985 L21.0478154,2.15985401 L21.0436154,2.15985401 L21.0436154,2.16145985 L1.9488,11.5533723 C1.9488,34.2551241 20.7266769,41.7412263 21.0436154,41.8664818 L21.0436154,41.8684088 L21.0455538,41.8671241 L21.0478154,41.8684088 L21.0478154,41.8664818 C21.3647538,41.7412263 40.1423077,34.2551241 40.1423077,11.5533723 L21.0478154,2.16145985 M21.0478154,40.8535182 L21.0478154,40.8548029 L21.0429692,40.8548029 L21.0429692,40.8535182 C20.7431538,40.734365 2.92384615,33.6285255 2.92384615,12.0877956 L21.0429692,3.17474453 L21.0429692,3.17281752 L21.0455538,3.17410219 L21.0478154,3.17281752 L21.0478154,3.17474453 L39.1672615,12.0877956 C39.1672615,33.6285255 21.3482769,40.734365 21.0478154,40.8535182" id="Fill-4" fill="#0C71B5"></path>
                                    <path d="M21.0219692,3.20236496 L39.1504615,12.0971095 C39.1504615,33.617927 21.3476308,40.7167007 21.0478154,40.835854 L21.0219692,43.7893139 C21.3957692,43.6598832 42,35.4456934 42,10.5359124 L26.0035581,2.66832151 L21.0478154,0.230919708 L21.0219692,3.20236496 Z" id="Fill-5" fill="#0E7DC8"></path>
                                    <path d="M40.1423077,11.5533723 L21.0478154,2.16145985 L21.0478154,2.15985401 L21.0436154,2.15985401 L21.0436154,2.16145985 L21.0219692,2.17237956 L21.0219692,3.18470073 L21.0429692,3.17474453 L21.0429692,3.17281752 L21.0455538,3.17410219 L21.0478154,3.17281752 L21.0478154,3.17474453 L39.1672615,12.0877956 C39.1672615,33.6285255 21.3482769,40.734365 21.0478154,40.8535182 L21.0478154,40.8548029 L21.0429692,40.8548029 L21.0429692,40.8535182 L21.0219692,40.8448467 L21.0219692,41.8578102 L21.0436154,41.8664818 L21.0436154,41.8684088 L21.0455538,41.8671241 L21.0478154,41.8684088 L21.0478154,41.8664818 C21.3647538,41.7412263 40.1423077,34.2551241 40.1423077,11.5533723" id="Fill-6" fill="#0A6EB1"></path>
                                    <polyline id="Fill-7" fill="#63B6EE" points="2.92384615 12.0877956 1.9488 11.5533723 21.0436154 2.16145985 21.0478154 3.17474453 2.92384615 12.0877956"></polyline>
                                    <path d="M40.1423077,11.5533723 L39.1672615,12.0877956 C39.1672615,33.6285255 21.3482769,40.734365 21.0478154,40.8535182 L21.0478154,40.8548029 L21.0429692,40.8548029 L21.0429692,40.8535182 L21.0219692,40.8448467 L21.0219692,41.8578102 L21.0436154,41.8664818 L21.0436154,41.8684088 L21.0455538,41.8671241 L21.0478154,41.8684088 L21.0478154,41.8664818 C21.3647538,41.7412263 40.1423077,34.2551241 40.1423077,11.5533723" id="Fill-8" fill="#63B6EE"></path>
                                </g>
                            </g>
                        </g>
                        <g id="Group-3" transform="translate(7.000000, 9.000000)">
                            <path d="M11.5,15.2941176 C17.8512746,15.2941176 23,11.8704128 23,7.64705882 C23,3.42370485 17.8512746,0 11.5,0 C5.14872538,0 0,3.42370485 0,7.64705882 C0,11.8704128 5.14872538,15.2941176 11.5,15.2941176 Z M13,13.3823529 C17.9705627,13.3823529 22,11.0285559 22,8.125 C22,5.22144415 17.9705627,2.86764706 13,2.86764706 C8.02943725,2.86764706 4,5.22144415 4,8.125 C4,11.0285559 8.02943725,13.3823529 13,13.3823529 Z" id="Combined-Shape" fill="#A3C9E3"></path>
                            <path d="M15.399928,14.6852022 L13.3784437,14.6852022 L13.3784437,20 L9.64401727,20 L9.64401727,4.94485294 L15.7403886,4.94485294 C16.6341019,4.94485294 17.4426876,5.04308266 18.1661698,5.23954504 C18.8896521,5.43600742 19.5067306,5.72552658 20.0174239,6.10811121 C20.5281173,6.49069585 20.9199976,6.96461114 21.1930767,7.52987132 C21.4661558,8.0951315 21.6026933,8.74999628 21.6026933,9.49448529 C21.6026933,10.0735323 21.5388575,10.5888075 21.4111842,11.0403263 C21.2835109,11.4918451 21.1008698,11.8882106 20.8632556,12.2294347 C20.6256413,12.5706589 20.3401538,12.8670714 20.0067845,13.1186811 C19.6734153,13.3702908 19.3045867,13.5891535 18.9002878,13.7752757 L22.1346628,19.8448989 L22.1346628,20 L18.1342516,20 L15.399928,14.6852022 Z M13.3784437,11.8830423 L15.7403886,11.8830423 C16.4496849,11.8830423 16.9834223,11.7020928 17.341617,11.3401884 C17.6998116,10.978284 17.8789062,10.4733488 17.8789062,9.82536765 C17.8789062,9.17738647 17.6980384,8.6690046 17.3362973,8.3002068 C16.9745562,7.931409 16.4425919,7.74701287 15.7403886,7.74701287 L13.3784437,7.74701287 L13.3784437,11.8830423 Z" id="R" fill="#0E7DC8"></path>
                        </g>
                    </g>
                </g>
            </g>
        </g>
    </g>
</svg>