<?xml version="1.0" encoding="UTF-8"?>
<svg width="77px" height="80px" viewBox="0 0 77 80" version="1.1" xmlns="http://www.w3.org/2000/svg" xmlns:xlink="http://www.w3.org/1999/xlink">
    <!-- Generator: Sketch 39.1 (31720) - http://www.bohemiancoding.com/sketch -->
    <title>Archade_ico</title>
    <desc>Created with Sketch.</desc>
    <defs>
        <path d="M38.342525,0.0040736802 L38.342525,0 L38.3330703,0 L38.3330703,0.0040736802 L0.0112275063,18.6766597 C0.0112275063,63.8136183 37.6984207,78.6976816 38.3330703,78.9467582 L38.3330703,78.9508317 L38.3377977,78.9485043 L38.342525,78.9508317 L38.342525,78.9467582 C38.9783564,78.6976816 76.6643682,63.8136183 76.6643682,18.6766597 L38.342525,0.0040736802" id="path-1"></path>
    </defs>
    <g id="Page-1" stroke="none" stroke-width="1" fill="none" fill-rule="evenodd">
        <g id="Landing_new-03-1920" transform="translate(-925.000000, -1901.000000)">
            <g id="Modes" transform="translate(-1.000000, 1593.000000)">
                <g id="Group-10-Copy-2" transform="translate(905.000000, 286.000000)">
                    <g id="Archade_ico" transform="translate(21.000000, 22.000000)">
                        <g id="Page-1">
                            <g>
                                <g id="Group-4">
                                    <g id="Group-22">
                                        <g id="Archade_ico">
                                            <g id="Page-1" transform="translate(0.000000, 0.631410)">
                                                <g id="Mask" fill="#7C42BA">
                                                    <path d="M38.342525,0.0040736802 L38.342525,0 L38.3330703,0 L38.3330703,0.0040736802 L0.0112275063,18.6766597 C0.0112275063,63.8136183 37.6984207,78.6976816 38.3330703,78.9467582 L38.3330703,78.9508317 L38.3377977,78.9485043 L38.342525,78.9508317 L38.342525,78.9467582 C38.9783564,78.6976816 76.6643682,63.8136183 76.6643682,18.6766597 L38.342525,0.0040736802" id="path-1"></path>
                                                </g>
                                                <g id="Clipped">
                                                    <mask id="mask-2" fill="white">
                                                        <use xlink:href="#path-1"></use>
                                                    </mask>
                                                    <g id="path-1"></g>
                                                    <g id="Group" opacity="0.676422575" mask="url(#mask-2)">
                                                        <g transform="translate(-1.334109, 3.950347)">
                                                            <g>
                                                                <polygon id="Fill-1" fill="#6737A5" points="3.93466396 3.87100276 0.000147125992 3.87100276 0.000147125992 0.000144745555 3.93466396 0.000144745555"></polygon>
                                                                <polygon id="Fill-3" fill="#6737A5" points="3.76006219 13.9963163 0.174601771 13.9963163 0.174601771 10.4688671 3.76006219 10.4688671"></polygon>
                                                                <polygon id="Fill-5" fill="#6737A5" points="3.58542364 24.1216297 0.349387449 24.1216297 0.349387449 20.9379512 3.58542364 20.9379512"></polygon>
                                                                <polygon id="Fill-7" fill="#6737A5" points="3.41078508 34.2469432 0.523805312 34.2469432 0.523805312 31.4066735 3.41078508 31.4066735"></polygon>
                                                                <polygon id="Fill-9" fill="#6737A5" points="3.23614654 44.3722566 0.69859099 44.3722566 0.69859099 41.8757576 3.23614654 41.8757576"></polygon>
                                                                <polygon id="Fill-11" fill="#6737A5" points="3.06150798 54.4975339 0.873008856 54.4975339 0.873008856 52.3444438 3.06150798 52.3444438"></polygon>
                                                                <polygon id="Fill-13" fill="#6737A5" points="2.88686943 64.6228474 1.04779453 64.6228474 1.04779453 62.8135279 2.88686943 62.8135279"></polygon>
                                                                <polygon id="Fill-15" fill="#6737A5" points="7.86936473 7.7420055 3.93484787 7.7420055 3.93484787 3.87114751 7.86936473 3.87114751"></polygon>
                                                                <polygon id="Fill-17" fill="#6737A5" points="7.69472612 17.867319 4.10926573 17.867319 4.10926573 14.3398698 7.69472612 14.3398698"></polygon>
                                                                <polygon id="Fill-19" fill="#6737A5" points="7.52008757 27.9926325 4.28405141 27.9926325 4.28405141 24.808954 7.52008757 24.808954"></polygon>
                                                                <polygon id="Fill-21" fill="#6737A5" points="7.34544903 38.1179459 4.45846927 38.1179459 4.45846927 35.2776762 7.34544903 35.2776762"></polygon>
                                                                <polygon id="Fill-23" fill="#6737A5" points="7.17081048 48.2432594 4.63325495 48.2432594 4.63325495 45.7467605 7.17081048 45.7467605"></polygon>
                                                                <polygon id="Fill-25" fill="#6737A5" points="6.99620875 58.3685367 4.80770959 58.3685367 4.80770959 56.2154465 6.99620875 56.2154465"></polygon>
                                                                <polygon id="Fill-27" fill="#6737A5" points="6.82157014 68.4938499 4.98249527 68.4938499 4.98249527 66.6845308 6.82157014 66.6845308"></polygon>
                                                                <polygon id="Fill-29" fill="#6737A5" points="11.8040287 3.87100276 7.86951182 3.87100276 7.86951182 0.000144745555 11.8040287 0.000144745555"></polygon>
                                                                <polygon id="Fill-31" fill="#6737A5" points="11.6293901 13.9963163 8.04392971 13.9963163 8.04392971 10.4688671 11.6293901 10.4688671"></polygon>
                                                                <polygon id="Fill-33" fill="#6737A5" points="11.4547516 24.1216297 8.21871534 24.1216297 8.21871534 20.9379512 11.4547516 20.9379512"></polygon>
                                                                <polygon id="Fill-35" fill="#6737A5" points="11.2801498 34.2469432 8.39317005 34.2469432 8.39317005 31.4066735 11.2801498 31.4066735"></polygon>
                                                                <polygon id="Fill-37" fill="#6737A5" points="11.1055112 44.3722566 8.56795568 44.3722566 8.56795568 41.8757576 11.1055112 41.8757576"></polygon>
                                                                <polygon id="Fill-39" fill="#6737A5" points="10.9308727 54.4975339 8.74237356 54.4975339 8.74237356 52.3444438 10.9308727 52.3444438"></polygon>
                                                                <polygon id="Fill-41" fill="#6737A5" points="10.7562341 64.6228474 8.91715926 64.6228474 8.91715926 62.8135279 10.7562341 62.8135279"></polygon>
                                                                <polygon id="Fill-43" fill="#6737A5" points="15.7386926 7.7420055 11.8041758 7.7420055 11.8041758 3.87114751 15.7386926 3.87114751"></polygon>
                                                                <polygon id="Fill-45" fill="#6737A5" points="15.5640909 17.867319 11.9786305 17.867319 11.9786305 14.3398698 15.5640909 14.3398698"></polygon>
                                                                <polygon id="Fill-47" fill="#6737A5" points="15.3894523 27.9926325 12.1534161 27.9926325 12.1534161 24.808954 15.3894523 24.808954"></polygon>
                                                                <polygon id="Fill-49" fill="#6737A5" points="15.2148138 38.1179459 12.327834 38.1179459 12.327834 35.2776762 15.2148138 35.2776762"></polygon>
                                                                <polygon id="Fill-51" fill="#6737A5" points="15.0401752 48.2432594 12.5026197 48.2432594 12.5026197 45.7467605 15.0401752 45.7467605"></polygon>
                                                                <polygon id="Fill-53" fill="#6737A5" points="14.8655367 58.3685367 12.6770375 58.3685367 12.6770375 56.2154465 14.8655367 56.2154465"></polygon>
                                                                <polygon id="Fill-55" fill="#6737A5" points="14.6908981 68.4938499 12.8518232 68.4938499 12.8518232 66.6845308 14.6908981 66.6845308"></polygon>
                                                                <polygon id="Fill-57" fill="#6737A5" points="19.6733934 3.87100276 15.7388766 3.87100276 15.7388766 0.000144745555 19.6733934 0.000144745555"></polygon>
                                                                <polygon id="Fill-59" fill="#6737A5" points="19.4987548 13.9963163 15.9132944 13.9963163 15.9132944 10.4688671 19.4987548 10.4688671"></polygon>
                                                                <polygon id="Fill-61" fill="#6737A5" points="19.3241162 24.1216297 16.0880801 24.1216297 16.0880801 20.9379512 19.3241162 20.9379512"></polygon>
                                                                <polygon id="Fill-63" fill="#6737A5" points="19.1494777 34.2469432 16.262498 34.2469432 16.262498 31.4066735 19.1494777 31.4066735"></polygon>
                                                                <polygon id="Fill-65" fill="#6737A5" points="18.9748391 44.3722566 16.4372836 44.3722566 16.4372836 41.8757576 18.9748391 41.8757576"></polygon>
                                                                <polygon id="Fill-67" fill="#6737A5" points="18.8002374 54.4975339 16.6117382 54.4975339 16.6117382 52.3444438 18.8002374 52.3444438"></polygon>
                                                                <polygon id="Fill-69" fill="#6737A5" points="18.6255989 64.6228474 16.7865239 64.6228474 16.7865239 62.8135279 18.6255989 62.8135279"></polygon>
                                                                <polygon id="Fill-71" fill="#6737A5" points="23.6080573 7.7420055 19.6735405 7.7420055 19.6735405 3.87114751 23.6080573 3.87114751"></polygon>
                                                                <polygon id="Fill-73" fill="#6737A5" points="23.4334188 17.867319 19.8479584 17.867319 19.8479584 14.3398698 23.4334188 14.3398698"></polygon>
                                                                <polygon id="Fill-75" fill="#6737A5" points="23.2587802 27.9926325 20.0227441 27.9926325 20.0227441 24.808954 23.2587802 24.808954"></polygon>
                                                                <polygon id="Fill-77" fill="#6737A5" points="23.0841784 38.1179459 20.1971987 38.1179459 20.1971987 35.2776762 23.0841784 35.2776762"></polygon>
                                                                <polygon id="Fill-79" fill="#6737A5" points="22.9095399 48.2432594 20.3719843 48.2432594 20.3719843 45.7467605 22.9095399 45.7467605"></polygon>
                                                                <polygon id="Fill-81" fill="#6737A5" points="22.7349013 58.3685367 20.5464022 58.3685367 20.5464022 56.2154465 22.7349013 56.2154465"></polygon>
                                                                <polygon id="Fill-83" fill="#6737A5" points="22.5602628 68.4938499 20.7211879 68.4938499 20.7211879 66.6845308 22.5602628 66.6845308"></polygon>
                                                                <polygon id="Fill-85" fill="#6737A5" points="27.5427581 3.87100276 23.6082412 3.87100276 23.6082412 0.000144745555 27.5427581 0.000144745555"></polygon>
                                                                <polygon id="Fill-87" fill="#6737A5" points="27.3681195 13.9963163 23.7826591 13.9963163 23.7826591 10.4688671 27.3681195 10.4688671"></polygon>
                                                                <polygon id="Fill-89" fill="#6737A5" points="27.193481 24.1216297 23.9574447 24.1216297 23.9574447 20.9379512 27.193481 20.9379512"></polygon>
                                                                <polygon id="Fill-91" fill="#6737A5" points="27.0188424 34.2469432 24.1318626 34.2469432 24.1318626 31.4066735 27.0188424 31.4066735"></polygon>
                                                                <polygon id="Fill-93" fill="#6737A5" points="26.8442039 44.3722566 24.3066483 44.3722566 24.3066483 41.8757576 26.8442039 41.8757576"></polygon>
                                                                <polygon id="Fill-95" fill="#6737A5" points="26.6695653 54.4975339 24.4810661 54.4975339 24.4810661 52.3444438 26.6695653 52.3444438"></polygon>
                                                                <polygon id="Fill-97" fill="#6737A5" points="26.4949268 64.6228474 24.6558518 64.6228474 24.6558518 62.8135279 26.4949268 62.8135279"></polygon>
                                                                <polygon id="Fill-99" fill="#6737A5" points="31.4774221 7.7420055 27.5429052 7.7420055 27.5429052 3.87114751 31.4774221 3.87114751"></polygon>
                                                                <polygon id="Fill-101" fill="#6737A5" points="31.3027835 17.867319 27.717323 17.867319 27.717323 14.3398698 31.3027835 14.3398698"></polygon>
                                                                <polygon id="Fill-103" fill="#6737A5" points="31.1281449 27.9926325 27.8921087 27.9926325 27.8921087 24.808954 31.1281449 24.808954"></polygon>
                                                                <polygon id="Fill-105" fill="#6737A5" points="30.9535063 38.1179459 28.0665266 38.1179459 28.0665266 35.2776762 30.9535063 35.2776762"></polygon>
                                                                <polygon id="Fill-107" fill="#6737A5" points="30.7789046 48.2432594 28.2413491 48.2432594 28.2413491 45.7467605 30.7789046 45.7467605"></polygon>
                                                                <polygon id="Fill-109" fill="#6737A5" points="30.6042661 58.3685367 28.4157669 58.3685367 28.4157669 56.2154465 30.6042661 56.2154465"></polygon>
                                                                <polygon id="Fill-111" fill="#6737A5" points="30.4296275 68.4938499 28.5905526 68.4938499 28.5905526 66.6845308 30.4296275 66.6845308"></polygon>
                                                                <polygon id="Fill-113" fill="#6737A5" points="35.412086 3.87100276 31.4775691 3.87100276 31.4775691 0.000144745555 35.412086 0.000144745555"></polygon>
                                                                <polygon id="Fill-115" fill="#6737A5" points="35.2374474 13.9963163 31.651987 13.9963163 31.651987 10.4688671 35.2374474 10.4688671"></polygon>
                                                                <polygon id="Fill-117" fill="#6737A5" points="35.0628456 24.1216297 31.8268095 24.1216297 31.8268095 20.9379512 35.0628456 20.9379512"></polygon>
                                                                <polygon id="Fill-119" fill="#6737A5" points="34.8882071 34.2469432 32.0012274 34.2469432 32.0012274 31.4066735 34.8882071 31.4066735"></polygon>
                                                                <polygon id="Fill-121" fill="#6737A5" points="34.7135685 44.3722566 32.176013 44.3722566 32.176013 41.8757576 34.7135685 41.8757576"></polygon>
                                                                <polygon id="Fill-123" fill="#6737A5" points="34.53893 54.4975339 32.3504309 54.4975339 32.3504309 52.3444438 34.53893 52.3444438"></polygon>
                                                                <polygon id="Fill-125" fill="#6737A5" points="34.3642914 64.6228474 32.5252166 64.6228474 32.5252166 62.8135279 34.3642914 62.8135279"></polygon>
                                                                <polygon id="Fill-127" fill="#6737A5" points="39.3467867 7.7420055 35.4122699 7.7420055 35.4122699 3.87114751 39.3467867 3.87114751"></polygon>
                                                                <polygon id="Fill-129" fill="#6737A5" points="39.1721482 17.867319 35.5866878 17.867319 35.5866878 14.3398698 39.1721482 14.3398698"></polygon>
                                                                <polygon id="Fill-131" fill="#6737A5" points="38.9975096 27.9926325 35.7614735 27.9926325 35.7614735 24.808954 38.9975096 24.808954"></polygon>
                                                                <polygon id="Fill-133" fill="#6737A5" points="38.8228711 38.1179459 35.9358913 38.1179459 35.9358913 35.2776762 38.8228711 35.2776762"></polygon>
                                                                <polygon id="Fill-135" fill="#6737A5" points="38.6482325 48.2432594 36.110677 48.2432594 36.110677 45.7467605 38.6482325 45.7467605"></polygon>
                                                                <polygon id="Fill-137" fill="#6737A5" points="38.473594 58.3685367 36.2850949 58.3685367 36.2850949 56.2154465 38.473594 56.2154465"></polygon>
                                                                <polygon id="Fill-139" fill="#6737A5" points="38.2989922 68.4938499 36.4599173 68.4938499 36.4599173 66.6845308 38.2989922 66.6845308"></polygon>
                                                                <polygon id="Fill-141" fill="#6737A5" points="43.2814507 3.87100276 39.3469339 3.87100276 39.3469339 0.000144745555 43.2814507 0.000144745555"></polygon>
                                                                <polygon id="Fill-143" fill="#6737A5" points="43.1068122 13.9963163 39.5213517 13.9963163 39.5213517 10.4688671 43.1068122 10.4688671"></polygon>
                                                                <polygon id="Fill-145" fill="#6737A5" points="42.9321736 24.1216297 39.6961374 24.1216297 39.6961374 20.9379512 42.9321736 20.9379512"></polygon>
                                                                <polygon id="Fill-147" fill="#6737A5" points="42.7575718 34.2469432 39.870592 34.2469432 39.870592 31.4066735 42.7575718 31.4066735"></polygon>
                                                                <polygon id="Fill-149" fill="#6737A5" points="42.5829333 44.3722566 40.0453777 44.3722566 40.0453777 41.8757576 42.5829333 41.8757576"></polygon>
                                                                <polygon id="Fill-151" fill="#6737A5" points="42.4082947 54.4975339 40.2197955 54.4975339 40.2197955 52.3444438 42.4082947 52.3444438"></polygon>
                                                                <polygon id="Fill-153" fill="#6737A5" points="42.2336562 64.6228474 40.3945812 64.6228474 40.3945812 62.8135279 42.2336562 62.8135279"></polygon>
                                                                <polygon id="Fill-155" fill="#6737A5" points="47.2161146 7.7420055 43.2815978 7.7420055 43.2815978 3.87114751 47.2161146 3.87114751"></polygon>
                                                                <polygon id="Fill-157" fill="#6737A5" points="47.0415129 17.867319 43.4560524 17.867319 43.4560524 14.3398698 47.0415129 14.3398698"></polygon>
                                                                <polygon id="Fill-159" fill="#6737A5" points="46.8668743 27.9926325 43.6308381 27.9926325 43.6308381 24.808954 46.8668743 24.808954"></polygon>
                                                                <polygon id="Fill-161" fill="#6737A5" points="46.6922357 38.1179459 43.805256 38.1179459 43.805256 35.2776762 46.6922357 35.2776762"></polygon>
                                                                <polygon id="Fill-163" fill="#6737A5" points="46.5175972 48.2432594 43.9800417 48.2432594 43.9800417 45.7467605 46.5175972 45.7467605"></polygon>
                                                                <polygon id="Fill-165" fill="#6737A5" points="46.3429586 58.3685367 44.1544595 58.3685367 44.1544595 56.2154465 46.3429586 56.2154465"></polygon>
                                                                <polygon id="Fill-167" fill="#6737A5" points="46.1683201 68.4938499 44.3292452 68.4938499 44.3292452 66.6845308 46.1683201 66.6845308"></polygon>
                                                                <polygon id="Fill-169" fill="#6737A5" points="51.1508154 3.87100276 47.2162985 3.87100276 47.2162985 0.000144745555 51.1508154 0.000144745555"></polygon>
                                                                <polygon id="Fill-171" fill="#6737A5" points="50.9761768 13.9963163 47.3907164 13.9963163 47.3907164 10.4688671 50.9761768 10.4688671"></polygon>
                                                                <polygon id="Fill-173" fill="#6737A5" points="50.8015383 24.1216297 47.5655021 24.1216297 47.5655021 20.9379512 50.8015383 20.9379512"></polygon>
                                                                <polygon id="Fill-175" fill="#6737A5" points="50.6268997 34.2469432 47.7399199 34.2469432 47.7399199 31.4066735 50.6268997 31.4066735"></polygon>
                                                                <polygon id="Fill-177" fill="#6737A5" points="50.4522612 44.3722566 47.9147056 44.3722566 47.9147056 41.8757576 50.4522612 41.8757576"></polygon>
                                                                <polygon id="Fill-179" fill="#6737A5" points="50.2776226 54.4975339 48.0891235 54.4975339 48.0891235 52.3444438 50.2776226 52.3444438"></polygon>
                                                                <polygon id="Fill-181" fill="#6737A5" points="50.1030208 64.6228474 48.263946 64.6228474 48.263946 62.8135279 50.1030208 62.8135279"></polygon>
                                                                <polygon id="Fill-183" fill="#6737A5" points="55.0854794 7.7420055 51.1509625 7.7420055 51.1509625 3.87114751 55.0854794 3.87114751"></polygon>
                                                                <polygon id="Fill-185" fill="#6737A5" points="54.9108408 17.867319 51.3253803 17.867319 51.3253803 14.3398698 54.9108408 14.3398698"></polygon>
                                                                <polygon id="Fill-187" fill="#6737A5" points="54.7362023 27.9926325 51.500166 27.9926325 51.500166 24.808954 54.7362023 24.808954"></polygon>
                                                                <polygon id="Fill-189" fill="#6737A5" points="54.5616005 38.1179459 51.6746207 38.1179459 51.6746207 35.2776762 54.5616005 35.2776762"></polygon>
                                                                <polygon id="Fill-191" fill="#6737A5" points="54.3869619 48.2432594 51.8494064 48.2432594 51.8494064 45.7467605 54.3869619 45.7467605"></polygon>
                                                                <polygon id="Fill-193" fill="#6737A5" points="54.2123234 58.3685367 52.0238243 58.3685367 52.0238243 56.2154465 54.2123234 56.2154465"></polygon>
                                                                <polygon id="Fill-195" fill="#6737A5" points="54.0376848 68.4938499 52.1986099 68.4938499 52.1986099 66.6845308 54.0376848 66.6845308"></polygon>
                                                                <polygon id="Fill-197" fill="#6737A5" points="59.0201433 3.87100276 55.0856265 3.87100276 55.0856265 0.000144745555 59.0201433 0.000144745555"></polygon>
                                                                <polygon id="Fill-199" fill="#6737A5" points="58.8455416 13.9963163 55.2600811 13.9963163 55.2600811 10.4688671 58.8455416 10.4688671"></polygon>
                                                                <polygon id="Fill-201" fill="#6737A5" points="58.670903 24.1216297 55.4348668 24.1216297 55.4348668 20.9379512 58.670903 20.9379512"></polygon>
                                                                <polygon id="Fill-203" fill="#6737A5" points="58.4962644 34.2469432 55.6092847 34.2469432 55.6092847 31.4066735 58.4962644 31.4066735"></polygon>
                                                                <polygon id="Fill-205" fill="#6737A5" points="58.3216259 44.3722566 55.7840703 44.3722566 55.7840703 41.8757576 58.3216259 41.8757576"></polygon>
                                                                <polygon id="Fill-207" fill="#6737A5" points="58.1469873 54.4975339 55.9584882 54.4975339 55.9584882 52.3444438 58.1469873 52.3444438"></polygon>
                                                                <polygon id="Fill-209" fill="#6737A5" points="57.9723488 64.6228474 56.1332739 64.6228474 56.1332739 62.8135279 57.9723488 62.8135279"></polygon>
                                                                <polygon id="Fill-211" fill="#6737A5" points="62.954844 7.7420055 59.0203272 7.7420055 59.0203272 3.87114751 62.954844 3.87114751"></polygon>
                                                                <polygon id="Fill-213" fill="#6737A5" points="62.7802055 17.867319 59.1947451 17.867319 59.1947451 14.3398698 62.7802055 14.3398698"></polygon>
                                                                <polygon id="Fill-215" fill="#6737A5" points="62.6055669 27.9926325 59.3695308 27.9926325 59.3695308 24.808954 62.6055669 24.808954"></polygon>
                                                                <polygon id="Fill-217" fill="#6737A5" points="62.4309284 38.1179459 59.5439486 38.1179459 59.5439486 35.2776762 62.4309284 35.2776762"></polygon>
                                                                <polygon id="Fill-219" fill="#6737A5" points="62.2562898 48.2432594 59.7187343 48.2432594 59.7187343 45.7467605 62.2562898 45.7467605"></polygon>
                                                                <polygon id="Fill-221" fill="#6737A5" points="62.0816513 58.3685367 59.8931522 58.3685367 59.8931522 56.2154465 62.0816513 56.2154465"></polygon>
                                                                <polygon id="Fill-223" fill="#6737A5" points="61.9070495 68.4938499 60.0679746 68.4938499 60.0679746 66.6845308 61.9070495 66.6845308"></polygon>
                                                                <polygon id="Fill-225" fill="#6737A5" points="66.8895081 3.87100276 62.9549912 3.87100276 62.9549912 0.000144745555 66.8895081 0.000144745555"></polygon>
                                                                <polygon id="Fill-227" fill="#6737A5" points="66.7148693 13.9963163 63.1294091 13.9963163 63.1294091 10.4688671 66.7148693 10.4688671"></polygon>
                                                                <polygon id="Fill-229" fill="#6737A5" points="66.5402309 24.1216297 63.3041947 24.1216297 63.3041947 20.9379512 66.5402309 20.9379512"></polygon>
                                                                <polygon id="Fill-231" fill="#6737A5" points="66.3656291 34.2469432 63.4786493 34.2469432 63.4786493 31.4066735 66.3656291 31.4066735"></polygon>
                                                                <polygon id="Fill-233" fill="#6737A5" points="66.1909906 44.3722566 63.653435 44.3722566 63.653435 41.8757576 66.1909906 41.8757576"></polygon>
                                                                <polygon id="Fill-235" fill="#6737A5" points="66.016352 54.4975339 63.8278529 54.4975339 63.8278529 52.3444438 66.016352 52.3444438"></polygon>
                                                                <polygon id="Fill-237" fill="#6737A5" points="65.8417135 64.6228474 64.0026386 64.6228474 64.0026386 62.8135279 65.8417135 62.8135279"></polygon>
                                                                <polygon id="Fill-239" fill="#6737A5" points="70.8241718 7.7420055 66.8896548 7.7420055 66.8896548 3.87114751 70.8241718 3.87114751"></polygon>
                                                                <polygon id="Fill-241" fill="#6737A5" points="70.6495704 17.867319 67.0641095 17.867319 67.0641095 14.3398698 70.6495704 14.3398698"></polygon>
                                                                <polygon id="Fill-243" fill="#6737A5" points="70.4749315 27.9926325 67.2388958 27.9926325 67.2388958 24.808954 70.4749315 24.808954"></polygon>
                                                                <polygon id="Fill-245" fill="#6737A5" points="70.3002934 38.1179459 67.4133131 38.1179459 67.4133131 35.2776762 70.3002934 35.2776762"></polygon>
                                                                <polygon id="Fill-247" fill="#6737A5" points="70.1256546 48.2432594 67.5880987 48.2432594 67.5880987 45.7467605 70.1256546 45.7467605"></polygon>
                                                                <polygon id="Fill-249" fill="#6737A5" points="69.9510158 58.3685367 67.7625167 58.3685367 67.7625167 56.2154465 69.9510158 56.2154465"></polygon>
                                                                <polygon id="Fill-251" fill="#6737A5" points="69.7763776 68.4938499 67.9373023 68.4938499 67.9373023 66.6845308 69.7763776 66.6845308"></polygon>
                                                                <polygon id="Fill-253" fill="#6737A5" points="74.7588729 3.87100276 70.8243559 3.87100276 70.8243559 0.000144745555 74.7588729 0.000144745555"></polygon>
                                                                <polygon id="Fill-255" fill="#6737A5" points="74.5842341 13.9963163 70.9987739 13.9963163 70.9987739 10.4688671 74.5842341 10.4688671"></polygon>
                                                                <polygon id="Fill-257" fill="#6737A5" points="74.4095959 24.1216297 71.1735595 24.1216297 71.1735595 20.9379512 74.4095959 20.9379512"></polygon>
                                                                <polygon id="Fill-259" fill="#6737A5" points="74.2349571 34.2469432 71.3479775 34.2469432 71.3479775 31.4066735 74.2349571 31.4066735"></polygon>
                                                                <polygon id="Fill-261" fill="#6737A5" points="74.0603183 44.3722566 71.5227631 44.3722566 71.5227631 41.8757576 74.0603183 41.8757576"></polygon>
                                                                <polygon id="Fill-263" fill="#6737A5" points="73.8857168 54.4975339 71.6972178 54.4975339 71.6972178 52.3444438 73.8857168 52.3444438"></polygon>
                                                                <polygon id="Fill-265" fill="#6737A5" points="73.711078 64.6228474 71.8720034 64.6228474 71.8720034 62.8135279 73.711078 62.8135279"></polygon>
                                                                <polygon id="Fill-267" fill="#6737A5" points="78.6935366 7.7420055 74.7590196 7.7420055 74.7590196 3.87114751 78.6935366 3.87114751"></polygon>
                                                                <polygon id="Fill-269" fill="#6737A5" points="78.5188978 17.867319 74.9334377 17.867319 74.9334377 14.3398698 78.5188978 14.3398698"></polygon>
                                                                <polygon id="Fill-271" fill="#6737A5" points="78.3442963 27.9926325 75.1082599 27.9926325 75.1082599 24.808954 78.3442963 24.808954"></polygon>
                                                                <polygon id="Fill-273" fill="#6737A5" points="78.1696575 38.1179459 75.2826779 38.1179459 75.2826779 35.2776762 78.1696575 35.2776762"></polygon>
                                                                <polygon id="Fill-275" fill="#6737A5" points="77.9950194 48.2432594 75.4574635 48.2432594 75.4574635 45.7467605 77.9950194 45.7467605"></polygon>
                                                                <polygon id="Fill-277" fill="#6737A5" points="77.8203806 58.3685367 75.6318815 58.3685367 75.6318815 56.2154465 77.8203806 56.2154465"></polygon>
                                                                <polygon id="Fill-279" fill="#6737A5" points="77.6457424 68.4938499 75.8066671 68.4938499 75.8066671 66.6845308 77.6457424 66.6845308"></polygon>
                                                            </g>
                                                        </g>
                                                    </g>
                                                </g>
                                            </g>
                                            <polyline id="Fill-15" fill="#00AF67" points="38.3289339 2.17300744 39.485367 1.19241443 38.3419341 0.635484149 38.3419341 0.631410469 38.3330703 0.631410469 38.3330703 0.635484149 38.3289339 0.637811967 38.3289339 2.17300744"></polyline>
                                            <path d="M38.342525,0.635484149 L38.342525,0.631410469 L38.3330703,0.631410469 L38.3330703,0.635484149 L0.0112275063,19.3080702 C0.0112275063,64.4450287 37.6984207,79.329092 38.3330703,79.5781686 L38.3330703,79.5822421 L38.3377977,79.5799147 L38.342525,79.5822421 L38.342525,79.5781686 C38.9783564,79.329092 76.6643682,64.4450287 76.6643682,19.3080702 L38.342525,0.635484149 M38.342525,76.3448303 L38.342525,76.3471584 L38.3318884,76.3471584 L38.3318884,76.3448303 C37.7504218,76.1161223 3.15138375,62.4477615 3.15138375,21.0131964 L38.3318884,3.86882231 L38.3318884,3.86474864 L38.3377977,3.8664945 L38.342525,3.86474864 L38.342525,3.86882231 L73.5242114,21.0131964 C73.5242114,62.4477615 38.9251735,76.1161223 38.342525,76.3448303" id="Fill-20" fill="#8F52D0"></path>
                                            <g id="Group-20" transform="translate(26.456707, 20.500260)">
                                                <polygon id="Star" fill="#FFE345" points="12.4271773 18.7006645 4.74675934 23.3309102 6.83494751 14.6904378 0 8.91161469 8.97098921 8.20175483 12.4271773 0 15.8833654 8.20175483 24.8543546 8.91161469 18.0194071 14.6904378 20.1075952 23.3309102"></polygon>
                                                <polygon id="Star" fill="#F6C541" points="12.4271773 18.7006645 4.74675934 23.3309102 6.83494751 14.6904378 0 8.91161469 8.97098921 8.20175483 12.4271773 0"></polygon>
                                            </g>
                                            <g id="Group-17" transform="translate(48.694963, 35.553127)">
                                                <polygon id="Star-Copy-2" fill="#FFE345" points="7.85616773 11.8337028 3.00078906 14.7608347 4.32089226 9.29853233 0 5.64529691 5.67124733 5.19654029 7.85616773 0.0115847314 10.0410882 5.19654029 15.7123355 5.64529691 11.3914432 9.29853233 12.7115464 14.7608347"></polygon>
                                                <polygon id="Star-Copy-3" fill="#F6C541" points="7.85616773 11.8337028 3.00078906 14.7608347 4.32089226 9.29853233 0 5.64529691 5.67124733 5.19654029 7.85616773 0.0115847314"></polygon>
                                            </g>
                                            <g id="Group-17-Copy" transform="translate(12.790733, 35.553127)">
                                                <polygon id="Star-Copy-2" fill="#FFE345" points="7.85616773 11.8337028 3.00078906 14.7608347 4.32089226 9.29853233 0 5.64529691 5.67124733 5.19654029 7.85616773 0.0115847314 10.0410882 5.19654029 15.7123355 5.64529691 11.3914432 9.29853233 12.7115464 14.7608347"></polygon>
                                                <polygon id="Star-Copy-3" fill="#F6C541" points="7.85616773 11.8337028 3.00078906 14.7608347 4.32089226 9.29853233 0 5.64529691 5.67124733 5.19654029 7.85616773 0.0115847314"></polygon>
                                            </g>
                                            <path d="M38.342525,0.631410469 L38.3330703,0.631410469 L38.3330703,0.635484149 L38.2982059,0.65177887 L38.2982059,3.88511704 L38.3318884,3.86882231 L38.3318884,3.86474864 L38.3377977,3.8664945 L38.342525,3.86474864 L38.342525,3.86882231 L73.5242114,21.0131964 C73.5242114,62.4477615 38.9251735,76.1161223 38.342525,76.3448303 L38.342525,76.3471584 L38.3318884,76.3471584 L38.3318884,76.3448303 L38.2982059,76.3314459 L38.2982059,79.5647835 L38.3330703,79.5781686 L38.3330703,79.5822421 L38.3377977,79.5799147 L38.342525,79.5822421 L38.342525,79.5781686 C38.9783564,79.329092 76.6643682,64.4450287 76.6643682,19.3080702 L38.342525,0.635484149 L38.342525,0.631410469" id="Fill-21" fill="#5D2F8F"></path>
                                            <path d="M49.3490268,66.9107692 L49.3490268,66.9107692 L50.3654116,68.4191949 L49.3490268,66.9107692 M47.0964345,63.5686056 L47.0964345,63.5686056 L48.3332329,65.4040894 L48.3338239,65.4040894 L47.0964345,63.5686056 M45.2249864,60.7915195 L45.2249864,60.7915195 L46.0806406,62.0613438 L45.2249864,60.7915195 M43.3003555,57.9352878 L43.3003555,57.9352878 L44.2091925,59.2842579 L43.3003555,57.9352878" id="Fill-23" fill="#00A871"></path>
                                            <polyline id="Fill-24" fill="#008F61" points="46.0806406 62.0613438 46.0806406 62.0613438 47.0964345 63.5686056 46.0806406 62.0613438"></polyline>
                                            <polyline id="Fill-25" fill="#008F61" points="48.3338239 65.4040894 48.3332329 65.4040894 49.3490268 66.9107692 48.3338239 65.4040894"></polyline>
                                            <polyline id="Fill-26" fill="#008F61" points="44.2091925 59.2842579 44.2091925 59.2842579 45.2249864 60.7915195 44.2091925 59.2842579"></polyline>
                                            <polyline id="Fill-27" fill="#008F61" points="50.3654116 68.4191949 50.3654116 68.4191949 50.7444312 68.9057085 50.3654116 68.4191949"></polyline>
                                            <path d="M21.2589878,68.4674971 C21.4859016,68.788736 21.7843169,69.0541072 22.1335514,69.2391685 C21.8422272,68.9866004 21.5520848,68.7305402 21.2589878,68.4674971" id="Fill-30" fill="#82D0EF"></path>
                                            <path d="M39.3476823,75.9136025 C38.7508517,76.1836291 38.3968898,76.3232983 38.342525,76.3448303 C38.3968898,76.3238803 38.7508517,76.1842111 39.3476823,75.9141845 L39.3476823,75.9136025" id="Fill-33" fill="#00A871"></path>
                                            <g id="Fill-34"></g>
                                            <polyline id="Fill-36" fill="#0064A0" points="37.9483805 49.9939393 37.9483805 49.9939393 37.9577911 50.0084767 37.9483805 49.9939393"></polyline>
                                            <polyline id="Fill-37" fill="#005296" points="38.8400809 48.6705751 37.9483805 49.9939393 37.9525169 50.0003407 38.8400809 48.6705751"></polyline>
                                            <path d="M42.4094851,44.4205628 C42.271501,44.5500305 42.1474899,44.6742139 42.0304654,44.7957551 C42.1920291,44.6610029 42.3239,44.5341773 42.4094851,44.4205628" id="Fill-39" fill="#1D0706"></path>
                                            <path d="M28.3754541,42.8597613 L28.2661336,43.1274603 L28.3760449,42.8603432 L28.3754541,42.8597613 M28.7755078,41.8878976 L28.7524619,41.9437652 L28.7755078,41.8878976 M28.7548256,39.8079929 L28.5515486,40.9323286 L28.7548256,39.8085749 C28.7548256,39.8085749 28.7548256,39.8085749 28.7548256,39.8079929" id="Fill-48" fill="#00A871"></path>
                                        </g>
                                    </g>
                                </g>
                            </g>
                        </g>
                    </g>
                </g>
            </g>
        </g>
    </g>
</svg>