<?xml version="1.0" encoding="UTF-8"?>
<svg width="77px" height="80px" viewBox="0 0 77 80" version="1.1" xmlns="http://www.w3.org/2000/svg" xmlns:xlink="http://www.w3.org/1999/xlink">
    <!-- Generator: Sketch 39.1 (31720) - http://www.bohemiancoding.com/sketch -->
    <title>Badge</title>
    <desc>Created with Sketch.</desc>
    <defs></defs>
    <g id="Page-1" stroke="none" stroke-width="1" fill="none" fill-rule="evenodd">
        <g id="Landing_new-03-1920" transform="translate(-637.000000, -2067.000000)">
            <g id="Modes" transform="translate(-1.000000, 1593.000000)">
                <g id="Group-10-Copy" transform="translate(617.000000, 452.000000)">
                    <g id="Badge" transform="translate(59.500000, 62.000000) scale(-1, 1) translate(-59.500000, -62.000000) translate(21.000000, 22.000000)">
                        <path d="M38.5637845,0.178823529 L38.5637845,0.174117647 L38.5543282,0.174117647 L38.5543282,0.178823529 L0.226359072,19.0529412 C0.226359072,64.6758824 37.9195772,79.7205882 38.5543282,79.9723529 L38.5543282,79.9770588 C38.5543282,79.9770588 38.5566923,79.9747059 38.5590564,79.9747059 C38.5614204,79.9747059 38.5637845,79.9770588 38.5637845,79.9770588 L38.5637845,79.9723529 C39.1997176,79.7205882 76.8923447,64.6758824 76.8923447,19.0529412 L38.5637845,0.178823529" id="Fill-1" fill="#3498DB"></path>
                        <path d="M38.5756048,0.184705882 L38.5637845,0.178823529 L38.5637845,0.174117647 L38.5543282,0.174117647 L38.5543282,0.178823529 L0.226359072,19.0529412 C0.226359072,64.6758824 37.9195772,79.7205882 38.5543282,79.9723529 L38.5543282,79.9770588 C38.5543282,79.9770588 38.5566923,79.9747059 38.5590564,79.9747059 C38.5614204,79.9747059 38.5637845,79.9770588 38.5637845,79.9770588 L38.5637845,79.9723529 C38.5661486,79.9723529 38.5726497,79.9688235 38.5756048,79.9676471 L38.5756048,0.184705882" id="Fill-2" fill="#1378BA"></path>
                        <path d="M38.5637845,0.178823529 L38.5637845,0.174117647 L38.5543282,0.174117647 L38.5543282,0.178823529 L0.226359072,19.0529412 C0.226359072,64.6758824 37.9195772,79.7205882 38.5543282,79.9723529 L38.5543282,79.9770588 C38.5543282,79.9770588 38.5566923,79.9747059 38.5590564,79.9747059 C38.5614204,79.9747059 38.5637845,79.9770588 38.5637845,79.9770588 L38.5637845,79.9723529 C39.1997176,79.7205882 76.8923447,64.6758824 76.8923447,19.0529412 L38.5637845,0.178823529 L38.5637845,0.178823529 Z M38.3480637,77.4011765 L38.3480637,77.4035294 L38.3433356,77.4035294 L38.3380164,77.4035294 L38.3380164,77.4011765 C37.7446365,77.1647059 2.4828576,63.0870588 2.4828576,20.4094118 L38.3380164,2.75 L38.3380164,2.74647059 L38.3433356,2.74882353 L38.3480637,2.74647059 L38.3480637,2.75 L74.2044046,20.4094118 C74.2044046,63.0870588 38.9426257,77.1647059 38.3480637,77.4011765 L38.3480637,77.4011765 Z" id="Fill-3" fill="#1378BA"></path>
                        <path d="M38.5637845,0.174117647 L38.5543282,0.174117647 L38.5543282,0.178823529 L38.5159122,0.197058824 L38.2966453,2.77058824 L38.3380164,2.75 L38.3380164,2.74647059 L38.3433356,2.74882353 L38.3480637,2.74647059 L38.3480637,2.75 L74.2044046,20.4094118 C74.2044046,63.0870588 38.9426257,77.1647059 38.3480637,77.4011765 L38.3480637,77.4035294 L38.3433356,77.4035294 L38.3380164,77.4035294 L38.3380164,77.4011765 C38.3309243,77.3976471 38.3137848,77.3905882 38.2966453,77.3841176 L38.5159122,79.9576471 C38.5306876,79.9629412 38.5478271,79.97 38.5543282,79.9723529 L38.5543282,79.9770588 C38.5543282,79.9770588 38.5566923,79.9747059 38.5590564,79.9747059 C38.5614204,79.9747059 38.5637845,79.9770588 38.5637845,79.9770588 L38.5637845,79.9723529 C39.1997176,79.7205882 76.8923447,64.6758824 76.8923447,19.0529412 L38.5637845,0.178823529 L38.5637845,0.174117647" id="Fill-4" fill="#3498DB"></path>
                        <path d="M38.5631935,1.55823529 L38.5631935,1.55529412 L38.5543282,1.55529412 L38.5543282,1.55823529 L1.55259865,19.78 C1.55259865,63.8247059 37.9414448,78.3488235 38.5543282,78.5923529 L38.5543282,78.5958824 C38.5543282,78.5958824 38.5566923,78.5935294 38.5590564,78.5935294 C38.5614204,78.5935294 38.5631935,78.5958824 38.5631935,78.5958824 L38.5631935,78.5923529 C39.17785,78.3488235 75.5649231,63.8247059 75.5649231,19.78 L38.5631935,1.55823529 L38.5631935,1.55823529 Z M38.5631935,76.6270588 L38.5631935,76.6294118 L38.5590564,76.6294118 L38.5531462,76.6294118 L38.5531462,76.6270588 C37.9727686,76.3958824 3.44266735,62.6088235 3.44266735,20.8176471 L38.5531462,3.52411765 L38.5531462,3.52058824 L38.5590564,3.52294118 L38.5631935,3.52058824 L38.5631935,3.52411765 L73.6754454,20.8176471 C73.6754454,62.6088235 39.1453441,76.3958824 38.5631935,76.6270588 L38.5631935,76.6270588 Z" id="Fill-5" fill="#3498DB"></path>
                        <path d="M75.5649231,19.78 L38.5631935,1.55823529 L38.5631935,1.55529412 L38.5543282,1.55529412 L38.5543282,1.55823529 L38.5159122,1.57823529 L38.5159122,3.54294118 L38.5531462,3.52411765 L38.5531462,3.52058824 L38.5590564,3.52294118 L38.5631935,3.52058824 L38.5631935,3.52411765 L73.6754454,20.8176471 C73.6754454,62.6088235 39.1453441,76.3958824 38.5631935,76.6270588 L38.5631935,76.6294118 L38.5590564,76.6294118 L38.5531462,76.6294118 L38.5531462,76.6270588 C38.5472361,76.6235294 38.5306876,76.6176471 38.5159122,76.6117647 L38.5159122,78.5764706 C38.5312786,78.5835294 38.5478271,78.5894118 38.5543282,78.5923529 L38.5543282,78.5958824 C38.5543282,78.5958824 38.5566923,78.5935294 38.5590564,78.5935294 C38.5614204,78.5935294 38.5631935,78.5958824 38.5631935,78.5958824 L38.5631935,78.5923529 C39.17785,78.3488235 75.5649231,63.8247059 75.5649231,19.78" id="Fill-6" fill="#1378BA"></path>
                        <path d="M54.5353969,48.4452941 C55.4887055,47.9076471 55.5921333,47.1035294 55.5921333,47.1035294 C55.5921333,47.1035294 54.7292501,46.8394118 53.8143576,47.36 C53.6512372,47.4523529 53.5188497,47.5570588 53.3976914,47.6641176 C53.5418993,47.3476471 53.6654216,47.0305882 53.7712134,46.7164706 C54.0265323,46.7470588 54.836815,46.7905882 55.6015895,46.2635294 C56.5277114,45.6252941 56.5153001,44.7470588 56.5153001,44.7470588 C56.5153001,44.7470588 55.5608095,44.5158824 54.6701486,45.1341176 C54.3758227,45.3388235 54.1742863,45.5811765 54.0288964,45.8141176 C54.126414,45.3994118 54.1967449,44.9935294 54.2446171,44.6029412 C54.46152,44.5841176 55.3421336,44.4652941 55.99166,43.7435294 C56.7428412,42.91 56.4810211,42.0576471 56.4810211,42.0576471 C56.4810211,42.0576471 55.4526536,42.0511765 54.7339783,42.8564706 C54.5353969,43.0788235 54.4106926,43.3123529 54.3261773,43.5347059 C54.3374066,43.1747059 54.3314965,42.8370588 54.315539,42.5258824 C54.5986356,42.4470588 55.3805496,42.1705882 55.8604545,41.4094118 C56.4603356,40.4564706 56.0265299,39.6482353 56.0265299,39.6482353 C56.0265299,39.6482353 54.9810229,39.8076471 54.4112836,40.7247059 C54.3013547,40.9017647 54.2339789,41.0776471 54.1849245,41.2488235 C54.1175487,40.8247059 54.051355,40.5676471 54.0424897,40.5323529 C54.2913074,40.4129412 54.8161295,40.1 55.0708573,39.4882353 C55.4166016,38.6611765 54.947335,38.0735294 54.947335,38.0735294 C54.947335,38.0735294 54.127005,38.3235294 53.8013553,39.1164706 C53.7268873,39.2982353 53.6961544,39.4729412 53.6866982,39.6370588 C53.6098661,39.4835294 53.5158946,39.3258824 53.381734,39.17 C52.712113,38.3870588 51.8681424,38.4017647 51.8681424,38.4017647 C51.8681424,38.4017647 51.7085681,39.2064706 52.3510023,39.9464706 C52.784808,40.4458824 53.342727,40.6417647 53.6589204,40.7188235 C53.6878802,40.8364706 53.7457998,41.0958824 53.8001732,41.4647059 C53.6583294,41.2888235 53.4751145,41.1111765 53.2369351,40.9482353 C52.2794894,40.2947059 51.3651879,40.5170588 51.3651879,40.5170588 C51.3651879,40.5170588 51.4248805,41.3947059 52.339182,42.0094118 C52.9095123,42.3929412 53.5271239,42.4805882 53.905374,42.4935294 C53.9290147,42.8829412 53.9361069,43.3188235 53.9136483,43.7882353 C53.7753506,43.5276471 53.5596298,43.2388235 53.2203867,42.9776471 C52.2972199,42.2647059 51.3551406,42.4394118 51.3551406,42.4394118 C51.3551406,42.4394118 51.3533676,43.33 52.2363453,44 C52.8167228,44.4405882 53.4733415,44.5529412 53.8480455,44.5788235 C53.793672,45.0482353 53.7038376,45.5405882 53.5708591,46.0423529 C53.4898899,45.7305882 53.3232234,45.3488235 52.9627038,44.9805882 C52.1654234,44.1623529 51.2109328,44.2223529 51.2109328,44.2223529 C51.2109328,44.2223529 51.0749991,45.1041176 51.8415467,45.8764706 C52.3693238,46.4070588 53.0330346,46.59 53.3882352,46.6535294 C53.2458004,47.08 53.0673136,47.5111765 52.8480467,47.9388235 C52.8049025,47.6223529 52.6819712,47.2176471 52.3557305,46.8152941 C51.6589228,45.9541176 50.7233447,45.9352941 50.7233447,45.9352941 C50.7233447,45.9352941 50.5028958,46.7870588 51.1742898,47.6005882 C51.6140056,48.1352941 52.2067945,48.37 52.5549028,48.4676471 C52.3835082,48.7535294 52.1949742,49.0370588 51.9810264,49.3152941 C51.928426,49.3841176 51.8752346,49.45 51.8220432,49.5182353 C51.8037217,49.2005882 51.705022,48.7470588 51.3391832,48.2929412 C50.6731083,47.4611765 49.7688541,47.4364706 49.7688541,47.4364706 C49.7688541,47.4364706 49.5495872,48.2494118 50.1920214,49.0358824 C50.6205079,49.5611765 51.1991124,49.7864706 51.5318544,49.88 C51.1423749,50.3547059 50.7499404,50.7917647 50.3575059,51.1941176 C50.3941489,50.8888235 50.3746453,50.4547059 50.1210995,49.9852941 C49.6411947,49.1 48.7942689,48.9470588 48.7942689,48.9470588 C48.7942689,48.9470588 48.4390684,49.6952941 48.9036069,50.5358824 C49.2156632,51.1017647 49.7263009,51.3976471 50.0223999,51.5311765 C49.5596345,51.9847059 49.1010062,52.3911765 48.6536072,52.7541176 C48.7735834,52.4588235 48.8811483,52.0152941 48.7564439,51.4841176 C48.5283118,50.5111765 47.7475799,50.19 47.7475799,50.19 C47.7475799,50.19 47.2038453,50.8582353 47.4307954,51.7864706 C47.5927337,52.4505882 48.0578632,52.8582353 48.3007707,53.0329412 C47.9142463,53.33 47.5407243,53.5929412 47.1807957,53.8294118 C47.2611738,53.5776471 47.3125922,53.23 47.2056183,52.8294118 C46.9822143,51.9976471 46.2942719,51.7311765 46.2942719,51.7311765 C46.2942719,51.7311765 45.8380076,52.3147059 46.0596386,53.1076471 C46.1961632,53.6011765 46.5277231,53.9270588 46.7534912,54.1005882 C46.3255957,54.3641176 45.925478,54.5847059 45.5614122,54.7682353 C45.6205138,54.5 45.6423814,54.1194118 45.4638946,53.69 C45.1205144,52.8629412 44.3722883,52.6558824 44.3722883,52.6558824 C44.3722883,52.6558824 43.9780807,53.2882353 44.3137777,54.0752941 C44.5076309,54.5317647 44.8545573,54.8211765 45.1092851,54.9864706 C44.8320986,55.1141176 44.585054,55.2182353 44.3711063,55.3011765 C40.0566905,57.0694118 35.3350649,57.4894118 33.1282117,57.5858824 C32.9089448,57.72 32.7936967,58.4388235 32.9024436,58.5429412 C36.5348271,58.2270588 40.5466427,57.2905882 45.1825711,55.4041176 C45.3439184,55.6864706 45.703847,56.1570588 46.4449809,56.44 C47.5407243,56.8611765 48.4402504,56.4682353 48.4402504,56.4682353 C48.4402504,56.4682353 48.2404871,55.6464706 47.1902519,55.2376471 C46.6884794,55.0417647 46.18848,55.0176471 45.7995916,55.0447059 C45.8196861,55.0305882 45.8397807,55.0141176 45.8604662,54.9994118 C46.1471089,54.8523529 46.4550282,54.6847059 46.7783139,54.4911765 C46.9473444,54.6941176 47.4579821,55.2064706 48.4278391,55.3541176 C49.6335115,55.5382353 50.4154254,54.9776471 50.4154254,54.9776471 C50.4154254,54.9776471 49.9857569,54.2247059 48.8261838,54.0423529 C48.2280757,53.95 47.6896603,54.0470588 47.304909,54.1635294 C47.6985255,53.91 48.1104636,53.6223529 48.536586,53.2941176 C48.7280752,53.4688235 49.3232281,53.93 50.3338652,53.9641176 C51.5732255,54.0076471 52.2729883,53.3558824 52.2729883,53.3558824 C52.2729883,53.3558824 51.7233435,52.6588235 50.5277184,52.6147059 C49.9006506,52.5911765 49.3687363,52.7588235 48.9987604,52.9241176 C49.4219278,52.5770588 49.8551424,52.1911765 50.2907211,51.7629412 C50.5147161,51.97 51.0850464,52.3958824 52.0259436,52.4511765 C53.2658949,52.5229412 53.9904803,51.8794118 53.9904803,51.8794118 C53.9904803,51.8794118 53.4686133,51.1547059 52.2741703,51.0817647 C51.6039583,51.0417647 51.03481,51.2241176 50.6577419,51.3935294 C51.0223987,51.0176471 51.3882375,50.6117647 51.7523033,50.1735294 C52.0253526,50.3152941 52.6861083,50.5823529 53.5643579,50.4058824 C54.7262951,50.1729412 55.1807863,49.3782353 55.1807863,49.3782353 C55.1807863,49.3782353 54.4597469,48.8135294 53.3385898,49.0394118 C52.9307889,49.1211765 52.5927278,49.2835294 52.3255887,49.4570588 C52.4975743,49.2317647 52.6553755,49.0029412 52.8007654,48.7729412 C53.0708597,48.8141176 53.7859888,48.8694118 54.5353969,48.4452941" id="Fill-14" fill="#FFFFFF"></path>
                        <path d="M22.3646309,48.4088235 C21.4119134,47.8711765 21.3078946,47.0670588 21.3078946,47.0670588 C21.3078946,47.0670588 22.1707777,46.8029412 23.0856703,47.3229412 C23.2487907,47.4152941 23.3811782,47.52 23.5029275,47.6276471 C23.3587196,47.3111765 23.2351973,46.9941176 23.1288144,46.68 C22.8734956,46.71 22.0632129,46.7535294 21.2984383,46.2264706 C20.3729075,45.5882353 20.3847278,44.7105882 20.3847278,44.7105882 C20.3847278,44.7105882 21.3392184,44.4788235 22.2298793,45.0970588 C22.5242052,45.3023529 22.7257416,45.5447059 22.8711315,45.7770588 C22.7736139,45.3623529 22.703283,44.9570588 22.6554107,44.5664706 C22.4385079,44.5476471 21.5584853,44.4282353 20.9083679,43.7070588 C20.1571867,42.8735294 20.4190068,42.0211765 20.4190068,42.0211765 C20.4190068,42.0211765 21.4473743,42.0147059 22.1660496,42.82 C22.3646309,43.0423529 22.4899263,43.2752941 22.5738506,43.4976471 C22.5626213,43.1376471 22.5691224,42.8005882 22.5844888,42.4888235 C22.3013922,42.4105882 21.5194783,42.1341176 21.0401644,41.3723529 C20.4396923,40.42 20.8734979,39.6117647 20.8734979,39.6117647 C20.8734979,39.6117647 21.919005,39.7705882 22.4887443,40.6882353 C22.5986732,40.8652941 22.66664,41.0411765 22.7156944,41.2123529 C22.7824792,40.7882353 22.8486729,40.5305882 22.8581292,40.4958824 C22.6087205,40.3764706 22.0838984,40.0629412 21.8291706,39.4511765 C21.4840173,38.6241176 21.9532839,38.0364706 21.9532839,38.0364706 C21.9532839,38.0364706 22.7730229,38.2870588 23.0986726,39.08 C23.1731406,39.2611765 23.2044645,39.4364706 23.2133297,39.6 C23.2901618,39.4470588 23.3841333,39.2894118 23.5182939,39.1329412 C24.1885059,38.35 25.0324765,38.3652941 25.0324765,38.3652941 C25.0324765,38.3652941 25.1914598,39.17 24.5490255,39.91 C24.1158109,40.4088235 23.5573009,40.6047059 23.2411075,40.6817647 C23.2121477,40.7994118 23.1548191,41.0594118 23.0998547,41.4282353 C23.2416985,41.2523529 23.4249134,41.0741176 23.6630928,40.9117647 C24.6205385,40.2582353 25.53484,40.48 25.53484,40.48 C25.53484,40.48 25.4757384,41.3582353 24.5614369,41.9729412 C23.9911066,42.3564706 23.372904,42.4435294 22.9946538,42.4570588 C22.9710132,42.8464706 22.963921,43.2817647 22.9869706,43.7511765 C23.1246773,43.4911765 23.3403981,43.2017647 23.6796412,42.9405882 C24.602808,42.2276471 25.5454783,42.4023529 25.5454783,42.4023529 C25.5454783,42.4023529 25.5472513,43.2935294 24.6636826,43.9629412 C24.083305,44.4035294 23.4272775,44.5164706 23.0519824,44.5423529 C23.1069469,45.0117647 23.1961903,45.5035294 23.3297598,46.0052941 C23.410138,45.6941176 23.5773955,45.3117647 23.9373241,44.9435294 C24.7351955,44.1258824 25.6890951,44.1852941 25.6890951,44.1852941 C25.6890951,44.1852941 25.8250288,45.0670588 25.0584812,45.84 C24.5307041,46.37 23.8669932,46.5535294 23.5117927,46.6164706 C23.6542275,47.0435294 23.8327143,47.4741176 24.0519812,47.9023529 C24.0957164,47.5858824 24.2186477,47.1805882 24.5442974,46.7782353 C25.2411051,45.9176471 26.1766832,45.8982353 26.1766832,45.8982353 C26.1766832,45.8982353 26.3971321,46.7505882 25.7257381,47.5635294 C25.2860223,48.0988235 24.6932334,48.3329412 24.3451251,48.4305882 C24.5165197,48.7164706 24.7056447,49.0005882 24.9190015,49.2782353 C24.9716019,49.3476471 25.0253843,49.4135294 25.0785757,49.4811765 C25.0963062,49.1635294 25.1950059,48.7105882 25.5608447,48.2558824 C26.2269196,47.4241176 27.1311738,47.3994118 27.1311738,47.3994118 C27.1311738,47.3994118 27.3504407,48.2129412 26.7080065,48.9994118 C26.27952,49.5241176 25.7009154,49.7494118 25.3681735,49.8429412 C25.757653,50.3176471 26.1500875,50.7547059 26.542522,51.1576471 C26.5064701,50.8517647 26.5253826,50.4182353 26.7795194,49.9482353 C27.2588332,49.0629412 28.10635,48.9105882 28.10635,48.9105882 C28.10635,48.9105882 28.4609595,49.6588235 27.996421,50.4994118 C27.6843647,51.0652941 27.174318,51.3605882 26.878219,51.4941176 C27.3403934,51.9482353 27.7990217,52.3547059 28.2464207,52.7170588 C28.1264445,52.4217647 28.0188796,51.9782353 28.143584,51.4476471 C28.3717161,50.4747059 29.152448,50.1535294 29.152448,50.1535294 C29.152448,50.1535294 29.6961826,50.8217647 29.4692325,51.75 C29.3072942,52.4141176 28.8427557,52.8217647 28.5998482,52.9964706 C28.9857816,53.2935294 29.3593036,53.5564706 29.7192322,53.7923529 C29.6388541,53.5411765 29.5880267,53.1935294 29.6944096,52.7923529 C29.9178136,51.9605882 30.605756,51.6947059 30.605756,51.6947059 C30.605756,51.6947059 31.0626113,52.2776471 30.8409803,53.0711765 C30.7038647,53.5647059 30.3728958,53.89 30.1465367,54.0635294 C30.5744322,54.3270588 30.9745499,54.5476471 31.3386157,54.7311765 C31.2795141,54.4635294 31.2582375,54.0823529 31.4361333,53.6535294 C31.7801045,52.8264706 32.5277396,52.6188235 32.5277396,52.6188235 C32.5277396,52.6188235 32.9219472,53.2511765 32.5868412,54.0382353 C32.392988,54.4952941 32.0460617,54.7847059 31.7907428,54.9494118 C32.0679292,55.0776471 32.3155649,55.1817647 32.5289216,55.2641176 C36.8433373,57.0323529 41.564963,57.4529412 43.7724072,57.5488235 C43.9916741,57.6835294 44.1063312,58.4017647 43.9975843,58.5064706 C40.3652008,58.1905882 36.3539762,57.2535294 31.7174568,55.3670588 C31.5567005,55.65 31.1961809,56.12 30.455047,56.4035294 C29.3593036,56.8247059 28.4597775,56.4317647 28.4597775,56.4317647 C28.4597775,56.4317647 28.6595408,55.6094118 29.710367,55.2011765 C30.2115484,55.0052941 30.7115479,54.9811765 31.1004363,55.0082353 C31.0803417,54.9935294 31.0602472,54.9776471 31.0401527,54.9629412 C30.752919,54.8158824 30.4455907,54.6476471 30.121714,54.4541176 C29.9532745,54.6570588 29.4420458,55.1694118 28.4721888,55.3176471 C27.2671075,55.5017647 26.4851935,54.9405882 26.4851935,54.9405882 C26.4851935,54.9405882 26.914271,54.1876471 28.0738441,54.0058824 C28.6719521,53.9129412 29.2103676,54.01 29.5951189,54.1270588 C29.2015023,53.8729412 28.7895643,53.5858824 28.3634419,53.2570588 C28.1719527,53.4317647 27.5767998,53.8929412 26.5661627,53.9276471 C25.3273934,53.9705882 24.6270396,53.3194118 24.6270396,53.3194118 C24.6270396,53.3194118 25.1772754,52.6217647 26.3723095,52.5782353 C26.9999683,52.5547059 27.5312915,52.7223529 27.9012675,52.8870588 C27.4781001,52.54 27.0454765,52.1541176 26.6093068,51.7264706 C26.3859028,51.9329412 25.8155725,52.3594118 24.8740843,52.4147059 C23.634133,52.4864706 22.9095476,51.8429412 22.9095476,51.8429412 C22.9095476,51.8429412 23.4314146,51.1176471 24.6258576,51.0447059 C25.2966606,51.0047059 25.8658089,51.1876471 26.242286,51.3570588 C25.8776292,50.9805882 25.5117904,50.5752941 25.1477246,50.1364706 C24.8746753,50.2788235 24.2139196,50.5458824 23.33567,50.3694118 C22.1743238,50.1358824 21.7192416,49.3417647 21.7192416,49.3417647 C21.7192416,49.3417647 22.440281,48.7770588 23.5614381,49.0029412 C23.96983,49.0841176 24.3073001,49.2470588 24.5744392,49.4205882 C24.4024536,49.1952941 24.2452434,48.9658824 24.0992625,48.7364706 C23.8291682,48.7776471 23.114039,48.8329412 22.3646309,48.4088235" id="Fill-15" fill="#FFFFFF" opacity="0.765858209"></path>
                        <polyline id="Fill-18" fill="#FFFFFF" opacity="0.701784049" points="55.1589187 28.2441176 57.8007595 24.2529412 43.056096 26.7541176 38.655392 43.2529412 34.2546879 26.7541176 19.5112064 24.2529412 22.1518652 28.2441176 31.3386157 29.4682353 32.4792763 33.0194118 26.6075338 32.4470588 28.5324724 35.6394118 33.4644997 36.0888235 38.6488908 52.0782353 43.8468752 36.0888235 48.7783115 35.6394118 50.7032501 32.4470588 44.8303256 33.0194118 45.9715772 29.4682353 55.1589187 28.2441176"></polyline>
                        <polyline id="Fill-19" fill="#FFFFFF" points="55.1589187 28.2441176 57.8007595 24.2529412 43.056096 26.7541176 38.655392 43.2529412 38.6240681 43.1341176 38.6240681 52.0017647 38.6488908 52.0782353 43.8468752 36.0888235 48.7783115 35.6394118 50.7032501 32.4470588 44.8303256 33.0194118 45.9715772 29.4682353 55.1589187 28.2441176"></polyline>
                    </g>
                </g>
            </g>
        </g>
    </g>
</svg>